<?xml version="1.0" encoding="utf-8"?>
<!-- Generator: Adobe Illustrator 24.1.0, SVG Export Plug-In . SVG Version: 6.00 Build 0)  -->
<svg version="1.1" id="Layer_1" xmlns="http://www.w3.org/2000/svg" xmlns:xlink="http://www.w3.org/1999/xlink" x="0px" y="0px"
	 viewBox="0 0 175 175" style="enable-background:new 0 0 175 175;" xml:space="preserve">
<style type="text/css">
	.st0{fill:#FFC400;}
</style>
<g>
	<path class="st0" d="M67.1,105C51,105,37.9,118,37.9,134.1s13.1,29.2,29.2,29.2s29.2-13.1,29.2-29.2C96.3,118,83.2,105,67.1,105z
		 M67.1,157.5c-12.9,0-23.3-10.5-23.3-23.3s10.5-23.3,23.3-23.3s23.3,10.5,23.3,23.3C90.4,147,80,157.5,67.1,157.5z"/>
	<path class="st0" d="M67.1,125.4c3.6,0,5.8,1.7,5.8,2.9h5.8c0-4.1-3.7-7.5-8.8-8.5v-3.2h-5.8v3.2c-5.1,1-8.8,4.3-8.8,8.5
		c0,4.9,5.1,8.8,11.7,8.8c3.6,0,5.8,1.7,5.8,2.9s-2.3,2.9-5.8,2.9c-3.6,0-5.8-1.7-5.8-2.9h-5.8c0,4.1,3.7,7.5,8.8,8.5v3.2H70v-3.2
		c5.1-1,8.8-4.3,8.8-8.5c0-4.9-5.1-8.8-11.7-8.8c-3.6,0-5.8-1.7-5.8-2.9C61.3,127.1,63.6,125.4,67.1,125.4z"/>
	<path class="st0" d="M148.8,169.2H26.3v-70H73c4.8,0,8.8-3.9,8.8-8.8v-73h32.1v35h35v40.9h5.8v-45l-36.7-36.7H81.7V8.7
		c0-4.8-3.9-8.8-8.8-8.8H8.8C3.9-0.1,0,3.8,0,8.7v81.7c0,4.8,3.9,8.8,8.8,8.8h11.7V175h134.2v-40.9h-5.8V169.2z M119.6,21.5
		l25.1,25.1h-25.1V21.5z M5.8,90.4V8.7c0-1.6,1.3-2.9,2.9-2.9H73c1.6,0,2.9,1.3,2.9,2.9v81.7c0,1.6-1.3,2.9-2.9,2.9H8.8
		C7.1,93.3,5.8,92,5.8,90.4z"/>
	<path class="st0" d="M73,8.7H8.8v20.4H73V8.7z M67.1,23.2H14.6v-8.8h52.5V23.2z"/>
	<path class="st0" d="M23.3,32h-5.8c-3.2,0-5.8,2.6-5.8,5.8v5.8c0,3.2,2.6,5.8,5.8,5.8h5.8c3.2,0,5.8-2.6,5.8-5.8v-5.8
		C29.2,34.6,26.6,32,23.3,32z M17.5,43.7v-5.8h5.8v5.8H17.5z"/>
	<path class="st0" d="M43.8,32h-5.8c-3.2,0-5.8,2.6-5.8,5.8v5.8c0,3.2,2.6,5.8,5.8,5.8h5.8c3.2,0,5.8-2.6,5.8-5.8v-5.8
		C49.6,34.6,47,32,43.8,32z M37.9,43.7v-5.8h5.8v5.8H37.9z"/>
	<path class="st0" d="M64.2,32h-5.8c-3.2,0-5.8,2.6-5.8,5.8v5.8c0,3.2,2.6,5.8,5.8,5.8h5.8c3.2,0,5.8-2.6,5.8-5.8v-5.8
		C70,34.6,67.4,32,64.2,32z M58.4,43.7v-5.8h5.8v5.8H58.4z"/>
	<path class="st0" d="M23.3,52.4h-5.8c-3.2,0-5.8,2.6-5.8,5.8v5.8c0,3.2,2.6,5.8,5.8,5.8h5.8c3.2,0,5.8-2.6,5.8-5.8v-5.8
		C29.2,55,26.6,52.4,23.3,52.4z M17.5,64.1v-5.8h5.8v5.8H17.5z"/>
	<path class="st0" d="M43.8,52.4h-5.8c-3.2,0-5.8,2.6-5.8,5.8v5.8c0,3.2,2.6,5.8,5.8,5.8h5.8c3.2,0,5.8-2.6,5.8-5.8v-5.8
		C49.6,55,47,52.4,43.8,52.4z M37.9,64.1v-5.8h5.8v5.8H37.9z"/>
	<path class="st0" d="M64.2,52.4h-5.8c-3.2,0-5.8,2.6-5.8,5.8v5.8c0,3.2,2.6,5.8,5.8,5.8h5.8c3.2,0,5.8-2.6,5.8-5.8v-5.8
		C70,55,67.4,52.4,64.2,52.4z M58.4,64.1v-5.8h5.8v5.8H58.4z"/>
	<path class="st0" d="M23.3,72.9h-5.8c-3.2,0-5.8,2.6-5.8,5.8v5.8c0,3.2,2.6,5.8,5.8,5.8h5.8c3.2,0,5.8-2.6,5.8-5.8v-5.8
		C29.2,75.5,26.6,72.9,23.3,72.9z M17.5,84.5v-5.8h5.8v5.8H17.5z"/>
	<path class="st0" d="M43.8,72.9h-5.8c-3.2,0-5.8,2.6-5.8,5.8v5.8c0,3.2,2.6,5.8,5.8,5.8h5.8c3.2,0,5.8-2.6,5.8-5.8v-5.8
		C49.6,75.5,47,72.9,43.8,72.9z M37.9,84.5v-5.8h5.8v5.8H37.9z"/>
	<path class="st0" d="M64.2,72.9h-5.8c-3.2,0-5.8,2.6-5.8,5.8v5.8c0,3.2,2.6,5.8,5.8,5.8h5.8c3.2,0,5.8-2.6,5.8-5.8v-5.8
		C70,75.5,67.4,72.9,64.2,72.9z M58.4,84.5v-5.8h5.8v5.8H58.4z"/>
	<path class="st0" d="M172.4,93c-3.5-3.3-8.9-3.3-12.4,0l-50,50c-0.2,0.2-0.4,0.5-0.6,0.8l-7,15.3c-0.5,1.1-0.3,2.4,0.6,3.3
		c0.9,0.9,2.2,1.1,3.3,0.6l15.3-7c0.3-0.1,0.6-0.3,0.8-0.6l50-50C175.9,102,175.9,96.4,172.4,93z M118.7,150.9l-7.6,3.5l3.5-7.6
		l37.3-37.3l4.1,4.1L118.7,150.9z M160.1,109.5l-4.1-4.1l2-2l4.1,4.1L160.1,109.5z M168.3,101.3l-2.1,2.1l-4.1-4.1l2.1-2.1
		c1.2-1.1,3-1.1,4.1,0C169.5,98.3,169.5,100.1,168.3,101.3z"/>
</g>
</svg>
