<svg id="Layer_1" data-name="Layer 1" xmlns="http://www.w3.org/2000/svg" viewBox="0 0 325.8 266.8"><path d="M77.8,124.9H45c-4.3,0-7.9,3-7.9,6.7V326.7c0,3.7,3.5,6.7,7.9,6.7H77.9c4.3,0,7.9-3,7.9-6.7V131.6C85.7,127.8,82.2,124.9,77.8,124.9Zm-2,198.9H47V134.5H75.7l.1,189.3Z" transform="translate(-37.1 -66.6)" style="fill:#fcc400"/><rect x="21.3" y="86" width="17.4" height="7.7" style="fill:#fcc400"/><rect x="22.3" y="111" width="17.4" height="7.7" style="fill:#fcc400"/><rect x="22.3" y="133.8" width="17.4" height="7.7" style="fill:#fcc400"/><path d="M100.3,115.3H354.2c4.9,0,8.7-3.6,8.7-7.9V74.5c0-4.4-3.9-7.9-8.7-7.9H100.3c-4.9,0-8.7,3.6-8.7,7.9v32.8C91.6,111.7,95.4,115.2,100.3,115.3Zm250.1-10.1H104.1V76.5H350.4v28.7Z" transform="translate(-37.1 -66.6)" style="fill:#fcc400"/><rect x="90.6" y="21.3" width="10" height="17.4" style="fill:#fcc400"/><rect x="123.1" y="22.3" width="10" height="17.4" style="fill:#fcc400"/><rect x="152.8" y="22.3" width="10" height="17.4" style="fill:#fcc400"/><path d="M224.9,217.6a3.8,3.8,0,0,0-3.8,3.8v75.8a3.8,3.8,0,0,0,7.6,0V221.4A3.93,3.93,0,0,0,224.9,217.6Z" transform="translate(-37.1 -66.6)" style="fill:#fcc400"/><path d="M205.9,217.6a3.8,3.8,0,0,0-3.8,3.8v75.8a3.8,3.8,0,0,0,7.6,0V221.4A3.8,3.8,0,0,0,205.9,217.6Z" transform="translate(-37.1 -66.6)" style="fill:#fcc400"/><path d="M187,217.6a3.8,3.8,0,0,0-3.8,3.8v75.8a3.8,3.8,0,1,0,7.6,0V221.4A3.8,3.8,0,0,0,187,217.6Z" transform="translate(-37.1 -66.6)" style="fill:#fcc400"/><path d="M168,217.6a3.8,3.8,0,0,0-3.8,3.8v75.8a3.8,3.8,0,1,0,7.6,0V221.4A3.8,3.8,0,0,0,168,217.6Z" transform="translate(-37.1 -66.6)" style="fill:#fcc400"/><path d="M149.1,217.6a3.8,3.8,0,0,0-3.8,3.8v75.8a3.8,3.8,0,0,0,7.6,0V221.4A3.8,3.8,0,0,0,149.1,217.6Z" transform="translate(-37.1 -66.6)" style="fill:#fcc400"/><path d="M130.2,217.6a3.8,3.8,0,0,0-3.8,3.8v75.8a3.8,3.8,0,0,0,7.6,0V221.4A3.86,3.86,0,0,0,130.2,217.6Z" transform="translate(-37.1 -66.6)" style="fill:#fcc400"/><path d="M319.5,217.6a3.8,3.8,0,0,0-3.8,3.8V282a3.8,3.8,0,0,0,7.6,0V221.4A3.8,3.8,0,0,0,319.5,217.6Z" transform="translate(-37.1 -66.6)" style="fill:#fcc400"/><path d="M300.6,217.6a3.8,3.8,0,0,0-3.8,3.8v75.8a3.8,3.8,0,1,0,7.6,0V221.4A3.8,3.8,0,0,0,300.6,217.6Z" transform="translate(-37.1 -66.6)" style="fill:#fcc400"/><path d="M281.7,217.6a3.8,3.8,0,0,0-3.8,3.8v75.8a3.8,3.8,0,0,0,7.6,0V221.4A3.8,3.8,0,0,0,281.7,217.6Z" transform="translate(-37.1 -66.6)" style="fill:#fcc400"/><path d="M262.7,217.6a3.8,3.8,0,0,0-3.8,3.8v75.8a3.8,3.8,0,0,0,7.6,0V221.4A3.8,3.8,0,0,0,262.7,217.6Z" transform="translate(-37.1 -66.6)" style="fill:#fcc400"/><path d="M243.8,217.6a3.8,3.8,0,0,0-3.8,3.8v75.8a3.8,3.8,0,1,0,7.6,0V221.4A3.8,3.8,0,0,0,243.8,217.6Z" transform="translate(-37.1 -66.6)" style="fill:#fcc400"/><path d="M319.5,289.6a3.8,3.8,0,0,0-3.8,3.8v3.8a3.8,3.8,0,1,0,7.6,0v-3.8A3.74,3.74,0,0,0,319.5,289.6Z" transform="translate(-37.1 -66.6)" style="fill:#fcc400"/><path d="M213.5,126.7a3.8,3.8,0,0,0,3.8,3.8h3.8v11.4a3.8,3.8,0,0,0,3.8,3.8,7.6,7.6,0,1,1-7.6,7.6,3.8,3.8,0,0,0-7.6,0,15,15,0,0,0,.8,4.7l-81,33.2H111.3a3.8,3.8,0,0,0-3.8,3.8V327.6a3.8,3.8,0,0,0,3.8,3.8H338.6a3.8,3.8,0,0,0,3.8-3.8V194.9a3.8,3.8,0,0,0-3.8-3.8H320.4l-81-33.2a15.13,15.13,0,0,0-9.7-19.1l-.9-.3v-8.1h3.8a3.8,3.8,0,0,0,3.8-3.8H213.5Zm-79.6,70.7,80.7-33a15.07,15.07,0,0,0,20.4,0l80.7,33v5H133.9ZM115,198.6h11.4v3.8H115Zm219.7,125H115V316H334.7Zm0-15.1H115V210H334.7Zm0-106.1H323.3v-3.8h11.4Z" transform="translate(-37.1 -66.6)" style="fill:#fcc400"/></svg>