<?xml version="1.0" encoding="utf-8"?>
<!-- Generator: Adobe Illustrator 24.1.0, SVG Export Plug-In . SVG Version: 6.00 Build 0)  -->
<svg version="1.1" id="Layer_1" xmlns="http://www.w3.org/2000/svg" xmlns:xlink="http://www.w3.org/1999/xlink" x="0px" y="0px"
	 viewBox="0 0 175 175" style="enable-background:new 0 0 175 175;" xml:space="preserve">
<style type="text/css">
	.st0{fill:#FFC400;}
	.st1{fill:#FFC400;stroke:#FFC400;stroke-width:4;stroke-miterlimit:10;}
</style>
<path id="XMLID_200_" class="st0" d="M174.3,31.2c0-17.2-14-31.2-31.2-31.2s-31.2,14-31.2,31.2c0,16.1,12.2,29.3,27.8,31v32.1h-13.9
	c-1.9,0-3.4,1.5-3.4,3.4c0,1.9,1.5,3.4,3.4,3.4h17.3c1.9,0,3.4-1.5,3.4-3.4V62.2C162.1,60.5,174.3,47.2,174.3,31.2z M143.1,55.6
	c-13.5,0-24.4-11-24.4-24.4s11-24.4,24.4-24.4s24.4,11,24.4,24.4S156.6,55.6,143.1,55.6z"/>
<path id="XMLID_204_" class="st0" d="M150.5,22.6l-9.9,9.9l-4.8-4.8c-1.3-1.3-3.5-1.3-4.8,0c-1.3,1.3-1.3,3.5,0,4.8l7.1,7.1
	c0.6,0.6,1.5,1,2.4,1c0.9,0,1.8-0.4,2.4-1l12.3-12.3c1.3-1.3,1.3-3.5,0-4.8C153.9,21.3,151.8,21.3,150.5,22.6L150.5,22.6z"/>
<path id="XMLID_205_" class="st0" d="M43.1,20c-1.3-1.3-3.5-1.3-4.8,0l-6.4,6.4L25.5,20c-1.3-1.3-3.5-1.3-4.8,0
	c-1.3,1.3-1.3,3.5,0,4.8l6.4,6.4l-6.4,6.4c-1.3,1.3-1.3,3.5,0,4.8c0.7,0.7,1.5,1,2.4,1s1.7-0.3,2.4-1l6.4-6.4l6.4,6.4
	c0.7,0.7,1.5,1,2.4,1s1.7-0.3,2.4-1c1.3-1.3,1.3-3.5,0-4.8l-6.4-6.4l6.4-6.4C44.4,23.5,44.4,21.4,43.1,20z"/>
<path id="XMLID_1661_" class="st0" d="M49.2,101c1.9,0,3.5-1.6,3.4-3.6c-0.1-1.8-1.7-3.2-3.5-3.2H35.3c0,0,0,0,0,0v-32
	c9.5-1,18-6.3,23.1-14.5c1-1.6,0.5-3.7-1.1-4.7c-1.6-1-3.7-0.5-4.7,1.1c-4.5,7.2-12.2,11.5-20.7,11.5c-13.5,0-24.4-11-24.4-24.4
	s11-24.4,24.4-24.4c8.5,0,16.2,4.3,20.7,11.5c1,1.6,3.1,2.1,4.7,1.1c1.6-1,2.1-3.1,1.1-4.7C52.6,5.5,42.7,0,31.9,0
	C14.7,0,0.7,14,0.7,31.2c0,16.1,12.2,29.3,27.8,31v35.4c0,1.9,1.5,3.4,3.4,3.4H49.2z"/>
<path id="XMLID_1662_" class="st0" d="M56.3,31.2c0,0.9,0.4,1.8,1,2.4c0.6,0.6,1.5,1,2.4,1c0.9,0,1.8-0.4,2.4-1c0.6-0.6,1-1.5,1-2.4
	c0-0.9-0.4-1.8-1-2.4c-0.6-0.6-1.5-1-2.4-1c-0.9,0-1.8,0.4-2.4,1C56.7,29.4,56.3,30.3,56.3,31.2z"/>
<g>
	<g>
		<path class="st1" d="M124.8,107.8L86.7,89.4c-0.3-0.2-0.7-0.2-1.1,0l-38.1,18.4c-0.4,0.2-0.7,0.6-0.7,1.1v44.7
			c0,0.5,0.3,0.9,0.7,1.1l38.1,18.4c0.2,0.1,0.4,0.1,0.5,0.1c0.2,0,0.4,0,0.5-0.1l38.1-18.4c0.4-0.2,0.7-0.6,0.7-1.1v-44.7
			C125.5,108.4,125.3,108,124.8,107.8z M86.2,91.9l35.3,17l-10.2,4.9c-0.1,0-0.1-0.1-0.2-0.1L76,96.8L86.2,91.9z M73.2,98.2l35.3,17
			l-7.2,3.5l-35.3-17L73.2,98.2z M109.3,117.5v12.9l-6.7,3.3v-12.9L109.3,117.5z M123.1,152.9l-35.7,17.2v-42l8.5-4.1
			c0.6-0.3,0.9-1,0.6-1.6c-0.3-0.6-1-0.9-1.6-0.6l-8.7,4.2l-3.4-1.6c-0.6-0.3-1.3,0-1.6,0.6c-0.3,0.6,0,1.3,0.6,1.6l3.3,1.6v42
			l-35.7-17.2v-42L76.4,124c0.2,0.1,0.4,0.1,0.5,0.1c0.5,0,0.9-0.3,1.1-0.7c0.3-0.6,0-1.3-0.6-1.6l-26.6-12.9l12.2-5.9l37,17.8
			c0,0,0,0,0,0v14.8c0,0.4,0.2,0.8,0.6,1c0.2,0.1,0.4,0.2,0.7,0.2c0.2,0,0.4,0,0.5-0.1l9.2-4.4c0.4-0.2,0.7-0.6,0.7-1.1v-14.9
			l11.4-5.5L123.1,152.9L123.1,152.9z"/>
	</g>
</g>
</svg>
