<svg xmlns="http://www.w3.org/2000/svg" width="143.195" height="116.346" viewBox="0 0 143.195 116.346">
  <path id="brand-map-svgrepo-com" d="M117.346,2.125A22.379,22.379,0,0,0,97.017,33.851l20.329,39.872,20.329-39.872A22.379,22.379,0,0,0,117.346,2.125Zm0,35.8A13.425,13.425,0,1,1,130.771,24.5,13.428,13.428,0,0,1,117.346,37.924Zm6.695,42.363,8.146,16.283-20.653,10.322-6.922-34.628,1.162-1.162.123-.123-4.265-8.39-2.185,2.185L72.6,46.874l-26.849,17.9-17.9-17.9L1,100.572l35.8,17.9,35.8-17.9,35.8,17.9,35.8-17.9-15.1-30.2-5.052,9.911Zm-90.389,26.6L13.009,96.569,30.3,61.976,39.421,71.1l1.162,1.162-6.931,34.628ZM68.123,92.8,43.092,105.318l6.468-32.329,1.154-.77,17.41-11.607V92.8Zm8.95,0V60.613l17.41,11.607,1.145.77,6.468,32.329Z" transform="translate(-1 -2.125)" fill="#fcc400"/>
</svg>
