<svg id="Layer_1" data-name="Layer 1" xmlns="http://www.w3.org/2000/svg" viewBox="0 0 171.16 169.03"><path d="M170.8,35.3l-68.3-32a2.12,2.12,0,0,0-1.9,0l-68.3,32a2.06,2.06,0,0,0-1.2,1.9V115a2.12,2.12,0,0,0,1.2,1.9l68.3,32a3,3,0,0,0,1,.2,3.55,3.55,0,0,0,1-.2l68.3-32a2.06,2.06,0,0,0,1.2-1.9V37.2A2.42,2.42,0,0,0,170.8,35.3ZM101.5,7.5l63.2,29.7-18.3,8.6a.52.52,0,0,0-.4-.2L83.3,16.1Zm-23.2,11,63.1,29.6-12.9,6.1L65.4,24.6Zm64.6,33.7V74.6l-12.1,5.7V57.9Zm24.7,61.5-63.8,30V70.6L119,63.4a2.08,2.08,0,0,0,1-2.9,2.16,2.16,0,0,0-2.9-1l-15.5,7.3L95.4,64a2.16,2.16,0,0,0-2.9,1,2.19,2.19,0,0,0,1,2.9l5.8,2.7v73.1l-63.8-30V40.6L84.1,63.4a3,3,0,0,0,1,.2,2.16,2.16,0,0,0,1-4.1L38.4,37.2,60.3,26.9,126.4,58h0V83.7a2.23,2.23,0,0,0,1,1.8,2.66,2.66,0,0,0,1.2.3,3.55,3.55,0,0,0,1-.2l16.5-7.7a2.06,2.06,0,0,0,1.2-1.9V50.1l20.3-9.5v73.1Z" transform="translate(-1.44 -2.57)" style="fill:#fcc400;stroke:#fcc400;stroke-miterlimit:10"/><path d="M4,34.6H17.4l-2.5-2.5v85c0,1.14-.1,2.34,0,3.48v.16l2.5-2.5H4l2.5,2.5V43.07c0-3.59.14-7.22,0-10.81V32.1c0-3.22-5-3.22-5,0v77.63c0,3.59-.14,7.22,0,10.81v.16A2.54,2.54,0,0,0,4,123.2H17.4a2.54,2.54,0,0,0,2.5-2.5V43.07c0-3.59.14-7.22,0-10.81V32.1a2.54,2.54,0,0,0-2.5-2.5H4C.78,29.6.78,34.6,4,34.6Z" transform="translate(-1.44 -2.57)" style="fill:#fcc400"/><path d="M22.14,130.06,44.38,141l35.41,17.35,8,3.95v-4.32l-12.42,9h2.52L55.59,155.7,20.11,137.84,12,133.74v4.32l12.7-8c2.72-1.71.21-6-2.52-4.32l-12.7,8c-1.5.94-1.75,3.44,0,4.32l22.35,11.25,35.48,17.85,8.15,4.11a2.52,2.52,0,0,0,2.52,0l12.42-9c1.39-1,1.84-3.42,0-4.32L68.12,147,32.71,129.69l-8-4a2.57,2.57,0,0,0-3.42.9A2.53,2.53,0,0,0,22.14,130.06Z" transform="translate(-1.44 -2.57)" style="fill:#fcc400"/><path d="M10.7,42.3h5.1" transform="translate(-1.44 -2.57)" style="fill:none;stroke:#fcc400;stroke-miterlimit:10;stroke-width:7px"/><line x1="9.26" y1="49.72" x2="14.36" y2="49.72" style="fill:none;stroke:#fcc400;stroke-miterlimit:10;stroke-width:7px"/><line x1="10.56" y1="59.63" x2="14.36" y2="59.63" style="fill:none;stroke:#fcc400;stroke-miterlimit:10;stroke-width:7px"/><line x1="24.4" y1="132.71" x2="27.23" y2="129.04" style="fill:none;stroke:#fcc400;stroke-miterlimit:10;stroke-width:7px"/><line x1="33.26" y1="138.03" x2="36.86" y2="132.42" style="fill:none;stroke:#fcc400;stroke-miterlimit:10;stroke-width:7px"/></svg>