<?xml version="1.0" encoding="utf-8"?>
<!-- Generator: Adobe Illustrator 25.4.1, SVG Export Plug-In . SVG Version: 6.00 Build 0)  -->
<svg version="1.1" id="Layer_1" xmlns="http://www.w3.org/2000/svg" xmlns:xlink="http://www.w3.org/1999/xlink" x="0px" y="0px"
	 viewBox="0 0 800 800" style="enable-background:new 0 0 800 800;" xml:space="preserve">
<style type="text/css">
	.st0{fill:#FCC400;}
</style>
<g>
	<path class="st0" d="M140.9,370.9c-6.1,3.1-9.9,8.9-9.9,15.1s3.7,12,9.9,15.1l476.5,244.6c6.1,3.2,13.7,3.2,19.9,0.1
		c6.2-3.1,10-8.9,10-15.2V141.3c0-6.3-3.8-12-10-15.1c-6.2-3.1-13.7-3.1-19.9,0.1L140.9,370.9z"/>
	<path class="st0" d="M484.2,194.6L642,113.3c2.3-1.2,5.1,0.3,5.1,2.6v540c0,2.3-2.9,3.8-5.1,2.6l-157.9-81.2L484.2,194.6
		L484.2,194.6z"/>
</g>
</svg>
