<svg id="Layer_1" data-name="Layer 1" xmlns="http://www.w3.org/2000/svg" viewBox="0 0 361.2 263.8"><path d="M60.1,123.4H27.3c-4.3,0-7.9,3-7.9,6.7V325.2c0,3.7,3.5,6.7,7.9,6.7H60.2c4.3,0,7.9-3,7.9-6.7V130.1C68,126.3,64.5,123.4,60.1,123.4Zm-2,198.9H29.3V133H58l.1,189.3Z" transform="translate(-19.4 -68.1)" style="fill:#fcc400"/><rect x="21.3" y="83" width="17.4" height="7.7" style="fill:#fcc400"/><rect x="22.3" y="108" width="17.4" height="7.7" style="fill:#fcc400"/><rect x="22.3" y="130.8" width="17.4" height="7.7" style="fill:#fcc400"/><path d="M80.6,116.8H334.5c4.9,0,8.7-3.6,8.7-7.9V76c0-4.4-3.9-7.9-8.7-7.9H80.6c-4.9,0-8.7,3.6-8.7,7.9v32.8C71.9,113.2,75.8,116.7,80.6,116.8Zm250.1-10.1H84.4V78H330.7v28.7Z" transform="translate(-19.4 -68.1)" style="fill:#fcc400"/><rect x="88.6" y="21.3" width="10" height="17.4" style="fill:#fcc400"/><rect x="121.1" y="22.3" width="10" height="17.4" style="fill:#fcc400"/><rect x="150.8" y="22.3" width="10" height="17.4" style="fill:#fcc400"/><g id="truck"><g id="Group_5088" data-name="Group 5088"><g id="Group_5087" data-name="Group 5087"><path id="Path_9370" data-name="Path 9370" d="M155.8,268.05a29.3,29.3,0,1,0,29.3,29.3h0A29.21,29.21,0,0,0,155.8,268.05Zm0,48.8a19.55,19.55,0,1,1,19.6-19.5h0a19.61,19.61,0,0,1-19.6,19.5Z" transform="translate(-19.4 -68.1)" style="fill:#fcc400"/></g></g><g id="Group_5090" data-name="Group 5090"><g id="Group_5089" data-name="Group 5089"><path id="Path_9371" data-name="Path 9371" d="M322,268.05a29.3,29.3,0,1,0,29.3,29.3h0A29.41,29.41,0,0,0,322,268.05Zm0,48.8a19.55,19.55,0,1,1,19.5-19.6v.1a19.53,19.53,0,0,1-19.5,19.5Z" transform="translate(-19.4 -68.1)" style="fill:#fcc400"/></g></g><g id="Group_5092" data-name="Group 5092"><g id="Group_5091" data-name="Group 5091"><path id="Path_9372" data-name="Path 9372" d="M379.8,241l-43.9-68.3a4.87,4.87,0,0,0-4.1-2.3H278a4.89,4.89,0,0,0-4.9,4.8h0v122.1a4.89,4.89,0,0,0,4.8,4.9h19.6v-9.7H282.8V180.15H329l41.8,64.9v47.4H346.4v9.7h29.3a4.89,4.89,0,0,0,4.9-4.8h0v-53.7A5.3,5.3,0,0,0,379.8,241Z" transform="translate(-19.4 -68.1)" style="fill:#fcc400"/></g></g><g id="Group_5094" data-name="Group 5094"><g id="Group_5093" data-name="Group 5093"><path id="Path_9373" data-name="Path 9373" d="M302.4,233.85v-34.2h39.1V190h-44a4.89,4.89,0,0,0-4.9,4.8h0v43.9a4.89,4.89,0,0,0,4.8,4.9h73.3v-9.7Z" transform="translate(-19.4 -68.1)" style="fill:#fcc400"/></g></g><g id="Group_5096" data-name="Group 5096"><g id="Group_5095" data-name="Group 5095"><path id="Path_9374" data-name="Path 9374" d="M278,136.15H92.3a4.89,4.89,0,0,0-4.9,4.8v156.3a4.89,4.89,0,0,0,4.8,4.9h39.1v-9.7H97.2V146H273.1v146.6H180.3v9.7H278a4.89,4.89,0,0,0,4.9-4.8h0V141.05A5,5,0,0,0,278,136.15Z" transform="translate(-19.4 -68.1)" style="fill:#fcc400"/></g></g><g id="Group_5098" data-name="Group 5098"><g id="Group_5097" data-name="Group 5097"><rect id="Rectangle_1315" data-name="Rectangle 1315" x="72.9" y="204.85" width="29.3" height="9.7" style="fill:#fcc400"/></g></g><g id="Group_5100" data-name="Group 5100"><g id="Group_5099" data-name="Group 5099"><rect id="Rectangle_1316" data-name="Rectangle 1316" x="170.7" y="204.85" width="83" height="9.7" style="fill:#fcc400"/></g></g><g id="Group_5102" data-name="Group 5102"><g id="Group_5101" data-name="Group 5101"><rect id="Rectangle_1317" data-name="Rectangle 1317" x="336.7" y="204.85" width="19.6" height="9.7" style="fill:#fcc400"/></g></g><g id="Group_5104" data-name="Group 5104"><g id="Group_5103" data-name="Group 5103"><rect id="Rectangle_1318" data-name="Rectangle 1318" x="87.6" y="87.65" width="171" height="9.7" style="fill:#fcc400"/></g></g><g id="Group_5106" data-name="Group 5106"><g id="Group_5105" data-name="Group 5105"><rect id="Rectangle_1319" data-name="Rectangle 1319" x="131.5" y="224.35" width="9.7" height="9.7" style="fill:#fcc400"/></g></g><g id="Group_5108" data-name="Group 5108"><g id="Group_5107" data-name="Group 5107"><rect id="Rectangle_1320" data-name="Rectangle 1320" x="297.7" y="224.35" width="9.7" height="9.7" style="fill:#fcc400"/></g></g></g></svg>