<svg xmlns="http://www.w3.org/2000/svg" width="107.505" height="95.219" viewBox="0 0 107.505 95.219">
  <path id="box-open-svgrepo-com_1_" data-name="box-open-svgrepo-com (1)" d="M60.881,52.363a4.607,4.607,0,0,0-9.215,0Zm-4.607,42.5H51.666a4.607,4.607,0,0,0,6.324,4.276ZM91.56,80.7l1.716,4.276A4.607,4.607,0,0,0,96.167,80.7Zm4.607-29.45a4.607,4.607,0,1,0-9.215,0ZM59.071,48.7a4.607,4.607,0,0,0-5.6,7.321Zm9.784,13.275-2.8,3.661a4.607,4.607,0,0,0,4.768.5ZM93.512,55.41a4.607,4.607,0,0,0-3.94-8.33ZM54.557,48.088a4.607,4.607,0,0,0,3.433,8.551Zm38.719-5.615a4.607,4.607,0,1,0-3.433-8.551Zm-3.432,0a4.607,4.607,0,0,0,3.432-8.552ZM57.99,19.761a4.607,4.607,0,0,0-3.432,8.552ZM93.818,34.187A4.607,4.607,0,1,0,89.3,42.22Zm10.342,11.1,1.968,4.166a4.608,4.608,0,0,0,.29-8.183ZM89.574,47.079a4.608,4.608,0,0,0,3.935,8.333ZM88.125,35.105a4.608,4.608,0,0,0,6.832,6.183Zm18.522-13.6,3.416,3.092a4.608,4.608,0,0,0-1.954-7.461ZM68.855,8.858l1.462-4.369a4.608,4.608,0,0,0-5.006,1.425ZM52.7,21.093a4.607,4.607,0,0,0,7.088,5.889ZM19.241,33.921a4.607,4.607,0,1,0,3.432,8.552Zm38.718-5.608a4.607,4.607,0,0,0-3.432-8.552Zm-34.744,13.9A4.607,4.607,0,0,0,18.7,34.181ZM8.357,45.28,6.1,41.264a4.608,4.608,0,0,0,.286,8.181ZM18.986,55.41a4.608,4.608,0,0,0,3.943-8.329Zm3.688-21.488a4.607,4.607,0,1,0-3.433,8.551ZM54.527,56.639a4.607,4.607,0,0,0,3.433-8.551ZM17.515,41.26A4.607,4.607,0,0,0,24.4,35.134ZM8.357,24.037,6.537,19.8a4.607,4.607,0,0,0-1.621,7.3ZM43.644,8.858l3.545-2.943a4.607,4.607,0,0,0-5.366-1.29ZM52.7,26.98a4.607,4.607,0,0,0,7.09-5.885ZM60.85,52.369a4.607,4.607,0,1,0-9.215,0ZM56.243,94.861l-1.716,4.276a4.607,4.607,0,0,0,6.324-4.276ZM20.957,80.7H16.35a4.607,4.607,0,0,0,2.891,4.276Zm4.607-29.45a4.607,4.607,0,1,0-9.215,0Zm33.474,4.781a4.607,4.607,0,1,0-5.59-7.325ZM43.644,61.977l-1.97,4.165a4.607,4.607,0,0,0,4.765-.5ZM22.927,47.08a4.608,4.608,0,0,0-3.94,8.33Zm28.739,5.283v42.5h9.215v-42.5ZM57.99,99.137,93.276,84.971,89.844,76.42,54.557,90.586ZM96.167,80.7V51.245H86.953V80.7ZM53.476,56.024l12.581,9.614,5.6-7.321L59.071,48.7ZM70.825,66.142,93.512,55.41l-3.94-8.33L66.885,57.812Zm-12.835-9.5L93.276,42.473l-3.433-8.551L54.557,48.088ZM93.276,33.921,57.99,19.761l-3.432,8.552,35.286,14.16ZM89.3,42.22,101.9,49.3l4.515-8.033-12.6-7.083Zm12.89-1.1L89.574,47.079l3.935,8.333,12.618-5.959Zm-7.234.169L110.064,24.6l-6.832-6.183L88.125,35.105ZM108.11,17.137,70.317,4.488l-2.924,8.738,37.793,12.649ZM65.311,5.913,52.7,21.093l7.088,5.889L72.4,11.8ZM22.673,42.473l35.286-14.16-3.432-8.552L19.241,33.921ZM18.7,34.181,6.1,41.264,10.615,49.3l12.6-7.083ZM6.386,49.445l12.6,5.965,3.943-8.329-12.6-5.965ZM19.24,42.473,54.527,56.639l3.433-8.551L22.673,33.921ZM24.4,35.134,11.8,20.975,4.915,27.1l12.6,14.16ZM10.178,28.27,45.464,13.09,41.823,4.625,6.537,19.8ZM40.1,11.8,52.7,26.98l7.09-5.885-12.6-15.18ZM51.636,52.369V94.861H60.85V52.369Zm6.324,38.216L22.673,76.42,19.24,84.971,54.527,99.137Zm-32.4-9.89V51.245H16.35V80.7ZM53.448,48.7l-12.6,9.614,5.59,7.325,12.6-9.614Zm-7.834,9.111L22.927,47.08l-3.94,8.33L41.673,66.142Z" transform="translate(-3.75 -4.25)" fill="#fcc400"/>
</svg>
