<svg xmlns="http://www.w3.org/2000/svg" width="112.8" height="105.833" viewBox="0 0 112.8 105.833">
  <path id="ship-line-svgrepo-com" d="M92.867,76.017,104.1,53.55,81.634,48.558M53.55,42.317V70.4m0-28.084L25.467,48.558M53.55,42.317l28.084,6.241m-67.4,27.46L3,53.55l22.467-4.993m0,0L19.85,19.85H42.317M81.634,48.558,87.251,19.85H64.784m0,0V3H42.317V19.85m22.467,0H42.317M3,98.484l6.992-2.8a14.435,14.435,0,0,1,13.367,1.392h0a14.434,14.434,0,0,0,18.869-2.5l.2-.229a14.78,14.78,0,0,1,22.246,0l.2.229a14.434,14.434,0,0,0,18.869,2.5h0a14.434,14.434,0,0,1,13.367-1.392l6.992,2.8" transform="translate(2.849 1.5)" fill="none" stroke="#fcc400" stroke-linecap="round" stroke-linejoin="round" stroke-width="9"/>
</svg>
