<svg width="67" height="67" viewBox="0 0 67 67" fill="none" xmlns="http://www.w3.org/2000/svg">
<path d="M61.1268 36.3412V55.7905C61.1268 56.5274 60.8341 57.2341 60.313 57.7551C59.792 58.2762 59.0852 58.5689 58.3484 58.5689H8.33608C7.59918 58.5689 6.89247 58.2762 6.37141 57.7551C5.85035 57.2341 5.55762 56.5274 5.55762 55.7905V36.3412C5.55762 35.6043 5.85035 34.8976 6.37141 34.3766C6.89247 33.8555 7.59918 33.5628 8.33608 33.5628C9.07297 33.5628 9.77968 33.8555 10.3007 34.3766C10.8218 34.8976 11.1145 35.6043 11.1145 36.3412V53.012H55.5699V36.3412C55.5699 35.6043 55.8626 34.8976 56.3837 34.3766C56.9047 33.8555 57.6115 33.5628 58.3484 33.5628C59.0852 33.5628 59.792 33.8555 60.313 34.3766C60.8341 34.8976 61.1268 35.6043 61.1268 36.3412ZM33.3422 8.55664C32.6053 8.55664 31.8986 8.84937 31.3775 9.37043C30.8565 9.89149 30.5638 10.5982 30.5638 11.3351V22.4489H19.4499C18.713 22.4489 18.0063 22.7417 17.4852 23.2627C16.9642 23.7838 16.6715 24.4905 16.6715 25.2274C16.6715 25.9643 16.9642 26.671 17.4852 27.1921C18.0063 27.7131 18.713 28.0059 19.4499 28.0059H30.5638V39.1197C30.5638 39.8566 30.8565 40.5633 31.3775 41.0844C31.8986 41.6054 32.6053 41.8982 33.3422 41.8982C34.0791 41.8982 34.7858 41.6054 35.3069 41.0844C35.8279 40.5633 36.1207 39.8566 36.1207 39.1197V28.0059H47.2345C47.9714 28.0059 48.6781 27.7131 49.1992 27.1921C49.7202 26.671 50.013 25.9643 50.013 25.2274C50.013 24.4905 49.7202 23.7838 49.1992 23.2627C48.6781 22.7417 47.9714 22.4489 47.2345 22.4489H36.1207V11.3351C36.1207 10.5982 35.8279 9.89149 35.3069 9.37043C34.7858 8.84937 34.0791 8.55664 33.3422 8.55664Z" fill="#FFC400"/>
</svg>
