<svg id="Layer_1" data-name="Layer 1" xmlns="http://www.w3.org/2000/svg" viewBox="0 0 135.26 292.39"><g id="Group_68" data-name="Group 68"><g id="airport"><g id="Group_42" data-name="Group 42"><g id="Group_41" data-name="Group 41"><path d="M134.26,84.86a4.44,4.44,0,0,0-3.49-1.74H86.38l-1-13.36A4.54,4.54,0,0,0,81,65.51H56.21a4.55,4.55,0,0,0-4.47,4.28l-1,13.36H6.39A4.43,4.43,0,0,0,2.9,84.86,4.78,4.78,0,0,0,2,88.75l5.83,26.94,10.53,48.52,6.23,28.47A4.5,4.5,0,0,0,29,196.3H47v96.82a4.56,4.56,0,0,0,4.47,4.63H85.66a4.56,4.56,0,0,0,4.47-4.63V196.3h18.08a4.52,4.52,0,0,0,4.38-3.62l6.16-28.42,10.53-48.52,5.83-26.94A4.74,4.74,0,0,0,134.26,84.86ZM60.38,74.73H76.77l.62,8.39H59.76ZM17.81,119.37h23.5v39.25h-15ZM81.15,288.51H56V196.3H81.19Zm29.6-129.89H50.28V119.37h36.6v15.07a4.49,4.49,0,0,0,9,.27V119.37h23.46Z" transform="translate(-0.95 -6.33)" style="fill:none;stroke:#989898;stroke-miterlimit:10;stroke-width:1.9442050457000732px"/></g></g><g id="Group_44" data-name="Group 44"><g id="Group_43" data-name="Group 43"><g id="Path_59" data-name="Path 59"><path d="M91.39,143.86A4.41,4.41,0,0,0,87,148.27h0v.82a4.42,4.42,0,0,0,8.84,0v-.84A4.42,4.42,0,0,0,91.39,143.86Z" transform="translate(-0.95 -6.33)" style="fill:none;stroke:#989898;stroke-miterlimit:10;stroke-width:1.9442050457000732px"/></g></g></g></g><g id="Path_60" data-name="Path 60"><rect x="65.59" y="0.96" width="4.06" height="58.22" style="fill:none;stroke:#989898;stroke-miterlimit:10;stroke-width:1.9248131914053914px"/></g></g></svg>