<svg fill="current" xmlns="http://www.w3.org/2000/svg" width="116.115" height="111.44" viewBox="20 -9.004 116.115 111.44"><path d="M135.87 26.803a36.118 36.118 0 0 0-5.781-14.56 8.026 8.026 0 0 0 .404-12.59 10.666 10.666 0 0 0-6.743-2.317 6.303 6.303 0 0 0-.948-2.468 6.414 6.414 0 0 0-5.258-2.909h-.073c-1.822 0-3.728.727-5.306 1.658a8.101 8.101 0 0 0-6.574-2.598c-2.688.227-5.408 2-6.81 4.249a16.922 16.922 0 0 0-3.635-.242c-2.272.126-4.283.938-5.663 2.288-1.757 1.736-2.589 4.402-2.242 7.294.128 1.141.323 2.275.582 3.394a8.278 8.278 0 0 0-4.676 2.138 9.073 9.073 0 0 0-2.613 4.009 10.31 10.31 0 0 0-4.897-.281 10.588 10.588 0 0 0-5.253 2.783 8.307 8.307 0 0 0-12.811 3.2 6.392 6.392 0 0 0-4.424-.36 8.227 8.227 0 0 0-4.206 2.83 9.556 9.556 0 0 0-3.183-1.254 7.93 7.93 0 0 0-6.288 1.358 6.172 6.172 0 0 0-2.24 3.26 10.348 10.348 0 0 0-1.643-.114c-1.866.022-3.525.66-4.669 1.79a6.94 6.94 0 0 0-1.56 2.484 11.878 11.878 0 0 0-.663 5.73 6.664 6.664 0 0 0-2.88 1.666 6.749 6.749 0 0 0-1.88 5.779c.124.742.343 1.465.652 2.152a8.453 8.453 0 0 0-3.845 4.056c-.824 1.871-.97 4.145-.407 6.406a12.738 12.738 0 0 0 5.347 7.41 9.745 9.745 0 0 0 9.212 14.06 16.869 16.869 0 0 0 4.957-1.059 10.865 10.865 0 0 0 7.03 3.311c.366.027.727.032 1.103.024v13.575c.039.223.039.451 0 .674v6.509a2.063 2.063 0 0 0 2.06 2.06h7.757a2.063 2.063 0 0 0 2.06-2.06V93.64a1.966 1.966 0 0 1 0-.674V79.298c.434.02.868.011 1.3-.029a9.994 9.994 0 0 0 6.043-2.85 10.118 10.118 0 0 0 10.448.707 13.575 13.575 0 0 0 8.765 3.287c.279 0 .558 0 .834-.027.489-.035.974-.1 1.455-.196v20.185a2.065 2.065 0 0 0 2.06 2.06h7.757a2.065 2.065 0 0 0 2.06-2.06V78.87c.553.209 1.12.378 1.697.507 3.695.821 7.488-.291 9.663-2.834 2.048-2.397 2.31-5.614 2.25-8.55a9.6 9.6 0 0 0 7.012-5.216 10.324 10.324 0 0 0 .056-8.695 10.46 10.46 0 0 0 .89-16.61 8.989 8.989 0 0 0 .906-3.365l2.872 1.193c1.035.429 2.563 1.064 4.218 1.064a5.66 5.66 0 0 0 2.102-.388c1.755-.695 3.105-2.349 3.61-4.424.414-1.672.251-3.338.009-4.748ZM55.75 90.907h-3.636v-10.53h3.636v10.53Zm0 7.182h-3.636v-2.38h3.636v2.38Zm40.724-6.283h-3.636v-11.43h3.636v11.43Zm0 6.509h-3.636v-2.388h3.636v2.388Zm-.679-22.06c.034-.035.073-.072.107-.11l.146.11h-.253Zm25.914-30.38a6.46 6.46 0 0 1-4.121 5.512 2.06 2.06 0 0 0-.776 3.367c1.355 1.404 1.665 4.204.689 6.242a5.45 5.45 0 0 1-5.244 2.984 2.058 2.058 0 0 0-2.237 1.86 1.91 1.91 0 0 0 0 .288v.049c.13 2.797.279 5.968-1.19 7.686-1.178 1.38-3.445 1.976-5.636 1.489-1.961-.437-3.978-1.637-6.16-3.673a2.065 2.065 0 0 0-3.12.374c-1.597 2.424-4.247 4.043-6.913 4.222a9.284 9.284 0 0 1-7.486-3.11 2.06 2.06 0 0 0-2.775-.303 6.097 6.097 0 0 1-8.259-.78 2.06 2.06 0 0 0-3.301.324 5.706 5.706 0 0 1-9.188.842 2.06 2.06 0 0 0-1.522-.7h-.024c-.576-.001-1.125.24-1.515.663-1.241 1.346-3.602 2.182-5.745 2.03a6.787 6.787 0 0 1-5.001-2.852 2.06 2.06 0 0 0-2.55-.698 13.883 13.883 0 0 1-4.94 1.292 5.646 5.646 0 0 1-4.514-9.34 2.06 2.06 0 0 0-.77-3.265c-2.51-1.03-4.451-3.24-5.074-5.747-.342-1.38-.28-2.715.179-3.755a4.363 4.363 0 0 1 3.362-2.497 2.058 2.058 0 0 0 1.455-3.212c-.529-.768-1.157-1.784-1.324-2.814a2.526 2.526 0 0 1 2.9-2.882 2.063 2.063 0 0 0 2.377-1.697c.061-.37.022-.749-.114-1.098a7.813 7.813 0 0 1 0-5.333c.136-.39.35-.747.63-1.05.379-.373 1.043-.591 1.826-.6.926-.023 1.92.242 2.972.484a2.06 2.06 0 0 0 2.533-2.308 2.167 2.167 0 0 1 .807-2.164 3.879 3.879 0 0 1 3.028-.6 6.218 6.218 0 0 1 3.151 1.785c.801.803 2.101.809 2.909.012a2.04 2.04 0 0 0 .516-.85 4.055 4.055 0 0 1 2.722-2.607c.342-.097 1.382-.39 3.285 1.263a2.06 2.06 0 0 0 3.394-1.537 4.247 4.247 0 0 1 7.805-2.305 2.06 2.06 0 0 0 3.484-.048 6.545 6.545 0 0 1 4.152-2.91 6.181 6.181 0 0 1 4.805 1.118 2.06 2.06 0 0 0 3.23-2.181c-.44-1.678.905-3.152 1.504-3.702a4.269 4.269 0 0 1 4.14-.865 2.06 2.06 0 0 0 2.555-2.79c-.616-1.377-1.042-3.13-1.302-5.36-.186-1.597.206-3.045 1.052-3.879.664-.652 1.731-1.05 3.006-1.12 1.343-.072 2.81.2 4.23.464a2.06 2.06 0 0 0 2.368-1.494c.371-1.391 2.294-2.84 3.954-2.981a4.01 4.01 0 0 1 3.823 2.247 2.06 2.06 0 0 0 3.173.727c1.454-1.18 3.311-2 4.538-2h.031a2.23 2.23 0 0 1 2.02 3.118 2.063 2.063 0 0 0 3.025 2.552c1.132-.727 3.866-.18 5.32 1.045a4.09 4.09 0 0 1 1.091 4.47 4.12 4.12 0 0 1-1.735 1.956 4.198 4.198 0 0 1-5.818-1.697 2.06 2.06 0 0 0-3.394-.395c-1.086 1.265-3.301 2.048-5.117 1.94a16.61 16.61 0 0 0-1.498-6.192 2.06 2.06 0 0 0-3.328-.591L89.122 21.235a2.06 2.06 0 0 0 0 2.908c.032.032.063.063.097.093 3.437 3.005 8.387 4.12 12.92 2.925a14.237 14.237 0 0 0 8.242-6.028c.62 1.619.727 3.466.15 4.92a2.06 2.06 0 0 0 2.504 2.728c1.797-.531 4.158.484 5.265 2.244a4.848 4.848 0 0 1-.499 5.602 2.058 2.058 0 0 0 .58 3.22c2.113 1.098 3.483 3.563 3.328 6.028ZM108.1 16.47a2.14 2.14 0 0 0-.175.378 10.181 10.181 0 0 1-6.835 6.339c-2.448.628-5.04.345-7.294-.795l14.786-14.787c.495 2.858.03 5.8-.482 8.865Zm23.756 14.11c-.184.754-.623 1.367-1.123 1.564-.783.31-2.019-.15-3.221-.65l-5.525-2.295c-.067-.12-.133-.243-.206-.354a9.408 9.408 0 0 0-6.787-4.262 11.849 11.849 0 0 0-2.712-8.208c.17-1.035.33-2.097.443-3.178 2.287.088 4.546-.52 6.48-1.743a8.27 8.27 0 0 0 6.969 2.383 31.92 31.92 0 0 1 5.626 13.616c.192 1.057.303 2.167.07 3.127Z"  fill-rule="evenodd" data-name="Path 62"/></svg>