<svg xmlns="http://www.w3.org/2000/svg" width="16.055" height="22.367" viewBox="1167.062 909.988 16.055 22.367"><g data-name="Component 68 – 1"><g data-name="Component 36 – 4"><g data-name="Group 73"><path d="M1167.062 909.988h16.055v22.367h-16.055v-22.367Z" stroke-linejoin="round" stroke-linecap="round" stroke="#fcc400" fill="transparent" data-name="Path 13"/><path d="M1169.326 911.429h11.458v4.94h-11.458v-4.94Z" stroke-linejoin="round" stroke-linecap="round" stroke="#fcc400" fill="transparent" data-name="Path 14"/><path d="M0 1.409a1.408 1.509 0 1 1 0 .1z" stroke-linejoin="round" stroke-linecap="round" stroke="#fcc400" fill="transparent" transform="matrix(.64493 0 0 .6686 1179.752 918.679)" data-name="Ellipse 1"/><path d="M0 1.409a1.408 1.509 0 1 1 0 .1z" stroke-linejoin="round" stroke-linecap="round" stroke="#fcc400" fill="transparent" transform="matrix(.64493 0 0 .6686 1179.752 923.507)" data-name="Ellipse 2"/><path d="M0 1.409a1.408 1.509 0 1 1 0 .1z" stroke-linejoin="round" stroke-linecap="round" stroke="#fcc400" fill="transparent" transform="matrix(.64493 0 0 .6686 1179.752 928.335)" data-name="Ellipse 3"/><path d="M0 1.409a1.408 1.509 0 1 1 0 .1z" stroke-linejoin="round" stroke-linecap="round" stroke="#fcc400" fill="transparent" transform="matrix(.64493 0 0 .6686 1174.119 918.679)" data-name="Ellipse 4"/><path d="M0 1.409a1.408 1.509 0 1 1 0 .1z" stroke-linejoin="round" stroke-linecap="round" stroke="#fcc400" fill="transparent" transform="matrix(.64493 0 0 .6686 1168.486 918.679)" data-name="Ellipse 5"/><path d="M0 1.409a1.408 1.509 0 1 1 0 .1z" stroke-linejoin="round" stroke-linecap="round" stroke="#fcc400" fill="transparent" transform="matrix(.64493 0 0 .6686 1168.486 923.507)" data-name="Ellipse 6"/><path d="M0 1.409a1.408 1.509 0 1 1 0 .1z" stroke-linejoin="round" stroke-linecap="round" stroke="#fcc400" fill="transparent" transform="matrix(.64493 0 0 .6686 1174.119 923.507)" data-name="Ellipse 7"/><path d="M0 0h8.45v3.42h0H0h0V0h0z" stroke-linejoin="round" stroke-linecap="round" stroke="#fcc400" fill="transparent" transform="matrix(.88164 0 0 .7076 1168.889 928.352)" data-name="Rectangle 20"/></g></g></g></svg>