<svg id="Layer_1" data-name="Layer 1" xmlns="http://www.w3.org/2000/svg" viewBox="0 0 234.01 226.6"><path d="M374.46,82.16" transform="translate(0.87 -4.63)" fill="none" stroke="#fbc300" stroke-miterlimit="10" stroke-width="0.81"/><path d="M429.4,92.57" transform="translate(0.87 -4.63)" fill="none" stroke="#000" stroke-miterlimit="10" stroke-width="0.9"/><path d="M393.57,75" transform="translate(0.87 -4.63)" fill="none" stroke="#000" stroke-miterlimit="10" stroke-width="0.9"/><path d="M420.3,112.69" transform="translate(0.87 -4.63)" fill="none" stroke="#000" stroke-miterlimit="10" stroke-width="0.9"/><path d="M384.37,94.66" transform="translate(0.87 -4.63)" fill="none" stroke="#000" stroke-miterlimit="10" stroke-width="0.9"/><path d="M60.48,49.55h0l0,0,.1-.08,0-.08A1.26,1.26,0,0,0,60.48,49.55Z" transform="translate(0.87 -4.63)" fill="#1d1d1b"/><path d="M171.68,14.75h0l0,0Z" transform="translate(0.87 -4.63)" fill="#1d1d1b"/><path d="M182.15,52.57q0-12.3,0-24.59c0-3.08,0-6.15,0-9.23a28.44,28.44,0,0,0-.31-5.76c-1.06-5.11-5.94-8.32-10.94-8.34H81.1c-3.1,0-6.21-.05-9.31,0a11.58,11.58,0,0,0-3.71.7,4.66,4.66,0,0,0-2.67,1.37l-.19.2A10.63,10.63,0,0,0,63,9.24L50.16,22.35,25.87,47.23l-5.54,5.68a4.21,4.21,0,0,0-.64.82A11.19,11.19,0,0,0,17,61c0,3.06,0,6.12,0,9.18v104.7a5,5,0,0,0,10,0V64.55c0-1.12,0-2.25,0-3.37,0-.07,0-.37,0-.57s0-.13,0-.19h0l.15-.23.09-.1.26-.14.21-.06h.09c6.09.17,12.21-.08,18.3-.12L57,59.72c3.18,0,6.37.07,9.11-1.91a11.15,11.15,0,0,0,4.78-9c0-.66,0-1.34,0-2V16.26c0-.23,0-.45,0-.68a.66.66,0,0,1,0-.13l.78-.8h.16c1,0,1.9,0,2.84,0h96.67l.1,0,.13,0,.24.13.14.15.09.15.09.29s0,0,0,.07c-.05,1.28,0,2.58,0,3.86l0,21.66,0,21.44c0,1.2,0,2.39,0,3.59a5,5,0,0,0,10,0Q182.16,59.32,182.15,52.57ZM27.38,60h0Zm-.32.37v0l.06-.07A.35.35,0,0,1,27.06,60.36Zm.37-.38h0Zm.49-.12.21,0S28,59.85,27.92,59.86ZM56.41,49.72l-19.11.12,5.35-5.49,18.2-18.64V48.35c0,.16,0,.33,0,.49a3.56,3.56,0,0,0-.09.39l0,.08,0,0,.06,0v0h0l-.1.09,0,0-.08,0,0,0,0,0,0,0-.09.05-.41.1c-.16,0-.33,0-.49,0Zm4.14-.15h-.07l.11-.08Zm-.31.11h0l0,0Zm-.11,0h.06l-.12.06S60.09,49.74,60.13,49.72Zm.31-.1.09,0-.08.11S60.42,49.66,60.44,49.62Zm.41-.56V49c0-.07.06-.12.08-.1ZM71.67,14.62h0c.18-.07.33-.12.35-.06S71.84,14.62,71.67,14.62Zm100.17.21,0,0c.05,0,.07,0,.07,0Zm-.11-.15,0-.06S171.71,14.64,171.73,14.68Zm-.07.06h0s-.06-.05,0-.06l.07.07.12,0,0,0-.13-.06,0,0Zm.41.52,0,.06v0Z" transform="translate(0.87 -4.63)" fill="#1d1d1b"/><rect x="7.78" y="171.22" width="49.24" height="18.12" rx="4.13" fill="#fbc300"/><path d="M52,193.35H15.52c-2.95,0-7.78.77-8-3.52-.09-1.92,0-3.86,0-5.78s-.48-4.75.82-6.31c1-1.24,2.4-1.27,3.83-1.27H50.74c1.37,0,2.68,0,3.76,1,1.49,1.5,1,4.26,1,6.19s.08,4.09,0,6.12A3.59,3.59,0,0,1,52,193.35c-.8,0-.81,1.28,0,1.25,3-.13,4.76-2.49,4.76-5.36v-7.53c0-2.46-.24-4.93-2.84-6.08a8.13,8.13,0,0,0-3.39-.41H20.9c-3.23,0-6.48-.08-9.71,0A4.87,4.87,0,0,0,6.29,180c-.08,2.05,0,4.11,0,6.15s-.39,4.67.89,6.46a5.21,5.21,0,0,0,4.56,2H52A.63.63,0,0,0,52,193.35Z" transform="translate(0.87 -4.63)" fill="#1d1d1b"/><rect x="0.66" y="189.33" width="56.36" height="18.12" rx="4.13" fill="#fbc300"/><path d="M52,211.46H5.47c-1.26,0-2.51.12-3.6-.67-2.09-1.53-1.45-5-1.45-7.27v-4.24a5.4,5.4,0,0,1,.53-3c1-1.6,2.61-1.65,4.24-1.65H43.6c2.79,0,5.6-.12,8.39,0a3.59,3.59,0,0,1,3.54,3.51c0,.78,0,1.56,0,2.34,0,2.45.09,4.93,0,7.39A3.59,3.59,0,0,1,52,211.46c-.8,0-.81,1.29,0,1.25a4.87,4.87,0,0,0,4.41-3,7.87,7.87,0,0,0,.35-3c0-2.72,0-5.44,0-8.16A4.91,4.91,0,0,0,52,193.34c-1,0-2.05,0-3.08,0H14.59c-3.5,0-7-.08-10.51,0a4.87,4.87,0,0,0-4.91,4.88c-.08,2.6,0,5.21,0,7.81a18.64,18.64,0,0,0,0,2.59,4.81,4.81,0,0,0,3.55,3.95,12.85,12.85,0,0,0,3.1.14H52A.63.63,0,0,0,52,211.46Z" transform="translate(0.87 -4.63)" fill="#1d1d1b"/><rect x="0.66" y="207.12" width="95.63" height="18.12" rx="4.13" fill="#fbc300"/><path d="M91.29,229.25H4.18a3.61,3.61,0,0,1-3.76-3.34c-.11-1.64,0-3.33,0-5s-.08-3.38,0-5.05a3.6,3.6,0,0,1,3.73-3.51H88c1.09,0,2.18,0,3.27,0a3.59,3.59,0,0,1,3.51,3.51c0,.51,0,1,0,1.54v6.77c0,.51,0,1,0,1.54a3.59,3.59,0,0,1-3.51,3.51c-.8,0-.81,1.29,0,1.25a4.88,4.88,0,0,0,4.76-4.95c0-2.06,0-4.13,0-6.19,0-1.75.3-3.92-.48-5.54a4.91,4.91,0,0,0-4.43-2.69c-4.86-.12-9.74,0-14.6,0H19.15c-5,0-10-.06-15,0a5,5,0,0,0-4.08,2c-1.15,1.61-.88,3.67-.88,5.53,0,2.2,0,4.41,0,6.61a4.93,4.93,0,0,0,3.92,5.16,23.67,23.67,0,0,0,4,.07H91.29A.63.63,0,0,0,91.29,229.25Z" transform="translate(0.87 -4.63)" fill="#1d1d1b"/><circle cx="76.63" cy="187.07" r="28.36" fill="#fbc300"/><path d="M46.78,191.7a29,29,0,1,0,.35-4.5,30.78,30.78,0,0,0-.35,4.5.63.63,0,0,0,1.25,0,27.74,27.74,0,1,1,22.06,27.15A28,28,0,0,1,48,191.7.63.63,0,0,0,46.78,191.7Z" transform="translate(0.87 -4.63)"/><circle cx="76.63" cy="187.32" r="21.65" fill="#fbc300"/><path d="M53.5,192a22.27,22.27,0,1,0,18-21.86A22.5,22.5,0,0,0,53.5,192a.63.63,0,0,0,1.25,0,21,21,0,1,1,16.74,20.59A21.21,21.21,0,0,1,54.75,192,.63.63,0,0,0,53.5,192Z" transform="translate(0.87 -4.63)"/><path d="M134,220.81h.43A1.29,1.29,0,0,0,134,220.81Z" transform="translate(0.87 -4.63)"/><path d="M232.63,93.94a15.14,15.14,0,0,0-14.79-11c-2,0-3.94,0-5.91,0H182.49a22.44,22.44,0,0,0-.34-5.44,5.18,5.18,0,0,0-6.36-3.61,5.2,5.2,0,0,0-3.09,2.38,5.49,5.49,0,0,0-.62,3.24,28,28,0,0,1,.08,3.43H135.75a15.56,15.56,0,0,0-13.45,6.85,16.51,16.51,0,0,0-2.37,9.42v103.3c0,4.5,0,9,0,13.49a16.69,16.69,0,0,0,.19,2.47h-8.73a5.17,5.17,0,0,0,0,10.34h15.34a15.38,15.38,0,0,0,3.42,1.7,21.59,21.59,0,0,0,7.33.77h80.75a5.46,5.46,0,0,0,.57,0,15.11,15.11,0,0,0,14.33-15c0-1.24,0-2.49,0-3.73V99.89A23,23,0,0,0,232.63,93.94Zm-11.7,126.11a3.17,3.17,0,0,1,.27-.22S221.09,220,220.93,220.05Zm1-.91a2.15,2.15,0,0,1,.25-.35C222.15,218.85,222,219,221.89,219.14Zm.54-123.25c-.05-.15-.06-.22,0,0Zm.16.41s-.08-.13-.13-.29C222.53,96.13,222.61,96.28,222.59,96.3ZM222,95.1c-.12-.13-.25-.28-.22-.28S221.86,94.93,222,95.1Zm0,.05Zm-.81-.87a1.84,1.84,0,0,1-.27-.22C221.09,94.15,221.21,94.24,221.2,94.28Zm-2.48-1H219C219.65,93.28,219,93.33,218.72,93.24ZM131.18,95c-.1.18-.25.42-.26.37S131,95.12,131.18,95Zm-.46.75a3.72,3.72,0,0,1-.19.41C130.59,95.88,130.65,95.71,130.72,95.7Zm-.39,1s0,.11,0,.25A.5.5,0,0,1,130.33,96.71ZM130.52,218a2.06,2.06,0,0,1,.2.42C130.65,218.4,130.59,218.23,130.52,218Zm.4.79s.16.2.26.37C131,219,130.91,218.85,130.92,218.79Zm1.2,1.26a1.36,1.36,0,0,1,.24.18S132.22,220.15,132.12,220.05Zm44,.84H135.6c-.37,0-.81,0-1.22-.07.13,0,0,.11-.31,0l-.08,0h-.24l.2,0c-.18-.05-.37-.09-.55-.15l-.33-.11a9.63,9.63,0,0,0-.93-.53L132,220l-.17-.17c-.06-.06-.35-.31-.59-.55l0-.09c-.09-.2-.25-.38-.36-.57l-.24-.46-.11-.18c-.08-.3-.15-.67-.2-.88s0-.27,0-.38v-.45c0-.13,0-.27,0-.4,0-1.56,0-3.13,0-4.69V99.7c0-.52,0-1,0-1.57,0-.1,0-.21,0-.31v-.39s0-.12,0-.26a1,1,0,0,1,0-.14c0-.11.1-.53.19-.87l.11-.17.24-.45c.11-.2.27-.38.36-.58l0-.08c.24-.24.53-.5.59-.55l.26-.23h0c.29-.16.65-.33.93-.52l.33-.12.55-.14-.2,0a1.6,1.6,0,0,0,.31,0h0c.21-.06.34,0,.35,0l.41,0H218.1a.4.4,0,0,0,.11,0h0l.48,0a8.37,8.37,0,0,0,1.29.32h0a1.09,1.09,0,0,1,.17.1c.09,0,.45.22.72.38l.06.06c.16.16.34.3.5.46s.3.34.46.5l0,0c.17.29.38.7.4.74l.09.15v0c.06.22.11.62.2,1,0-.25.1-.35.11.1a1.62,1.62,0,0,0,0,.22l0,.09,0-.07c0,.16,0,.32,0,.48h0v.09c0,.13,0,.27,0,.41,0,.61,0,1.22,0,1.83v103c0,4.28,0,8.57,0,12.86a2.43,2.43,0,0,1,0,.27c0,.19,0,.38,0,.58a.62.62,0,0,0,0,.13l0,.08c-.1.32-.24.7-.31,1-.05.11-.1.22-.15.31s-.24.38-.35.58l-.1.19c-.21.21-.45.42-.5.47L221,220l-.06.06c-.27.16-.63.34-.72.39l-.17.09h0a9.86,9.86,0,0,0-1.28.31l-.49,0H176.14Z" transform="translate(0.87 -4.63)"/><path d="M222.78,97.29a1.07,1.07,0,0,1-.12-.32.64.64,0,0,0,.12.34Z" transform="translate(0.87 -4.63)"/><path d="M134.42,93.26c-.12,0-.24,0-.36,0l-.11,0C134.3,93.34,134.43,93.3,134.42,93.26Z" transform="translate(0.87 -4.63)"/><path d="M211.78,134.69A7.31,7.31,0,0,0,219,127.5c0-1,0-2,0-3V111c0-1.33,0-2.67,0-4a7.35,7.35,0,0,0-4.78-7c-1.66-.61-3.63-.42-5.37-.42h-50.1c-5.35,0-10.71,0-16.06,0a7.42,7.42,0,0,0-5.43,2.23,8.12,8.12,0,0,0-2,5.86v18.15a10.37,10.37,0,0,0,.75,4.8,7.32,7.32,0,0,0,6.52,4h69.28Zm-38.48-5.17H143.15a4.33,4.33,0,0,1-1.44-.12c-1.24-.46-1.31-1.62-1.31-2.75V109.09a14.53,14.53,0,0,1,0-2.64c.37-2,2.5-1.65,4-1.65h65.65c1.61,0,3.57-.15,3.71,2,.2,3,0,6,0,9,0,3.71,0,7.43,0,11.14,0,1.31-.53,2.46-2,2.52H173.3Z" transform="translate(0.87 -4.63)"/><polygon points="213.26 142.13 213.26 142.13 213.26 142.13 213.26 142.13"/><path d="M197.57,157.32h0v0h0S197.57,157.34,197.57,157.32Z" transform="translate(0.87 -4.63)"/><path d="M197.59,157.39Z" transform="translate(0.87 -4.63)"/><path d="M193.1,159.92a5.4,5.4,0,0,0,4.74,2.64c4.85.06,9.71,0,14.56,0a2.65,2.65,0,0,0,.71-.1,5.25,5.25,0,0,0,4.48-5.09c0-.76,0-1.52,0-2.28v-7.83a5.47,5.47,0,0,0-2.23-4.69,5.9,5.9,0,0,0-3.61-.95h-7.63c-2.13,0-4.27-.06-6.39,0a5.31,5.31,0,0,0-5,3.49,9,9,0,0,0-.3,3.06v8.1A7,7,0,0,0,193.1,159.92Zm4.49-2.52-.05,0,.05,0v0l0,0s0,0,0,0h0s0,0,0,0v0h0v0h0v0l0,0c0,.07,0,.08,0,0C197.68,157.59,197.69,157.76,197.59,157.4Zm0-10.51,0,0C197.58,147,197.54,147,197.56,146.89Zm.05,10.49h0v0S197.61,157.37,197.61,157.38Zm0,0h.05C197.75,157.49,197.9,157.58,197.63,157.42Zm14.87-.09.05,0Zm-.07-10.54h0l.06,0Zm0-.06v0h0l-.08,0c-.07-.05-.15-.12.07,0C212.35,146.7,212.37,146.68,212.4,146.73Zm-11.12.06h11.08l0,0a.45.45,0,0,0,0,.17v.21c0,.43,0,.86,0,1.28v8.11c0,.26,0,.52,0,.78h0v0H200.05c-.74,0-1.47,0-2.21,0h-.18s0,0,0,0l0,0c0-.08,0-.18,0-.18-.06-2,0-3.95,0-5.92v-4.44l0,0c.08,0,.19,0,.13,0h3.51Z" transform="translate(0.87 -4.63)"/><polygon points="213.26 167.62 213.26 167.62 213.26 167.62 213.26 167.62"/><path d="M193.1,185.4a5.41,5.41,0,0,0,4.74,2.65c4.85.06,9.71,0,14.56,0a2.65,2.65,0,0,0,.71-.1,5.25,5.25,0,0,0,4.48-5.1c0-.75,0-1.52,0-2.27v-7.83a5.44,5.44,0,0,0-2.23-4.69,5.9,5.9,0,0,0-3.61-.95h-7.63c-2.13,0-4.27-.06-6.39,0a5.29,5.29,0,0,0-5,3.49,9,9,0,0,0-.3,3.06v8.1A6.93,6.93,0,0,0,193.1,185.4Zm4.49-2.52-.05,0,.05,0v0l0,0s0,0,0,0v0s0,0,0,0v0h0v0l0,0v0l0,0c0,.07,0,.07,0,0C197.68,183.07,197.69,183.24,197.59,182.88Zm0-10.5,0,0C197.58,172.48,197.54,172.47,197.56,172.38Zm.05,10.49h0v0Zm0,0v0l.05,0C197.75,183,197.9,183.07,197.63,182.91Zm14.87-.1.05,0Zm-.07-10.54h0l.06,0Zm0-.06v0h0l-.08,0c-.07-.06-.15-.12.07,0C212.35,172.19,212.37,172.16,212.4,172.21Zm-11.12.07h11.08l0,0a.45.45,0,0,0,0,.17v.21c0,.42,0,.85,0,1.28v8.11c0,.25,0,.52,0,.78h0v0H197.66s0,0,0,0l0,0c0-.07,0-.17,0-.17-.06-2,0-4,0-5.92v-4.45l0,0c.08,0,.19,0,.13,0h3.51Z" transform="translate(0.87 -4.63)"/><path d="M197.59,182.87h0Z" transform="translate(0.87 -4.63)"/><path d="M197.57,182.81h0v0h0S197.57,182.83,197.57,182.81Z" transform="translate(0.87 -4.63)"/><path d="M187.45,142.57a5.92,5.92,0,0,0-3.61-.95H176.2c-2.13,0-4.26-.06-6.39,0a5.3,5.3,0,0,0-5,3.49,8.77,8.77,0,0,0-.3,3.06v8.1a6.87,6.87,0,0,0,.67,3.65,5.38,5.38,0,0,0,4.74,2.64c4.85.06,9.7,0,14.55,0a2.65,2.65,0,0,0,.71-.1,5.23,5.23,0,0,0,4.48-5.09c0-.76,0-1.52,0-2.28v-7.83A5.46,5.46,0,0,0,187.45,142.57Zm-2.81,14.73-.06,0Zm-.12-10.51h0l0,0Zm0-.06v0h0l-.08,0c-.07-.05-.15-.12.08,0C184.44,146.7,184.45,146.68,184.48,146.73Zm-14.84.16s0,0,0,0S169.62,147,169.64,146.89Zm0,10.51,0,0,0,0v0l0,0s0,0,0,0h0l0,0v0h0v0h0v0l0,0c0,.07,0,.08,0,0C169.76,157.59,169.77,157.76,169.67,157.4Zm0,0h0v0Zm0,0h0C169.83,157.49,170,157.58,169.72,157.42Zm2.41,0c-.73,0-1.47,0-2.2,0h-.19s0,0,0,0l0,0a.44.44,0,0,0,0-.18c-.07-2,0-3.95,0-5.92v-3.39c0-.31,0-.62,0-.93v-.12l0,0c.09,0,.2,0,.13,0h14.6l0,0a.92.92,0,0,0,0,.17,1.47,1.47,0,0,1,0,.21c0,.43,0,.86,0,1.28v8.11c0,.26,0,.52,0,.78,0,0,0,0,0,0h0v0H172.13Z" transform="translate(0.87 -4.63)"/><path d="M169.65,157.32h0v0h0Z" transform="translate(0.87 -4.63)"/><path d="M169.67,157.39Z" transform="translate(0.87 -4.63)"/><polygon points="185.35 142.13 185.34 142.13 185.35 142.13 185.35 142.13"/><polygon points="157.29 142.13 157.29 142.13 157.29 142.13 157.29 142.13"/><path d="M141.62,157.39Z" transform="translate(0.87 -4.63)"/><path d="M159.39,142.57a5.87,5.87,0,0,0-3.6-.95h-7.64c-2.13,0-4.27-.06-6.39,0a5.31,5.31,0,0,0-5,3.49,9,9,0,0,0-.3,3.06v8.1a7,7,0,0,0,.67,3.65,5.4,5.4,0,0,0,4.74,2.64c4.85.06,9.71,0,14.56,0a2.65,2.65,0,0,0,.71-.1,5.25,5.25,0,0,0,4.48-5.09c0-.76,0-1.52,0-2.28v-7.83A5.47,5.47,0,0,0,159.39,142.57Zm-2.81,14.73-.05,0Zm-.12-10.51h0l.06,0Zm0-.06v0h0l-.08,0c-.07-.05-.15-.12.07,0C156.38,146.7,156.4,146.68,156.43,146.73Zm-14.84.16,0,0C141.61,147,141.57,147,141.59,146.89Zm0,10.51-.05,0,.05,0v0l0,0s0,0,0,0h0s0,0,0,0v0h0v0h0v0l0,0c0,.07,0,.08,0,0C141.71,157.59,141.72,157.76,141.62,157.4Zm0,0h0v0S141.64,157.37,141.65,157.38Zm0,0h0C141.78,157.49,141.93,157.58,141.67,157.42Zm2.41,0c-.74,0-1.47,0-2.21,0h-.18s0,0,0,0l0,0c0-.08,0-.18,0-.18-.06-2,0-3.95,0-5.92V147a.48.48,0,0,0,0-.12l0,0c.08,0,.19,0,.13,0h14.59l0,0a.45.45,0,0,0,0,.17v.21c0,.43,0,.86,0,1.28v8.11c0,.26,0,.52,0,.78h0v0H144.08Z" transform="translate(0.87 -4.63)"/><path d="M141.6,157.32h0v0h0A.08.08,0,0,0,141.6,157.32Z" transform="translate(0.87 -4.63)"/><path d="M141.6,182.81h0v0h0A.08.08,0,0,0,141.6,182.81Z" transform="translate(0.87 -4.63)"/><polygon points="157.29 167.62 157.29 167.62 157.29 167.62 157.29 167.62"/><path d="M141.62,182.87h0Z" transform="translate(0.87 -4.63)"/><path d="M137.13,185.4a5.41,5.41,0,0,0,4.74,2.65c4.85.06,9.71,0,14.56,0a2.65,2.65,0,0,0,.71-.1,5.25,5.25,0,0,0,4.48-5.1c0-.75,0-1.52,0-2.27v-7.83a5.44,5.44,0,0,0-2.23-4.69,5.87,5.87,0,0,0-3.6-.95h-7.64c-2.13,0-4.27-.06-6.39,0a5.29,5.29,0,0,0-5,3.49,9,9,0,0,0-.3,3.06v8.1A6.93,6.93,0,0,0,137.13,185.4Zm4.49-2.52-.05,0,.05,0v0l0,0s0,0,0,0v0s0,0,0,0v0h0v0l0,0v0l0,0c0,.07,0,.07,0,0C141.71,183.07,141.72,183.24,141.62,182.88Zm0-10.5,0,0C141.61,172.48,141.57,172.47,141.59,172.38Zm.06,10.49h0v0Zm0,0v0l0,0C141.78,183,141.93,183.07,141.67,182.91Zm14.86-.1.05,0Zm-.07-10.54h0l.06,0Zm0-.06v0h0l-.08,0c-.07-.06-.15-.12.07,0C156.38,172.19,156.4,172.16,156.43,172.21Zm-11.12.07h11.08l0,0a.45.45,0,0,0,0,.17v.21c0,.42,0,.85,0,1.28v8.11c0,.25,0,.52,0,.78h0v0H141.69s0,0,0,0l0,0c0-.07,0-.17,0-.17-.06-2,0-4,0-5.92v-4.32a.57.57,0,0,0,0-.13l0,0c.08,0,.19,0,.13,0h3.51Z" transform="translate(0.87 -4.63)"/><path d="M165.19,184.85a5.39,5.39,0,0,0,4.74,2.65c4.85.06,9.7,0,14.55,0a2.65,2.65,0,0,0,.71-.1,5.23,5.23,0,0,0,4.48-5.1c0-.75,0-1.52,0-2.27V172.2a5.44,5.44,0,0,0-2.22-4.69,5.92,5.92,0,0,0-3.61-.95H176.2c-2.13,0-4.26-.06-6.39,0a5.29,5.29,0,0,0-5,3.49,8.77,8.77,0,0,0-.3,3.06v8.1A6.84,6.84,0,0,0,165.19,184.85Zm4.48-2.52,0,0,0,0v0l0,0s0,0,0,0v0l0,0v0h0v0l0,0v0l0,0c0,.07,0,.07,0,0C169.76,182.52,169.77,182.69,169.67,182.33Zm0-10.5,0,0C169.66,171.93,169.62,171.92,169.64,171.83Zm.06,10.49h0v0Zm0,0v0l0,0C169.83,182.42,170,182.52,169.72,182.36Zm14.86-.1.06,0Zm-.06-10.54h0l0,0Zm0-.06v0h0l-.08,0c-.07-.06-.15-.12.08,0C184.44,171.64,184.45,171.61,184.48,171.66Zm-11.12.07h11.09l0,0a1.09,1.09,0,0,0,0,.17,1.47,1.47,0,0,1,0,.21c0,.42,0,.85,0,1.28v8.11c0,.25,0,.52,0,.78h0v0H169.74s0,0,0,0l0,0a.42.42,0,0,0,0-.17c-.07-2,0-3.95,0-5.92v-3.4c0-.3,0-.61,0-.92v-.13l0,0c.09,0,.2,0,.13,0h3.51Z" transform="translate(0.87 -4.63)"/><path d="M169.67,182.32h0Z" transform="translate(0.87 -4.63)"/><path d="M169.65,182.26h0v0h0Z" transform="translate(0.87 -4.63)"/><polygon points="185.35 167.07 185.34 167.07 185.35 167.07 185.35 167.07"/><path d="M197.66,208.29h0Z" transform="translate(0.87 -4.63)"/><path d="M197.64,208.23h0v0h0S197.64,208.25,197.64,208.23Z" transform="translate(0.87 -4.63)"/><polygon points="213.33 193.04 213.33 193.04 213.33 193.04 213.33 193.04"/><path d="M217.66,198.17a5.44,5.44,0,0,0-2.23-4.69,5.92,5.92,0,0,0-3.61-.95h-7.64c-2.12,0-4.26-.06-6.38,0a5.29,5.29,0,0,0-5,3.49,9,9,0,0,0-.3,3.06v8.1a6.93,6.93,0,0,0,.67,3.64,5.41,5.41,0,0,0,4.74,2.65c4.85.06,9.71,0,14.56,0a2.65,2.65,0,0,0,.71-.1,5.25,5.25,0,0,0,4.48-5.1c0-.75,0-1.52,0-2.27Zm-5,10-.05,0Zm-.12-10.51h0l.06,0Zm0-.06a.08.08,0,0,1,0,0h0l-.07,0c-.07-.06-.16-.12.07,0C212.42,197.61,212.43,197.58,212.47,197.63Zm-14.84.17,0,0C197.65,197.9,197.61,197.89,197.63,197.8Zm0,10.5-.06,0,.06,0v0l0,0s0,0,0,0v0l0,0v0h0v0l0,0v0l0,0c0,.07,0,.07,0,0C197.75,208.49,197.76,208.66,197.66,208.3Zm0,0h0v0S197.68,208.28,197.68,208.29Zm0,0v0l.05,0C197.82,208.39,198,208.49,197.7,208.33Zm2.41,0h-2.39s0,0,0,0l0,0c0-.07,0-.17,0-.17-.06-2,0-3.95,0-5.92v-4.45l0,0c.09,0,.2,0,.14,0h14.59l0,0a.45.45,0,0,0,0,.17v.21c0,.42,0,.85,0,1.28v8.11c0,.26,0,.52,0,.78h0v0H200.11Z" transform="translate(0.87 -4.63)"/><polygon points="157.36 193.04 157.36 193.04 157.36 193.04 157.36 193.04"/><path d="M141.67,208.23h0v0h0S141.67,208.25,141.67,208.23Z" transform="translate(0.87 -4.63)"/><path d="M141.69,208.29h0Z" transform="translate(0.87 -4.63)"/><path d="M161.69,198.17a5.44,5.44,0,0,0-2.23-4.69,5.9,5.9,0,0,0-3.61-.95h-7.64c-2.12,0-4.26-.06-6.38,0a5.29,5.29,0,0,0-5,3.49,9,9,0,0,0-.3,3.06v8.1a6.93,6.93,0,0,0,.67,3.64,5.41,5.41,0,0,0,4.74,2.65c4.85.06,9.71,0,14.56,0a2.65,2.65,0,0,0,.71-.1,5.25,5.25,0,0,0,4.48-5.1c0-.75,0-1.52,0-2.27Zm-5,10-.05,0Zm-.12-10.51h0l.06,0Zm0-.06v0h0l-.07,0c-.07-.06-.15-.12.07,0C156.45,197.61,156.46,197.58,156.5,197.63Zm-14.84.17,0,0C141.68,197.9,141.64,197.89,141.66,197.8Zm0,10.5-.05,0,.05,0v0l0,0s0,0,0,0v0s0,0,0,0v0h0v0l0,0v0l0,0c0,.07,0,.07,0,0C141.78,208.49,141.79,208.66,141.69,208.3Zm0,0h0v0S141.71,208.28,141.71,208.29Zm0,0v0l.05,0C141.85,208.39,142,208.49,141.73,208.33Zm2.42,0h-2.4s0,0,0,0l0,0c0-.07,0-.17,0-.17-.06-2,0-3.95,0-5.92v-4.45l0,0c.08,0,.19,0,.13,0h14.59l0,0a.45.45,0,0,0,0,.17v.21c0,.42,0,.85,0,1.28v8.11c0,.26,0,.52,0,.78h0v0H144.15Z" transform="translate(0.87 -4.63)"/><path d="M169.74,207.74h0Z" transform="translate(0.87 -4.63)"/><polygon points="185.42 192.49 185.41 192.49 185.42 192.49 185.42 192.49"/><path d="M189.74,197.62a5.42,5.42,0,0,0-2.23-4.69,5.87,5.87,0,0,0-3.6-1h-7.64c-2.13,0-4.26-.06-6.39,0a5.29,5.29,0,0,0-5,3.49,9,9,0,0,0-.29,3.06v8.1a6.93,6.93,0,0,0,.66,3.64,5.42,5.42,0,0,0,4.75,2.65c4.85.06,9.7,0,14.55,0a2.65,2.65,0,0,0,.71-.1,5.24,5.24,0,0,0,4.48-5.1c0-.75,0-1.52,0-2.27Zm-5,10,0,0Zm-.11-10.51h0l.06,0Zm0-.06v0h0l-.08,0c-.07-.06-.15-.12.08,0C184.51,197.06,184.52,197,184.55,197.08Zm-14.84.17,0,0C169.73,197.35,169.69,197.34,169.71,197.25Zm0,10.5-.05,0,.05,0v0l0,0s0,0,0,0v0l0,0v0h0v0l0,0v0l0,0c0,.07,0,.07,0,0C169.83,207.94,169.84,208.11,169.74,207.75Zm0,0h0v0Zm0,0v0l0,0C169.9,207.84,170.05,207.94,169.79,207.78Zm2.41,0h-2.39s0,0,0,0l0,0a.42.42,0,0,0,0-.17c-.07-2,0-4,0-5.92v-3.39c0-.31,0-.62,0-.93v-.13l0,0c.09,0,.2,0,.13,0,.21,0,.43,0,.64,0H184c.18,0,.36,0,.53,0h0l0,0a1.09,1.09,0,0,0,0,.17,1.47,1.47,0,0,1,0,.21c0,.42,0,.85,0,1.28v8.11c0,.26,0,.52,0,.78h0v0H172.2Z" transform="translate(0.87 -4.63)"/><path d="M169.72,207.68h0v0h0S169.73,207.7,169.72,207.68Z" transform="translate(0.87 -4.63)"/><path d="M85.64,70H34.75c-3.38,0-3.38,5.25,0,5.25H85.64C89,75.28,89,70,85.64,70Z" transform="translate(0.87 -4.63)"/><path d="M111.62,70h-10a2.63,2.63,0,0,0,0,5.25h10a2.63,2.63,0,1,0,0-5.25Z" transform="translate(0.87 -4.63)"/><path d="M85.64,90.82H34.24c-3.37,0-3.38,5.24,0,5.24h51.4C89,96.06,89,90.82,85.64,90.82Z" transform="translate(0.87 -4.63)"/><path d="M111.44,90.82h-10a2.62,2.62,0,1,0,0,5.24h10a2.65,2.65,0,0,0,2.63-2.62A2.68,2.68,0,0,0,111.44,90.82Z" transform="translate(0.87 -4.63)"/><path d="M85.64,111.6H34.22c-3.37,0-3.38,5.25,0,5.25H85.64C89,116.85,89,111.6,85.64,111.6Z" transform="translate(0.87 -4.63)"/><path d="M111.44,111.6h-10a2.63,2.63,0,0,0,0,5.25h10a2.63,2.63,0,1,0,0-5.25Z" transform="translate(0.87 -4.63)"/><path d="M68.29,135.31H34.22c-3.37,0-3.38,5.24,0,5.24H85.64c3.38,0,3.38-5.24,0-5.24Z" transform="translate(0.87 -4.63)"/><path d="M111.39,135.31h-10a2.62,2.62,0,1,0,0,5.24h10a2.62,2.62,0,0,0,0-5.24Z" transform="translate(0.87 -4.63)"/><path d="M68.48,191.64a12.87,12.87,0,0,0-2-.51c-.61-.13-1.8-.22-2.12-.86-.43-.87.46-1.52,1.19-1.66a4.22,4.22,0,0,1,3.29.9.66.66,0,0,0,.89-.24l1-1.39a.66.66,0,0,0-.24-.89,7.38,7.38,0,0,0-5.83-1.23,4.09,4.09,0,0,0-3.38,3.59,3.78,3.78,0,0,0,2.26,4.19,13,13,0,0,0,2.31.55c.69.12,2,.23,2.16,1.08.22,1.11-1,1.46-1.85,1.5a4.68,4.68,0,0,1-3.3-1,.66.66,0,0,0-.93,0L60.83,197a.67.67,0,0,0,0,.92,7.46,7.46,0,0,0,3.11,1.54,7.57,7.57,0,0,0,5.13-.53,4,4,0,0,0,2-3.88A3.68,3.68,0,0,0,68.48,191.64Z" transform="translate(0.87 -4.63)"/><path d="M80.44,185.72h-2a.64.64,0,0,0-.56.33l-2.16,4.46q-1.09-2.23-2.17-4.46a.64.64,0,0,0-.56-.33h-2a.67.67,0,0,0-.57,1q1.31,2.52,2.59,5a23.35,23.35,0,0,0,1.11,2.17c0,.08,0,.18,0,.22v4.7a.67.67,0,0,0,.66.66h1.75a.67.67,0,0,0,.66-.66v-4.91q1.85-3.62,3.71-7.23A.67.67,0,0,0,80.44,185.72Z" transform="translate(0.87 -4.63)"/><path d="M87.62,185.81a9.13,9.13,0,0,0-1.57-.09H81.82a.62.62,0,0,0-.42.16l-.05,0,0,0a.6.6,0,0,0-.16.42v12.47a.67.67,0,0,0,.66.66h1.75a.66.66,0,0,0,.65-.66v-4.18h2.43a4.54,4.54,0,0,0,3.1-1.15,4.87,4.87,0,0,0,.52-6A4.13,4.13,0,0,0,87.62,185.81Zm-3.4,2.88c.83,0,1.66,0,2.49,0a1.23,1.23,0,0,1,1.22,1.18,1.54,1.54,0,0,1-.81,1.76,2.66,2.66,0,0,1-.8.05h-2.1Z" transform="translate(0.87 -4.63)"/></svg>