<svg id="Layer_1" data-name="Layer 1" xmlns="http://www.w3.org/2000/svg" viewBox="0 0 221.73 236.84"><path d="M145.74,151c.6,0,1.2.1,1.8.1A18.45,18.45,0,0,0,166,139.74h.31c-.11,18.9-6.2,31.1-17.5,31.1a13.55,13.55,0,0,1-14.1-11.8h-9.2l.1.1a21.8,21.8,0,0,0,22.9,20.2c16.9,0,26.8-15.3,26.8-41.3,0-27.8-10.5-38.3-26.2-38.3a24.48,24.48,0,0,0-24.1,24.6v1.4A23.3,23.3,0,0,0,145.74,151Zm2.3-42.9h1.6a15.18,15.18,0,0,1,15.6,15v.1a20.9,20.9,0,0,1-.1,2.5h0a16.33,16.33,0,0,1-15.6,17h-.3a15.19,15.19,0,0,1-15.4-15v-.1a14.77,14.77,0,0,1,.1-2.1A16,16,0,0,1,148,108.14Z" transform="translate(-19.73 -6.44)" style="fill:#070707"/><path d="M100.64,111.64v66.2h9.1v-76.6h-8.6a157.22,157.22,0,0,0-17.6,11.6v10c5-3.7,13-8.9,16.9-11.2Z" transform="translate(-19.73 -6.44)" style="fill:#070707"/><path d="M241.44,53a31.16,31.16,0,0,0-12.88-26.21A30.8,30.8,0,0,0,215,21.24a57.88,57.88,0,0,0-8.73-.4h-8.5l3.5,3.5v-6a24.09,24.09,0,0,0-.12-3.18,9.92,9.92,0,0,0-3-5.87,10.32,10.32,0,0,0-12.62-1.19,10.53,10.53,0,0,0-4.12,5.33,12.61,12.61,0,0,0-.52,4.23v6.71l3.5-3.5H90.09c-4.34,0-8.74-.23-13.07,0h-.18l3.5,3.5v-6a24.64,24.64,0,0,0-.06-2.72A10.15,10.15,0,0,0,64.82,8a10.74,10.74,0,0,0-4.31,5.38,12.42,12.42,0,0,0-.57,4.33v6.65l3.5-3.5c-4.57,0-9.17-.2-13.73,0A32,32,0,0,0,24.75,35c-3.72,5.56-5.05,11.87-5,18.46V195.68c0,5,.05,10.11,0,15.17a35.67,35.67,0,0,0,.67,8A31,31,0,0,0,26.9,232a31.6,31.6,0,0,0,23.17,11.29c4.48.1,9,0,13.44,0h138.4c6,0,12,.38,17.87-1.57a31.69,31.69,0,0,0,20.07-19.9,37.39,37.39,0,0,0,1.49-12.08V53l-3.5,3.5h.1a3.5,3.5,0,0,0,0-7h-.1a3.54,3.54,0,0,0-3.5,3.5V209.4c0,.5,0,1,0,1.5s0,.94,0,1.42,0,1.05,0,1.58c0,.31,0,.62-.07.94,0,.1-.14,1.14,0,.3a28.14,28.14,0,0,1-.68,3.31,28.68,28.68,0,0,1-1.08,3.16c.05-.13.28-.6,0,0l-.38.81c-.27.54-.55,1.07-.85,1.59a26.7,26.7,0,0,1-1.82,2.75c.08-.1.42-.5,0,0l-.57.69c-.4.45-.8.9-1.22,1.33a32.27,32.27,0,0,1-2.45,2.22c-.5.43-.11.09,0,0l-.73.54c-.5.35-1,.68-1.52,1a30.13,30.13,0,0,1-3,1.58l-.56.25c.73-.31-.22.08-.31.11-.58.23-1.16.43-1.76.61a27.59,27.59,0,0,1-3.37.82l-.63.11c-1,.18.71,0-.34.05-.65.06-1.29.13-1.95.15H54.37c-1.41,0-2.83,0-4.24,0a23.21,23.21,0,0,1-2.36-.19c.7.09,0,0-.18,0l-.79-.13c-.51-.1-1-.22-1.54-.34a33.57,33.57,0,0,1-3.56-1.15c-.93-.34.38.18-.16-.06l-.7-.32c-.51-.24-1-.5-1.5-.76a28.23,28.23,0,0,1-3-1.87c-.08,0-.87-.67-.26-.18l-.47-.38c-.42-.35-.84-.71-1.24-1.09a26.75,26.75,0,0,1-2.38-2.5l-.57-.7c.09.11.38.53,0,0s-.64-.89-.94-1.35a28.69,28.69,0,0,1-1.68-3c-.13-.27-.25-.54-.38-.82.06.12.24.63,0,0s-.43-1.13-.62-1.71a28.31,28.31,0,0,1-.83-3.26l-.15-.91c0-.15-.06-.68,0,0-.05-.63-.12-1.25-.15-1.88,0-.85,0-1.69,0-2.54a2.43,2.43,0,0,1,0-.27c0-1.67,0-3.33,0-5V53.63c0-.94,0-1.88,0-2.82,0-.52.06-1.05.1-1.57,0-.1.14-1.14,0-.3,0-.21.06-.41.1-.61a27.36,27.36,0,0,1,.84-3.58c.15-.48.31-1,.49-1.44.1-.28.22-.56.33-.84-.05.13-.28.6,0,0a33.42,33.42,0,0,1,1.69-3.18c.27-.42.54-.84.83-1.25l.53-.72c-.39.52-.08.1,0,0a32.06,32.06,0,0,1,2.43-2.65c.36-.35.73-.69,1.11-1l.7-.58c.5-.43.11-.09,0,0a28.35,28.35,0,0,1,5.78-3.37c-.73.31.22-.08.31-.11.29-.12.58-.22.87-.32.59-.21,1.19-.39,1.79-.56,1-.28,2.05-.48,3.1-.66s-.71.05.34-.05l1-.09,1-.06c4.45-.11,8.91,0,13.36,0a3.55,3.55,0,0,0,3.5-3.5V17.18a5.77,5.77,0,0,0,0-.72c-.09-.64-.16.4,0-.07,0-.14.06-.3.1-.45s.12-.39.19-.58c-.06.16-.32.53,0,0,.13-.2.74-1,.29-.53a10.18,10.18,0,0,1,.73-.74c.37-.35-.45.27,0,0l.38-.24a5.28,5.28,0,0,1,.53-.27c-.17.07-.6.16,0,0,.24,0,1.27-.21.56-.17.2,0,1.1,0,.78,0s.57.15.75.19c.61.16.16.06,0,0,.18.09.36.18.53.28s.25.17.38.24c.31.2-.32-.36.1.1.13.15.7.78.51.52s.28.51.36.64c.32.56,0,.13,0,0,.06.19.11.38.18.57s.14.55,0,.13,0,.34,0,.45c0,.66,0,1.32,0,2v5.85a3.55,3.55,0,0,0,3.5,3.5h94.24c4.35,0,8.72.13,13.07,0h.19a3.55,3.55,0,0,0,3.5-3.5V17.16c0-.22,0-.47,0-.69s.06-.68-.05,0a3.41,3.41,0,0,1,.1-.46c.05-.24.38-1,.1-.45.09-.18.18-.36.28-.53s.51-.74.23-.38.39-.38.52-.52.52-.34,0,0c.12-.08.24-.17.37-.24.28-.14,1-.35.37-.21.17,0,.4-.11.57-.17.6-.22-.25,0,.12-.05h1.1c-.7,0,.36.12.59.17.05,0,.52.2.15,0s.17.1.26.15l.38.23c.76.41-.22-.24.12.08a10,10,0,0,1,.72.74c-.47-.57.17.37.26.52s.2.5.06.13,0,.19.07.28,0,.3.1.44c-.2-.61,0-.12,0,.14,0,.7,0,1.42,0,2.13v5.85a3.55,3.55,0,0,0,3.5,3.5c4.46,0,8.93-.11,13.39,0,.54,0,1.09.06,1.63.12l.64.07c-.8-.1.25,0,.34.06a28.08,28.08,0,0,1,3.38.79c.55.16,1.09.34,1.63.53l.72.28c1,.35-.62-.3.3.12s2,1,3,1.55c.43.26.86.54,1.28.82.25.17.5.34.74.52.08,0,.87.67.26.18a30.31,30.31,0,0,1,2.47,2.2c.71.71,1.36,1.46,2,2.23s-.38-.56.18.25c.17.24.35.48.52.73.34.49.66,1,1,1.52s.59,1,.86,1.58c.1.18.18.36.27.54s.57,1.29.26.54a26.33,26.33,0,0,1,1.15,3.45c.16.6.29,1.19.41,1.8l.15.91c.16,1-.05-.72,0,.3a31.31,31.31,0,0,1,.13,4.11,3.52,3.52,0,0,0,3.5,3.5A3.58,3.58,0,0,0,241.44,53Z" transform="translate(-19.73 -6.44)"/><path d="M221,211c0,.35,0,.7,0,1.05a3.77,3.77,0,0,0-.08,1s.12-.69,0-.3l-.09.5c-.07.38-.16.74-.26,1.11s-.2.64-.31.95c0,.12-.1.23-.13.35-.14.46.29-.57.06-.15-.35.61-.63,1.24-1,1.83-.09.14-.57.84-.29.44s-.35.4-.43.5a15.21,15.21,0,0,1-1.42,1.36c-.64.56.45-.28-.26.2-.25.16-.48.32-.73.47s-.57.34-.86.49l-.45.22c-.58.3.44-.15,0,0a16.56,16.56,0,0,1-1.81.58c-.33.08-.66.14-1,.21-.51.09,0-.13.16,0-.07-.05-.44,0-.53,0l-.58,0H50.14l-.66,0c-.92-.08.53.11-.36-.05-.38-.06-.76-.15-1.13-.24l-.85-.26c-.13,0-1.09-.44-.64-.23l-.49-.24c-.33-.17-.65-.36-1-.55s-.54-.39-.82-.55.22.17.22.17a2.15,2.15,0,0,1-.38-.31,14.57,14.57,0,0,1-1.48-1.46c-.1-.13-.2-.26-.31-.38-.27-.3.17.23.17.22-.22-.13-.42-.6-.56-.81a5.2,5.2,0,0,1-.93-1.73c0,.44.19.49.07.14-.06-.15-.12-.31-.17-.46-.11-.32-.21-.64-.29-1s-.15-.58-.2-.87l-.09-.5c-.08-.44.06.72,0,0s-.05-1.23,0-1.86V67.44l-3.5,3.5H216.91c2.43,0,4.87.06,7.31,0h.32l-3.5-3.5V205.18c0,1.87-.07,3.75,0,5.62V211l3.5-3.5h0a3.5,3.5,0,0,0,0,7h0A3.55,3.55,0,0,0,228,211V73.3c0-1.87,0-3.75,0-5.62a1.92,1.92,0,0,1,0-.24,3.56,3.56,0,0,0-3.5-3.5H44.36c-2.44,0-4.87,0-7.31,0h-.31a3.54,3.54,0,0,0-3.5,3.5V206.37c0,1.9-.07,3.82,0,5.72a17.57,17.57,0,0,0,17.33,16.85h158c4,0,7.81-.4,11.33-2.63A17.54,17.54,0,0,0,228,211a3.5,3.5,0,0,0-7,0Z" transform="translate(-19.73 -6.44)"/></svg>