<svg width="42" height="42" viewBox="0 0 42 42" fill="none" xmlns="http://www.w3.org/2000/svg">
<g clip-path="url(#clip0_3449_173)">
<path d="M40.8481 2.26214C40.7987 1.88906 40.4213 1.62915 40.0541 1.71979L4.96337 10.4254C4.73515 10.4821 4.55549 10.6583 4.49493 10.8856C4.43437 11.1129 4.50216 11.3553 4.67208 11.518L13.6679 20.1419L11.8829 31.2134C11.8132 31.6467 12.2037 32.0253 12.6306 31.9522L24.3031 29.93L35.3963 36.1914C35.4947 36.2469 35.6041 36.2746 35.7138 36.2746C35.8121 36.2746 35.9105 36.2522 36.0013 36.2072C36.1929 36.1119 36.325 35.9276 36.3537 35.7154L40.8495 2.43277C40.8572 2.37538 40.8556 2.31825 40.8481 2.26214ZM6.41122 11.3966L36.9115 3.82988L14.5504 19.1997L6.41122 11.3966ZM24.0148 28.6695L13.3018 30.5256L14.9155 20.5155L38.1846 4.5215L24.0148 28.6695ZM35.2016 34.5986L25.3092 29.0148L39.1396 5.44514L35.2016 34.5986Z" fill="black"/>
<path d="M9.50757 33.9269L6.47668 37.2898C6.23775 37.5546 6.25918 37.9628 6.52394 38.2014C6.64718 38.3127 6.80199 38.3675 6.95577 38.3675C7.13227 38.3675 7.30819 38.2957 7.43557 38.1541L10.4665 34.7913C10.7054 34.5264 10.684 34.1182 10.4192 33.8796C10.1548 33.6413 9.74625 33.6624 9.50757 33.9269Z" fill="black"/>
<path d="M4.02233 19.3665L0.99395 22.729C0.755342 22.9941 0.776775 23.4024 1.04185 23.641C1.1651 23.752 1.31958 23.8068 1.47343 23.8068C1.65025 23.8068 1.82585 23.7349 1.95355 23.593L4.98193 20.2305C5.22054 19.9654 5.1991 19.5571 4.93403 19.3185C4.6685 19.0802 4.26126 19.1013 4.02233 19.3665Z" fill="black"/>
<path d="M26.5324 36.3947L23.504 39.7551C23.2651 40.0199 23.2865 40.4281 23.5513 40.6667C23.6745 40.778 23.8293 40.8328 23.9831 40.8328C24.1596 40.8328 24.3355 40.7609 24.4629 40.6194L27.4913 37.259C27.7302 36.9942 27.7088 36.586 27.444 36.3474C27.1795 36.1091 26.771 36.1302 26.5324 36.3947Z" fill="black"/>
</g>
<defs>
<clipPath id="clip0_3449_173">
<rect width="41.3175" height="41.3175" fill="white" transform="translate(0.182617 0.60791)"/>
</clipPath>
</defs>
</svg>
