<svg xmlns="http://www.w3.org/2000/svg" width="54.668" height="54.852" viewBox="1546 1074.149 54.668 54.852"><g data-name="حاوية"><path d="M1598.543 1098.394h-.25a2.617 2.617 0 0 0-4.612-1.695 3396.52 3396.52 0 0 0-9.819-4.123 993.43 993.43 0 0 0-7.454-3.087 3.447 3.447 0 0 0-2.7-3.89v-.819c1.535-.144 2.09-1.007 2.28-1.746 0-.007.003-.014.004-.02.432-2.023.702-4.78.97-8.297a.528.528 0 0 0-.528-.568h-6.1a.528.528 0 0 0-.527.55c.138 3.258.487 6.172 1.04 8.661a.537.537 0 0 0 .104.216c.413.515 1.088 1.008 1.7 1.176v.916a.528.528 0 0 0 .357.916 2.388 2.388 0 0 1 2.385 2.385c0 .036 0 .072-.003.107-2.099-.846-2.234-.863-2.324-.871a.528.528 0 0 0-.15 1.044c.187.048.967.355 2.152.834-.431.624-1.226.92-2.024.929-.88-.131-1.388-.537-1.644-1.373a5.038 5.038 0 0 1-.175-.959.528.528 0 0 0-1.05.097c.02.208.047.429.09.654l-17.239 7.346a2.617 2.617 0 0 0-4.675 1.618h-.226a2.125 2.125 0 0 0-2.125 2.124v26.358c0 1.173.951 2.124 2.125 2.124h50.418a2.125 2.125 0 0 0 2.125-2.124v-26.358a2.125 2.125 0 0 0-2.125-2.125Zm-26.692-15.389c-.495-2.26-.817-4.881-.963-7.8h4.979c-.22 2.814-.486 5.626-.903 7.575-.11.42-.413.966-1.722.966h-.044a.51.51 0 0 0-.126.011c-.172.016-.778-.253-1.221-.752Zm1.074 6.246.026.003-.026-.004Zm22.749 7.581c.863.001 1.562.7 1.563 1.563h-3.126c0-.863.7-1.563 1.563-1.564Zm-25.093-6.387c.366.773 1.048 1.436 2.355 1.617a.52.52 0 0 0 .072.005c.927 0 1.78-.288 2.4-.805.261-.218.482-.481.65-.777 4.151 1.696 11.538 4.792 17.112 7.144a2.622 2.622 0 0 0-.114.765h-39.468c0-.226-.03-.452-.087-.671l17.08-7.278Zm-19.611 6.386c.862.001 1.562.7 1.563 1.563h-3.126c0-.863.7-1.562 1.563-1.563Zm48.642 30.046c0 .59-.479 1.068-1.07 1.069h-50.417a1.07 1.07 0 0 1-1.07-1.07v-26.357c.001-.59.48-1.068 1.07-1.07h50.418c.59.002 1.069.48 1.07 1.07v26.358Z" fill="#797979" fill-rule="evenodd" data-name="Path 150"/><path d="M1551.964 1103.008a.528.528 0 0 0-.528.528v20.358a.528.528 0 1 0 1.056 0v-20.358a.528.528 0 0 0-.528-.528Z" fill="#797979" fill-rule="evenodd" data-name="Path 151"/><path d="M1556.488 1103.008a.528.528 0 0 0-.528.528v20.358a.528.528 0 0 0 1.056 0v-20.358a.528.528 0 0 0-.528-.528Z" fill="#797979" fill-rule="evenodd" data-name="Path 152"/><path d="M1560.738 1103.008a.528.528 0 0 0-.528.528v20.358a.528.528 0 1 0 1.056 0v-20.358a.528.528 0 0 0-.528-.528Z" fill="#797979" fill-rule="evenodd" data-name="Path 153"/><path d="M1564.851 1103.008a.528.528 0 0 0-.528.528v20.358a.528.528 0 1 0 1.056 0v-20.358a.528.528 0 0 0-.528-.528Z" fill="#797979" fill-rule="evenodd" data-name="Path 154"/><path d="M1569.375 1103.008a.528.528 0 0 0-.528.528v20.358a.528.528 0 1 0 1.056 0v-20.358a.528.528 0 0 0-.528-.528Z" fill="#797979" fill-rule="evenodd" data-name="Path 155"/><path d="M1573.454 1103.008a.528.528 0 0 0-.528.528v20.358a.528.528 0 0 0 1.056 0v-20.358a.528.528 0 0 0-.528-.528Z" fill="#797979" fill-rule="evenodd" data-name="Path 156"/><path d="M1577.532 1102.99a.528.528 0 0 0-.527.528v20.36a.528.528 0 1 0 1.055 0v-20.36a.528.528 0 0 0-.528-.527Z" fill="#797979" fill-rule="evenodd" data-name="Path 157"/><path d="M1582.057 1102.99a.528.528 0 0 0-.528.528v20.36a.528.528 0 1 0 1.056 0v-20.36a.528.528 0 0 0-.528-.527Z" fill="#797979" fill-rule="evenodd" data-name="Path 158"/><path d="M1586.307 1102.99a.528.528 0 0 0-.528.528v20.36a.528.528 0 1 0 1.056 0v-20.36a.528.528 0 0 0-.528-.527Z" fill="#797979" fill-rule="evenodd" data-name="Path 159"/><path d="M1590.488 1103.008a.528.528 0 0 0-.528.528v20.358a.528.528 0 0 0 1.056 0v-20.358a.528.528 0 0 0-.528-.528Z" fill="#797979" fill-rule="evenodd" data-name="Path 160"/><path d="M1594.67 1102.99a.528.528 0 0 0-.528.528v20.36a.528.528 0 1 0 1.056 0v-20.36a.528.528 0 0 0-.528-.527Z" fill="#797979" fill-rule="evenodd" data-name="Path 161"/></g></svg>