<svg width="36" height="36" viewBox="0 0 36 36" fill="none" xmlns="http://www.w3.org/2000/svg">
<path d="M19.6276 0.756836V3.1568C22.0013 3.1568 24.2252 3.75679 26.2991 4.95678C28.2731 6.13176 29.8472 7.70674 31.0216 9.68171C32.221 11.7567 32.8207 13.9816 32.8207 16.3566H35.2194C35.2194 13.5317 34.5073 10.9067 33.083 8.48173C31.7088 6.13176 29.8472 4.26929 27.4985 2.89431C25.0747 1.46933 22.4511 0.756836 19.6276 0.756836ZM7.22155 4.35679C6.54691 4.35679 5.95971 4.56928 5.45997 4.99428L1.59949 8.93172L1.71193 8.85672C1.08726 9.38171 0.674973 10.0317 0.475077 10.8067C0.300168 11.5817 0.350142 12.3317 0.624999 13.0567C1.32463 15.0066 2.26164 17.0066 3.43603 19.0566C5.08517 21.8815 7.04664 24.419 9.32046 26.669C12.9686 30.3439 17.5037 33.2439 22.9258 35.3688H22.9633C23.688 35.6188 24.4126 35.6688 25.1372 35.5188C25.8868 35.3688 26.549 35.0438 27.1237 34.5439L30.9092 30.7564C31.4089 30.2564 31.6588 29.6439 31.6588 28.9189C31.6588 28.1689 31.4089 27.544 30.9092 27.044L25.9992 22.094C25.4995 21.594 24.8748 21.344 24.1252 21.344C23.3756 21.344 22.7509 21.594 22.2512 22.094L19.8899 24.494C17.9909 23.594 16.3418 22.4815 14.9425 21.1565C13.5433 19.8066 12.4313 18.1691 11.6068 16.2441L14.0055 13.8442C14.5302 13.2942 14.7926 12.6442 14.7926 11.8942C14.7926 11.1192 14.4928 10.4942 13.8931 10.0192L14.0055 10.1317L8.98313 4.99428C8.48339 4.56928 7.8962 4.35679 7.22155 4.35679ZM19.6276 5.55677V7.95673C21.1518 7.95673 22.551 8.33173 23.8254 9.08172C25.1247 9.83171 26.1492 10.8567 26.8988 12.1567C27.6484 13.4317 28.0232 14.8316 28.0232 16.3566H30.4219C30.4219 14.4066 29.9347 12.5942 28.9602 10.9192C27.9857 9.29422 26.6864 7.99423 25.0622 7.01925C23.3881 6.04426 21.5766 5.55677 19.6276 5.55677ZM7.22155 6.75675C7.29651 6.75675 7.38397 6.79425 7.48392 6.86925L12.3939 11.8942C12.4188 11.9942 12.3939 12.0817 12.3189 12.1567L8.75825 15.6816L9.02061 16.4316L9.50786 17.4816C9.90765 18.3316 10.3699 19.1566 10.8946 19.9566C11.6193 21.0815 12.4188 22.044 13.2934 22.844C14.4678 23.994 15.8795 25.044 17.5287 25.994C18.3532 26.469 19.0529 26.819 19.6276 27.044L20.3772 27.3815L24.0128 23.744C24.0628 23.694 24.1002 23.669 24.1252 23.669C24.1502 23.669 24.1877 23.694 24.2377 23.744L29.2975 28.8064C29.3475 28.8564 29.3725 28.8939 29.3725 28.9189C29.3725 28.9189 29.3475 28.9439 29.2975 28.9939L25.5495 32.7064C24.9998 33.1814 24.4001 33.3064 23.7504 33.0814C18.6531 31.1064 14.4053 28.4064 11.0071 24.9815C8.90817 22.8815 7.07163 20.4941 5.49745 17.8191C4.37304 15.8941 3.4985 14.0316 2.87382 12.2317V12.1942C2.77388 11.9692 2.76138 11.7067 2.83634 11.4067C2.9113 11.0817 3.04873 10.8317 3.24863 10.6567L6.95919 6.86925C7.03415 6.79425 7.1216 6.75675 7.22155 6.75675ZM19.6276 10.3567V12.7567C20.6271 12.7567 21.4766 13.1067 22.1762 13.8067C22.8759 14.5066 23.2257 15.3566 23.2257 16.3566H25.6244C25.6244 15.2816 25.3496 14.2816 24.7999 13.3567C24.2751 12.4317 23.5505 11.7067 22.626 11.1817C21.7015 10.6317 20.702 10.3567 19.6276 10.3567Z" fill="#FFC400"/>
</svg>
