<svg id="Layer_1" data-name="Layer 1" xmlns="http://www.w3.org/2000/svg" viewBox="0 0 219.22 219.96"><path id="Path_150" data-name="Path 150" d="M216.45,106.72h-1a10.5,10.5,0,0,0-18.5-6.8c-5.14-2.17-22.24-9.38-39.37-16.53C143.48,77.5,134,73.59,127.69,71a13.29,13.29,0,0,0,.17-2.09,13.82,13.82,0,0,0-11-13.51V52.13a9.3,9.3,0,0,0,9.13-7,.19.19,0,0,1,0-.08,273.36,273.36,0,0,0,3.88-33.27,2.12,2.12,0,0,0-1.95-2.27H103.33a2.11,2.11,0,0,0-2.12,2.11.28.28,0,0,0,0,.09,200.76,200.76,0,0,0,4.17,34.73,2.08,2.08,0,0,0,.41.86A14.6,14.6,0,0,0,112.62,52v3.67a2.12,2.12,0,0,0-.12,3,2.09,2.09,0,0,0,1.56.68,9.57,9.57,0,0,1,9.56,9.57v.43a58.56,58.56,0,0,0-9.34-3.48,2.12,2.12,0,0,0-.59,4.19c.75.19,3.87,1.43,8.63,3.34a9.86,9.86,0,0,1-8.12,3.73,7.22,7.22,0,0,1-6.6-5.5,1.68,1.68,0,0,0-.09-.32,20.05,20.05,0,0,1-.61-3.53,2.11,2.11,0,1,0-4.21.39c.08.83.19,1.72.36,2.62L33.94,100.23a10.5,10.5,0,0,0-18.75,6.49h-.91a8.53,8.53,0,0,0-8.52,8.52v105.7a8.53,8.53,0,0,0,8.52,8.52H216.46a8.53,8.53,0,0,0,8.52-8.52V115.24a8.51,8.51,0,0,0-8.52-8.52h0ZM109.41,45a193.5,193.5,0,0,1-3.86-31.27h20a258.34,258.34,0,0,1-3.63,30.37c-.44,1.68-1.65,3.88-6.9,3.88h-.19a2.07,2.07,0,0,0-.5,0A8.9,8.9,0,0,1,109.41,45Zm4.3,25h0Zm91.23,30.4a6.28,6.28,0,0,1,6.27,6.27H198.67a6.29,6.29,0,0,1,6.27-6.28ZM104.31,74.83a11.37,11.37,0,0,0,9.45,6.49l.28,0a15,15,0,0,0,9.62-3.23A11.55,11.55,0,0,0,126.28,75c16.63,6.8,46.26,19.22,68.61,28.65a10.61,10.61,0,0,0-.45,3.07H36.18a10.71,10.71,0,0,0-.36-2.7ZM25.68,100.45A6.28,6.28,0,0,1,32,106.72H19.41A6.27,6.27,0,0,1,25.68,100.45ZM220.74,220.94a4.31,4.31,0,0,1-4.3,4.3H14.27a4.31,4.31,0,0,1-4.3-4.3V115.24a4.3,4.3,0,0,1,4.3-4.3H216.44a4.3,4.3,0,0,1,4.3,4.3Z" transform="translate(-5.76 -9.5)" style="fill:#727272"/><path id="Path_151" data-name="Path 151" d="M29.67,125.22a2.12,2.12,0,0,0-2.12,2.12V209a2.12,2.12,0,0,0,4.24,0V127.34a2.12,2.12,0,0,0-2.12-2.12Z" transform="translate(-5.76 -9.5)" style="fill:#727272"/><path id="Path_152" data-name="Path 152" d="M47.8,125.22a2.11,2.11,0,0,0-2.11,2.12V209a2.12,2.12,0,0,0,4.23,0V127.34a2.11,2.11,0,0,0-2.11-2.12Z" transform="translate(-5.76 -9.5)" style="fill:#727272"/><path id="Path_153" data-name="Path 153" d="M64.85,125.22a2.12,2.12,0,0,0-2.12,2.12V209A2.12,2.12,0,0,0,67,209V127.34a2.11,2.11,0,0,0-2.11-2.12Z" transform="translate(-5.76 -9.5)" style="fill:#727272"/><path id="Path_154" data-name="Path 154" d="M81.34,125.22a2.11,2.11,0,0,0-2.11,2.12V209a2.12,2.12,0,0,0,4.23,0V127.34a2.11,2.11,0,0,0-2.11-2.12Z" transform="translate(-5.76 -9.5)" style="fill:#727272"/><path id="Path_155" data-name="Path 155" d="M99.48,125.22a2.11,2.11,0,0,0-2.11,2.12V209a2.12,2.12,0,0,0,4.23,0V127.34a2.11,2.11,0,0,0-2.11-2.12Z" transform="translate(-5.76 -9.5)" style="fill:#727272"/><path id="Path_156" data-name="Path 156" d="M115.84,125.22a2.12,2.12,0,0,0-2.12,2.12V209a2.12,2.12,0,0,0,4.23,0V127.34a2.11,2.11,0,0,0-2.11-2.12Z" transform="translate(-5.76 -9.5)" style="fill:#727272"/><path id="Path_157" data-name="Path 157" d="M132.2,125.15a2.12,2.12,0,0,0-2.12,2.11v81.65a2.12,2.12,0,0,0,4.23,0V127.26a2.11,2.11,0,0,0-2.11-2.11Z" transform="translate(-5.76 -9.5)" style="fill:#727272"/><path id="Path_158" data-name="Path 158" d="M150.34,125.15a2.12,2.12,0,0,0-2.12,2.11v81.65a2.12,2.12,0,0,0,4.23,0V127.26a2.11,2.11,0,0,0-2.11-2.11Z" transform="translate(-5.76 -9.5)" style="fill:#727272"/><path id="Path_159" data-name="Path 159" d="M167.38,125.15a2.12,2.12,0,0,0-2.12,2.11v81.65a2.12,2.12,0,0,0,4.24,0V127.26a2.12,2.12,0,0,0-2.12-2.11Z" transform="translate(-5.76 -9.5)" style="fill:#727272"/><path id="Path_160" data-name="Path 160" d="M184.15,125.22a2.12,2.12,0,0,0-2.12,2.12V209a2.12,2.12,0,0,0,4.24,0V127.34a2.12,2.12,0,0,0-2.11-2.12Z" transform="translate(-5.76 -9.5)" style="fill:#727272"/><path id="Path_161" data-name="Path 161" d="M200.92,125.15a2.12,2.12,0,0,0-2.11,2.11h0v81.65a2.12,2.12,0,0,0,4.23,0V127.26A2.12,2.12,0,0,0,200.92,125.15Z" transform="translate(-5.76 -9.5)" style="fill:#727272"/></svg>