<svg id="Layer_1" data-name="Layer 1" xmlns="http://www.w3.org/2000/svg" viewBox="0 0 205.62 167.73"><path d="M209.39,61.55c-6.77-6.22-17.28-6.71-24,0l-45.12,45.12L68,179l-.73.72q-13.53-23.94-27.07-47.88c-4.37-7.73-15.58-11-23.2-6.08-7.82,5-10.76,14.94-6.09,23.2q18.6,32.88,37.18,65.76a14.58,14.58,0,0,0,3.41,4.77c.07.07.16.13.24.2,5.32,5,14,6.5,20.31,2.45l.25-.18a16.49,16.49,0,0,0,3.18-2.47l45.12-45.12L192.89,102l16.5-16.5C215.67,79.25,216.14,67.74,209.39,61.55Z" transform="translate(-8.65 -56.7)" fill="#45ac34"/></svg>