<svg xmlns="http://www.w3.org/2000/svg" width="26.949" height="28.79" viewBox="172.28 1386.414 26.949 28.79"><g data-name="روزنامة"><path d="M187.595 1403.98c.073 0 .146.013.219.013a2.243 2.243 0 0 0 2.244-1.38h.037c-.013 2.296-.753 3.78-2.127 3.78a1.647 1.647 0 0 1-1.714-1.435h-1.118l.012.012a2.65 2.65 0 0 0 2.784 2.455c2.054 0 3.257-1.86 3.257-5.02 0-3.378-1.276-4.655-3.184-4.655a2.975 2.975 0 0 0-2.93 2.99v.17a2.832 2.832 0 0 0 2.52 3.07Zm.28-5.214h.194a1.845 1.845 0 0 1 1.896 1.824v.012c.002.101-.002.203-.012.304a1.985 1.985 0 0 1-1.896 2.066h-.036a1.846 1.846 0 0 1-1.872-1.823v-.012c-.002-.086.002-.171.012-.256a1.945 1.945 0 0 1 1.709-2.11Z" fill="#070707" fill-rule="evenodd" data-name="Path 164"/><path d="M182.113 1399.197v8.046h1.106v-9.31h-1.045a19.11 19.11 0 0 0-2.139 1.41v1.215c.608-.45 1.58-1.082 2.054-1.361h.024Z" fill="#070707" fill-rule="evenodd" data-name="Path 165"/><path d="M199.227 1392.07a3.787 3.787 0 0 0-3.214-3.861 7.035 7.035 0 0 0-1.06-.049h-1.034l.426.426v-.73a2.928 2.928 0 0 0-.015-.386 1.206 1.206 0 0 0-.365-.714 1.254 1.254 0 0 0-1.534-.144 1.28 1.28 0 0 0-.5.648c-.05.166-.072.34-.064.514v.815l.426-.425H180.83c-.527 0-1.062-.028-1.589 0h-.021l.425.425v-.729c.004-.11.001-.22-.007-.33a1.234 1.234 0 0 0-1.88-.93 1.305 1.305 0 0 0-.523.654 1.51 1.51 0 0 0-.07.526v.808l.426-.425c-.556 0-1.115-.025-1.669 0a3.89 3.89 0 0 0-3.034 1.718c-.452.676-.614 1.443-.607 2.244v17.286c0 .608.006 1.23 0 1.844-.01.326.017.653.081.973.13.588.401 1.136.788 1.598a3.84 3.84 0 0 0 2.816 1.372c.544.012 1.094 0 1.633 0h16.822c.73 0 1.459.046 2.172-.19a3.852 3.852 0 0 0 2.44-2.42c.14-.476.201-.972.18-1.468v-19.05l-.424.425h.012a.425.425 0 1 0 0-.851h-.012a.43.43 0 0 0-.426.425v19.557c0 .038 0 .075-.008.114 0 .012-.017.139 0 .037-.02.135-.047.27-.083.402-.036.13-.08.259-.131.384.006-.016.034-.073 0 0l-.047.099a3.245 3.245 0 0 1-.325.528c.01-.013.052-.062 0 0l-.068.083c-.049.055-.098.11-.149.162a3.923 3.923 0 0 1-.297.27c-.061.052-.014.01 0 0l-.09.065c-.06.043-.12.083-.184.122-.118.07-.24.135-.365.192l-.068.03c.09-.038-.026.01-.037.013a3.353 3.353 0 0 1-.624.174l-.076.014c-.122.021.086 0-.042.006-.079.007-.156.015-.237.018h-19.559a2.823 2.823 0 0 1-.287-.023c.085.01 0 0-.022 0l-.096-.016c-.062-.012-.121-.027-.187-.041a4.08 4.08 0 0 1-.433-.14c-.113-.041.047.022-.019-.007l-.085-.04c-.062-.028-.122-.06-.182-.092a3.432 3.432 0 0 1-.365-.227c-.01 0-.106-.081-.032-.022l-.057-.046a3.251 3.251 0 0 1-.44-.436l-.069-.085c.01.013.046.064 0 0-.046-.065-.078-.109-.114-.165a3.488 3.488 0 0 1-.204-.364l-.047-.1c.008.015.03.077 0 0a3.441 3.441 0 0 1-.176-.604l-.018-.11c0-.019-.007-.083 0 0-.006-.077-.015-.152-.018-.229v-19.789c0-.063.007-.128.012-.19 0-.013.017-.14 0-.037 0-.026.007-.05.012-.074.024-.148.058-.293.102-.436.018-.058.038-.121.06-.175.012-.034.026-.068.04-.102-.006.016-.034.073 0 0 .061-.132.13-.261.205-.386.033-.051.066-.102.101-.152l.064-.088c-.047.064-.01.013 0 0 .093-.112.191-.22.296-.322a2.1 2.1 0 0 1 .135-.121l.085-.07c.06-.053.013-.012 0 0 .217-.165.453-.302.702-.41-.088.037.027-.01.038-.014.035-.014.07-.026.106-.039a3.465 3.465 0 0 1 .594-.148c.128-.022-.086.006.041-.006l.122-.01.122-.008c.54-.014 1.082 0 1.623 0a.431.431 0 0 0 .426-.426v-.874a.702.702 0 0 0 0-.087c-.011-.078-.02.049 0-.009 0-.017.007-.036.012-.054a.936.936 0 0 1 .023-.07c-.007.019-.039.064 0 0 .016-.025.09-.122.035-.065.028-.032.058-.062.089-.09.045-.043-.055.033 0 0l.046-.03a.642.642 0 0 1 .065-.032c-.021.008-.073.02 0 0 .029 0 .154-.026.068-.02h.094c-.038 0 .07.017.092.022.074.02.02.008 0 0l.064.034c.02.013.03.021.046.03.038.024-.039-.044.012.012.016.018.085.095.062.063-.023-.032.034.062.044.078.039.068 0 .015 0 0l.022.069c.009.023.017.067 0 .016-.017-.051 0 .041 0 .054v.954a.431.431 0 0 0 .425.426h11.455c.529 0 1.06.016 1.589 0h.023a.431.431 0 0 0 .425-.425v-.962c0-.027.007-.082-.006 0a.413.413 0 0 1 .012-.056c.006-.029.046-.121.012-.054l.034-.065c.012-.02.062-.09.028-.046s.048-.046.063-.063c.016-.017.064-.042 0 0l.045-.03c.034-.016.122-.042.045-.025.021 0 .049-.013.07-.02.073-.027-.03 0 .014-.007h.134c-.085 0 .044.015.072.021.006 0 .063.024.018 0s.02.012.032.018l.046.028c.092.05-.027-.029.014.01.031.028.06.058.088.09-.057-.07.02.045.031.063.011.018.025.06.008.016-.017-.045 0 .023.008.034.009.01 0 .036.012.053-.024-.074 0-.014 0 .017v.97a.431.431 0 0 0 .426.426c.542 0 1.085-.014 1.627 0 .066 0 .133.007.198.014l.078.009c-.097-.012.03 0 .042.007a3.413 3.413 0 0 1 .608.16l.088.035c.122.042-.075-.037.036.014.112.051.244.122.365.189.052.031.105.065.156.1.03.02.06.04.09.062.01 0 .105.082.031.022.105.084.205.173.3.268.087.086.166.177.244.27.077.094-.047-.067.021.031.021.03.043.058.064.089l.121.185c.041.063.072.121.105.192.012.022.022.043.032.065.011.022.07.157.032.066a3.2 3.2 0 0 1 .19.638l.018.11c.02.122-.006-.087 0 .037.016.166.021.333.016.5a.428.428 0 0 0 .425.425c.237 0 .43-.19.434-.428Z" fill-rule="evenodd" data-name="Path 166"/><path d="M196.743 1411.274v.127a.458.458 0 0 0-.01.122s.015-.084 0-.037l-.011.061c-.009.046-.02.09-.032.135-.012.045-.024.078-.037.115 0 .015-.012.028-.016.043-.017.056.035-.07.007-.018-.042.074-.076.15-.121.222-.011.017-.07.102-.036.054.034-.049-.042.048-.052.06a1.851 1.851 0 0 1-.172.166c-.078.068.054-.034-.032.024-.03.02-.058.039-.089.057-.03.018-.069.041-.104.06l-.055.026c-.07.037.053-.018 0 0a2.011 2.011 0 0 1-.22.07c-.04.01-.08.018-.122.026-.062.011 0-.015.02 0-.009-.006-.054 0-.064 0h-19.701c-.113-.01.064.014-.045-.006a1.721 1.721 0 0 1-.137-.029l-.103-.031c-.016 0-.133-.054-.078-.028l-.06-.03c-.04-.02-.079-.043-.121-.066-.043-.023-.066-.048-.1-.067-.034-.02.027.02.027.02a1.77 1.77 0 0 1-.243-.235c-.027-.015-.051-.072-.068-.098a.632.632 0 0 1-.113-.21c0 .054.023.06.008.017a1.038 1.038 0 0 1-.056-.177c-.01-.044-.018-.07-.024-.106l-.011-.06a1.275 1.275 0 0 1 0-.226v-17.43l-.425.425h21.899c.295 0 .591.007.888 0h.039l-.425-.426v16.742c0 .227-.009.456 0 .683v.025l.425-.426a.425.425 0 0 0 0 .85.431.431 0 0 0 .42-.424v-17.45a.433.433 0 0 0-.425-.425H174.347a.43.43 0 0 0-.426.425v16.887c0 .23-.008.464 0 .695a2.136 2.136 0 0 0 2.107 2.048h19.204c.486 0 .95-.049 1.377-.32a2.132 2.132 0 0 0 .984-1.86.425.425 0 1 0-.85 0Z" fill-rule="evenodd" data-name="Path 167"/></g></svg>