<svg xmlns="http://www.w3.org/2000/svg" width="98.386" height="113.808"><g data-name="Group 219"><path d="M96.703 31.847c.932 0 1.653-.751 1.653-1.652V3.035A3.026 3.026 0 0 0 95.32 0H35.713c-.811 0-1.562.33-2.133.901L16.094 18.357a3.002 3.002 0 0 0-.901 2.133v9.344c0 .932.75 1.653 1.652 1.653.901 0 1.652-.752 1.652-1.653v-8.292H33.43a3.41 3.41 0 0 0 3.395-3.395V3.335H94.99v26.86a1.72 1.72 0 0 0 1.712 1.652ZM33.46 18.237H20.93L33.52 5.648v12.529c.03 0-.03.06-.06.06Z" fill="#fcc400" fill-rule="evenodd" data-name="Path 308"/><path d="M16.875 76.794c-.931 0-1.652.75-1.652 1.652v32.328a3.026 3.026 0 0 0 3.034 3.035h77.094a3.026 3.026 0 0 0 3.035-3.035V37.285c0-.931-.751-1.652-1.653-1.652-.931 0-1.652.75-1.652 1.652v73.219H18.527V78.476c0-.931-.75-1.682-1.652-1.682Z" fill="#fcc400" fill-rule="evenodd" data-name="Path 309"/><path d="M74.981 29.053a3.231 3.231 0 0 0 3.245 3.245h8.923a3.231 3.231 0 0 0 3.245-3.245V20.13a3.231 3.231 0 0 0-3.245-3.245h-8.923a3.231 3.231 0 0 0-3.245 3.245v8.923Zm3.335-8.833h8.743v8.743h-8.743V20.22Z" fill="#fcc400" fill-rule="evenodd" data-name="Path 310"/><path d="M72.517 20.85c0-.93-.75-1.652-1.652-1.652h-26.62c-.93 0-1.652.752-1.652 1.653s.751 1.652 1.653 1.652h26.619c.901.03 1.652-.72 1.652-1.652Z" fill="#fcc400" fill-rule="evenodd" data-name="Path 311"/><path d="M72.517 28.332c0-.931-.75-1.653-1.652-1.653h-26.62c-.93 0-1.652.752-1.652 1.653s.751 1.652 1.653 1.652h26.619c.901 0 1.652-.72 1.652-1.652Z" fill="#fcc400" fill-rule="evenodd" data-name="Path 312"/><path d="M74.981 49.123a3.231 3.231 0 0 0 3.245 3.245h8.923a3.231 3.231 0 0 0 3.245-3.245V40.2a3.231 3.231 0 0 0-3.245-3.245h-8.923A3.231 3.231 0 0 0 74.98 40.2v8.923Zm3.335-8.833h8.743v8.743h-8.743V40.29Z" fill="#fcc400" fill-rule="evenodd" data-name="Path 313"/><path d="M33.55 40.92c0 .932.75 1.653 1.652 1.653h35.663c.931 0 1.652-.751 1.652-1.652 0-.902-.75-1.653-1.652-1.653H35.202c-.931 0-1.652.751-1.652 1.653Z" fill="#fcc400" fill-rule="evenodd" data-name="Path 314"/><path d="M35.202 50.054h35.663c.931 0 1.652-.751 1.652-1.652 0-.902-.75-1.653-1.652-1.653H35.202c-.931 0-1.652.751-1.652 1.653 0 .901.72 1.652 1.652 1.652Z" fill="#fcc400" fill-rule="evenodd" data-name="Path 315"/><path d="M74.981 69.192a3.231 3.231 0 0 0 3.245 3.245h8.923a3.231 3.231 0 0 0 3.245-3.245V60.27a3.231 3.231 0 0 0-3.245-3.245h-8.923a3.231 3.231 0 0 0-3.245 3.245v8.923Zm3.335-8.833h8.743v8.743h-8.743V60.36Z" fill="#fcc400" fill-rule="evenodd" data-name="Path 316"/><path d="M70.865 62.643c.931 0 1.652-.751 1.652-1.653 0-.901-.75-1.652-1.652-1.652H39.048c-.932 0-1.653.75-1.653 1.652 0 .902.752 1.653 1.653 1.653h31.817Z" fill="#fcc400" fill-rule="evenodd" data-name="Path 317"/><path d="M36.764 70.124h34.101c.931 0 1.652-.751 1.652-1.653 0-.901-.75-1.682-1.652-1.682h-34.1c-.932 0-1.653.751-1.653 1.652 0 .902.721 1.683 1.652 1.683Z" fill="#fcc400" fill-rule="evenodd" data-name="Path 318"/><path d="M2.484 27.851C.29 28.933-.641 31.637.47 33.831l20.64 41.971c.42.811 1.412 1.172 2.224.751.81-.42 1.171-1.412.75-2.223L9.876 45.427l4.326-2.133 22.594 45.908-4.327 2.133L27.24 80.7c-.42-.81-1.412-1.171-2.223-.75-.811.42-1.172 1.411-.751 2.223l9.164 18.597c.18.36.42.661.75.871l5.83 4.087c.39.27.87.42 1.321.42.36 0 .691-.09 1.022-.24a2.317 2.317 0 0 0 1.292-1.983l.33-7.09a2.18 2.18 0 0 0-.24-1.142l-32.959-66.94C9.694 26.53 6.99 25.629 4.797 26.71L2.484 27.85Zm34.46 71.686 3.666-1.802-.18 4.236-3.485-2.434Zm1.353-7.36 1.171 2.373-4.326 2.133-1.172-2.373 4.327-2.134ZM8.402 42.452l-1.171-2.374 4.326-2.133 1.172 2.374-4.327 2.133ZM3.445 32.358c-.27-.57-.03-1.262.51-1.532l2.284-1.112c.571-.27 1.262-.03 1.533.51l2.313 4.718-4.326 2.133-2.314-4.717Z" fill="#fcc400" fill-rule="evenodd" data-name="Path 319"/></g></svg>