<svg xmlns="http://www.w3.org/2000/svg" width="33.092" height="34.236"><path d="M32.857 10.956 16.847.093a.536.536 0 0 0-.602 0L.235 10.956A.536.536 0 0 0 0 11.4v22.3c0 .296.24.536.536.536h32.02c.296 0 .536-.24.536-.536V11.4a.536.536 0 0 0-.235-.444ZM12.579 33.164H6.79v-5.79h1.215v2.895c0 .296.24.536.536.536h2.287c.296 0 .536-.24.536-.536v-2.895h1.215v5.79ZM5.646 13.723v-1.215h21.8v1.215h-21.8Zm3.431 16.01v-2.359h1.215v2.359H9.077Zm3.502-3.43H6.79v-5.79h1.215v2.894c0 .297.24.537.536.537h2.287c.296 0 .536-.24.536-.537v-2.894h1.215v5.79ZM9.077 22.87v-2.358h1.215v2.358H9.077Zm10.364 10.293h-5.79v-5.79h1.215v2.895c0 .296.24.536.536.536h2.288c.296 0 .536-.24.536-.536v-2.895h1.215v5.79Zm-3.503-3.431v-2.359h1.216v2.359h-1.216Zm10.9 3.43h.536v-11.47a.536.536 0 1 0-1.072 0v11.47h-5.79v-6.325a.536.536 0 0 0-.535-.536H13.65v-6.325a.536.536 0 0 0-.536-.536H6.79v-4.646h19.512v6.897c0 .296.776 2.18 1.072 2.18.296 0 .072-1.884.072-2.18l-.072-6.897h.608c.296 0 .536-.24.536-.536v-2.287a.536.536 0 0 0-.536-.536H5.11a.536.536 0 0 0-.536.536v2.287c0 .296.24.536.536.536h.608v18.369L6.79 11.971l8.612-.288 12.044.288-.608 21.191Z" fill="#6e6e6e" fill-rule="evenodd" data-name="Path 40"/></svg>