<svg id="Layer_1" data-name="Layer 1" xmlns="http://www.w3.org/2000/svg" viewBox="0 0 184.78 244.15"><path d="M130.69.45a93.38,93.38,0,0,0-41.1,9.6A92.16,92.16,0,0,0,42.33,120a90.84,90.84,0,0,0,11.34,23.59,27.71,27.71,0,0,1,1.85,2.63c-.22-.43,0,.23,0,.26l.35.84v0l.16.24c.28.45.59.88.88,1.32l9.46,14.2L81.8,186.14l16.4,24.6,12.73,19.11c2.59,3.9,5,8.36,8.81,11.21a18.37,18.37,0,0,0,21.32.25,24.21,24.21,0,0,0,5.77-6.34L156,221.24l15.27-22.89,16.46-24.67,12.94-19.41,3.61-5.41c.28-.42.58-.83.84-1.26a2.43,2.43,0,0,1,.14-.2c.33-.58.56-1.35.76-1.6.69-.91,1.31-1.87,1.94-2.81a91.18,91.18,0,0,0,15-49.64A93.05,93.05,0,0,0,213.51,52,92.66,92.66,0,0,0,151.39,2.78,94.25,94.25,0,0,0,130.69.45,3.55,3.55,0,0,0,127.17,4a3.59,3.59,0,0,0,3.52,3.51,89.06,89.06,0,0,1,10.45.61l1.28.16.5.07q1.35.21,2.7.45c1.62.29,3.23.63,4.83,1a88.08,88.08,0,0,1,9.67,2.9q1.09.4,2.19.84l1.16.46.58.24c-.32-.13-.26-.11,0,0,1.52.67,3,1.35,4.51,2.1a88,88,0,0,1,8.6,4.92c1.38.89,2.73,1.83,4.06,2.8l.87.64.49.37.25.19c-.3-.23.1.08.13.11s.33.25.49.38l1.07.87a90.76,90.76,0,0,1,13.62,14c.42.53.1.13,0,0l.37.49.74,1c.48.66,1,1.33,1.43,2q1.41,2,2.7,4.14a87.24,87.24,0,0,1,4.7,8.73c.31.66.61,1.32.9,2,.06.14.53,1.26.26.59l.53,1.31q.93,2.33,1.72,4.71a86.53,86.53,0,0,1,2.62,9.62c.36,1.67.66,3.36.92,5,.07.42.13.85.19,1.27-.11-.74.06.51.08.67.1.86.19,1.72.27,2.59a92,92,0,0,1,.31,11,77.8,77.8,0,0,1-1.27,12,86.34,86.34,0,0,1-3.14,12.15,84.78,84.78,0,0,1-11.45,22.22,6.85,6.85,0,0,0-.9,1.69c-.12.32,0,.22,0,.07l0,.06c-.06.11-.14.22-.21.33l-1,1.42-9.49,14.22-15.12,22.67-16.18,24.26-12.67,19-3.61,5.41a15.36,15.36,0,0,1-3.49,4.11,17.88,17.88,0,0,1-1.79,1.1c-.21.1-1.22.52-.63.3-.4.15-.8.29-1.2.41s-.81.21-1.23.3l-.61.11c.14,0,.69-.06,0,0a17.11,17.11,0,0,1-2.48,0c-.2,0-.41,0-.61-.06.14,0,.69.13,0,0-.4-.08-.81-.16-1.2-.27s-.69-.19-1-.31l-.58-.21c-.38-.14.42.23-.16-.08a19.06,19.06,0,0,1-2-1.16c-.08-.06-.61-.44-.28-.19s-.18-.16-.25-.22a14,14,0,0,1-1-1c-.26-.27-.51-.56-.75-.85s.27.4,0-.07a4.64,4.64,0,0,1-.28-.4l0-.05-.2-.29-.92-1.39-9.37-14L95.71,194.37,79.54,170.09,66.78,151l-3.67-5.51c-.3-.46-.6-.93-.91-1.37-.05-.07-.12-.24-.19-.28l0,0s.34.81.1.06a7,7,0,0,0-.5-1.17c-.3-.51-.71-1-1-1.47a83.84,83.84,0,0,1-11.12-22.12,87.67,87.67,0,0,1-3.07-12.37c-.36-2.12-.54-3.42-.74-5.6s-.33-4.28-.37-6.42A88,88,0,0,1,45.64,84c.09-.86.19-1.72.29-2.58,0-.13.1-.69,0,0,0-.16,0-.32.07-.48.07-.48.14-1,.22-1.43.27-1.69.59-3.36,1-5a89,89,0,0,1,2.75-9.73c.53-1.52,1.1-3,1.71-4.54l.24-.57c.21-.51-.21.47,0,0,.15-.33.29-.67.44-1q.54-1.2,1.11-2.4a87.73,87.73,0,0,1,4.71-8.55c.87-1.39,1.78-2.77,2.73-4.11.47-.67,1-1.34,1.44-2,.22-.29.44-.57.65-.86s-.31.41,0,0l.48-.6A89.47,89.47,0,0,1,77.21,26.21l1-.77.36-.28c-.5.39-.08.06,0,0,.7-.53,1.4-1,2.11-1.56q2-1.39,4-2.68a89.44,89.44,0,0,1,8.65-4.86c.7-.34,1.4-.68,2.11-1,.37-.17.75-.35,1.13-.51.16-.07,1.39-.6.74-.33q2.31-1,4.68-1.8a85.67,85.67,0,0,1,9.56-2.78c1.61-.38,3.23-.7,4.86-1,.79-.14,1.58-.27,2.38-.38l.48-.07c-.66.09-.1,0,0,0L120.54,8a90.47,90.47,0,0,1,10.15-.57A3.55,3.55,0,0,0,134.2,4,3.57,3.57,0,0,0,130.69.45Z" transform="translate(-38.2 -0.45)"/><path d="M130.69,119a31.48,31.48,0,0,1-4-.26l.94.12a30.94,30.94,0,0,1-7.32-2c-.5-.2.38.16.38.16a4.58,4.58,0,0,1-.46-.2l-.75-.35c-.59-.29-1.18-.6-1.75-.93a30.31,30.31,0,0,1-3-2c-.2-.16-.69-.57.19.15l-.26-.2-.76-.63c-.45-.39-.9-.79-1.33-1.21a27.88,27.88,0,0,1-2.49-2.72c-.09-.1-.17-.21-.26-.32-.41-.51.54.72.15.19-.16-.22-.33-.44-.48-.66-.38-.53-.75-1.08-1.09-1.64a29.08,29.08,0,0,1-1.71-3.21c-.06-.12-.11-.25-.17-.38-.32-.71.3.75.07.15-.13-.31-.25-.62-.37-.93-.25-.68-.48-1.37-.68-2.07a30.58,30.58,0,0,1-.87-4.15l.13.94a30.46,30.46,0,0,1,0-8l-.13.93a31.43,31.43,0,0,1,2-7.32c.2-.5-.16.38-.16.38a4.58,4.58,0,0,1,.2-.46l.36-.75c.29-.59.59-1.18.92-1.75a30.31,30.31,0,0,1,2-3c.16-.2.57-.69-.15.19l.21-.26.62-.75c.39-.46.8-.91,1.21-1.34a30.52,30.52,0,0,1,2.72-2.49l.32-.26c.51-.4-.72.54-.19.15l.66-.48c.54-.38,1.09-.75,1.65-1.09a31.63,31.63,0,0,1,3.2-1.71l.38-.17c.71-.32-.75.3-.15.07l.93-.37c.68-.25,1.37-.47,2.07-.67a30.93,30.93,0,0,1,4.15-.88l-.93.13a30.46,30.46,0,0,1,8,0l-.94-.13a31.43,31.43,0,0,1,7.32,2l-.38-.16a3.13,3.13,0,0,1,.46.21l.75.35c.59.29,1.18.6,1.75.92a28.74,28.74,0,0,1,3,2c.2.15.69.56-.19-.16l.26.21.76.62c.45.39.9.8,1.33,1.22a27.76,27.76,0,0,1,2.49,2.71l.26.32c.41.51-.54-.72-.15-.19.16.22.33.44.48.66.38.54.75,1.09,1.09,1.65a28.07,28.07,0,0,1,1.71,3.2l.17.38c.32.71-.3-.74-.06-.15l.36.93c.25.68.48,1.37.68,2.07a30.9,30.9,0,0,1,.87,4.15l-.13-.93a30.89,30.89,0,0,1,0,8l.12-.93a30.92,30.92,0,0,1-1.95,7.32c-.24.61.37-.83.1-.23l-.14.3q-.19.45-.42.9c-.26.54-.55,1.08-.85,1.6a32.67,32.67,0,0,1-2,3.09c-.15.2-.47.57.2-.26l-.3.38-.52.63c-.43.5-.87,1-1.32,1.45a28.91,28.91,0,0,1-2.65,2.42l-.38.3c.8-.66.51-.39.32-.25l-.79.58q-.73.52-1.5,1a30.47,30.47,0,0,1-3.34,1.77l-.3.14c-.55.25.91-.37.07,0l-.92.35c-.66.24-1.32.46-2,.65a28.89,28.89,0,0,1-4.21.88l.93-.12a31,31,0,0,1-4,.26,3.51,3.51,0,1,0,0,7,32.89,32.89,0,0,0,18.91-5.94,34,34,0,0,0,12.22-16A33,33,0,0,0,152,67.56a33.89,33.89,0,0,0-19-7.72,32.85,32.85,0,0,0-19.49,4.64,33.19,33.19,0,0,0-13,14.47,34,34,0,0,0-2.4,20.77,33.15,33.15,0,0,0,27.07,25.87,36.64,36.64,0,0,0,5.44.46,3.55,3.55,0,0,0,3.51-3.51A3.59,3.59,0,0,0,130.69,119Z" transform="translate(-38.2 -0.45)"/></svg>