<svg id="Layer_1" data-name="Layer 1" xmlns="http://www.w3.org/2000/svg" viewBox="0 0 191.29 194.42"><path d="M195.07,194.42,144,143.35l-10.87-10.87Q154.57,110.6,176,88.7l18.93-19.35c7.25-7.4,7.94-20.69,0-28s-20.24-7.91-28,0q-25.69,26.23-51.37,52.49L105.16,104.5l-43.06-43L43.37,42.72c-7.32-7.32-20.75-7.87-28,0s-7.82,20.16,0,28q25.53,25.53,51.07,51.07l11,11L34.07,177.14,15.13,196.49c-7.25,7.41-7.93,20.7,0,28s20.24,7.9,28,0L94.48,172l11-11.22q21.45,21.47,42.91,42.91l18.72,18.73c7.33,7.33,20.75,7.87,28,0S202.89,202.24,195.07,194.42Z" transform="translate(-9.44 -35.72)" fill="#e41f1b"/></svg>