<svg id="Layer_1" data-name="Layer 1" xmlns="http://www.w3.org/2000/svg" viewBox="0 0 212.26 165.55"><path d="M374.46,82.16" transform="translate(-10.34 -58.29)" fill="none" stroke="#fbc300" stroke-miterlimit="10" stroke-width="0.81"/><path d="M429.4,92.57" transform="translate(-10.34 -58.29)" fill="none" stroke="#000" stroke-miterlimit="10" stroke-width="0.9"/><path d="M393.57,75" transform="translate(-10.34 -58.29)" fill="none" stroke="#000" stroke-miterlimit="10" stroke-width="0.9"/><path d="M420.3,112.69" transform="translate(-10.34 -58.29)" fill="none" stroke="#000" stroke-miterlimit="10" stroke-width="0.9"/><path d="M384.37,94.66" transform="translate(-10.34 -58.29)" fill="none" stroke="#000" stroke-miterlimit="10" stroke-width="0.9"/><path d="M15.47,223.84H33.59a5.14,5.14,0,0,0,5.08-5.07V83.54c0-6.24.13-12.49,0-18.73a2.09,2.09,0,0,1,0-.25,5.15,5.15,0,0,0-5.08-5.07H15.47a5.14,5.14,0,0,0-5.08,5.07V199.79c0,6.23-.13,12.49,0,18.72a2.25,2.25,0,0,1,0,.26,5.08,5.08,0,0,0,10.15,0V83.54c0-6.23.21-12.5,0-18.73v-.25l-5.07,5.07H33.59l-5.07-5.07V199.79c0,6.23-.21,12.5,0,18.72v.26l5.07-5.07H15.47a5.07,5.07,0,1,0,0,10.14Z" transform="translate(-10.34 -58.29)"/><path d="M199.34,222.65h18.13a5.14,5.14,0,0,0,5.07-5.07V82.35c0-6.24.13-12.49,0-18.73v-.25a5.15,5.15,0,0,0-5.07-5.08H199.34a5.15,5.15,0,0,0-5.07,5.08V198.59c0,6.24-.14,12.5,0,18.73v.26a5.07,5.07,0,0,0,10.14,0V82.35c0-6.23.21-12.5,0-18.73v-.25l-5.07,5.07h18.13l-5.08-5.07V198.59c0,6.23-.21,12.51,0,18.73a2.26,2.26,0,0,1,0,.26l5.08-5.07H199.34a5.07,5.07,0,0,0,0,10.14Z" transform="translate(-10.34 -58.29)"/><rect x="2.13" y="17.75" width="207.6" height="67.91"/><path d="M12.47,145.84H211.6c2.7,0,5.42.06,8.12,0h.34a1.9,1.9,0,0,0,1.88-1.88V76.05a1.9,1.9,0,0,0-1.88-1.88H20.93c-2.71,0-5.42-.06-8.12,0-.11,0-.23,0-.34,0a1.9,1.9,0,0,0-1.88,1.88V144a1.88,1.88,0,0,0,3.75,0V76.05l-1.87,1.87H211.6c2.68,0,5.44.19,8.12,0,.11,0,.23,0,.34,0l-1.87-1.87V144l1.87-1.87H20.93c-2.71,0-5.42-.07-8.12,0h-.34A1.88,1.88,0,0,0,12.47,145.84Z" transform="translate(-10.34 -58.29)"/><polygon points="4.22 64.05 4.22 64.05 4.22 19.63 25.61 19.63 4.22 64.05" fill="#fbc300"/><polygon points="207.77 37 207.77 37 207.77 83.88 184.11 83.88 207.77 37" fill="#fbc300"/><polygon points="36.45 83.88 16.53 83.88 47.34 19.63 67.26 19.63 36.45 83.88" fill="#fbc300"/><polygon points="78.73 83.88 58.82 83.88 89.63 19.63 109.54 19.63 78.73 83.88" fill="#fbc300"/><polygon points="121.22 83.88 101.3 83.88 132.11 19.63 152.02 19.63 121.22 83.88" fill="#fbc300"/><polygon points="162.76 83.88 142.84 83.88 173.65 19.63 193.56 19.63 162.76 83.88" fill="#fbc300"/></svg>