<svg id="Layer_1" data-name="Layer 1" xmlns="http://www.w3.org/2000/svg" viewBox="0 0 218.88 218.81"><path d="M374.46,82.16" transform="translate(-8.66 -3.28)" fill="none" stroke="#fbc300" stroke-miterlimit="10" stroke-width="0.81"/><path d="M429.4,92.57" transform="translate(-8.66 -3.28)" fill="none" stroke="#000" stroke-miterlimit="10" stroke-width="0.9"/><path d="M393.57,75" transform="translate(-8.66 -3.28)" fill="none" stroke="#000" stroke-miterlimit="10" stroke-width="0.9"/><path d="M420.3,112.69" transform="translate(-8.66 -3.28)" fill="none" stroke="#000" stroke-miterlimit="10" stroke-width="0.9"/><path d="M384.37,94.66" transform="translate(-8.66 -3.28)" fill="none" stroke="#000" stroke-miterlimit="10" stroke-width="0.9"/><path d="M22.38,76.82a1.45,1.45,0,0,0,.1-.18c.17-.29.36-.36-.11.2h0Z" transform="translate(-8.66 -3.28)"/><path d="M58.46,49.86Z" transform="translate(-8.66 -3.28)"/><path d="M132.5,20Z" transform="translate(-8.66 -3.28)"/><path d="M82.88,49c-.4,1-.16.4,0,0Z" transform="translate(-8.66 -3.28)"/><path d="M113.6,219a4.23,4.23,0,0,1-.3-1.74,5.58,5.58,0,0,1,.08-.57.77.77,0,0,1,0-.15,4.56,4.56,0,0,1,.13-.53,4,4,0,0,1,.15-.49l.15-.32c.08-.15.16-.31.25-.46a4.84,4.84,0,0,1,.33-.46l.14-.18a4.71,4.71,0,0,1,2.1-1.42c.07,0,.13-.06.21-.09,1.37-.47,2.73-1,4.08-1.52.17-.07,1.38-.59.28-.11l.71-.31c.81-.36,1.63-.73,2.43-1.12,2.44-1.17,4.82-2.47,7.13-3.87s4.29-2.75,6.35-4.26l1.13-.83.26-.21.76-.61c.94-.75,1.87-1.53,2.79-2.32a97.51,97.51,0,0,0,8.74-8.63c1.07-1.2,2.11-2.42,3.12-3.68l.66-.83c.36-.47.72-.95,1.07-1.44.73-1,1.46-2,2.1-3.08a4.85,4.85,0,1,1,8.37,4.89,75.46,75.46,0,0,1-7.69,10.11,98.14,98.14,0,0,1-15.47,14.32A101.41,101.41,0,0,0,154,205.76c.67-.25,1.34-.52,2-.79a10.18,10.18,0,0,0,1.08-.44s-.89.39-.39.16c.25-.11.51-.21.76-.33,1.37-.59,2.73-1.22,4.07-1.87q4.08-2,8-4.34t7.54-5l1.71-1.27.13-.1.06,0,1-.82q1.72-1.38,3.4-2.83c2-1.77,4-3.61,5.84-5.52l-.2-.16-.58-.44c-.5-.38-1-.74-1.51-1.1a78.24,78.24,0,0,0-7-4.51q-2.08-1.19-4.26-2.21l-1-.47-.24-.12c-.79-.37-1.65-.65-2.47-.94-2.38-.84-4.23-3.34-3.38-6,.76-2.35,3.4-4.29,6-3.38a69.89,69.89,0,0,1,17.33,9.22c1.3.93,2.59,1.88,3.86,2.87l.19-.23,1.27-1.59.2-.27.79-1q1.32-1.78,2.56-3.62,2.53-3.76,4.73-7.72t4.07-8.14c.15-.36.31-.71.46-1.07l.09-.19a21.75,21.75,0,0,0,.88-2.19c.55-1.4,1.06-2.82,1.54-4.24A104.08,104.08,0,0,0,216.86,127c0-.32.09-.64.14-1,0-.09,0-.2,0-.29.11-.86.2-1.72.29-2.58.14-1.43.24-2.86.33-4.3H175.49c-.15,7.12-.58,14.23-1.24,21.33q-.39,4.32-.9,8.62c-.29,2.51-2,5-4.84,4.84-2.38-.1-5.16-2.15-4.85-4.84,1.15-9.93,1.94-19.94,2.17-30h-24.4c-3.69,0-7.4.1-11.09,0h-.17a4.85,4.85,0,0,1,0-9.69h35.69c-.1-6.66-.47-13.31-1.18-19.94-.11-1-.22-2-.34-3-.06-.48-.15-1-.19-1.44,0-.2-.05-.4-.08-.6q-.42-2.91-.93-5.81c-.63-3.51-1.37-7-2.24-10.47-.16-.62-.34-1.24-.51-1.87a203.3,203.3,0,0,1-31,4.48c-2,.13-4,.22-6,.29q0,9.89.1,19.76c0,3.81.16,7.64.06,11.44v.17a4.85,4.85,0,1,1-9.69,0c0-3.13,0-6.26-.05-9.39q-.06-11-.11-21.93a173.79,173.79,0,0,1-27.4-2.75q-4.5-.83-9-1.93c-.38,1.54-.73,3.07-1,4.62-.69,3.28-1.26,6.59-1.74,9.92l-.09.65h0c0,.34-.09.68-.13,1-.12,1-.24,1.92-.34,2.88q-.32,2.88-.54,5.79a232.07,232.07,0,0,0-.52,25.57q.12,3.51.31,7a4.88,4.88,0,0,1-4.84,4.85,5,5,0,0,1-4.85-4.85C62.54,106.8,63,89.79,65.94,73.1c.56-3.18,1.23-6.35,2-9.49A147.56,147.56,0,0,1,41.49,52.35l-2.16-1.22c-1.92,2.14-3.71,4.39-5.54,6.6l-.26.34-.78,1c-.63.86-1.25,1.72-1.86,2.6q-1.8,2.59-3.44,5.31Q25.68,70,24.13,73c-.52,1-1,2.11-1.49,3.18-.05.11-.1.28-.16.43a.77.77,0,0,0-.1.18s0,0,0,0h0c-.24.6-.48,1.2-.7,1.81a53.47,53.47,0,0,0-2.19,7.45q-.21,1-.39,2.07a3.82,3.82,0,0,0-.1.69h0A.45.45,0,0,0,19,89a38.9,38.9,0,0,0-.24,4.18A4.9,4.9,0,0,1,13.9,98a4.93,4.93,0,0,1-4.85-4.85c0-10.25,3.82-20.15,8.83-29a113.64,113.64,0,0,1,14.05-19.3c1-1.12,2-2.24,3.1-3.3A109.11,109.11,0,0,1,69.18,14.84,110.28,110.28,0,0,1,113.28,3.4c1.46-.07,2.91-.1,4.37-.1a2.77,2.77,0,0,1,.5,0h0q1.11,0,2.22,0h.37a108.31,108.31,0,0,1,37,7.39A109.5,109.5,0,0,1,220.09,73a108.51,108.51,0,0,1,7.29,45.48A111.05,111.05,0,0,1,218,157.34a108.27,108.27,0,0,1-18.31,28.24l0,0h0q-1.42,1.6-2.91,3.15A108.85,108.85,0,0,1,166.12,211a110.63,110.63,0,0,1-38.36,10.63c-3,.28-6,.41-9.07.43a5,5,0,0,1-5-2.87l-.09-.22ZM164.19,85.13c0-.09,0-.18,0-.28C164.19,85.14,164.29,85.84,164.19,85.13ZM133.63,60.54c1.56-.14,3.13-.3,4.69-.48l2.14-.25,1.14-.15h.15l.19,0q7.84-1.11,15.59-2.82c-.28-.81-.55-1.61-.85-2.41s-.54-1.41-.82-2.11l-.37-.93c0-.08-.07-.17-.11-.26a99.06,99.06,0,0,0-7.14-13.66c-1.22-1.91-2.51-3.76-3.87-5.57l-.3-.38c-.35-.44-.7-.87-1.06-1.3Q142.08,29,141.09,28a67,67,0,0,0-7.73-7.34L132.5,20l.8.59-.94-.7c-.57-.42-1.15-.84-1.73-1.24-1.1-.75-2.23-1.47-3.38-2.15-1.38-.8-2.79-1.51-4.23-2.18,0,1.08,0,2.16,0,3.24l.12,22.42.11,21.22.67,0C127.17,61,130.4,60.82,133.63,60.54Zm-50.57-2.9q5.41,1.2,10.89,2l1.14.16.34,0h.07l2.83.35c1.75.19,3.5.36,5.25.5,3.33.27,6.66.43,10,.5q0-9-.1-18l-.12-23.44c0-1.72,0-3.44-.06-5.16l-.82.39a51.16,51.16,0,0,0-6,3.48c-.55.37-1.09.75-1.63,1.14l-.83.61-.06.05c-1.19.95-2.35,1.92-3.47,2.95A67,67,0,0,0,93.29,31l-.22.29,0,0c-.31.41-.63.83-.93,1.26-.6.82-1.18,1.66-1.74,2.5C89.16,36.87,88,38.76,87,40.68q-1.76,3.15-3.24,6.43c-.26.56-.52,1.13-.76,1.7l-.07.15.09-.21c-.13.33-.28.66-.42,1-.49,1.22-1,2.45-1.42,3.69s-.8,2.29-1.18,3.44C81,57.14,82,57.41,83.06,57.64Zm-3-37.17c-.3.12-1,.41-.75.31l-1.09.48c-1.58.7-3.13,1.43-4.67,2.21q-4.66,2.36-9.09,5.17c-1.49.95-2.95,1.94-4.4,3-.66.47-1.33,1-2,1.45l-1,.79c.76-.58-.07.06-.36.29Q52.59,37.38,48.86,41c-1,.92-1.87,1.87-2.78,2.82,1.8,1,3.61,1.94,5.45,2.85s3.55,1.71,5.36,2.51l1.34.59.58.24-.35-.14.34.14c.9.37,1.79.73,2.69,1.08,3,1.18,6.06,2.23,9.13,3.2A111.35,111.35,0,0,1,77,38.85,80.47,80.47,0,0,1,91.88,18c.73-.73,1.49-1.44,2.26-2.13a104.44,104.44,0,0,0-11.75,3.66C81.61,19.85,80.84,20.16,80.07,20.47ZM180.15,34.56l-1-.82h0l-.2-.15c-.75-.57-1.51-1.13-2.27-1.68q-2.07-1.48-4.21-2.87-4.38-2.84-9-5.22-2.37-1.21-4.8-2.31L157.56,21l-.7-.31-.07,0-.18-.07-.71-.29-1.24-.49a104.56,104.56,0,0,0-10-3.32L143,16.1c1.05,1,2.09,1.95,3.08,3a87.17,87.17,0,0,1,16.11,23.55,119.24,119.24,0,0,1,4.8,11.87,161,161,0,0,0,18.22-6.11L186,48l.52-.22,2.11-.95c1-.48,2-1,3-1.51A106.75,106.75,0,0,0,180.15,34.56Zm37.17,67.55c-.09-.9-.21-1.8-.31-2.7v0c0-.1,0-.21,0-.32-.08-.54-.16-1.09-.25-1.64a103.19,103.19,0,0,0-5.9-21.65c-.17-.43-.34-.87-.52-1.31l-.23-.55c-.37-.85-.74-1.69-1.13-2.53-.76-1.64-1.55-3.26-2.39-4.86a105.57,105.57,0,0,0-5.62-9.43c-.94-1.4-1.92-2.79-2.93-4.15a63.16,63.16,0,0,1-6.11,3,159.62,159.62,0,0,1-22.1,7.79,153.12,153.12,0,0,1,3.63,17.91,218.29,218.29,0,0,1,2.1,27.5h34.41c2.61,0,5.24,0,7.86,0,0-.37,0-.74,0-1.12C217.66,106,217.51,104.07,217.32,102.11ZM179,191.75a2.91,2.91,0,0,0,.33-.26Z" transform="translate(-8.66 -3.28)"/><path d="M14,121.92c3.53,8,11,22.47,19.48,22.66H94.79a1.68,1.68,0,0,0,1.68-1.68V116.69a1.68,1.68,0,0,1,2.86-1.2l47.2,46.38a1.68,1.68,0,0,1-.06,2.45L99,206.66a1.68,1.68,0,0,1-2.8-1.24L96,182.31a1.68,1.68,0,0,0-1.68-1.66L44,180.41c-.2,0-.38-.14-.58-.11-7.78,1.23-39-15.83-32.62-58A1.68,1.68,0,0,1,14,121.92Z" transform="translate(-8.66 -3.28)" fill="#fbc300"/><path d="M12.89,122.55a73.9,73.9,0,0,0,8.61,15.22c2.89,3.77,6.87,7.92,12,8.06,4.42.12,8.87,0,13.3,0H92.59c2,0,4.48.26,5.06-2.26a11.6,11.6,0,0,0,.07-2.43V118.45c0-.41-.24-1.8.18-2.11.59-.44,2.35,1.81,2.67,2.12l6,5.89,18,17.66L141,158.22l4.16,4.09c.35.35.77.6.39,1.13a5.06,5.06,0,0,1-.73.65l-13,11.63-19.6,17.47L98.93,205a4.1,4.1,0,0,1-.82.74c-.87.35-.68-1-.69-1.53L97.32,193c0-3.39,0-6.79-.1-10.19,0-1.8-1-3.29-2.93-3.4-.4,0-.81,0-1.21,0l-20.2-.09-24-.12c-1.62,0-3.29.12-4.9,0a7,7,0,0,0-1.18,0c-.41,0-.83,0-1.24-.05l-.14,0-.32,0-.79-.17c-.56-.13-1.11-.3-1.66-.48-6.29-2.11-11.93-6.76-16.2-11.82a49.56,49.56,0,0,1-11.07-27.47,65.3,65.3,0,0,1-.17-9.17c.09-1.66.23-3.32.43-5,.05-.48.12-1,.18-1.44,0-.26,0-.87.19-1.08.3-.37.64-.22.84.16.76,1.42,2.92.16,2.16-1.26a3,3,0,0,0-3.28-1.54,3.1,3.1,0,0,0-2.29,2.85A75.24,75.24,0,0,0,8.66,133a59,59,0,0,0,2.52,17.76,49.17,49.17,0,0,0,15,23c4.32,3.66,10,7.44,15.8,7.87a7.22,7.22,0,0,0,1.23,0c.14,0,.75,0,.34-.05s.37.12.48.13h.1c.6,0,1.21,0,1.82,0l8.92,0,26.35.13,10,0,2.6,0c.52,0,.88,0,1,.61a28.52,28.52,0,0,1,0,3.46l.06,6.16.11,11.8a5.31,5.31,0,0,0,.56,3.17,3,3,0,0,0,4.5.34c1.24-1.05,2.44-2.17,3.65-3.25l17.28-15.41,19.09-17,5.9-5.26c1.62-1.45,3.56-3.27,1.51-5.51-2.8-3.05-5.94-5.84-8.89-8.74L119.92,134l-16.19-15.91c-1.13-1.11-2.23-2.27-3.4-3.34a3,3,0,0,0-4.36,0c-.83.9-.75,2-.75,3.17v23c0,.55.23,1.68-.06,2.19s-.82.28-1.24.28H38.79c-1.72,0-3.44,0-5.16,0-4.26-.07-7.67-3.83-10.07-7a72.79,72.79,0,0,1-8.51-15.09C14.41,119.82,12.25,121.09,12.89,122.55Z" transform="translate(-8.66 -3.28)" fill="#1d1d1b"/></svg>