<svg width="31" height="30" viewBox="0 0 31 30" fill="none" xmlns="http://www.w3.org/2000/svg">
<path d="M30.0977 15.0665C30.0977 22.6092 24.5068 28.8449 17.2438 29.8568C16.5646 29.951 15.8698 30.0002 15.1646 30.0002C14.3505 30.0002 13.551 29.9353 12.7725 29.8097C5.66224 28.6649 0.231445 22.4993 0.231445 15.0665C0.231445 6.81854 6.91792 0.131836 15.1656 0.131836C23.4133 0.131836 30.0998 6.81854 30.0998 15.0665H30.0977Z" fill="white"/>
<path d="M16.8612 10.5599V13.1918H20.1432L19.6236 16.7371H16.8612V24.9052C16.3074 24.9814 15.7408 25.0212 15.1656 25.0212C14.5017 25.0212 13.8497 24.9687 13.2148 24.8672V16.7371H10.188V13.1918H13.2148V9.97159C13.2148 7.97378 14.8473 6.35352 16.8621 6.35352V6.35521C16.8681 6.35521 16.8732 6.35352 16.8792 6.35352H20.1441V9.41965H18.0107C17.3767 9.41965 16.8621 9.93011 16.8621 10.5591L16.8612 10.5599Z" fill="#333333"/>
</svg>
