<svg id="Layer_1" data-name="Layer 1" xmlns="http://www.w3.org/2000/svg" viewBox="0 0 216.77 189.08"><path d="M173.65,189.71l.09-.07-.38.28.11-.08Z" transform="translate(-2.98 -32.15)"/><path d="M60.69,175.12l.07.09-.28-.38a1,1,0,0,0,.08.11Z" transform="translate(-2.98 -32.15)"/><path d="M188.24,78.25l-.07-.09.28.37a1,1,0,0,1-.08-.11Z" transform="translate(-2.98 -32.15)"/><path d="M219.73,126.7c0-.25,0-.51,0-.76a6.84,6.84,0,0,0-.05-.79A95,95,0,0,0,202.51,72.8a97.22,97.22,0,0,0-45.59-35,94.44,94.44,0,0,0-32.45-5.69c-3.88,0-7.59,3.41-7.41,7.4a7.52,7.52,0,0,0,7.41,7.4,91,91,0,0,1,10.82.68,87.9,87.9,0,0,1,20.45,5.58,86.62,86.62,0,0,1,10.94,5.69c1.87,1.15,3.7,2.37,5.47,3.65.4.29.8.58,1.19.88l.66.49c.88.67-.74-.56-.72-.56a15.13,15.13,0,0,1,2.79,2.28,88.4,88.4,0,0,1,9.11,8.94c.72.82,1.43,1.66,2.12,2.5.3.36.58.72.87,1.08l-.39-.52c.15.2.3.41.46.61l.09.11c.24.3.58.77.12.17q1.94,2.58,3.67,5.29a87.9,87.9,0,0,1,6.59,12.38,88.66,88.66,0,0,1,5.56,20.41,89.14,89.14,0,0,1,.66,10.07,89.31,89.31,0,0,1-.66,10.08,88.89,88.89,0,0,1-5.58,20.45,88.85,88.85,0,0,1-5.7,10.95c-1.14,1.86-2.36,3.69-3.64,5.46l-.88,1.19-.49.66.55-.72a15.13,15.13,0,0,1-2.28,2.79,86.4,86.4,0,0,1-8.94,9.11c-.82.73-1.65,1.43-2.5,2.12-.35.3-.71.58-1.07.87l.52-.39-.61.46-.12.09c-.29.24-.77.58-.17.12-1.71,1.29-3.48,2.51-5.28,3.67a88.57,88.57,0,0,1-12.39,6.59,88.45,88.45,0,0,1-20.4,5.56,90.12,90.12,0,0,1-21.65,0,88.89,88.89,0,0,1-20.45-5.58,90,90,0,0,1-10.94-5.69q-2.81-1.72-5.47-3.65c-.4-.29-.8-.58-1.19-.88l-.66-.49.72.55a15.41,15.41,0,0,1-2.79-2.27,87.49,87.49,0,0,1-9.11-8.95c-.72-.82-1.43-1.65-2.12-2.49l-.87-1.08.4.52-.47-.61L60.6,175c-.23-.3-.58-.77-.12-.18-1.29-1.71-2.51-3.48-3.67-5.28a88.5,88.5,0,0,1-6.59-12.39,89,89,0,0,1-5.56-20.4c-.3-2.52-.51-5-.6-7.58q3.81,4.26,7.63,8.53c1.5,1.67,3,3.36,4.49,5a8,8,0,0,0,13.69-3,8.17,8.17,0,0,0-1.39-7.16,5.89,5.89,0,0,0-.61-.83L49,110.65l-4.8-5.37c-.14-.16-.64-.71-.75-.82a11.42,11.42,0,0,0-1.13-1.37A8.32,8.32,0,0,0,38.56,101c-3.19-.68-5.84.62-8,2.91l-4.95,5.27L6.14,129.91C4.39,131.77,3,133.7,3,136.37a8.3,8.3,0,0,0,2.62,5.95,8,8,0,0,0,5.92,2.21c2.94-.19,4.75-2,6.65-4l11.07-11.76A94.92,94.92,0,0,0,46.51,180.7a97.24,97.24,0,0,0,45.65,34.88A95.09,95.09,0,0,0,197.57,187a96.65,96.65,0,0,0,21.91-54.07c.12-1.56.18-3.12.22-4.69a7.37,7.37,0,0,0,.05-.82C219.75,127.19,219.74,126.94,219.73,126.7Z" transform="translate(-2.98 -32.15)"/><path d="M95.92,165l11.37-10,18.24-16,4.17-3.68a7.14,7.14,0,0,0,2-6.49,7.56,7.56,0,0,0,.13-1.36V66.78c0-3.87-3.41-7.58-7.4-7.4a7.53,7.53,0,0,0-7.41,7.4v59.94l-9.2,8.11-18.24,16-4.17,3.67c-2.92,2.57-2.82,7.89,0,10.48A7.59,7.59,0,0,0,95.92,165Z" transform="translate(-2.98 -32.15)" fill="#fcc401"/><path d="M190.88,129.65h2a4.94,4.94,0,1,0,0-9.87h-16.2a4.94,4.94,0,1,0,0,9.87Z" transform="translate(-2.98 -32.15)" fill="#fcc401"/><path d="M166.36,74.27l-10,10-1.43,1.43a5.09,5.09,0,0,0-1.44,3.49,4.93,4.93,0,0,0,8.42,3.49l10-10,1.43-1.43a5.09,5.09,0,0,0,1.44-3.49,4.93,4.93,0,0,0-8.42-3.49Z" transform="translate(-2.98 -32.15)" fill="#fcc401"/><path d="M161.88,155.29a4.95,4.95,0,0,0-7,0,5,5,0,0,0,0,7l10,10,1.43,1.43a4.94,4.94,0,1,0,7-7l-10-10Z" transform="translate(-2.98 -32.15)" fill="#fcc401"/><path d="M118.1,174.81V191a4.94,4.94,0,1,0,9.87,0v-16.2a4.94,4.94,0,1,0-9.87,0Z" transform="translate(-2.98 -32.15)" fill="#fcc401"/></svg>