<svg id="Layer_1" data-name="Layer 1" xmlns="http://www.w3.org/2000/svg" viewBox="0 0 213.35 198.75"><path d="M84.1,111.26a3,3,0,0,0,2.76-2,5.25,5.25,0,0,0,.23-1.89,7,7,0,0,0-1.25-3.69C84,101,81.1,100.52,78,100.49c-5.43-.06-13.31,1.12-14.16,7.69a2.51,2.51,0,0,0,2.5,2.5,2.57,2.57,0,0,0,2.5-2.5c0,.29,0,0,.07-.11-.17.28.08-.15.14-.24.2-.35-.18.18.08-.14a4.4,4.4,0,0,1,.37-.38c.31-.29-.46.25.27-.21l.53-.31a5.32,5.32,0,0,1,.83-.33,20.39,20.39,0,0,1,5.36-.95,27.29,27.29,0,0,1,2.86,0,4,4,0,0,1,1.74.35s.4.28.26.17.18.19.21.22.11.12,0,0l.14.21c.09.14.17.29.25.44-.14-.29.11.43.13.59-.06-.42,0,.12,0,.2,0,.38.17-.44-.06.19l.64-1.1-.15.17,1.77-.73-.2,0a2.57,2.57,0,0,0-2.5,2.5,2.53,2.53,0,0,0,2.5,2.5Z" transform="translate(-2.81 -24.12)" fill="#fcc401"/><path d="M78.5,105.25a19.19,19.19,0,0,1-3.64,2.52l-4.55,2.85-9.1,5.7a2.51,2.51,0,0,0,1.93,4.57l6.48-1.27,3.24-.63,1.62-.32.81-.15a1.19,1.19,0,0,1-1.15-.36l.5-3.92A161.43,161.43,0,0,1,58,122.63a2.49,2.49,0,0,0-1,3.12,2.52,2.52,0,0,0,3,1.45,103.8,103.8,0,0,1,13.22-2.29,2.57,2.57,0,0,0,2.5-2.5,2.52,2.52,0,0,0-2.5-2.5,117.23,117.23,0,0,0-14.55,2.46l1.93,4.57a158.33,158.33,0,0,0,16.6-8.39,2.54,2.54,0,0,0,.51-3.92c-.92-1.13-2.39-1.16-3.71-.94s-2.7.53-4,.79l-8.1,1.58,1.93,4.57,9.45-5.92,4.55-2.85A22.49,22.49,0,0,0,82,108.79c2.25-2.31-1.28-5.85-3.53-3.54Z" transform="translate(-2.81 -24.12)" fill="#fcc401"/><path d="M82.62,99.38a49.91,49.91,0,0,0-7.49-1.29,28.38,28.38,0,0,0-4.42-.19,12.5,12.5,0,0,0-10.79,18.81A11.67,11.67,0,0,0,62,119.39a7.62,7.62,0,0,0,1.31,1,5.12,5.12,0,0,0,1.37,1,9.35,9.35,0,0,0,4.64,1.48,9.52,9.52,0,0,0,5-.22,9.54,9.54,0,0,0,4.25-2.24A9.46,9.46,0,0,0,81.76,117L83,114a12.71,12.71,0,0,0,0-6.65l-1.26-3a12.6,12.6,0,0,0-4.49-4.48l-.1-.06,2.53,2-.09-.08,2,2.53-.06-.11L70.71,122.9a30,30,0,0,1,4.74.23l-3.32-.44a29.41,29.41,0,0,1,3.84.8,9.42,9.42,0,0,0,5,.22,9.32,9.32,0,0,0,4.65-1.48,9.43,9.43,0,0,0,3.5-3.22,9.39,9.39,0,0,0,2.24-4.25l.45-3.32a12.48,12.48,0,0,0-1.71-6.31l-2-2.53a12.55,12.55,0,0,0-5.52-3.22Z" transform="translate(-2.81 -24.12)" fill="#fcc401"/><path d="M79.91,98.29a37.37,37.37,0,0,0-10.17-.74,47.91,47.91,0,0,0-6.64,1,13.84,13.84,0,0,0-1.55.47,19.33,19.33,0,0,0-4.14,1.89,27.09,27.09,0,0,0-2.88,2.24,5.44,5.44,0,0,0-.48.48,34.83,34.83,0,0,0-2.24,2.89c-.13.19-.26.38-.37.58a26.12,26.12,0,0,0-1.75,4,9.49,9.49,0,0,0-.38,1.36,32.14,32.14,0,0,0-.7,6.34c0,1.31,0,2.61,0,3.91a9.51,9.51,0,0,0,1.08,4.82,9.31,9.31,0,0,0,2.59,4,9.4,9.4,0,0,0,4,2.59,9.37,9.37,0,0,0,4.81,1.07,12.57,12.57,0,0,0,8.84-3.66l2-2.53a12.37,12.37,0,0,0,1.7-6.31c.13-2.08-.09-4.17.17-6.24l-.44,3.32a10.58,10.58,0,0,1,.58-2.26l-1.26,3a7.4,7.4,0,0,1,.92-1.59l-2,2.53a6.81,6.81,0,0,1,.8-.81l-2.53,2a6.46,6.46,0,0,1,1.33-.76l-3,1.26a18.2,18.2,0,0,1,3.86-.9l-3.33.45a25.55,25.55,0,0,1,6.71,0l-3.32-.45c.39.05.77.12,1.16.19a9.48,9.48,0,0,0,5,.22,11.19,11.19,0,0,0,8.16-4.7,9.41,9.41,0,0,0,2.23-4.26A12.61,12.61,0,0,0,87.38,104c-1.67-2.59-4.31-5.18-7.47-5.74Z" transform="translate(-2.81 -24.12)" fill="#fcc401"/><path d="M72.2,124a18.61,18.61,0,0,1,0-3.5l-.44,3.32a8.05,8.05,0,0,1,.55-2l-1.26,3a40.7,40.7,0,0,1,2.36-4.23c.83-1.4,1.63-2.87,2.57-4.21l-2,2.53a4.15,4.15,0,0,1,.45-.49l-2.53,2a1.52,1.52,0,0,1,.38-.24l-3,1.26a1.78,1.78,0,0,1,.45-.13l-3.32.45a3.29,3.29,0,0,1,.7,0l-3.32-.45c.89.16,1.74.46,2.64.61a28,28,0,0,0,5.91.54,12.48,12.48,0,0,0,6.31-1.71,9.54,9.54,0,0,0,3.51-3.22,9.38,9.38,0,0,0,2.23-4.25,12.51,12.51,0,0,0,0-6.65,13.83,13.83,0,0,0-3.47-6,14.76,14.76,0,0,0-6-3.45A9.48,9.48,0,0,0,70,97a9.25,9.25,0,0,0-4.65,1.48,9.46,9.46,0,0,0-3.51,3.22,9.38,9.38,0,0,0-2.23,4.25,12.6,12.6,0,0,0,1.26,9.63,13.27,13.27,0,0,0,7.47,5.75l.2.06-3-1.26.18.1-2.53-2,.15.14-1.95-2.53.11.18-1.26-3,.07.2,12-15.82a13.39,13.39,0,0,1-2.45-.08l3.32.45c-.94-.14-1.84-.45-2.78-.62a15.36,15.36,0,0,0-7.35,0,15,15,0,0,0-1.94.75,12.07,12.07,0,0,0-1.86.87,18,18,0,0,0-5.76,6.27L52,107.6c-.51.85-1,1.7-1.51,2.56a38.81,38.81,0,0,0-2.38,5.14,21.69,21.69,0,0,0-.91,8.7,9.51,9.51,0,0,0,1.08,4.82,9.29,9.29,0,0,0,2.58,4,9.38,9.38,0,0,0,4,2.58,9.27,9.27,0,0,0,4.81,1.08,12.63,12.63,0,0,0,8.84-3.66c2.14-2.33,3.92-5.56,3.66-8.84Z" transform="translate(-2.81 -24.12)" fill="#fcc401"/><path d="M70.8,122.14v.17a9.51,9.51,0,0,0,1.08,4.82,11.19,11.19,0,0,0,6.61,6.6,9.37,9.37,0,0,0,4.81,1.08l3.33-.45a12.46,12.46,0,0,0,5.51-3.21l2-2.53a12.37,12.37,0,0,0,1.7-6.31v-.17a9.4,9.4,0,0,0-1.07-4.82,9.4,9.4,0,0,0-2.59-4,9.29,9.29,0,0,0-4-2.58,9.31,9.31,0,0,0-4.82-1.08l-3.32.45a12.44,12.44,0,0,0-5.52,3.21l-1.95,2.53a12.48,12.48,0,0,0-1.71,6.31Z" transform="translate(-2.81 -24.12)" fill="#fcc401"/><path d="M83.56,135.07a12.91,12.91,0,0,0,8.84-3.67,12.49,12.49,0,0,0,0-17.67,12.51,12.51,0,0,0-17.68,0,12.49,12.49,0,0,0,0,17.67,13,13,0,0,0,8.84,3.67Z" transform="translate(-2.81 -24.12)" fill="#fcc401"/><path d="M64.83,138.21a12.86,12.86,0,0,0,8.84-3.66,12.49,12.49,0,0,0,0-17.67,12.47,12.47,0,0,0-17.67,0,12.47,12.47,0,0,0,0,17.67,13,13,0,0,0,8.83,3.66Z" transform="translate(-2.81 -24.12)" fill="#fcc401"/><path d="M59.22,142.13a12.94,12.94,0,0,0,8.84-3.66,12.51,12.51,0,0,0,0-17.68,13,13,0,0,0-8.84-3.66,12.88,12.88,0,0,0-8.84,3.66,12.51,12.51,0,0,0,0,17.68,13,13,0,0,0,8.84,3.66Z" transform="translate(-2.81 -24.12)" fill="#fcc401"/><path d="M63.39,145.36a12.9,12.9,0,0,0,8.84-3.66,12.51,12.51,0,0,0,0-17.68,12.51,12.51,0,0,0-17.68,0,12.7,12.7,0,0,0-3.66,8.84,12.57,12.57,0,0,0,3.66,8.84,13,13,0,0,0,8.84,3.66Z" transform="translate(-2.81 -24.12)" fill="#fcc401"/><path d="M64.07,146.72a12.9,12.9,0,0,0,8.84-3.66,12.49,12.49,0,0,0,0-17.67,12.48,12.48,0,0,0-17.68,0,12.49,12.49,0,0,0,0,17.67,13,13,0,0,0,8.84,3.66Z" transform="translate(-2.81 -24.12)" fill="#fcc401"/><path d="M91.3,113.29l0,0-1.26.34h0l-.67-.09h0l-.59-.25,0,0-.51-.39a.58.58,0,0,1,.13.14l-.39-.51a22.28,22.28,0,0,1,1.07,2c.34.68.65,1.38,1,2.08L90,116c.08.19.16.38.23.58a2.8,2.8,0,0,0,1.15,1.49,2.55,2.55,0,0,0,1.93.25,2.49,2.49,0,0,0,1.49-1.15,2.41,2.41,0,0,0,.26-1.92c-.48-1.17-1-2.33-1.54-3.45-.24-.47-.48-.93-.74-1.38a3.88,3.88,0,0,0-.73-1,2.81,2.81,0,0,0-1.23-.7,2.75,2.75,0,0,0-2,.28,2.53,2.53,0,0,0-1.15,1.49,2.5,2.5,0,0,0,1.75,3.08,2.68,2.68,0,0,0,1.92-.26Z" transform="translate(-2.81 -24.12)" fill="#fcc401"/><path d="M104.54,77.81a26.65,26.65,0,0,1,2.88,4.74,22.24,22.24,0,0,0,2.63,4.56,34.38,34.38,0,0,0,7.62,7.42,22.67,22.67,0,0,1,3.57,2.58,8,8,0,0,1,1.91,3.5c1,3.49.5,7.21.69,10.78.17,3.21,5.18,3.23,5,0-.2-3.84.2-7.74-.72-11.53a13.6,13.6,0,0,0-5.89-8.31,35,35,0,0,1-3.91-2.83,44.86,44.86,0,0,1-3.69-3.86,17.65,17.65,0,0,1-2.7-4.41,28.12,28.12,0,0,0-3.08-5.17,2.57,2.57,0,0,0-3.42-.9,2.52,2.52,0,0,0-.89,3.43Z" transform="translate(-2.81 -24.12)" fill="#fcc401"/><path d="M116.42,103.9A29.42,29.42,0,0,0,121.13,114a2.59,2.59,0,0,0,2.82,1.15,2.52,2.52,0,0,0,1.84-2.41,64.88,64.88,0,0,0-1.36-7.18c-.11-.52-.23-1.06-.33-1.59-.06-.33-.11-.65-.17-1-.09-.54,0,.26,0-.33a10.63,10.63,0,0,1-.08-1.49q0-.37,0-.06c0,.2,0,.18,0,0,.4-.56-.56.63-.07.13a2.5,2.5,0,0,0-3.54-3.53c-2.11,2.14-1.4,5.38-.88,8,.25,1.23.55,2.44.82,3.67.14.61.27,1.22.38,1.84.06.32.12.65.17,1s0,.33,0,.08c0,.16,0,.33.06.5l4.66-1.27a26.85,26.85,0,0,1-2.65-4.44l-.24-.52c-.32-.69.17.45-.11-.25-.16-.39-.31-.78-.45-1.18-.29-.84-.54-1.68-.76-2.54a2.51,2.51,0,0,0-3.07-1.74,2.54,2.54,0,0,0-1.75,3.07Z" transform="translate(-2.81 -24.12)" fill="#fcc401"/><path d="M127.14,98l.3.67-.25-.6a11.81,11.81,0,0,1,.87,2.84l-.09-.66a4,4,0,0,1,0,1.09l.09-.66a2.73,2.73,0,0,1-.18.68l.25-.6a2.39,2.39,0,0,1-.16.32,2.5,2.5,0,1,0,4.31,2.53c1.52-2.57.3-5.68-.84-8.13a2.51,2.51,0,0,0-3.42-.9,2.48,2.48,0,0,0-1.15,1.49l-.09.67a2.43,2.43,0,0,0,.34,1.26Z" transform="translate(-2.81 -24.12)" fill="#fcc401"/><path d="M130.71,93.63c-1.26-1.46-2.34-3.09-3.58-4.7a23.75,23.75,0,0,0-4.67-4.67c-1.63-1.23-3.31-2.39-4.88-3.7-1.8-1.52-3.39-3.26-5.64-4.12a2.52,2.52,0,0,0-3.07,1.75,2.56,2.56,0,0,0,1.74,3.08,4.56,4.56,0,0,0,.62.35c.38.28.73.64,1.08.95.77.7,1.56,1.39,2.37,2.05,1.7,1.39,3.52,2.62,5.26,4,3,2.28,4.74,5.69,7.23,8.59a2.54,2.54,0,0,0,3.54,0,2.56,2.56,0,0,0,0-3.54Z" transform="translate(-2.81 -24.12)" fill="#fcc401"/><path d="M109.54,80.84c2.73,3.08,5.94,5.68,8.77,8.67a25.34,25.34,0,0,1,3.44,4.42,31.79,31.79,0,0,1,2.6,6.16,2.56,2.56,0,0,0,3.08,1.74,2.52,2.52,0,0,0,1.74-3.07,40.38,40.38,0,0,0-2.86-6.94,29.29,29.29,0,0,0-4-5.38c-2.93-3.18-6.33-5.9-9.21-9.13a2.5,2.5,0,0,0-3.53,3.53Z" transform="translate(-2.81 -24.12)" fill="#fcc401"/><path d="M158.12,127.05a8.14,8.14,0,0,1,3.6.37c1.54.49,3.28.38,4.27-1.06s.57-2.89.29-4.42-.55-2.86-.87-4.29a25.9,25.9,0,0,0-2.8-7.56c-1.5-2.56-3.17-5-4.76-7.55A2.53,2.53,0,0,0,155,101.4c-2.52.94-2.23,3.15-2,5.35s.33,4.22.67,6.3a11.74,11.74,0,0,0,2,4.76c.39.59.81,1.18,1.16,1.8a3.27,3.27,0,0,1,.51,1.5c.09,3.21,5.09,3.23,5,0a8.87,8.87,0,0,0-1.34-4.29,30.24,30.24,0,0,1-2.12-3.37,15.44,15.44,0,0,1-.67-4.19l-.25-2.51-.12-1.26-.09-.84q0-.45,0,0l-.64,1.11.11-.15-1.1.64.17-.06-2.82-1.15,3.15,5a31.74,31.74,0,0,1,2.66,4.58,27.63,27.63,0,0,1,1.37,5c.2.9.39,1.81.56,2.72.09.46.18.91.26,1.37.05.26.09.52.14.78a.76.76,0,0,1-.06-.26l.65-1.1c1.19-.16,1.46-.32.79-.48-.23-.08-.46-.16-.69-.22a11,11,0,0,0-1.39-.27,10.88,10.88,0,0,0-2.85-.06,2.58,2.58,0,0,0-2.5,2.5,2.51,2.51,0,0,0,2.5,2.5Z" transform="translate(-2.81 -24.12)" fill="#fcc401"/><path d="M102.43,77.28c1.27,3.41,2.61,6.81,3.61,10.31s1.9,7.13,3,10.64,2.35,7,3.64,10.45a44.06,44.06,0,0,0,4.47,9.34c1.14,1.68,2.77,2.94,4.8,1.59a20.69,20.69,0,0,0,3.63-3.37,27.15,27.15,0,0,0,5.15-8.17c2.69-6.77.78-13.77-1.56-20.33a10.71,10.71,0,0,0-3-4.95,24.31,24.31,0,0,0-4.94-3c-4-1.94-8-3.72-12-5.38a2.52,2.52,0,0,0-3.08,1.75,2.56,2.56,0,0,0,1.75,3.07,127.64,127.64,0,0,1,12.81,5.87c1.63.9,2.92,1.74,3.58,3.54a67.54,67.54,0,0,1,2.12,6.6c1,3.91,1.15,7.9-.49,11.66a20.52,20.52,0,0,1-2.76,4.58,17.61,17.61,0,0,1-4,4l1.26-.34H120l1.77.74a16,16,0,0,1-2.43-4.15,47,47,0,0,1-1.84-4.4q-1.94-5.17-3.64-10.45c-1.13-3.51-2-7.09-3-10.64s-2.34-6.89-3.61-10.31a2.57,2.57,0,0,0-3.08-1.74,2.52,2.52,0,0,0-1.74,3.07Z" transform="translate(-2.81 -24.12)" fill="#fcc401"/><path d="M110.54,78.9c.26,0,.52,0,.79,0,0,0,.58.07.13,0s0,0,.14,0a11.37,11.37,0,0,1,1.53.37l.74.26c.53.19-.52-.24,0,0l.29.13a13.73,13.73,0,0,1,1.45.81c.22.14.43.3.65.45s-.48-.4-.07-.06l.3.25a14.8,14.8,0,0,1,1.14,1.1l.51.6c.19.24-.31-.44-.06-.07l.23.33a13.62,13.62,0,0,1,.83,1.43,2.52,2.52,0,0,0,3.42.9,2.56,2.56,0,0,0,.89-3.42,15.08,15.08,0,0,0-12.9-8.16,2.52,2.52,0,0,0-2.5,2.5,2.55,2.55,0,0,0,2.5,2.5Z" transform="translate(-2.81 -24.12)" fill="#fcc401"/><path d="M108.13,88.31l9.62,27.8a2.57,2.57,0,0,0,3.07,1.75,2.54,2.54,0,0,0,1.75-3.08L113,87a2.57,2.57,0,0,0-3.08-1.75,2.52,2.52,0,0,0-1.74,3.08Z" transform="translate(-2.81 -24.12)" fill="#fcc401"/><path d="M112.74,91.93a7.56,7.56,0,0,0,.34,1.65,14.86,14.86,0,0,0,.68,1.53q.6,1.17,1.26,2.31c.43.74.87,1.46,1.34,2.17.23.36.46.71.7,1.06l.37.53.19.27c-.12-.37-.15-.43-.1-.17V100q.84-1.14.39-.69l-.27.25-.54.5,4.27,1.77c0-.22,0-.22,0,0s0,.23,0,0l0-.16-.13.29a6,6,0,0,0,.44-.83l1-1.76,2-3.52a2.5,2.5,0,1,0-4.32-2.52l-2.13,3.85c-.78,1.42-1.85,2.92-1.8,4.62a2.51,2.51,0,0,0,4.26,1.77,11,11,0,0,0,1.18-1.18,3.06,3.06,0,0,0,.2-3.31,12.62,12.62,0,0,0-.83-1.23c-.31-.45-.61-.91-.9-1.37q-.82-1.32-1.56-2.67c-.25-.45-.49-.9-.72-1.36l-.15-.31c-.16-.32.06,0,.05.13,0-.09-.27-1.16-.16-.32a2.78,2.78,0,0,0-.73-1.77,2.57,2.57,0,0,0-1.77-.73,2.53,2.53,0,0,0-1.77.73,2.4,2.4,0,0,0-.73,1.77Z" transform="translate(-2.81 -24.12)" fill="#fcc401"/><path d="M153,113.54q.2,3.17.31,6.34c0,1,.07,2.07.1,3.1,0,.5,0,1,0,1.5,0,.21,0,.43,0,.64s0,.19,0-.23a1.86,1.86,0,0,1,1.25-1.2,2.5,2.5,0,0,0,1.33,4.82,3.43,3.43,0,0,0,2.39-3.54c0-1.28-.06-2.57-.11-3.85q-.12-3.8-.35-7.58a2.5,2.5,0,1,0-5,0Z" transform="translate(-2.81 -24.12)" fill="#fcc401"/><circle cx="158.08" cy="150.74" r="30.35" fill="#fcc401"/><path d="M110.56,105.19v0h0Z" transform="translate(-2.81 -24.12)"/><path d="M111.77,104.86v0l-.13-.29-.19-.26-.25-.19a1,1,0,0,0-.47-.15.62.62,0,0,0-.33,0,.72.72,0,0,0-.32.08.65.65,0,0,0-.27.17.78.78,0,0,0-.32.35.76.76,0,0,0-.15.46.62.62,0,0,0,0,.33.32.32,0,0,0,0,.17l.13.3h0l-.12-.3h0a1,1,0,0,0,.22.43,1.07,1.07,0,0,0,.35.32,1,1,0,0,0,.47.15,1,1,0,0,0,.5,0l.29-.12a1.21,1.21,0,0,0,.45-.45l.13-.3a1.23,1.23,0,0,0,0-.66.77.77,0,0,0-.07-.16l-.06-.15h0l.13.3h0l-.13,1h0l-2.28-.3v0a1,1,0,0,0,.22.43,1.07,1.07,0,0,0,.35.32,1,1,0,0,0,.47.15,1,1,0,0,0,.5,0l.29-.12a1.21,1.21,0,0,0,.45-.45l.13-.3A1.23,1.23,0,0,0,111.77,104.86Z" transform="translate(-2.81 -24.12)"/><path d="M129.58,174.86a30.35,30.35,0,1,0,30.34-30.34A30.38,30.38,0,0,0,129.58,174.86Zm57.69,0a27.35,27.35,0,1,1-27.35-27.34A27.38,27.38,0,0,1,187.27,174.86Z" transform="translate(-2.81 -24.12)"/><path d="M128.33,174.86a31.59,31.59,0,1,0,.4-5,33.62,33.62,0,0,0-.4,5,1.25,1.25,0,0,0,2.5,0,29,29,0,1,1,.34,4.52,28.4,28.4,0,0,1-.34-4.52A1.25,1.25,0,0,0,128.33,174.86Z" transform="translate(-2.81 -24.12)"/><path d="M186,174.86a26.09,26.09,0,1,1-20.93-25.58A26.4,26.4,0,0,1,186,174.86a1.25,1.25,0,0,0,2.5,0,28.63,28.63,0,1,0-.36,4.5,32.25,32.25,0,0,0,.36-4.5A1.25,1.25,0,0,0,186,174.86Z" transform="translate(-2.81 -24.12)"/><path d="M214.71,68a4.59,4.59,0,0,0-2.77-3.17L153.61,43V31.67a6.28,6.28,0,0,0-6.25-6.29h-79a6.27,6.27,0,0,0-6.25,6.25c-.06,2.44-.09,4.61-.12,6.79s-.06,4.1-.11,6.37L8.15,64.45a6.25,6.25,0,0,0-3.72,8L53.85,207.53a6.28,6.28,0,0,0,5.86,4.1,6.13,6.13,0,0,0,2.14-.39h0c1.13-.28,3.67-1.3,10.43-4.27v9.89a4.54,4.54,0,0,0,4.54,4.54h75.82v-.28a47.35,47.35,0,0,0,7.28.56,46.8,46.8,0,0,0,29.84-82.87l24.72-66.27A7.36,7.36,0,0,0,214.71,68Zm-26.07,9.24c.28,4.66,3.41,7.74,7.4,9.47q-2.88,7.29-5.75,14.57-5.06,12.83-10.13,25.66-.94,2.43-1.91,4.86a46.5,46.5,0,0,0-10.05-3c3.75-11.73-2.46-24.91-14.59-30.57V58.28l32.85,12.65,3,1.14A13.29,13.29,0,0,0,188.64,77.23Zm-35,24.34h0c10.08,5.39,15.06,16.77,11.58,26.78a48.27,48.27,0,0,0-5.27-.3,46.87,46.87,0,0,0-6.31.43h0m-88.56-90c0-2.16.06-4.33.12-6.79a3.23,3.23,0,0,1,3.2-3.24h79a3.22,3.22,0,0,1,3.19,3.24V129a45.21,45.21,0,0,0-6.23,1.74l-.22-27.51-.36-44.57-.09-10.18a1.82,1.82,0,0,0-1.81-1.82,11.65,11.65,0,0,1-6.76-1.21,6.93,6.93,0,0,1-2.58-3.06,10.65,10.65,0,0,1-.57-2c0-.15-.05-.3-.07-.45v0s0-.06,0-.12c0-.28-.05-.56-.06-.84a10,10,0,0,1,.06-1.73A1.84,1.84,0,0,0,130,35.4l-14.48,0-23.11,0H87.06A1.69,1.69,0,0,0,85.33,37a6.22,6.22,0,0,0-3,.33L65,43.67C65,41.85,65,40.15,65.05,38.46ZM60.37,182l-3-8.19L48.69,150q-5.26-14.41-10.52-28.81-4.55-12.47-9.1-24.92c-1-2.75-2-5.49-3-8.24-.27-.75-.51-1.55-.78-2.32a12.11,12.11,0,0,0,8.25-9.2,17.56,17.56,0,0,0,0-5.92c-.06-.39-.13-.81-.22-1.22l11.91-4.47,21.85-8.19,3.34-1.25a15.1,15.1,0,0,0,2.9,4.72c3.27,3.57,8,4,12.32,2.67Q90,74.19,94.37,85.58q7.5,19.64,15,39.26l2.58,6.78h-15c2-4.05,1.56-10.42,1.49-11.34h0a27.29,27.29,0,0,0-54.57.1h0c0,15.06,12.72,27.32,28.35,27.32V145c-14.11,0-25.59-11-25.59-24.57h0a24.59,24.59,0,0,1,49.18.31h0c.19,3-.09,9-2,10.93H76.82a4.54,4.54,0,0,0-4.54,4.54v11a4.52,4.52,0,0,0,2.23,3.88,4.52,4.52,0,0,0-2.23,3.88v11a4.51,4.51,0,0,0,1.45,3.31,4.51,4.51,0,0,0-1.45,3.31v11a4.45,4.45,0,0,0,.3,1.59,10.94,10.94,0,0,0-6.33-3.3A17.34,17.34,0,0,0,60.37,182Zm15.36,1.64v-11a1.09,1.09,0,0,1,1.09-1.08h36.42c-.08,1.11-.14,2.23-.14,3.36a46.74,46.74,0,0,0,1.05,9.82H76.82A1.09,1.09,0,0,1,75.73,183.6ZM121.79,202h0v0Zm-45-.67a1.08,1.08,0,0,1-1.09-1.08v-7.85a1.75,1.75,0,0,0,.08-1.21,2.76,2.76,0,0,0-.08-.27v-1.69a1.09,1.09,0,0,1,1.09-1.08H115a46.8,46.8,0,0,0,6.28,13.18Zm37-34.27H76.82A1.08,1.08,0,0,1,75.73,166v-11a1.09,1.09,0,0,1,1.09-1.08H118.1A46.28,46.28,0,0,0,113.77,167Zm7.66-18.78H76.82a1.09,1.09,0,0,1-1.09-1.08v-11a1.08,1.08,0,0,1,1.09-1.08H114.3a2.17,2.17,0,0,0,.72,0h20.26A47.05,47.05,0,0,0,121.43,148.26ZM102.74,75a24.58,24.58,0,0,1,27.69,34.39,24.32,24.32,0,0,1-10.94,11.39m13.39-10.25a27.29,27.29,0,0,0-31.07-38.09L90.33,41a6.18,6.18,0,0,0-1.15-1.93l12.36,0,23.11,0h3.47a13.62,13.62,0,0,0,1.26,5.22c2,4.24,6.27,5.9,10.65,6.05q.1,13.17.22,26.35l.36,44.58q0,5.08.08,10.18a1.38,1.38,0,0,0,0,.2H123.48l-3-8.32A27,27,0,0,0,132.88,110.48ZM61.42,208.23l-.09,0-.52.19a3.2,3.2,0,0,1-2.45-.1,3.15,3.15,0,0,1-1.66-1.81L7.28,71.42A3.21,3.21,0,0,1,7.39,69a3.16,3.16,0,0,1,1.8-1.66L83.37,40.17a3.2,3.2,0,0,1,4.11,1.91L98.89,73.26l-.06,0,.92,2.54.06,0L107.59,97v0c.79,2.1,1.82,5,2.72,7.43.09.22.17.45.25.67h0L116.71,122l-.16.07.92,2.54.17-.07,2.6,7.1h-4.3L107,108.21Q99.51,88.58,92,69q-1.72-4.52-3.44-9c-.33-.85-1.3-1.73-2.31-1.31-2.08.86-4.46,1.56-6.66,1a6.87,6.87,0,0,1-3.84-2.46,10.5,10.5,0,0,1-2.29-4.75,1.89,1.89,0,0,0-2.3-1.31L57.39,56.33l-21.84,8.2-5.06,1.89a1.91,1.91,0,0,0-1.12,2.76.25.25,0,0,1,0,.07c.06.16.11.31.16.47a14.77,14.77,0,0,1,.36,1.6c0,.07,0,.11,0,.14h0c0,.2.05.4.07.61,0,.36.05.73.05,1.1A14.9,14.9,0,0,1,30,75.27c-.7,4.11-3.55,6.48-7.68,7.36A1.9,1.9,0,0,0,21,84.94q1.82,4.95,3.62,9.91l8.7,23.81q5.27,14.4,10.52,28.81,4.55,12.45,9.1,24.91c1.47,4,2.89,8.11,4.43,12.13l.06.17A1.91,1.91,0,0,0,59.7,186a12.13,12.13,0,0,1,1.71-.39l.42-.07H62l.92-.08a14.47,14.47,0,0,1,2.28.05,8.72,8.72,0,0,1,4,1.55,9.23,9.23,0,0,1,3,5.13,1.43,1.43,0,0,0,.08.22v7.84a4.52,4.52,0,0,0,1,2.85l-.15.18C68.18,205.45,62.88,207.72,61.42,208.23Zm-32-138.95c.06.1.05.12,0,0ZM76.82,218a1.09,1.09,0,0,1-1.09-1.09v-11a.69.69,0,0,1,.19-.52,1.12,1.12,0,0,1,.87,0l.26.09h47.46A47.05,47.05,0,0,0,141.6,218Zm126.92-43.09a43.81,43.81,0,0,1-51.1,43.21V218H152a43.8,43.8,0,0,1-10.37-82.87h.13V135a43.8,43.8,0,0,1,62,39.84Zm8.15-103.27-24.41,65.46a48.37,48.37,0,0,0-6-3.74l6.14-15.56q5.07-12.82,10.13-25.66l2.34-5.94a1.81,1.81,0,0,0-1.24-2.2,10.51,10.51,0,0,1-5.37-3.31,6.33,6.33,0,0,1-1.27-4,9.77,9.77,0,0,1,.63-3.46c.07-.21.15-.42.23-.63a.69.69,0,0,1,0-.08.15.15,0,0,1,0-.06l.21-.45a1.81,1.81,0,0,0-1.06-2.62l-33.72-13-4.85-1.87-.08,0V45.93L211,67.4a2,2,0,0,1,1.08,1.36A4.71,4.71,0,0,1,211.89,71.59Z" transform="translate(-2.81 -24.12)"/><path d="M215.92,67.66a6.46,6.46,0,0,0-4.18-4.25l-3.43-1.28-13.57-5.08-33-12.34-7.83-2.93.92,1.2c0-3.71,0-7.42,0-11.13a7.71,7.71,0,0,0-8-7.72c-5.86,0-11.73,0-17.6,0H68.55a7.71,7.71,0,0,0-5.48,2.21c-3,3-2.26,7.59-2.31,11.42q0,3.52-.12,7l.91-1.2L45.64,49.41,18,59.51l-8.74,3.2c-.49.18-1,.35-1.46.54a7.57,7.57,0,0,0-5,8,15.61,15.61,0,0,0,1,3.27l2,5.36,7,19.18,9.68,26.45,10.57,28.91L42.81,181l7.1,19.41c1,2.59,1.81,5.23,2.86,7.78a7.59,7.59,0,0,0,9.42,4.26,1.27,1.27,0,0,0,.87-1.54h0l-.87,1.54a26.26,26.26,0,0,0,3.21-1.18c2.52-1,5-2.13,7.51-3.22L71,207c0,3.17,0,6.35,0,9.52a6,6,0,0,0,6.13,6.16c4.49,0,9,0,13.48,0H139.8c4.2,0,8.46.18,12.66,0h.18a1.26,1.26,0,0,0,1.25-1.25v-.28l-1.58,1.2a48,48,0,0,0,38.33-84.39l.32,1.22,8.79-23.56,13.47-36.12c1.35-3.6,3.69-7.9,2.7-11.81a1.25,1.25,0,0,0-2.41.66c.76,3-1.29,6.72-2.33,9.49l-5.82,15.61L191.71,130l-3.16,8.45a1.21,1.21,0,0,0,.33,1.22A45.56,45.56,0,0,1,153,219.91a1.28,1.28,0,0,0-1.59,1.21v.28l1.25-1.25H78.51c-1.8,0-3.71.1-4.66-1.86-.58-1.21-.32-2.92-.32-4.21V207a1.27,1.27,0,0,0-1.88-1.08c-3.28,1.44-6.65,3.24-10.13,4.14a1.26,1.26,0,0,0-.87,1.54h0l.87-1.54a5.11,5.11,0,0,1-6.5-2.92c-.11-.28-.2-.57-.31-.85l-1.6-4.39-6.35-17.35-9.17-25.06L27.26,131.23l-9.84-26.9L9.69,83.23,5.82,72.63c-1-2.82-.18-5.85,2.79-7,1.91-.75,3.86-1.41,5.79-2.12l25.73-9.41,21-7.67L62.22,46a1.32,1.32,0,0,0,.92-1.21c.1-4.48-.09-9,.24-13.5a5.09,5.09,0,0,1,5.05-4.66c1.45,0,2.9,0,4.35,0h72.66c2.47,0,4.94.09,6.31,2.64.87,1.61.61,3.64.61,5.41V43a1.29,1.29,0,0,0,.91,1.21l20.51,7.68,31.73,11.87,4.81,1.8c1.49.56,2.62,1,3.19,2.78C214,69.84,216.41,69.19,215.92,67.66Z" transform="translate(-2.81 -24.12)"/><path d="M187.39,77.23c.38,5,3.59,8.57,8,10.55l-.58-1.41L177,131.45l1.54-.87a48.92,48.92,0,0,0-10-3l.87,1.54c4-12.87-3.34-26.38-15.17-32l.62,1.08V58.28l-1.59,1.21,35.82,13.78-.88-1.54a15.57,15.57,0,0,0-.82,5.5c.07,1.6,2.57,1.61,2.5,0a13.41,13.41,0,0,1,.73-4.83,1.28,1.28,0,0,0-.87-1.54L153.94,57.08a1.26,1.26,0,0,0-1.58,1.2V98.22A1.23,1.23,0,0,0,153,99.3c10.85,5.15,17.71,17.29,14,29.16a1.25,1.25,0,0,0,.87,1.54,49,49,0,0,1,10,3c.66.28,1.31-.31,1.53-.87q8.9-22.54,17.8-45.08a1.26,1.26,0,0,0-.58-1.42c-3.57-1.59-6.46-4.31-6.78-8.39C189.77,75.63,187.27,75.62,187.39,77.23Z" transform="translate(-2.81 -24.12)"/><path d="M153,102.65c9,4.89,14.39,15.34,11,25.37l1.2-.92a48.76,48.76,0,0,0-11.58.13c-1.58.21-1.6,2.71,0,2.5a48.76,48.76,0,0,1,11.58-.13,1.26,1.26,0,0,0,1.21-.92c3.73-11.05-2.25-22.79-12.16-28.19-1.42-.77-2.68,1.39-1.26,2.16Z" transform="translate(-2.81 -24.12)"/><path d="M66.3,38.46c0-2,.06-4,.11-6.06,0-1.37.39-2.6,2-2.72.27,0,.55,0,.82,0H147a2.23,2.23,0,0,1,2.31,2.49c0,4,0,8,0,12V129l.92-1.21a51.85,51.85,0,0,0-6.23,1.74l1.58,1.21q-.25-32.08-.52-64.16-.06-8-.13-15.92c0-1.91.18-4.2-2-5a8.64,8.64,0,0,0-3-.16,9.63,9.63,0,0,1-3.55-.69,6.17,6.17,0,0,1-3.38-5.13c.07.49,0-.2,0-.25,0-.28,0-.57,0-.85,0-.54.1-1.09.07-1.62a3,3,0,0,0-1.41-2.23,4.53,4.53,0,0,0-2.66-.52H116.54l-17.72,0H89.75c-2.24,0-5-.33-5.62,2.45l1.2-.92a11.07,11.07,0,0,0-5.11,1l-6,2.18-9.62,3.52,1.59,1.21c0-1.74.06-3.48.08-5.21a1.25,1.25,0,0,0-2.5,0c0,1.73,0,3.47-.08,5.21a1.25,1.25,0,0,0,1.58,1.2l9.38-3.43,6-2.19a10.11,10.11,0,0,1,4.68-1,1.24,1.24,0,0,0,1.21-.91c.22-1,1.9-.61,2.72-.61h11.28l15,0h13c.47,0,1.37-.18,1.76.08.59.41.23,2.17.29,2.85a11.62,11.62,0,0,0,.45,2.35,8.2,8.2,0,0,0,3.27,4.48,10.93,10.93,0,0,0,5.7,1.53c.76,0,2.14-.4,2.41.53a7.35,7.35,0,0,1,0,1.69V52.1q.06,7.49.13,15l.24,30,.27,33.7a1.26,1.26,0,0,0,1.59,1.2,51.34,51.34,0,0,1,6.23-1.74,1.25,1.25,0,0,0,.91-1.2V32.91c0-2.08-.31-4.14-2.43-5.23-1.29-.67-2.87-.5-4.28-.5H70.29c-1.78,0-3.52-.13-5,1.21a5.22,5.22,0,0,0-1.43,4c0,2-.08,4-.11,6.06A1.25,1.25,0,0,0,66.3,38.46Z" transform="translate(-2.81 -24.12)"/><path d="M61.58,181.63,34,106.06c-2.51-6.9-5.13-13.77-7.49-20.72l-.88,1.54a14.28,14.28,0,0,0,7.7-6.17c2-3.54,2-7.81,1.25-11.7l-.87,1.53,37.1-13.91-1.54-.87c1.35,3.35,3.6,6.49,7,8A14.15,14.15,0,0,0,86,64l-1.53-.87Q94.73,90,105,116.86l5.76,15.1,1.2-1.59h-15L98,132.25c1.7-3.66,2-8,1.66-12A1.25,1.25,0,0,0,98.39,119h0l1.25,1.25a28.53,28.53,0,0,0-50.38-17.94,28.9,28.9,0,0,0-6.69,18l1.25-1.25h0a1.27,1.27,0,0,0-1.25,1.25A29,29,0,0,0,61.8,147.15,30.8,30.8,0,0,0,72.13,149a1.27,1.27,0,0,0,1.25-1.25V145a1.26,1.26,0,0,0-1.25-1.25c-12.88-.09-24.25-10.14-24.34-23.32a1.27,1.27,0,0,0-1.25-1.25h0l1.25,1.25a23.34,23.34,0,0,1,46.68.31,1.27,1.27,0,0,0,1.25,1.25h0l-1.25-1.25a31.1,31.1,0,0,1-.15,5.37c-.18,1.52-.44,3.51-1.51,4.68l.88-.37H78.21a15.07,15.07,0,0,0-2.23.08,5.81,5.81,0,0,0-4.71,4.07,10.88,10.88,0,0,0-.24,3.22v4.79c0,1.43,0,2.87,0,4.31a6.09,6.09,0,0,0,2.85,5.3V150a6.09,6.09,0,0,0-2.85,5.3c0,1.56,0,3.12,0,4.68,0,3.34-.75,7.61,1.82,10.19v-1.76c-2.34,2.35-1.82,5.69-1.82,8.72v4.81a10.92,10.92,0,0,0,.35,3.6l2.09-1.21c-3.56-3.61-8.58-4.41-13.43-3.56-1.58.28-.91,2.69.67,2.41,4-.69,8.09,0,11,2.91a1.26,1.26,0,0,0,2.09-1.21,8.53,8.53,0,0,1-.26-2.85V177.6c0-2.25-.64-5.71,1.09-7.45a1.26,1.26,0,0,0,0-1.76c-1.08-1.09-1.09-2.28-1.09-3.67v-8.84c0-1.51.21-2.83,1.61-3.74a1.27,1.27,0,0,0,0-2.16c-1.6-1-1.61-2.55-1.61-4.21v-5.21c0-2.79-.78-7.51,3.29-7.69,5.51-.24,11.06.19,16.58,0,1.86-.06,2.58-2.52,2.95-4a27.5,27.5,0,0,0,.62-8.14,1.27,1.27,0,0,0-1.25-1.25h0L97,120.69a25.84,25.84,0,0,0-51.68-.31,1.26,1.26,0,0,0,1.25,1.25h0l-1.25-1.25a25.56,25.56,0,0,0,7.87,18.25,27.69,27.69,0,0,0,19,7.57L70.88,145v2.75l1.25-1.25A27.79,27.79,0,0,1,53,138.8,25.81,25.81,0,0,1,45,120.38l-1.25,1.25h0a1.27,1.27,0,0,0,1.25-1.25,26,26,0,0,1,52.07-.1,1.26,1.26,0,0,0,1.25,1.25h0l-1.25-1.25c.26,3.5.18,7.48-1.32,10.71a1.26,1.26,0,0,0,1.08,1.88h15a1.26,1.26,0,0,0,1.21-1.58Q103,104.56,92.74,77.81L86.89,62.48a1.28,1.28,0,0,0-1.54-.87,11.91,11.91,0,0,1-7.82,0,11.31,11.31,0,0,1-5.87-6.49,1.27,1.27,0,0,0-1.54-.87L33,68.13a1.29,1.29,0,0,0-.87,1.54c.67,3.23.66,6.84-1,9.78a11.58,11.58,0,0,1-6.2,5A1.26,1.26,0,0,0,24.08,86c4.26,12.53,9,24.9,13.56,37.34L51.41,161q3.87,10.64,7.76,21.26C59.72,183.79,62.13,183.14,61.58,181.63Z" transform="translate(-2.81 -24.12)"/><path d="M77,183.6V173.37c0-.21,0-.43,0-.65s0,0-.14,0a2.62,2.62,0,0,1,.56,0h35.84L112,171.5a49.41,49.41,0,0,0,1,13.51l1.21-1.58H78a6.61,6.61,0,0,1-.89,0c-.43-.07-.14.16-.18-.16-.21-1.59-2.62-.92-2.41.66.32,2.39,3,2,4.73,2h34.89a1.26,1.26,0,0,0,1.2-1.58,46.58,46.58,0,0,1-.86-12.85,1.27,1.27,0,0,0-1.25-1.25H80.72c-2.1,0-6-.72-6.24,2.35-.21,3.64,0,7.35,0,11A1.25,1.25,0,0,0,77,183.6Z" transform="translate(-2.81 -24.12)"/><path d="M121.79,200.73h0L123,202v0l-2.33.63,0,0a.91.91,0,0,0,.32.35,1,1,0,0,0,.43.23.94.94,0,0,0,.5,0,1,1,0,0,0,.46-.15l.26-.19a1.31,1.31,0,0,0,.32-.56l0-.33a1.29,1.29,0,0,0-.17-.63l0,0-.19-.25a1,1,0,0,0-.4-.26.72.72,0,0,0-.32-.08,1,1,0,0,0-.5,0l-.3.13-.25.19a1,1,0,0,0-.26.4.9.9,0,0,0-.1.49v0a.89.89,0,0,0,.1.48,1,1,0,0,0,.26.41l.25.19a1.3,1.3,0,0,0,.64.17h0a.89.89,0,0,0,.48-.11,1,1,0,0,0,.66-.66A.89.89,0,0,0,123,202l0-.33a1.27,1.27,0,0,0-.32-.55l-.26-.2A1.24,1.24,0,0,0,121.79,200.73Z" transform="translate(-2.81 -24.12)"/><path d="M77.15,200.11c-.29,0-.13.23-.17-.22s0-.79,0-1.17v-3.39c0-.86-.06-1.75,0-2.61,0-.29.08-.42.12-.7a12.5,12.5,0,0,0-.12-1.74c0-.22,0-1.05,0-.95s-.18.07,0,0a8.42,8.42,0,0,1,.87,0H115l-1.21-.91a49.23,49.23,0,0,0,6.42,13.47l1.07-1.88H76.82a1.25,1.25,0,0,0,0,2.5h44.49a1.26,1.26,0,0,0,1.08-1.88,47,47,0,0,1-6.16-12.88,1.26,1.26,0,0,0-1.2-.92H80.63c-1.13,0-2.27,0-3.41,0a2.61,2.61,0,0,0-2.74,3c0,.57.12,1.13.13,1.68s-.12.88-.13,1.32c0,1.16,0,2.32,0,3.48,0,1.9-.72,5.84,2,6.21C78.06,202.73,78.74,200.32,77.15,200.11Z" transform="translate(-2.81 -24.12)"/><path d="M113.77,165.79h-34a20.66,20.66,0,0,0-2.61,0c-.27,0-.34-.1-.21.09s0-.17,0-.25a5.53,5.53,0,0,0,0-.91v-8.53A5.14,5.14,0,0,1,77,155c-.09.32-.22.08.14.16a4.71,4.71,0,0,0,.92,0H111c2.22,0,4.57.22,6.79,0,.1,0,.22,0,.33,0L117,153.23a49,49,0,0,0-4.46,13.48c-.27,1.57,2.14,2.25,2.41.66a46.88,46.88,0,0,1,4.21-12.88,1.27,1.27,0,0,0-1.08-1.88H78.38c-.52,0-1,0-1.56,0-2.06.13-2.34,1.85-2.34,3.5v6.16a20,20,0,0,0,.07,4.17c.56,2.51,4.14,1.85,6,1.85H92.31c7,0,14,.16,21.06,0h.4A1.25,1.25,0,0,0,113.77,165.79Z" transform="translate(-2.81 -24.12)"/><path d="M121.43,147H78.79a7.64,7.64,0,0,1-2,0c.31.1.08.19.16-.17a5.8,5.8,0,0,0,0-1.25v-7.47a8,8,0,0,1,0-2c-.08.27-.12.16.34.16h58l-.63-2.33a49.54,49.54,0,0,0-14.3,13.63c-.93,1.32,1.24,2.57,2.16,1.26a46.59,46.59,0,0,1,13.4-12.73,1.26,1.26,0,0,0-.63-2.33c-7.13,0-14.27.08-21.39,0-9.3-.1-18.61,0-27.91,0-3,0-6.12-.19-9.14,0-2.57.16-2.36,2.61-2.36,4.48V146a4.54,4.54,0,0,0,.32,2.34A2.52,2.52,0,0,0,77,149.51c1,0,2.05,0,3.07,0h41.4A1.25,1.25,0,0,0,121.43,147Z" transform="translate(-2.81 -24.12)"/><path d="M103.07,76.15a23.33,23.33,0,0,1,15.79,43.5c-1.42.76-.16,2.91,1.27,2.16a25.84,25.84,0,0,0-17.72-48.07c-1.57.34-.91,2.76.66,2.41Z" transform="translate(-2.81 -24.12)"/><path d="M134,111.12a28.54,28.54,0,0,0-32.48-39.93l1.53.87L92.61,43.64a17.59,17.59,0,0,0-2.54-5.42l-.89,2.13,38.94-.06L126.87,39c.18,3.58,1.48,7.25,4.34,9.56a14.83,14.83,0,0,0,8.82,3l-1.25-1.25q.27,31.88.52,63.74,0,4.44.07,8.88c0,2.86-.21,5.86.1,8.69l1.25-1.25H123.48l1.2.92-3-8.32-.57,1.41A28.75,28.75,0,0,0,134,111.12c.69-1.45-1.47-2.72-2.16-1.27a26.55,26.55,0,0,1-12,12.37,1.27,1.27,0,0,0-.57,1.42l3,8.32a1.31,1.31,0,0,0,1.21.91h17.24a1.26,1.26,0,0,0,1.25-1.25,74.59,74.59,0,0,1-.09-7.48l-.06-7.86q-.06-8-.13-16.09-.13-15.87-.26-31.73l-.15-18.15A1.27,1.27,0,0,0,140,49.06,12.39,12.39,0,0,1,133,46.83,10.35,10.35,0,0,1,129.37,39a1.28,1.28,0,0,0-1.25-1.25l-38.94.06A1.27,1.27,0,0,0,88.3,40a13.55,13.55,0,0,1,1.8,4l2.71,7.41,6.32,17.28,1.47,4a1.29,1.29,0,0,0,1.54.88,26.09,26.09,0,0,1,31.78,21.46,26,26,0,0,1-2.12,14.79C131.14,111.31,133.29,112.58,134,111.12Z" transform="translate(-2.81 -24.12)"/><path d="M61.75,207c-.66-.24-1.27.26-1.93.3a2,2,0,0,1-1.92-1.18c0-.09-.06-.19-.1-.29-.23-.55-.42-1.13-.62-1.69l-2.66-7.27-9.68-26.45L32.12,135.68l-12.44-34L10.83,77.48,8.75,71.81a6.53,6.53,0,0,1-.38-1.13c-.28-1.63,1-2.11,2.15-2.53L34.6,59.34,68.89,46.8l11.6-4.25c1.77-.65,4.83-2.41,5.87.09,1.66,4,3,8.16,4.47,12.22l5.83,15.93,1,2.8.88-1.53-.06,0a1.26,1.26,0,0,0-.88,1.53l.93,2.54a1.26,1.26,0,0,0,1.53.87l.07,0-1.54-.87L102,85.35c1.4,3.82,2.6,7.82,4.23,11.55,0,.07.09.39.16.43s-.21-1.23,0-.26a8.51,8.51,0,0,0,.44,1.38c.86,2.35,1.7,4.71,2.58,7a1.26,1.26,0,0,0,2.28.3h0l-2.29-.3,6.16,16.83.87-1.54-.16.07a1.26,1.26,0,0,0-.88,1.53l.92,2.54a1.26,1.26,0,0,0,1.54.87l.17-.06-1.53-.88L119,132l1.2-1.59h-4.3l1.21.92q-12.36-32.35-24.7-64.7L91,62.76A27.82,27.82,0,0,0,89.51,59a3.35,3.35,0,0,0-2.33-1.68c-1.18-.17-2.36.59-3.47.9-2.37.66-4.75.49-6.55-1.32a9.08,9.08,0,0,1-1.82-2.68c-.43-1-.49-2.14-1.1-3-1.5-2.14-3.74-1.1-5.69-.37l-8.27,3.1L44.05,60l-7.91,3L32,64.53a8.4,8.4,0,0,0-3.25,1.57c-1.59,1.65-.43,3.49-.06,5.35.12.65,0-.35,0,.17,0,.21,0,.43.06.64a13.67,13.67,0,0,1,0,1.57,8.62,8.62,0,0,1-.49,2.76A7.22,7.22,0,0,1,24.7,80.5c-1.68.85-3.87.74-4.77,2.66A3.36,3.36,0,0,0,20,86c.49,1.35,1,2.7,1.48,4l2.91,8,23.84,65.28q2.91,8,5.81,16c.46,1.27.92,2.54,1.4,3.81a10.32,10.32,0,0,0,1.36,3.09,3.09,3.09,0,0,0,2.38,1.17,6.36,6.36,0,0,0,1.48-.29l1.07-.22.42-.06c-.29,0-.29,0,0,0,2.32-.2,4.92-.05,6.7,1.67a7.42,7.42,0,0,1,1.72,2.81,5.28,5.28,0,0,1,.43,1.45c.19,2.33,0,4.75,0,7.1a6.37,6.37,0,0,0,1.2,3.93l.2-1.51a5.43,5.43,0,0,1-1.62.73l-1.91.83-3.38,1.46c-1.46.62-2.93,1.27-4.43,1.8s-.86,3,.66,2.41c1.71-.61,3.37-1.35,5-2.05l3.58-1.55c1.15-.5,3-.92,3.83-1.87a1.27,1.27,0,0,0,.19-1.51c-1.41-1.87-.86-4.89-.86-7.11,0-.94.07-1.92,0-2.86a10.33,10.33,0,0,0-2-4.73c-2.54-3.5-7.17-4.07-11.15-3.23-.44.09-1.1.41-1.51.19s-.58-1-.73-1.43c-.48-1.27-.94-2.54-1.41-3.81-.92-2.55-1.83-5.1-2.76-7.65l-22.86-62.6q-2.89-7.91-5.78-15.83L22.66,86c-.41-1.14-.93-1.89.47-2.25a13.53,13.53,0,0,0,2.69-1,9.86,9.86,0,0,0,5.48-8.56,13.92,13.92,0,0,0-.68-5.25c-.14-.39-.38-.65-.1-1s1.22-.59,1.68-.76l4.14-1.55L67.6,53.83a35.44,35.44,0,0,1,3.68-1.37c1.23-.3,1.15,1.14,1.49,2a11.33,11.33,0,0,0,3.42,4.87,8.15,8.15,0,0,0,6,1.68,14.64,14.64,0,0,0,3.27-.75c.47-.17,1.18-.64,1.68-.38s.78,1.65,1,2.15l23.7,62.08,3,7.81a1.29,1.29,0,0,0,1.2.91h4.3a1.26,1.26,0,0,0,1.21-1.58l-2.6-7.1a1.26,1.26,0,0,0-1.54-.87l-.17.06,1.54.88-.93-2.54-.87,1.54.17-.07a1.27,1.27,0,0,0,.87-1.54l-6.16-16.82a1.26,1.26,0,0,0-2.28-.3h0l2.28.29c-.76-2-1.49-4.06-2.23-6.1a10.93,10.93,0,0,0-.49-1.31l-.13-.35-.12.3c0-.14,0-.48,0-.67a1.8,1.8,0,0,0-.08-.21c-.4-1.36-1-2.69-1.47-4L102.3,79,101,75.46a1.27,1.27,0,0,0-1.54-.87l-.06,0,1.54.87L100,73l-.88,1.54.06,0a1.26,1.26,0,0,0,.87-1.54l-10-27.32c-.47-1.27-.91-2.55-1.4-3.81a4.56,4.56,0,0,0-5.9-2.75c-2.44.85-4.86,1.78-7.28,2.67L43,53.61l-30,11c-2.22.81-5.61,1.49-6.75,3.77-1,2,0,4,.67,5.86L14.4,94.51l12.07,33,13.2,36.08,10.83,29.6c1.65,4.51,3.23,9.06,5,13.55a5.08,5.08,0,0,0,.89,1.59,4.45,4.45,0,0,0,2.81,1.49,4,4,0,0,0,2-.2c.6-.24.37,0,0-.16C62.6,210,63.25,207.56,61.75,207Z" transform="translate(-2.81 -24.12)"/><path d="M28.35,69.91l0,.08c.68,1.46,2.83.19,2.16-1.26l0-.08c-.68-1.46-2.84-.19-2.16,1.26l0,.08c.68,1.46,2.83.19,2.16-1.26l0-.08C29.83,67.19,27.67,68.46,28.35,69.91Z" transform="translate(-2.81 -24.12)"/><path d="M77.15,216.74c-.22,0-.2.21-.17-.26s0-.8,0-1.2v-8.89a1.34,1.34,0,0,0,0-.4c0-.15.09-.12,0,0l-.74.58a17.49,17.49,0,0,1,1.75.15h46.5l-.89-.37A48.66,48.66,0,0,0,141,219l.63-2.32H76.82a1.25,1.25,0,0,0,0,2.5H141.6c1.15,0,1.82-1.82.63-2.33a46.64,46.64,0,0,1-14.32-9.63c-.49-.48-1-1-1.43-1.47a6.42,6.42,0,0,0-1.34-1.41,1.63,1.63,0,0,0-.77-.17c-.44,0-.89,0-1.33,0H80.23c-1,0-2.13.1-3.16,0,.46,0-.29-.13-.48-.15a1.86,1.86,0,0,0-1.55.41,2.27,2.27,0,0,0-.56,1.73c0,1.48,0,3,0,4.44v5.16c0,1.46.18,3.13,2,3.37C78.06,219.36,78.74,217,77.15,216.74Z" transform="translate(-2.81 -24.12)"/><path d="M202.49,174.86a42.54,42.54,0,0,1-49.51,42l.91,1.21V218a1.26,1.26,0,0,0-1.25-1.25,16.23,16.23,0,0,1-4.23-.86,43.63,43.63,0,0,1-4.86-1.69,42.55,42.55,0,0,1-19.36-62.4,43.09,43.09,0,0,1,8-9.17,42.66,42.66,0,0,1,4.85-3.61c.85-.54,1.72-1.05,2.6-1.53.42-.23.84-.45,1.27-.66a6.36,6.36,0,0,0,.64-.32l.32-.15c-.27,0-.33,0-.18,0a1.26,1.26,0,0,0,1.25-1.25V135l-.62,1.08a42.73,42.73,0,0,1,35.34.08,43.24,43.24,0,0,1,21.06,21.21,42.62,42.62,0,0,1,3.74,17.47,1.25,1.25,0,0,0,2.5,0,45,45,0,0,0-63.9-40.92,1.24,1.24,0,0,0-.62,1.08v.06l1.25-1.25a5.06,5.06,0,0,0-2.05.79c-.9.45-1.78.94-2.65,1.45a45.79,45.79,0,0,0-12.85,11.4,45.13,45.13,0,0,0,23.08,70.64,20,20,0,0,0,5.39,1.09L151.39,218v.12a1.25,1.25,0,0,0,.92,1.2A45.08,45.08,0,0,0,205,174.86,1.25,1.25,0,0,0,202.49,174.86Z" transform="translate(-2.81 -24.12)"/><path d="M210.69,71.25,202.43,93.4l-13.16,35.27-3,8,1.84-.74a49.81,49.81,0,0,0-6-3.73l.57,1.41,18.08-45.8c.59-1.49,1.08-2.89-.17-4.21-1.07-1.13-2.91-1.32-4.22-2.11-3.18-1.91-3.29-5.11-2.21-8.32.33-1-.18.36.15-.39a6.35,6.35,0,0,0,.38-.84,3,3,0,0,0,0-1.9c-.58-1.66-2.41-2.08-3.88-2.64L179.19,63l-12.93-5-6.47-2.48c-1.92-.74-3.87-1.7-5.85-2.25l.92,1.21V45.93l-1.59,1.2,20,7.5L204.4,66.27l4.83,1.81a6.2,6.2,0,0,1,1.18.44c.86.53.54,1.89.28,2.73-.49,1.54,1.92,2.2,2.41.67.77-2.43.26-4.94-2.23-5.89l-3.26-1.22-13.15-4.92L161.71,47.63l-7.77-2.91a1.26,1.26,0,0,0-1.58,1.21v8.56a1.25,1.25,0,0,0,.91,1.2c1.67.46,3.32,1.27,4.94,1.89l5.54,2.13L174.83,64l10.63,4.09c1.85.71,3.7,1.41,5.54,2.13.62.25,1.4.36,1.24,1.14a12.49,12.49,0,0,1-.63,1.52c-1,2.88-1,6.18,1,8.66a9.44,9.44,0,0,0,3.18,2.53,16,16,0,0,0,2,.87c1.14.42,1.18.64.72,1.81q-4.35,11-8.68,22Q185,120.85,180.25,133a1.25,1.25,0,0,0,.58,1.41,51.48,51.48,0,0,1,6,3.73,1.26,1.26,0,0,0,1.84-.74l8.26-22.15L210.1,80l3-8C213.66,70.41,211.24,69.76,210.69,71.25Z" transform="translate(-2.81 -24.12)"/><path d="M151.7,173.76a17.24,17.24,0,0,0-2.25-.57c-.68-.13-2-.24-2.37-1-.48-1,.51-1.69,1.33-1.85a4.76,4.76,0,0,1,3.68,1,.74.74,0,0,0,1-.26l1.11-1.55a.75.75,0,0,0-.26-1,8.24,8.24,0,0,0-6.53-1.37,4.58,4.58,0,0,0-3.78,4,4.23,4.23,0,0,0,2.53,4.69,15.38,15.38,0,0,0,2.58.62c.77.14,2.23.25,2.42,1.21.24,1.24-1.11,1.63-2.07,1.67a5.23,5.23,0,0,1-3.69-1.15.73.73,0,0,0-1,0l-1.22,1.49a.75.75,0,0,0,0,1,8.64,8.64,0,0,0,9.21,1.13,4.52,4.52,0,0,0,2.21-4.34A4.13,4.13,0,0,0,151.7,173.76Z" transform="translate(-2.81 -24.12)"/><path d="M165.08,167.15H162.9a.71.71,0,0,0-.63.36c-.81,1.66-1.62,3.33-2.42,5-.81-1.66-1.61-3.33-2.42-5a.71.71,0,0,0-.63-.36h-2.18a.74.74,0,0,0-.64,1.1l2.9,5.65a24,24,0,0,0,1.24,2.42c0,.1,0,.21,0,.25v5.27a.74.74,0,0,0,.73.73h2a.75.75,0,0,0,.73-.73v-5.5l4.15-8.09A.74.74,0,0,0,165.08,167.15Z" transform="translate(-2.81 -24.12)"/><path d="M173.11,167.25a9.45,9.45,0,0,0-1.76-.1h-4.74a.62.62,0,0,0-.46.18l-.05,0a.1.1,0,0,1,0,0,.71.71,0,0,0-.18.47v14a.75.75,0,0,0,.73.73h2a.75.75,0,0,0,.74-.73v-4.68H172a5.11,5.11,0,0,0,3.46-1.29,5.44,5.44,0,0,0,.59-6.73A4.61,4.61,0,0,0,173.11,167.25Zm-3.8,3.22c.92,0,1.85,0,2.77,0a1.38,1.38,0,0,1,1.37,1.32,1.7,1.7,0,0,1-.9,2,3,3,0,0,1-.9.07h-2.34Z" transform="translate(-2.81 -24.12)"/><path d="M68.66,116.71a13.11,13.11,0,0,0-.36-1.95c-.14-.57-.53-1.64-.1-2.17.57-.72,1.49-.21,1.9.37a4,4,0,0,1,.54,3.2.65.65,0,0,0,.57.68l1.6.31a.65.65,0,0,0,.68-.57,7,7,0,0,0-1.27-5.53,3.92,3.92,0,0,0-4.46-1.5A3.61,3.61,0,0,0,65,113.19a12.74,12.74,0,0,0,.45,2.21c.16.65.6,1.82-.08,2.31-.87.63-1.65-.28-2-1a4.42,4.42,0,0,1-.43-3.26.63.63,0,0,0-.37-.8L61,112.23a.63.63,0,0,0-.8.37,7.08,7.08,0,0,0-.1,3.3,7.3,7.3,0,0,0,2.52,4.22,3.85,3.85,0,0,0,4.15.17A3.52,3.52,0,0,0,68.66,116.71Z" transform="translate(-2.81 -24.12)"/><path d="M78.56,124.69,77.79,123a.62.62,0,0,0-.51-.36l-4.73-.09,3-3.66a.58.58,0,0,0,0-.61l-.78-1.69a.63.63,0,0,0-1.07-.1l-3.34,4.27A19.4,19.4,0,0,0,69,122.59l-.19.1-1.34.62-2.73,1.26a.62.62,0,0,0-.3.83l.7,1.52a.64.64,0,0,0,.83.3l4.25-2,7.74.32A.63.63,0,0,0,78.56,124.69Z" transform="translate(-2.81 -24.12)"/><path d="M81.36,130.94a8,8,0,0,0-.56-1.4l-1-2.15-.34-.73-.36-.78a.58.58,0,0,0-.3-.3l0,0h-.05a.59.59,0,0,0-.43,0L68.83,130l-1.34.61a.63.63,0,0,0-.31.83l.7,1.52a.65.65,0,0,0,.83.3l3.62-1.67.57,1.23.4.87a4.33,4.33,0,0,0,2.24,2.22,4.64,4.64,0,0,0,5.41-2A4,4,0,0,0,81.36,130.94Zm-3.85-1.79c.33.71.66,1.43,1,2.15a1.18,1.18,0,0,1-.53,1.53,1.45,1.45,0,0,1-1.84,0,2.38,2.38,0,0,1-.37-.66l-.49-1.07-.35-.75Z" transform="translate(-2.81 -24.12)"/><path d="M113.71,85.85a3.89,3.89,0,0,0-4.45-1.49A3.58,3.58,0,0,0,106.54,88a12.12,12.12,0,0,0,.44,2.22c.17.64.6,1.81-.07,2.3-.87.63-1.66-.28-2-1a4.44,4.44,0,0,1-.42-3.27.63.63,0,0,0-.37-.8L103,87.16c1.15,2.71,2.16,5.57,3.13,8.45a4.15,4.15,0,0,0,2.15-.52,3.52,3.52,0,0,0,1.91-3.58,12.77,12.77,0,0,0-.37-1.94c-.13-.58-.53-1.64-.1-2.18.58-.71,1.49-.2,1.91.37a4,4,0,0,1,.54,3.2.63.63,0,0,0,.56.69l1.6.3a.63.63,0,0,0,.68-.56A7,7,0,0,0,113.71,85.85Z" transform="translate(-2.81 -24.12)"/><path d="M120.06,99.5l-.78-1.69a.65.65,0,0,0-.51-.36l-4.72-.08,3-3.66a.63.63,0,0,0,.06-.62l-.78-1.68a.63.63,0,0,0-1.08-.1l-3.33,4.26a19.64,19.64,0,0,0-1.44,1.83l-.18.1-1.35.62-1.73.8c.31.93.62,1.85.94,2.78l3.54-1.64,7.74.32A.63.63,0,0,0,120.06,99.5Z" transform="translate(-2.81 -24.12)"/><path d="M122.85,105.74a8.38,8.38,0,0,0-.55-1.39l-1-2.15-.34-.73-.36-.78a.6.6,0,0,0-.31-.3l0,0h0a.59.59,0,0,0-.43,0l-9.46,4.37-.92.43c.34.92.7,1.82,1.06,2.72l3.37-1.56.56,1.23.41.87a4.28,4.28,0,0,0,2.23,2.22,4.62,4.62,0,0,0,5.41-1.94A4,4,0,0,0,122.85,105.74Zm-3.4,1.9a1.46,1.46,0,0,1-1.84,0,2.73,2.73,0,0,1-.37-.67l-.49-1.06-.35-.75L119,104c.33.72.67,1.43,1,2.16A1.18,1.18,0,0,1,119.45,107.64Z" transform="translate(-2.81 -24.12)"/><path d="M157.44,123a3.91,3.91,0,0,0-3.47-3.16,3.61,3.61,0,0,0-4,2.23,12.8,12.8,0,0,0-.48,2.21c-.05.28-.09.67-.19,1v3.85a3.51,3.51,0,0,0,2.57-2.41,14.08,14.08,0,0,0,.45-1.92c.11-.59.18-1.72.78-2,.82-.43,1.45.41,1.6,1.1a4,4,0,0,1-.8,3.15.64.64,0,0,0,.24.85l1.34.92a.62.62,0,0,0,.85-.24A7,7,0,0,0,157.44,123Z" transform="translate(-2.81 -24.12)"/></svg>