<svg xmlns="http://www.w3.org/2000/svg" viewBox="0 0 800 577.78"><g id="Layer_2" data-name="Layer 2"><rect y="190.96" width="800" height="195.85" style="fill:#fff"/><polygon points="258.94 272.96 201.31 272.96 183.34 221.76 165.38 272.96 107.74 272.96 154.31 304.54 136.63 356.01 183.34 324.43 230.05 356.01 212.52 304.54 258.94 272.96" style="fill:#cd1226"/><polygon points="475.67 272.96 417.89 272.96 399.93 221.76 382.11 272.96 324.33 272.96 370.9 304.54 353.22 356.01 399.93 324.43 446.64 356.01 429.1 304.54 475.67 272.96" style="fill:#cd1226"/><polygon points="692.26 272.96 634.48 272.96 616.51 221.76 598.69 272.96 540.92 272.96 587.48 304.54 569.95 356.01 616.51 324.43 663.22 356.01 645.69 304.54 692.26 272.96" style="fill:#cd1226"/><path d="M0,386.82H800a0,0,0,0,1,0,0V488.87a88.9,88.9,0,0,1-88.9,88.9H88.9A88.9,88.9,0,0,1,0,488.87V386.82a0,0,0,0,1,0,0Z"/><path d="M88.9,0H711.1A88.9,88.9,0,0,1,800,88.9V191a0,0,0,0,1,0,0H0a0,0,0,0,1,0,0V88.9A88.9,88.9,0,0,1,88.9,0Z" style="fill:#007a3d"/></g></svg>