<svg id="Layer_1" data-name="Layer 1" xmlns="http://www.w3.org/2000/svg" viewBox="0 0 800 577.78"><path d="M800,488.89a88.89,88.89,0,0,1-88.89,88.89H88.89A88.89,88.89,0,0,1,0,488.89v-400A88.89,88.89,0,0,1,88.89,0H711.11A88.89,88.89,0,0,1,800,88.89Z" style="fill:#e30917"/><path d="M355.56,422.22a133.33,133.33,0,1,1,77.93-241.38,163.34,163.34,0,1,0-122.4,271.47h0a162.83,162.83,0,0,0,122.38-55.38A132.5,132.5,0,0,1,355.56,422.22ZM442.51,294l54.22,12.49,4.89,55.4,28.62-47.69,54.23,12.47-36.54-42L576.53,237l-51.17,21.78-36.54-42,4.89,55.42Z" style="fill:#eee"/></svg>