<svg id="Layer_1" data-name="Layer 1" xmlns="http://www.w3.org/2000/svg" viewBox="0 0 218.88 218.81"><path d="M374.46,82.16" transform="translate(-9.05 -3.28)" fill="none" stroke="#fbc300" stroke-miterlimit="10" stroke-width="0.81"/><path d="M429.4,92.57" transform="translate(-9.05 -3.28)" fill="none" stroke="#000" stroke-miterlimit="10" stroke-width="0.9"/><path d="M393.57,75" transform="translate(-9.05 -3.28)" fill="none" stroke="#000" stroke-miterlimit="10" stroke-width="0.9"/><path d="M420.3,112.69" transform="translate(-9.05 -3.28)" fill="none" stroke="#000" stroke-miterlimit="10" stroke-width="0.9"/><path d="M384.37,94.66" transform="translate(-9.05 -3.28)" fill="none" stroke="#000" stroke-miterlimit="10" stroke-width="0.9"/><path d="M214.21,76.82a1.45,1.45,0,0,1-.1-.18c-.17-.29-.36-.36.11.2h0Z" transform="translate(-9.05 -3.28)"/><path d="M178.13,49.86Z" transform="translate(-9.05 -3.28)"/><path d="M104.09,20Z" transform="translate(-9.05 -3.28)"/><path d="M153.71,49c.4,1,.16.4,0,0Z" transform="translate(-9.05 -3.28)"/><path d="M123,219a4.23,4.23,0,0,0,.3-1.74,5.58,5.58,0,0,0-.08-.57.77.77,0,0,0,0-.15,4.56,4.56,0,0,0-.13-.53,4,4,0,0,0-.15-.49l-.15-.32c-.08-.15-.16-.31-.25-.46a4.84,4.84,0,0,0-.33-.46l-.14-.18a4.71,4.71,0,0,0-2.1-1.42c-.07,0-.13-.06-.21-.09-1.37-.47-2.73-1-4.08-1.52-.17-.07-1.38-.59-.28-.11l-.71-.31c-.81-.36-1.63-.73-2.43-1.12-2.44-1.17-4.82-2.47-7.13-3.87s-4.29-2.75-6.35-4.26l-1.13-.83-.26-.21-.76-.61c-.95-.75-1.87-1.53-2.79-2.32a97.51,97.51,0,0,1-8.74-8.63C84,187.56,83,186.34,82,185.08l-.66-.83c-.36-.47-.72-.95-1.07-1.44-.73-1-1.46-2-2.1-3.08a4.85,4.85,0,0,0-8.37,4.89,75.46,75.46,0,0,0,7.69,10.11,98.14,98.14,0,0,0,15.47,14.32,101.41,101.41,0,0,1-10.32-3.29c-.67-.25-1.34-.52-2-.79a10.18,10.18,0,0,1-1.08-.44s.89.39.39.16c-.25-.11-.51-.21-.76-.33-1.37-.59-2.73-1.22-4.07-1.87q-4.08-2-8-4.34t-7.54-5l-1.71-1.27-.13-.1-.06,0-1-.82q-1.72-1.38-3.4-2.83c-2-1.77-4-3.61-5.84-5.52l.2-.16.58-.44c.5-.38,1-.74,1.51-1.1a78.24,78.24,0,0,1,7-4.51q2.09-1.19,4.26-2.21l1-.47.24-.12c.79-.37,1.65-.65,2.47-.94,2.38-.84,4.23-3.34,3.38-6-.76-2.35-3.4-4.29-6-3.38a69.89,69.89,0,0,0-17.33,9.22c-1.3.93-2.59,1.88-3.86,2.87l-.19-.23-1.27-1.59-.2-.27-.79-1q-1.32-1.78-2.56-3.62-2.53-3.76-4.73-7.72t-4.07-8.14c-.15-.36-.31-.71-.46-1.07l-.09-.19a21.75,21.75,0,0,1-.88-2.19c-.55-1.4-1.06-2.82-1.54-4.24A104.08,104.08,0,0,1,19.73,127c-.05-.32-.1-.64-.14-1,0-.09,0-.2,0-.29-.11-.86-.2-1.72-.29-2.58-.14-1.43-.24-2.86-.33-4.3H61.1c.15,7.12.58,14.23,1.24,21.33q.39,4.32.9,8.62c.29,2.51,2,5,4.84,4.84,2.38-.1,5.16-2.15,4.85-4.84-1.15-9.93-1.94-19.94-2.17-30h24.4c3.69,0,7.4.1,11.09,0h.17a4.85,4.85,0,0,0,0-9.69H70.73c.1-6.66.47-13.31,1.18-19.94.11-1,.22-2,.34-3,.06-.48.15-1,.19-1.44,0-.2,0-.4.08-.6q.42-2.91.93-5.81c.63-3.51,1.37-7,2.24-10.47.16-.62.34-1.24.51-1.87a203.3,203.3,0,0,0,31,4.48c2,.13,4,.22,6,.29q0,9.89-.1,19.76c0,3.81-.16,7.64-.06,11.44v.17a4.85,4.85,0,1,0,9.69,0c0-3.13,0-6.26,0-9.39q.06-11,.11-21.93a173.79,173.79,0,0,0,27.4-2.75q4.5-.83,9-1.93c.38,1.54.73,3.07,1.05,4.62.69,3.28,1.26,6.59,1.74,9.92l.09.65h0c.05.34.09.68.13,1,.12,1,.24,1.92.34,2.88q.32,2.88.54,5.79a232.07,232.07,0,0,1,.52,25.57q-.12,3.51-.31,7a4.88,4.88,0,0,0,4.84,4.85,5,5,0,0,0,4.85-4.85c.94-16.88.47-33.89-2.46-50.58-.56-3.18-1.23-6.35-2-9.49A147.56,147.56,0,0,0,195.1,52.35l2.16-1.22c1.92,2.14,3.71,4.39,5.54,6.6l.26.34.78,1c.63.86,1.25,1.72,1.86,2.6q1.8,2.59,3.44,5.31,1.77,2.94,3.32,6c.52,1,1,2.11,1.49,3.18.05.11.1.28.16.43a.77.77,0,0,1,.1.18s0,0,0,0h0c.24.6.48,1.2.7,1.81a53.47,53.47,0,0,1,2.19,7.45q.21,1,.39,2.07a3.82,3.82,0,0,1,.1.69h0a.45.45,0,0,1,0,.11,38.9,38.9,0,0,1,.24,4.18,4.85,4.85,0,1,0,9.69,0c0-10.25-3.82-20.15-8.83-29a113.64,113.64,0,0,0-14.05-19.3c-1-1.12-2-2.24-3.1-3.3a109.11,109.11,0,0,0-34.15-26.74A110.28,110.28,0,0,0,123.31,3.4c-1.46-.07-2.91-.1-4.37-.1a2.77,2.77,0,0,0-.5,0h0q-1.11,0-2.22,0h-.37a108.31,108.31,0,0,0-37,7.39A109.5,109.5,0,0,0,16.5,73a108.51,108.51,0,0,0-7.29,45.48,111.05,111.05,0,0,0,9.38,38.87A108.27,108.27,0,0,0,36.9,185.58l0,0h0q1.42,1.6,2.91,3.15A108.85,108.85,0,0,0,70.47,211a110.63,110.63,0,0,0,38.36,10.63c3,.28,6,.41,9.07.43a5,5,0,0,0,5-2.87L123,219ZM72.4,85.13c0-.09,0-.18,0-.28C72.4,85.14,72.3,85.84,72.4,85.13ZM103,60.54c-1.56-.14-3.13-.3-4.69-.48l-2.14-.25L95,59.66h-.15l-.19,0q-7.84-1.11-15.59-2.82c.28-.81.55-1.61.85-2.41s.54-1.41.82-2.11l.37-.93c0-.08.07-.17.11-.26a99.06,99.06,0,0,1,7.14-13.66c1.22-1.91,2.51-3.76,3.87-5.57l.3-.38c.35-.44.7-.87,1.06-1.3Q94.51,29,95.5,28a67,67,0,0,1,7.73-7.34l.86-.66-.8.59.94-.7c.57-.42,1.15-.84,1.73-1.24,1.1-.75,2.23-1.47,3.38-2.15,1.38-.8,2.79-1.51,4.23-2.18,0,1.08,0,2.16,0,3.24l-.12,22.42-.11,21.22-.67,0C109.42,61,106.19,60.82,103,60.54Zm50.57-2.9q-5.42,1.2-10.89,2l-1.14.16-.34,0h-.07l-2.83.35c-1.75.19-3.5.36-5.25.5-3.33.27-6.66.43-10,.5q0-9,.1-18l.12-23.44c0-1.72,0-3.44.06-5.16l.82.39a51.16,51.16,0,0,1,6,3.48c.55.37,1.09.75,1.63,1.14l.83.61.06.05c1.19.95,2.35,1.92,3.47,2.95A67,67,0,0,1,143.3,31l.22.29,0,0c.31.41.63.83.93,1.26.6.82,1.18,1.66,1.74,2.5,1.22,1.83,2.36,3.72,3.43,5.64q1.76,3.15,3.24,6.43c.26.56.52,1.13.76,1.7l.07.15-.09-.21c.13.33.28.66.42,1,.49,1.22,1,2.45,1.42,3.69s.8,2.29,1.18,3.44C155.6,57.14,154.57,57.41,153.53,57.64Zm3-37.17c.3.12,1,.41.75.31l1.09.48c1.58.7,3.13,1.43,4.67,2.21q4.66,2.36,9.09,5.17c1.49.95,2.95,1.94,4.4,3,.66.47,1.33,1,2,1.45l1.06.79c-.76-.58.07.06.36.29Q184,37.38,187.73,41c1,.92,1.87,1.87,2.78,2.82-1.8,1-3.61,1.94-5.45,2.85s-3.55,1.71-5.36,2.51l-1.34.59-.58.24.35-.14-.34.14c-.9.37-1.79.73-2.69,1.08-3,1.18-6.06,2.23-9.13,3.2a111.35,111.35,0,0,0-6.33-15.43A80.47,80.47,0,0,0,144.71,18c-.73-.73-1.49-1.44-2.26-2.13a104.44,104.44,0,0,1,11.75,3.66C155,19.85,155.75,20.16,156.52,20.47ZM56.44,34.56l1-.82h0l.2-.15C58.44,33,59.2,32.45,60,31.9Q62,30.42,64.17,29q4.38-2.84,9-5.22Q75.55,22.6,78,21.5L79,21l.7-.31.07,0,.18-.07.71-.29,1.24-.49a104.56,104.56,0,0,1,10-3.32l1.66-.43c-1,1-2.09,1.95-3.08,3A87.17,87.17,0,0,0,74.45,42.61a119.24,119.24,0,0,0-4.8,11.87,161,161,0,0,1-18.22-6.11L50.59,48l-.52-.22L48,46.85c-1-.48-2-1-3-1.51A106.75,106.75,0,0,1,56.44,34.56ZM19.27,102.11c.09-.9.21-1.8.31-2.7v0c0-.1,0-.21.05-.32.08-.54.16-1.09.25-1.64a103.19,103.19,0,0,1,5.9-21.65c.17-.43.34-.87.52-1.31l.23-.55c.37-.85.74-1.69,1.13-2.53.76-1.64,1.55-3.26,2.39-4.86a105.57,105.57,0,0,1,5.62-9.43c.94-1.4,1.92-2.79,2.93-4.15a63.16,63.16,0,0,0,6.11,3,159.62,159.62,0,0,0,22.1,7.79,153.12,153.12,0,0,0-3.63,17.91,218.29,218.29,0,0,0-2.1,27.5H26.67c-2.61,0-5.24,0-7.86,0,0-.37,0-.74,0-1.12C18.93,106,19.08,104.07,19.27,102.11Zm38.37,89.64a2.91,2.91,0,0,1-.33-.26Z" transform="translate(-9.05 -3.28)"/><path d="M222.62,121.92c-3.53,8-11,22.47-19.48,22.66H141.8a1.68,1.68,0,0,1-1.68-1.68V116.69a1.68,1.68,0,0,0-2.86-1.2l-47.2,46.38a1.68,1.68,0,0,0,.06,2.45l47.49,42.34a1.68,1.68,0,0,0,2.79-1.24l.22-23.11a1.68,1.68,0,0,1,1.68-1.66l50.31-.24c.2,0,.38-.14.58-.11,7.78,1.23,39.05-15.83,32.62-58A1.68,1.68,0,0,0,222.62,121.92Z" transform="translate(-9.05 -3.28)" fill="#fbc300"/><path d="M221.54,121.29a70.26,70.26,0,0,1-8.83,15.49c-2.39,3-5.68,6.49-9.81,6.55-5.3.07-10.6,0-15.89,0H142.57c-.49,0-1,.13-1.2-.43a8.66,8.66,0,0,1,0-2.33V117.73c0-1.23,0-2.42-1.07-3.29a3,3,0,0,0-4.09.32c-3.63,3.4-7.1,7-10.65,10.47l-18.94,18.62L91.51,158.7a21.32,21.32,0,0,0-2.63,2.66c-1.63,2.29.43,3.91,2,5.27l15,13.35,19.88,17.73c3.65,3.25,7.22,6.62,11,9.76a3,3,0,0,0,4.67-.72,6.68,6.68,0,0,0,.35-3l.11-12.1.06-6a14.69,14.69,0,0,1,0-3.18c.26-1,3-.53,3.77-.54l23.56-.11,21.69-.1c.54,0,1.11,0,1.66,0l.22,0c.16,0,.31-.07.46-.09-.53.08-.2,0,0,0l.31,0a9.74,9.74,0,0,0,1.21,0,21.28,21.28,0,0,0,7.32-2.3,44.74,44.74,0,0,0,17.09-15.42c6.18-9.24,8.87-20.38,8.72-31.42a70.2,70.2,0,0,0-.84-10c-.45-2.81-4.1-3.82-5.54-1.12-.76,1.42,1.39,2.68,2.16,1.26.17-.33.5-.54.8-.21s.34,2,.41,2.57c.21,1.71.35,3.43.44,5.15a65.37,65.37,0,0,1-.22,9.49,51.87,51.87,0,0,1-4,15.68,45.38,45.38,0,0,1-15.66,19.2,30.55,30.55,0,0,1-7.72,4c-.54.18-1.09.33-1.64.46l-.73.14a1.73,1.73,0,0,1-.5.07,8.29,8.29,0,0,1-1.22,0l-.24,0c.34,0-.31,0-.52,0a1.86,1.86,0,0,0-.31.06c-1.68.14-3.43,0-5.11,0l-10.93.06-25.49.12-7.67,0a10.76,10.76,0,0,0-1.39,0c-1.9.25-2.58,1.85-2.59,3.54l-.21,21.5c0,.51.13,1.65-.69,1.28a4.75,4.75,0,0,1-.92-.82l-5.2-4.63-18.16-16.19L96.38,168.23,91.64,164c-.19-.17-.73-.51-.8-.78s.39-.75.64-1l11.76-11.55,18.66-18.35,14.27-14,1.56-1.53c.34-.33.88-.93,1.14-.09a8.11,8.11,0,0,1,0,2v22.67a6.24,6.24,0,0,0,.3,2.79c1,2,3.21,1.65,5,1.65h55.19c1.25,0,2.5,0,3.74,0,5.27-.15,9.33-4.56,12.27-8.47a74.72,74.72,0,0,0,8.3-14.81C224.34,121.09,222.19,119.82,221.54,121.29Z" transform="translate(-9.05 -3.28)" fill="#1d1d1b"/></svg>