<svg id="Layer_1" data-name="Layer 1" xmlns="http://www.w3.org/2000/svg" viewBox="0 0 224.3 190.33"><path d="M374.46,82.16" transform="translate(-4.31 -36.72)" fill="none" stroke="#fbc300" stroke-miterlimit="10" stroke-width="0.81"/><path d="M429.4,92.57" transform="translate(-4.31 -36.72)" fill="none" stroke="#000" stroke-miterlimit="10" stroke-width="0.9"/><path d="M393.57,75" transform="translate(-4.31 -36.72)" fill="none" stroke="#000" stroke-miterlimit="10" stroke-width="0.9"/><path d="M420.3,112.69" transform="translate(-4.31 -36.72)" fill="none" stroke="#000" stroke-miterlimit="10" stroke-width="0.9"/><path d="M384.37,94.66" transform="translate(-4.31 -36.72)" fill="none" stroke="#000" stroke-miterlimit="10" stroke-width="0.9"/><polygon points="44.99 47.49 7.01 153.96 44.2 27.75 72.4 34.89 44.99 47.49" fill="#fbc300"/><polygon points="129.23 180.37 119.71 176.38 133.66 171.97 132.63 179.85 129.23 180.37" fill="#fbc300"/><polygon points="57.28 166.84 8.58 148.03 44.57 44.03 85.96 174.18 57.28 166.84" fill="#fbc300"/><path d="M120.68,67.28h10.47a0,0,0,0,1,0,0V85a5.23,5.23,0,0,1-5.23,5.23h0A5.23,5.23,0,0,1,120.68,85V67.28A0,0,0,0,1,120.68,67.28Z" transform="matrix(0.87, 0.5, -0.5, 0.87, 51.94, -89.13)" fill="#fbc300"/><path d="M122.78,89.92a5.74,5.74,0,0,1-5-8.6l9.12-15.8,9.94,5.73-9.13,15.8A5.73,5.73,0,0,1,122.78,89.92Zm4.53-23-8.62,14.94a4.73,4.73,0,1,0,8.2,4.73l8.62-14.93Z" transform="translate(-4.31 -36.72)" fill="#1d1d1b"/><path d="M228.45,180.78l-3.54-13.37-8.5-32.13q-5.15-19.44-10.3-38.87-4.44-16.8-8.89-33.6c-1.44-5.44-2.75-10.93-4.32-16.33a1.8,1.8,0,0,1-.06-.22,5.07,5.07,0,0,0-6.16-3.5l-13.35,3.53-32.06,8.45L102.63,64.93l-33.38,8.8C63.85,75.15,58.39,76.44,53,78l-.23.07a5.07,5.07,0,0,0-3.49,6.15l3.58,13.46q4.29,16.17,8.6,32.33,5.17,19.49,10.36,39,4.49,16.85,9,33.68c1.46,5.47,2.78,11,4.37,16.42l.06.22a5.09,5.09,0,0,0,6.15,3.5l13.28-3.57,31.89-8.56,38.59-10.36,33.36-9c5.4-1.45,10.86-2.77,16.22-4.36l.23-.06A5.07,5.07,0,0,0,228.45,180.78Zm-51.32,8.63-38.58,10.36-33.37,9c-3.84,1-7.74,2-11.6,3l-2.28-8.58-8.6-32.33q-5.17-19.49-10.36-39-4.49-16.84-9-33.68c-1-3.91-2-7.86-3.05-11.78l8.48-2.23,32.06-8.46,38.64-10.18,33.38-8.8c3.85-1,7.73-2,11.58-3q1.14,4.28,2.26,8.54l8.51,32.13,10.29,38.87q4.46,16.8,8.9,33.6c1,3.88,2,7.82,3,11.71L209,180.85Z" transform="translate(-4.31 -36.72)" fill="#1d1d1b"/><circle cx="134.57" cy="18" r="17.37" fill="#fbc300"/><path d="M138.88,72.21a17.5,17.5,0,1,1,17.5-17.49A17.51,17.51,0,0,1,138.88,72.21Zm0-34.74a17.25,17.25,0,1,0,17.25,17.25A17.27,17.27,0,0,0,138.88,37.47Z" transform="translate(-4.31 -36.72)"/><path d="M138.88,72.59a17.87,17.87,0,1,1,17.87-17.87A17.89,17.89,0,0,1,138.88,72.59Zm0-34.74a16.87,16.87,0,1,0,16.87,16.87A16.89,16.89,0,0,0,138.88,37.85Z" transform="translate(-4.31 -36.72)" fill="#1d1d1b"/><path d="M138.88,72.71a18,18,0,1,1,18-18A18,18,0,0,1,138.88,72.71Zm0-35.74a17.75,17.75,0,1,0,17.75,17.75A17.77,17.77,0,0,0,138.88,37Zm0,34.74a17,17,0,1,1,17-17A17,17,0,0,1,138.88,71.71Zm0-33.74a16.75,16.75,0,1,0,16.75,16.75A16.77,16.77,0,0,0,138.88,38Z" transform="translate(-4.31 -36.72)"/><path d="M85.27,128.94l9.31-2.55,22.49-6.17,27.11-7.44,23.44-6.44c3.8-1,7.68-2,11.45-3.14l.16,0c3.1-.85,1.78-5.68-1.33-4.82l-9.32,2.55-22.49,6.18L119,114.5l-23.44,6.44c-3.81,1-7.69,2-11.46,3.14l-.15,0c-3.1.85-1.79,5.68,1.33,4.82Z" transform="translate(-4.31 -36.72)" fill="#1d1d1b"/><path d="M90.52,148.08l9.31-2.56,22.49-6.17,27.11-7.44,23.44-6.43c3.81-1,7.69-2,11.45-3.14l.16,0c3.1-.85,1.78-5.67-1.33-4.82L173.84,120l-22.5,6.17-27.1,7.44-23.44,6.43c-3.81,1.05-7.69,2-11.45,3.14l-.16,0c-3.1.85-1.79,5.67,1.33,4.82Z" transform="translate(-4.31 -36.72)" fill="#1d1d1b"/><path d="M96,168.15l9.31-2.55,22.49-6.18L154.94,152l23.44-6.44c3.81-1,7.69-2,11.45-3.14l.16,0c3.1-.85,1.78-5.68-1.33-4.83l-9.32,2.56-22.49,6.17-27.1,7.44-23.44,6.44c-3.81,1-7.69,1.95-11.45,3.14l-.16,0c-3.1.85-1.79,5.68,1.33,4.82Z" transform="translate(-4.31 -36.72)" fill="#1d1d1b"/><path d="M101.34,187.52,117.88,183l26.36-7.24,6-1.66c3.1-.85,1.78-5.67-1.33-4.82l-16.54,4.54L106.06,181l-6,1.66c-3.1.86-1.78,5.68,1.33,4.83Z" transform="translate(-4.31 -36.72)" fill="#1d1d1b"/><path d="M146.33,198.4a5.11,5.11,0,0,0-6.15,3.49l-4.6,14.17-8.29-2.12-31-7.94L59,196.47l-32.42-8.29c-3.69-.94-7.38-2-11.09-2.93l2.19-8.05q4.25-15.55,8.48-31.09l10.32-37.83Q40.91,92,45.34,75.79c1-3.77,2.16-7.53,3.17-11.32l24.15,6.12,4.06,1A5,5,0,1,0,79.37,62L50.28,54.6l-4.05-1a5.08,5.08,0,0,0-6.15,3.49Q38.3,63.6,36.52,70.12L28,101.22,17.72,139q-4.42,16.25-8.86,32.49c-1.44,5.27-3,10.53-4.32,15.84l-.06.22A5.07,5.07,0,0,0,8,193.74l12.93,3.31,31,7.93,37.26,9.54,32.42,8.29c5.24,1.34,10.47,2.79,15.74,4l.21.06a5.11,5.11,0,0,0,6.15-3.5q3.06-9.42,6.13-18.84A5,5,0,0,0,146.33,198.4Z" transform="translate(-4.31 -36.72)" fill="#1d1d1b"/></svg>