<svg id="Layer_1" data-name="Layer 1" xmlns="http://www.w3.org/2000/svg" viewBox="0 0 216.99 216.94"><path d="M374.46,82.16" transform="translate(-2.14 -9.46)" fill="none" stroke="#fbc300" stroke-miterlimit="10" stroke-width="0.81"/><path d="M429.4,92.57" transform="translate(-2.14 -9.46)" fill="none" stroke="#000" stroke-miterlimit="10" stroke-width="0.9"/><path d="M393.57,75" transform="translate(-2.14 -9.46)" fill="none" stroke="#000" stroke-miterlimit="10" stroke-width="0.9"/><path d="M420.3,112.69" transform="translate(-2.14 -9.46)" fill="none" stroke="#000" stroke-miterlimit="10" stroke-width="0.9"/><path d="M384.37,94.66" transform="translate(-2.14 -9.46)" fill="none" stroke="#000" stroke-miterlimit="10" stroke-width="0.9"/><polygon points="208.79 208.74 202.06 208.74 202.53 46.79 208.79 48.81 208.79 208.74" fill="#f9b311"/><polygon points="202.77 208.74 84.49 212.47 84.49 201.24 205.43 199.7 202.77 208.74" fill="#f9b311"/><polygon points="208.79 60.2 202.19 51.81 177.29 22.59 208.79 22.59 208.79 60.2" fill="#f9b311"/><polygon points="158.41 11.11 165 19.5 191.98 48.71 158.41 48.71 158.41 11.11" fill="#f9b311"/><ellipse cx="61.89" cy="126.18" rx="57.64" ry="54.25" fill="#f9b311"/><path d="M64,190c-31.86,0-57.77-24.39-57.77-54.37S32.17,81.27,64,81.27s57.76,24.39,57.76,54.37S95.88,190,64,190ZM64,81.52c-31.72,0-57.52,24.28-57.52,54.12S32.31,189.76,64,189.76s57.51-24.27,57.51-54.12S95.74,81.52,64,81.52Z" transform="translate(-2.14 -9.46)" fill="#1d1d1b"/><path d="M215,24.36H172.31L160.07,11.11A3.6,3.6,0,0,0,157.44,10h-108a3.6,3.6,0,0,0-3.59,3.6V77.44a61.18,61.18,0,0,0,0,117V207.9a3.6,3.6,0,0,0,3.59,3.6H81.86v10.8a3.61,3.61,0,0,0,3.6,3.6H215a3.6,3.6,0,0,0,3.6-3.6V28A3.6,3.6,0,0,0,215,24.36Zm-54-1.59,31.38,34H161ZM9.89,135.92a54,54,0,1,1,54,54A54,54,0,0,1,9.89,135.92ZM53.07,204.3v-8.2a63.16,63.16,0,0,0,10.8,1,61.18,61.18,0,0,0,0-122.36,63.18,63.18,0,0,0-10.8,1V17.16H153.84V60.35a3.6,3.6,0,0,0,3.6,3.59H197V204.3Zm158.36,14.4H89.06v-7.2H200.63a3.6,3.6,0,0,0,3.6-3.6V60.35a3.59,3.59,0,0,0-1-2.45L179,31.55h32.47Z" transform="translate(-2.14 -9.46)"/><path d="M215,226.4H85.46a4.11,4.11,0,0,1-4.1-4.1V212H49.47a4.1,4.1,0,0,1-4.09-4.1V194.77a61.68,61.68,0,0,1,0-117.7V13.56a4.1,4.1,0,0,1,4.09-4.1h108a4.1,4.1,0,0,1,3,1.31l12.08,13.09H215a4.11,4.11,0,0,1,4.1,4.1V222.3A4.11,4.11,0,0,1,215,226.4ZM49.47,10.46a3.1,3.1,0,0,0-3.09,3.1V77.81l-.36.11a60.68,60.68,0,0,0,0,116l.36.11V207.9a3.1,3.1,0,0,0,3.09,3.1H82.36v11.3a3.1,3.1,0,0,0,3.1,3.1H215a3.1,3.1,0,0,0,3.1-3.1V28a3.1,3.1,0,0,0-3.1-3.1H172.09L159.7,11.45a3.07,3.07,0,0,0-2.25-1h-108ZM211.93,219.2H88.56V211H200.63a3.1,3.1,0,0,0,3.1-3.1V60.35a3,3,0,0,0-.84-2.11L177.82,31.05h34.11Zm-122.37-1H210.93V32.05H180.1l23.52,25.51a4,4,0,0,1,1.11,2.79V207.9a4.11,4.11,0,0,1-4.1,4.1H89.56Zm108-13.4h-145v-9.3l.59.1A60.66,60.66,0,1,0,63.87,75.24a62.13,62.13,0,0,0-10.71,1l-.59.11V16.66H154.34V60.35a3.1,3.1,0,0,0,3.1,3.09h40.09Zm-144-1h143V64.44H157.44a4.1,4.1,0,0,1-4.1-4.09V17.66H53.57V75.15a63.59,63.59,0,0,1,10.3-.91,61.68,61.68,0,0,1,0,123.36,62.49,62.49,0,0,1-10.3-.91Zm10.3-13.39A54.63,54.63,0,0,1,9.39,135.92h0a54.48,54.48,0,1,1,54.48,54.49ZM10.39,135.92A53.48,53.48,0,1,0,63.87,82.44a53.63,53.63,0,0,0-53.48,53.48ZM193.57,57.25h-33V21.49Zm-32-1h29.74l-29.74-32.2Z" transform="translate(-2.14 -9.46)"/><path d="M67.47,28H89.06v7.19H67.47Z" transform="translate(-2.14 -9.46)"/><path d="M89.56,35.65H67V27.46H89.56ZM68,34.65H88.56V28.46H68Z" transform="translate(-2.14 -9.46)"/><path d="M99.86,28h43.19v7.19H99.86Z" transform="translate(-2.14 -9.46)"/><path d="M143.55,35.65H99.36V27.46h44.19Zm-43.19-1h42.19V28.46H100.36Z" transform="translate(-2.14 -9.46)"/><path d="M67.47,46h75.58v7.2H67.47Z" transform="translate(-2.14 -9.46)"/><path d="M143.55,53.65H67v-8.2h76.58ZM68,52.65h74.58v-6.2H68Z" transform="translate(-2.14 -9.46)"/><path d="M32.27,130.52a5.76,5.76,0,0,0,.37.89L34.83,136q6,12.44,12,24.86l2,4.21c1.06,2.22,1.5,4.3,4.17,5a15.82,15.82,0,0,0,5.94.08c4-.51,7-1.37,9-5.22,2.92-5.66,5.4-11.55,8.37-17.2q6.19-11.75,13.11-23.08L91,122.12c2.81-4.52,5.76-8.93,8.7-13.37,1.32-2-2.44-5.26-4-6.14a12.24,12.24,0,0,0-7.11-1.6c-2.72.35-4.39,3-5.74,5.07-1.83,2.84-4,5.46-6,8.24a174.65,174.65,0,0,0-11.19,18.19c-2.59,4.89-4.71,10-7.07,15a5,5,0,0,1-.88-2,58,58,0,0,0-4.73-11c-1.61-3-3.17-7.08-5.56-9.56s-6.7-1.14-9.32-.15c-2.11.8-6.13,2.46-5.92,5.31A2.14,2.14,0,0,0,32.27,130.52Z" transform="translate(-2.14 -9.46)"/></svg>