<svg width="30" height="30" viewBox="0 0 30 30" fill="none" xmlns="http://www.w3.org/2000/svg">
<path d="M14.9584 0.131836H14.8904C6.66126 0.131836 -0.00976562 6.80287 -0.00976562 15.032V15.1C-0.00976562 23.3291 6.66126 30.0002 14.8904 30.0002H14.9584C23.1875 30.0002 29.8586 23.3291 29.8586 15.1V15.032C29.8586 6.80287 23.1875 0.131836 14.9584 0.131836Z" fill="white"/>
<path d="M19.5454 6.20898H10.3033C7.75002 6.20898 5.67285 8.28615 5.67285 10.8394V19.2946C5.67285 21.8479 7.75002 23.9251 10.3033 23.9251H19.5454C22.0987 23.9251 24.1759 21.8479 24.1759 19.2946V10.8394C24.1759 8.28615 22.0987 6.20898 19.5454 6.20898ZM7.30633 10.8394C7.30633 9.18713 8.651 7.84246 10.3033 7.84246H19.5454C21.1977 7.84246 22.5424 9.18713 22.5424 10.8394V19.2946C22.5424 20.9469 21.1977 22.2916 19.5454 22.2916H10.3033C8.651 22.2916 7.30633 20.9469 7.30633 19.2946V10.8394Z" fill="#333333"/>
<path d="M14.9248 19.373C17.2992 19.373 19.2319 17.4413 19.2319 15.0659C19.2319 12.6905 17.3002 10.7588 14.9248 10.7588C12.5494 10.7588 10.6177 12.6905 10.6177 15.0659C10.6177 17.4413 12.5494 19.373 14.9248 19.373ZM14.9248 12.3933C16.3992 12.3933 17.5984 13.5925 17.5984 15.067C17.5984 16.5414 16.3992 17.7406 14.9248 17.7406C13.4504 17.7406 12.2512 16.5414 12.2512 15.067C12.2512 13.5925 13.4504 12.3933 14.9248 12.3933Z" fill="#333333"/>
<path d="M19.6299 11.4548C20.2691 11.4548 20.79 10.9347 20.79 10.2943C20.79 9.65387 20.2701 9.13379 19.6299 9.13379C18.9896 9.13379 18.4697 9.65387 18.4697 10.2943C18.4697 10.9347 18.9896 11.4548 19.6299 11.4548Z" fill="#333333"/>
</svg>
