<svg xmlns="http://www.w3.org/2000/svg" width="45.221" height="56.623" viewBox="0 0 45.221 56.623">
  <g id="location-01" transform="translate(0.125 0.126)">
    <path id="Path_657" data-name="Path 657" d="M24.109,57.35h-.662A3.751,3.751,0,0,1,20.8,55.817C16.37,50.5,1.52,31.839,1.52,19.788,2.067,9.036,12.128.67,24.109,1.007A24.868,24.868,0,0,1,40.562,7.048a17.188,17.188,0,0,1,5.926,13.084c0,7.982-6.449,20.033-19.173,35.81a1.919,1.919,0,0,1-.837.783,3.5,3.5,0,0,1-2.37.626Z" transform="translate(-1.52 -0.997)" fill="#fcc400" stroke="#fcc400" stroke-miterlimit="10" stroke-width="0.25"/>
    <path id="Path_658" data-name="Path 658" d="M16.905,27.42A11.38,11.38,0,1,1,28.38,16.04,11.522,11.522,0,0,1,16.905,27.42Z" transform="translate(5.622 4.661)" fill="#fff"/>
  </g>
</svg>
