<svg id="Layer_1" data-name="Layer 1" xmlns="http://www.w3.org/2000/svg" viewBox="0 0 226.77 283.34"><g id="مرساة"><path id="Path_24" data-name="Path 24" d="M109.92,5.93a12.49,12.49,0,0,0-4.66,2.37,13.34,13.34,0,0,0-5.52,10,6.12,6.12,0,0,0,1,3.6l1.09,2V26.4a22.27,22.27,0,0,1-2.31,10c-.83,1.24-2.55,1.85-8.74,3.11a214.18,214.18,0,0,1-23,3.29,9.83,9.83,0,0,1-7.2-1.59c-2.81-1.75-3.7-2.14-5-2.14a1.94,1.94,0,0,0-1.68.54c-1.58,1.49-2.08,3.79-2.23,10.34-.18,7.41.5,11.47,2.12,13.11a1.91,1.91,0,0,0,1.79.65,6.05,6.05,0,0,0,3.09-1,17.26,17.26,0,0,1,3.09-1.18A78.67,78.67,0,0,1,79.9,62.71c9.7,1.22,14.43,2.43,16.8,4.3a8.67,8.67,0,0,1,2.43,4.9c.47,3.15.21,40.27-.48,67.5-1.19,45.37-2.54,63-5.88,73.6A11,11,0,0,1,85,221.68a48.28,48.28,0,0,1-16.61,4.23c-9.7,0-21.34-6.94-35-21A108.53,108.53,0,0,1,24.51,195c0-.55,6.13-2.13,12.33-3.23a31.83,31.83,0,0,0,3.23-.65,2.17,2.17,0,0,0-.84-.53c-.53-.23-8.52-3.83-17.76-8s-17-7.7-17.21-7.76-.39,0-.29.52c.09.35.39,5.07.67,10.49,1.4,25,1.83,31.87,2.54,38.92.46,4.2.63,3.81,3.36-6.68a55.38,55.38,0,0,1,3.1-10.56A20,20,0,0,1,15.58,211c11.65,23.28,23.22,37,36.64,43.4A54.55,54.55,0,0,0,68.58,259c13.69,1.94,26.07,4.85,31.1,7.37,2.23,1.13,4.21,3.64,7.27,9.22a29.22,29.22,0,0,0,4.4,6.6l.85.82,1-1a25.6,25.6,0,0,0,4.31-6.48c3.53-6.34,5.11-8.26,7.66-9.43a130.57,130.57,0,0,1,29.89-7,51.55,51.55,0,0,0,17.84-5.1,46.75,46.75,0,0,0,9.29-5.92,81.86,81.86,0,0,0,9.37-9.25,172.62,172.62,0,0,0,22.11-37.72,12.36,12.36,0,0,1,1.63-3,56.82,56.82,0,0,1,3.83,12.15c2.27,8.82,2.74,10.32,3.11,9.7a292.06,292.06,0,0,0,2.28-29.55c1-17.23,1.19-21.44,1.32-22.05.09-.37.05-.6-.09-.6s-34.59,15.52-35.65,16.08c-.22.11-.37.23-.33.28s1.54.33,3.32.65a67.62,67.62,0,0,1,12.85,3.18c.25.22-.61,1.3-4.4,5.66a177.49,177.49,0,0,1-19.06,19.62c-9.7,8.36-18.72,12.77-26.19,12.77a47.43,47.43,0,0,1-17.84-4.78c-3.43-1.67-4.2-2.34-5.42-4.85-3.42-7-5.28-22.11-6.4-51.75q-1.18-32.78-1.42-67.73c-.16-22.9-.07-25.23.88-27.38,1.24-2.76,3.51-4.08,9-5.23a184.57,184.57,0,0,1,24-2.84,12.4,12.4,0,0,1,6.68,1.42c4.36,2.15,6,1,6.79-5.05a90.14,90.14,0,0,0,0-12.73c-.75-5.94-2.69-7.19-7-4.6-1,.57-2.45,1.39-3.23,1.78l-1.4.69h-3.48a60.35,60.35,0,0,1-9.1-.82c-11.81-1.67-19.92-3.3-22.18-4.44-1.13-.58-2-2.35-2.8-5.36a19,19,0,0,1-.57-5.51c0-2.86,0-3.2.47-4a7.05,7.05,0,0,0,1.46-4.44A14.14,14.14,0,0,0,114.17,5.84,5.68,5.68,0,0,0,109.92,5.93Zm-2.56,11A4.63,4.63,0,1,0,112,12.32h0A4.63,4.63,0,0,0,107.36,17Z" transform="translate(-1.52 -3.04)" style="fill:none;stroke:#727272;stroke-miterlimit:10;stroke-width:4.85085129737854px"/></g></svg>