<svg width="67" height="67" viewBox="0 0 67 67" fill="none" xmlns="http://www.w3.org/2000/svg">
<path d="M61.1268 36.1186V55.5679C61.1268 56.3047 60.8341 57.0115 60.313 57.5325C59.792 58.0536 59.0852 58.3463 58.3484 58.3463H8.33608C7.59918 58.3463 6.89247 58.0536 6.37141 57.5325C5.85035 57.0115 5.55762 56.3047 5.55762 55.5679V36.1186C5.55762 35.3817 5.85035 34.675 6.37141 34.154C6.89247 33.6329 7.59918 33.3402 8.33608 33.3402C9.07297 33.3402 9.77968 33.6329 10.3007 34.154C10.8218 34.675 11.1145 35.3817 11.1145 36.1186V52.7894H55.5699V36.1186C55.5699 35.3817 55.8626 34.675 56.3837 34.154C56.9047 33.6329 57.6115 33.3402 58.3484 33.3402C59.0852 33.3402 59.792 33.6329 60.313 34.154C60.8341 34.675 61.1268 35.3817 61.1268 36.1186ZM32.5 22.4987C31.7631 22.4987 32.0786 22.9786 31.5576 23.4996C31.0365 24.0207 47.2345 21.4894 47.2345 22.2263H30.5638H19.4499C18.713 22.2263 18.0063 22.5191 17.4852 23.0401C16.9642 23.5612 16.6715 24.2679 16.6715 25.0048C16.6715 25.7417 16.9642 26.4484 17.4852 26.9695C18.0063 27.4905 18.713 27.7833 19.4499 27.7833H30.5638C31.2341 26.9695 32.8212 26.8494 33.3422 27.3704C32.7213 13.6608 31.7631 29.9987 32.5 29.9987C32.5 13.3279 47 24.97 42.5 26.97C49.1992 23.9921 32 17.0001 30.5638 27.7833H36.1207H47.2345C47.9714 27.7833 48.6781 27.4905 49.1992 26.9695C49.7202 26.4484 50.013 25.7417 50.013 25.0048C50.013 24.2679 49.7202 23.5612 49.1992 23.0401C48.6781 22.5191 47.9714 22.2263 47.2345 22.2263L35.5 23.4987C35.5 22.7618 47.7556 22.7474 47.2345 22.2263C46.7135 21.7053 33.2369 22.4987 32.5 22.4987Z" fill="#FFC400"/>
</svg>
