<svg xmlns="http://www.w3.org/2000/svg" width="54" height="54" viewBox="201 398 54 54"><g data-name="Group 179"><g data-name="Rectangle 38"><path d="M212 398h32a11 11 0 0 1 11 11v32a11 11 0 0 1-11 11h-32a11 11 0 0 1-11-11v-32a11 11 0 0 1 11-11z" fill="#fff" fill-rule="evenodd"/><path d="M213.778 401h28.444a9.778 9.778 0 0 1 9.778 9.778v28.444a9.778 9.778 0 0 1-9.778 9.778h-28.444a9.778 9.778 0 0 1-9.778-9.778v-28.444a9.778 9.778 0 0 1 9.778-9.778z" stroke-linejoin="round" stroke-linecap="round" stroke-width="5.33334" stroke="#c1c1c1" fill="transparent"/></g><path d="M241.238 418.66h-27.592" stroke-linejoin="round" stroke-linecap="round" stroke="#c1c1c1" fill="transparent" data-name="Line 58"/><path d="M241.238 425.175h-27.592" stroke-linejoin="round" stroke-linecap="round" stroke="#c1c1c1" fill="transparent" data-name="Line 59"/><path d="M241.238 431.69h-27.592" stroke-linejoin="round" stroke-linecap="round" stroke="#c1c1c1" fill="transparent" data-name="Line 60"/></g></svg>