<svg width="17" height="21" viewBox="0 0 17 21" fill="none" xmlns="http://www.w3.org/2000/svg">
<path d="M8.03388 0.214184C7.90766 0.247715 7.78995 0.307578 7.6885 0.389839C7.56969 0.475381 7.47136 0.586242 7.40061 0.714415C7.32985 0.842588 7.28845 0.984874 7.27938 1.131C7.27567 1.22549 7.30159 1.31878 7.3535 1.39781L7.43429 1.54605V1.73134C7.4357 1.98835 7.37707 2.24214 7.26308 2.4725C7.20156 2.5644 7.07408 2.60961 6.61531 2.703C6.05191 2.81506 5.48286 2.89646 4.91064 2.94684C4.72421 2.97828 4.53286 2.93603 4.37701 2.82899C4.16874 2.69929 4.10278 2.67038 4.00643 2.67038C3.98399 2.66674 3.961 2.66846 3.93936 2.67542C3.91771 2.68238 3.89802 2.69437 3.88191 2.71041C3.76481 2.82084 3.72775 2.99131 3.71663 3.47677C3.70329 4.02596 3.75369 4.32688 3.87376 4.44843C3.88973 4.46736 3.91038 4.48177 3.93366 4.49023C3.95694 4.49868 3.98203 4.50088 4.00643 4.4966C4.08809 4.49323 4.16729 4.4676 4.23544 4.42248C4.30881 4.38607 4.3855 4.35678 4.46446 4.33503C4.91449 4.31213 5.36566 4.34148 5.80893 4.42248C6.52785 4.51291 6.87842 4.60259 7.05407 4.74118C7.15172 4.83964 7.2149 4.96703 7.23417 5.10435C7.26901 5.33782 7.24974 8.089 7.1986 10.1072C7.1104 13.4698 7.01034 14.7765 6.7628 15.5621C6.73653 15.7124 6.66864 15.8522 6.56684 15.9658C6.46504 16.0794 6.33341 16.1622 6.18692 16.2047C5.79854 16.3818 5.38162 16.488 4.95585 16.5182C4.23693 16.5182 3.37422 16.0038 2.36179 14.9618C2.1276 14.7306 1.9078 14.4853 1.70365 14.2273C1.70365 14.1865 2.15798 14.0694 2.61749 13.9879C2.69807 13.976 2.77798 13.9599 2.85689 13.9397C2.83945 13.922 2.81814 13.9085 2.79463 13.9004C2.75535 13.8834 2.16316 13.6166 1.47833 13.3075C0.793502 12.9984 0.218363 12.7368 0.202799 12.7324C0.187234 12.7279 0.173893 12.7324 0.181305 12.7709C0.187976 12.7968 0.21021 13.1467 0.230963 13.5484C0.334725 15.4013 0.366595 15.9104 0.419217 16.433C0.45331 16.7443 0.46591 16.7153 0.668247 15.9379C0.718656 15.67 0.795622 15.4078 0.898006 15.1552C0.9544 15.2362 1.00257 15.3226 1.04179 15.4131C1.90524 17.1385 2.76276 18.1554 3.7574 18.6298C4.14128 18.8061 4.55043 18.9211 4.96993 18.9707C5.98458 19.1145 6.90213 19.3302 7.27494 19.5169C7.44022 19.6007 7.58697 19.7867 7.81376 20.2003C7.89972 20.3774 8.00944 20.542 8.13987 20.6894L8.20287 20.7502L8.27698 20.6761C8.40732 20.5332 8.51504 20.3713 8.59642 20.1958C8.85805 19.7259 8.97516 19.5836 9.16415 19.4969C9.87962 19.2375 10.6232 19.0633 11.3795 18.9781C11.8395 18.9331 12.2875 18.805 12.7017 18.6001C12.9477 18.4815 13.1788 18.3342 13.3902 18.1613C13.6398 17.9518 13.872 17.7226 14.0847 17.4758C14.7472 16.6171 15.2979 15.6777 15.7234 14.6801C15.7532 14.6008 15.7939 14.5259 15.8442 14.4578C15.9723 14.7464 16.0675 15.0484 16.1281 15.3583C16.2963 16.012 16.3312 16.1232 16.3586 16.0772C16.4519 15.3505 16.5083 14.6195 16.5276 13.8871C16.6017 12.6101 16.6158 12.298 16.6254 12.2528C16.6321 12.2254 16.6291 12.2084 16.6187 12.2084C16.6084 12.2084 14.0551 13.3586 13.9765 13.4001C13.9602 13.4083 13.9491 13.4172 13.952 13.4209C13.955 13.4246 14.0662 13.4454 14.1981 13.4691C14.5225 13.5163 14.8415 13.5952 15.1505 13.7048C15.169 13.7211 15.1053 13.8011 14.8244 14.1243C14.3916 14.6446 13.9193 15.1308 13.4117 15.5784C12.6928 16.198 12.0243 16.5249 11.4706 16.5249C11.0109 16.4946 10.5617 16.3742 10.1484 16.1706C9.89419 16.0468 9.83712 15.9972 9.7467 15.8111C9.49323 15.2923 9.35537 14.1724 9.27236 11.9756C9.21406 10.356 9.17898 8.68267 9.16712 6.95577C9.15526 5.25851 9.16193 5.08582 9.23234 4.92647C9.32424 4.72191 9.49249 4.62408 9.89938 4.53885C10.4871 4.4299 11.0813 4.35958 11.6782 4.32836C11.8498 4.31641 12.0213 4.35287 12.1733 4.4336C12.4964 4.59295 12.618 4.50772 12.6765 4.05932C12.6987 3.74521 12.6987 3.42993 12.6765 3.11582C12.6209 2.67557 12.4771 2.58293 12.1577 2.77489C12.0836 2.81713 11.9761 2.87791 11.9183 2.90681L11.8145 2.95795H11.5566C11.3306 2.95477 11.1051 2.93445 10.8822 2.89718C10.0069 2.77341 9.40577 2.6526 9.23827 2.5681C9.15452 2.52512 9.09004 2.39393 9.03074 2.17084C8.99679 2.03751 8.98255 1.89992 8.9885 1.76247C8.9885 1.55049 8.9885 1.52529 9.02333 1.466C9.09577 1.37181 9.13394 1.25573 9.13154 1.13693C9.11381 0.919897 9.02891 0.71378 8.88865 0.547218C8.74839 0.380656 8.55972 0.261922 8.34888 0.207514C8.24697 0.168882 8.13406 0.171273 8.03388 0.214184ZM7.84415 1.02946C7.84385 1.09736 7.86371 1.16382 7.90121 1.22043C7.9387 1.27704 7.99215 1.32126 8.05478 1.34748C8.11742 1.3737 8.18642 1.38075 8.25307 1.36774C8.31971 1.35472 8.38099 1.32223 8.42916 1.27437C8.47733 1.22652 8.51022 1.16544 8.52366 1.09889C8.53711 1.03233 8.53051 0.963281 8.50469 0.900478C8.47888 0.837676 8.43501 0.783943 8.37864 0.746082C8.32228 0.70822 8.25595 0.687932 8.18805 0.687785C8.14261 0.687684 8.0976 0.696609 8.05564 0.714041C8.01367 0.731474 7.97559 0.757067 7.9436 0.789336C7.9116 0.821604 7.88634 0.859905 7.86927 0.902016C7.8522 0.944127 7.84366 0.98921 7.84415 1.03465V1.02946Z" fill="#727272" stroke="#727272" stroke-width="0.359525" stroke-miterlimit="10"/>
</svg>
