<svg id="Layer_1" data-name="Layer 1" xmlns="http://www.w3.org/2000/svg" viewBox="0 0 218.44 218.43"><path d="M374.46,82.16" transform="translate(-7.25 -10.06)" fill="none" stroke="#fbc300" stroke-miterlimit="10" stroke-width="0.81"/><path d="M429.4,92.57" transform="translate(-7.25 -10.06)" fill="none" stroke="#000" stroke-miterlimit="10" stroke-width="0.9"/><path d="M393.57,75" transform="translate(-7.25 -10.06)" fill="none" stroke="#000" stroke-miterlimit="10" stroke-width="0.9"/><path d="M420.3,112.69" transform="translate(-7.25 -10.06)" fill="none" stroke="#000" stroke-miterlimit="10" stroke-width="0.9"/><path d="M384.37,94.66" transform="translate(-7.25 -10.06)" fill="none" stroke="#000" stroke-miterlimit="10" stroke-width="0.9"/><path d="M22.67,20.25a1.94,1.94,0,0,1-.34,0l-.17.05C22.52,20.38,22.72,20.29,22.67,20.25Z" transform="translate(-7.25 -10.06)" fill="#1d1d1b"/><path d="M18.76,22.29c.17-.11.11-.09,0,0Z" transform="translate(-7.25 -10.06)" fill="#1d1d1b"/><path d="M206.08,22.5H26.31a5.76,5.76,0,0,0-5.76,5.76V78H211.84V28.26A5.76,5.76,0,0,0,206.08,22.5Z" transform="translate(-7.25 -10.06)" fill="#fcc400"/><path d="M17.46,213.32h0s0,.05,0,.08,0-.1,0-.15Z" transform="translate(-7.25 -10.06)" fill="#1d1d1b"/><path d="M225.65,25.37a16.06,16.06,0,0,0-15.84-15.31H23.37A16.11,16.11,0,0,0,7.25,26.18V213a16,16,0,0,0,15.19,15.45c.21,0,.41.06.63.06H209.46a16.19,16.19,0,0,0,11.78-4.88,16.44,16.44,0,0,0,4.41-11.36v-181C225.65,29.3,225.73,27.32,225.65,25.37Zm-11.37-2.95c-.12-.13-.27-.29-.23-.3S214.17,22.25,214.28,22.42ZM20.86,20.68c-.07,0-.12.05-.12,0Zm-1,.55s0,0-.08.07Zm-2,2.48c0,.21-.12.5-.16.44S17.72,23.92,17.83,23.71Zm-.18,190.68s.07.1.11.24A1.75,1.75,0,0,1,17.65,214.39Zm1,1.72c-.26-.26-.14-.16,0,0Zm.21.3a2.53,2.53,0,0,1-.18-.27C18.74,216.26,18.86,216.4,18.81,216.41Zm.76.69c.14.09.28.19.26.2S19.69,217.21,19.57,217.1ZM215.43,26v186.4a5.61,5.61,0,0,0-.06,1.16c0,.12,0,.24-.07.35-.08.33-.24.65-.29,1h0s0,.11-.08.16c-.21.4-.45.76-.69,1.16v0a.56.56,0,0,0-.11.11l-.71.7-.11.12h0c-.38.23-.74.47-1.15.68l-.16.08h0c-.32.06-.65.22-1,.3l-.37.08a4.1,4.1,0,0,0-.86.05H23.31l-.22,0c-.16,0-.67,0-.88-.06l-.52-.11a6,6,0,0,1-.82-.26l-.44-.23c-.32-.18-.61-.4-.92-.58l-.18-.19c-.24-.22-.45-.47-.69-.71v0a1.65,1.65,0,0,1-.19-.27c-.21-.33-.39-.67-.58-1h0c-.07-.38-.24-.76-.33-1.16,0-.09,0-.18-.05-.27,0,.22,0,.36,0-.08,0-.1,0-.21-.06-.32a.83.83,0,0,1,.06.25V25.55c0-.15,0-.26,0-.37.07-.33.14-.66.24-1a2.81,2.81,0,0,0,.16-.49v-.09l.4-.66.27-.42a1.38,1.38,0,0,1,.21-.25l-.12.09c.16-.19.29-.32.44-.48a7.29,7.29,0,0,1,.58-.53c.16-.1.31-.21.49-.3a8.73,8.73,0,0,1,.8-.42l.26-.09.95-.24-.12,0a1.46,1.46,0,0,0,.29,0h0c.18,0,.28,0,.3,0H210.55l.15,0c.39.08.77.22,1.15.31s.79.41,1.16.65l.21.14c.2.22.46.42.67.64s.28.34.44.48h0c.18.29.37.64.42.73a4.64,4.64,0,0,1,.23.44l.08.15c0,.16.1.32.15.49a7.48,7.48,0,0,0,.18.82c0,.24,0,.47,0,.72Z" transform="translate(-7.25 -10.06)" fill="#1d1d1b"/><path d="M190.32,136.13H58.16c-6.11,0-12.23-.13-18.33,0h-.25a5.09,5.09,0,1,0,0,10.18H171.75c6.1,0,12.22.14,18.32,0h.25a5.09,5.09,0,1,0,0-10.18Z" transform="translate(-7.25 -10.06)" fill="#1d1d1b"/><path d="M190.32,101.66H58.16c-6.11,0-12.23-.13-18.33,0h-.25a5.09,5.09,0,1,0,0,10.18H171.75c6.1,0,12.22.14,18.32,0h.25a5.09,5.09,0,0,0,0-10.18Z" transform="translate(-7.25 -10.06)" fill="#1d1d1b"/><path d="M38.32,186.07h83.22a5,5,0,1,0,0-10H38.32a5,5,0,1,0,0,10Z" transform="translate(-7.25 -10.06)" fill="#1d1d1b"/></svg>