<svg xmlns="http://www.w3.org/2000/svg" width="42.772" height="42.916" viewBox="1003 1714 42.772 42.916"><g data-name="حاوية"><g data-name="Path 150"><path d="M1044.11 1732.97h-.197a2.048 2.048 0 0 0-3.608-1.327c-1.003-.423-4.34-1.83-7.682-3.225-2.75-1.15-4.593-1.911-5.832-2.416a2.697 2.697 0 0 0-2.113-3.043v-.641c1.202-.113 1.635-.788 1.784-1.366 0-.006.003-.011.004-.017.338-1.582.549-3.739.758-6.49a.413.413 0 0 0-.413-.445h-4.772a.413.413 0 0 0-.413.43c.108 2.55.382 4.83.814 6.777a.42.42 0 0 0 .081.169c.324.403.852.788 1.331.92v.716a.413.413 0 0 0 .279.717 1.869 1.869 0 0 1 1.866 1.866c0 .029 0 .056-.002.084-1.643-.662-1.748-.676-1.819-.682a.413.413 0 0 0-.116.817c.146.038.755.278 1.683.653-.338.488-.96.72-1.584.726-.689-.102-1.086-.42-1.286-1.073a3.94 3.94 0 0 1-.137-.75.413.413 0 0 0-.822.075c.015.162.038.336.07.512l-13.487 5.747a2.048 2.048 0 0 0-3.657 1.266h-.177c-.918 0-1.663.744-1.663 1.662v20.622c0 .918.744 1.662 1.662 1.662h39.447c.918 0 1.663-.744 1.663-1.662v-20.622c0-.918-.744-1.663-1.663-1.663Zm-20.885-12.041c-.386-1.768-.638-3.82-.753-6.103h3.896c-.172 2.202-.38 4.402-.707 5.927-.086.328-.323.756-1.347.756h-.034a.399.399 0 0 0-.099.009c-.135.012-.608-.199-.956-.59Zm.841 4.886.02.003-.02-.003Zm17.799 5.932c.675.001 1.222.548 1.222 1.223h-2.445c0-.675.547-1.223 1.223-1.224Zm-19.633-4.997c.286.604.82 1.124 1.843 1.265a.407.407 0 0 0 .056.004c.726 0 1.392-.225 1.877-.63.205-.17.377-.376.51-.608 3.247 1.327 9.027 3.75 13.388 5.59-.06.193-.09.395-.09.598h-30.879c0-.177-.023-.354-.069-.525l13.364-5.694Zm-15.344 4.996c.675.001 1.222.548 1.223 1.223h-2.445c0-.675.547-1.222 1.222-1.223Zm38.058 23.508a.838.838 0 0 1-.837.836h-39.446a.838.838 0 0 1-.837-.836v-20.622c0-.462.375-.836.837-.837h39.446c.462 0 .836.375.837.837v20.622Z" fill-rule="evenodd"/><path d="M1044.11 1732.97h-.197a2.048 2.048 0 0 0-3.608-1.327c-1.003-.423-4.34-1.83-7.682-3.225-2.75-1.15-4.593-1.911-5.832-2.416a2.697 2.697 0 0 0-2.113-3.043v-.641c1.202-.113 1.635-.788 1.784-1.366 0-.006.003-.011.004-.017.338-1.582.549-3.739.758-6.49a.413.413 0 0 0-.413-.445h-4.772a.413.413 0 0 0-.413.43c.108 2.55.382 4.83.814 6.777a.42.42 0 0 0 .081.169c.324.403.852.788 1.331.92v.716a.413.413 0 0 0 .279.717 1.869 1.869 0 0 1 1.866 1.866c0 .029 0 .056-.002.084-1.643-.662-1.748-.676-1.819-.682a.413.413 0 0 0-.116.817c.146.038.755.278 1.683.653-.338.488-.96.72-1.584.726-.689-.102-1.086-.42-1.286-1.073a3.94 3.94 0 0 1-.137-.75.413.413 0 0 0-.822.075c.015.162.038.336.07.512l-13.487 5.747a2.048 2.048 0 0 0-3.657 1.266h-.177c-.918 0-1.663.744-1.663 1.662v20.622c0 .918.744 1.662 1.662 1.662h39.447c.918 0 1.663-.744 1.663-1.662v-20.622c0-.918-.744-1.663-1.663-1.663Zm-20.885-12.041c-.386-1.768-.638-3.82-.753-6.103h3.896c-.172 2.202-.38 4.402-.707 5.927-.086.328-.323.756-1.347.756h-.034a.399.399 0 0 0-.099.009c-.135.012-.608-.199-.956-.59Zm.841 4.886.02.003-.02-.003Zm17.799 5.932c.675.001 1.222.548 1.222 1.223h-2.445c0-.675.547-1.223 1.223-1.224Zm-19.633-4.997c.286.604.82 1.124 1.843 1.265a.407.407 0 0 0 .056.004c.726 0 1.392-.225 1.877-.63.205-.17.377-.376.51-.608 3.247 1.327 9.027 3.75 13.388 5.59-.06.193-.09.395-.09.598h-30.879c0-.177-.023-.354-.069-.525l13.364-5.694Zm-15.344 4.996c.675.001 1.222.548 1.223 1.223h-2.445c0-.675.547-1.222 1.222-1.223Zm38.058 23.508a.838.838 0 0 1-.837.836h-39.446a.838.838 0 0 1-.837-.836v-20.622c0-.462.375-.836.837-.837h39.446c.462 0 .836.375.837.837v20.622Z" stroke-linejoin="round" stroke-linecap="round" stroke-width=".5" stroke="#000" fill="transparent"/></g><path d="M1007.666 1736.579a.413.413 0 0 0-.413.413v15.928a.413.413 0 1 0 .826 0v-15.928a.413.413 0 0 0-.413-.413Z" fill-rule="evenodd" data-name="Path 151"/><path d="M1011.206 1736.579a.413.413 0 0 0-.413.413v15.928a.413.413 0 1 0 .826 0v-15.928a.413.413 0 0 0-.413-.413Z" fill-rule="evenodd" data-name="Path 152"/><path d="M1014.53 1736.579a.413.413 0 0 0-.412.413v15.928a.413.413 0 1 0 .826 0v-15.928a.413.413 0 0 0-.413-.413Z" fill-rule="evenodd" data-name="Path 153"/><path d="M1017.749 1736.579a.413.413 0 0 0-.413.413v15.928a.413.413 0 1 0 .826 0v-15.928a.413.413 0 0 0-.413-.413Z" fill-rule="evenodd" data-name="Path 154"/><path d="M1021.289 1736.579a.413.413 0 0 0-.413.413v15.928a.413.413 0 1 0 .826 0v-15.928a.413.413 0 0 0-.413-.413Z" fill-rule="evenodd" data-name="Path 155"/><path d="M1024.48 1736.579a.413.413 0 0 0-.413.413v15.928a.413.413 0 1 0 .826 0v-15.928a.413.413 0 0 0-.413-.413Z" fill-rule="evenodd" data-name="Path 156"/><path d="M1027.67 1736.565a.413.413 0 0 0-.412.413v15.93a.413.413 0 1 0 .826 0v-15.93a.413.413 0 0 0-.413-.413Z" fill-rule="evenodd" data-name="Path 157"/><path d="M1031.21 1736.565a.413.413 0 0 0-.412.413v15.93a.413.413 0 1 0 .826 0v-15.93a.413.413 0 0 0-.413-.413Z" fill-rule="evenodd" data-name="Path 158"/><path d="M1034.536 1736.565a.413.413 0 0 0-.413.413v15.93a.413.413 0 1 0 .826 0v-15.93a.413.413 0 0 0-.413-.413Z" fill-rule="evenodd" data-name="Path 159"/><path d="M1037.807 1736.579a.413.413 0 0 0-.413.413v15.928a.413.413 0 1 0 .826 0v-15.928a.413.413 0 0 0-.413-.413Z" fill-rule="evenodd" data-name="Path 160"/><path d="M1041.08 1736.565a.413.413 0 0 0-.414.413v15.93a.413.413 0 1 0 .826 0v-15.93a.413.413 0 0 0-.413-.413Z" fill-rule="evenodd" data-name="Path 161"/></g></svg>