<svg xmlns="http://www.w3.org/2000/svg" width="20.08" height="20.392" viewBox="1.561 3.57 20.08 20.392"><g data-name="Group 164"><path d="M1.689 23.817c-.163.13 1.503-4.378 1.503-4.378L18.411 4.433l2.463 2.465L6.095 21.86 1.69 23.817Z" stroke-linejoin="round" stroke-linecap="round" stroke="#387db1" fill="transparent" data-name="Path 15"/><path d="M3.072 19.87H4.53l-.243 1.012h1.215l.203 1.175" stroke-linejoin="round" stroke-linecap="round" stroke="#387db1" fill="transparent" data-name="Path 16"/><path d="m16.145 6.786 2.351 2.297" stroke-linejoin="round" stroke-linecap="round" stroke="#387db1" fill="transparent" data-name="Path 17"/><path d="m18.63 4.484.577-.62.726-.293s.837-.025 1.264.415c.427.44.445 1.344.445 1.344l-.234.709-.586.708-2.191-2.263Z" stroke-linejoin="round" stroke-linecap="round" stroke="#387db1" fill="transparent" data-name="Path 19"/><path d="m.188 0 .188.46H0z" stroke-linejoin="round" stroke-linecap="round" stroke="#387db1" fill="transparent" transform="rotate(45 -26.959 13.916) scale(1.66111 1.17727)" data-name="Polygon 1"/></g></svg>