<svg xmlns="http://www.w3.org/2000/svg" width="128.451" height="124.322" viewBox="1602.042 1481.372 128.451 124.322"><g data-name="شحن جوي"><g data-name="Group 221"><g data-name="Group 220"><path d="M1674.64 1487.004c-1.112-2.536-3.335-4.48-6.15-5.35-4.133-1.041-8.51.87-10.385 4.586-3.091 6.01-4.724 12.748-4.69 19.486v64.782c0 .139 0 .278.036.382l5.766 28.865c.486 3.37 3.508 5.94 7.05 5.94 3.544 0 6.566-2.536 7.017-5.836l5.767-29.004c.034-.139.034-.278.034-.382v-64.747a41.957 41.957 0 0 0-4.446-18.722Zm.173 83.295-5.766 28.9c-.209 1.355-1.39 2.362-2.814 2.362a2.84 2.84 0 0 1-2.813-2.466l-5.732-28.796v-64.607a37.956 37.956 0 0 1 4.238-17.611c1.007-1.945 3.3-2.953 5.384-2.432 1.528.452 2.779 1.563 3.439 3.057 2.64 5.28 4.064 11.15 4.064 17.02v64.573Z" fill="#fcc400" fill-rule="evenodd" data-name="Path 322"/></g></g><g data-name="Group 223"><g data-name="Group 222"><path d="M1656.646 1527.297a2.19 2.19 0 0 0-2.119-.035l-51.373 26.92a2.041 2.041 0 0 0-1.112 1.806v12.436c0 .694.348 1.32.938 1.702.347.243.799.382 1.216.382.243 0 .52-.035.764-.14l51.374-18.652c.833-.313 1.389-1.077 1.389-1.945v-20.702a2.186 2.186 0 0 0-1.077-1.772Zm-3.23 21.05-47.101 17.09v-8.198l47.1-24.662v15.77Z" fill="#fcc400" fill-rule="evenodd" data-name="Path 323"/></g></g><g data-name="Group 225"><g data-name="Group 224"><path d="m1729.347 1554.182-51.373-26.92a2.19 2.19 0 0 0-2.12.035c-.66.382-1.041 1.042-1.041 1.772v20.737c0 .868.556 1.632 1.39 1.945l51.373 18.653c.243.104.486.139.764.139.417 0 .868-.14 1.216-.383a2.01 2.01 0 0 0 .938-1.702v-12.435a2.2 2.2 0 0 0-1.147-1.84Zm-3.16 11.254-47.102-17.09v-15.804l47.101 24.662v8.232Z" fill="#fcc400" fill-rule="evenodd" data-name="Path 324"/></g></g><g data-name="Group 227"><g data-name="Group 226"><path d="M1636.291 1529.103c-3.543 0-6.426 2.78-6.426 6.218v6.218h4.273v-6.218c0-1.146.972-2.084 2.153-2.084s2.154.938 2.154 2.084v2.084h4.272v-2.084c0-3.439-2.883-6.218-6.426-6.218Z" fill="#fcc400" fill-rule="evenodd" data-name="Path 325"/></g></g><g data-name="Group 229"><g data-name="Group 228"><path d="M1617.013 1539.454c-3.543 0-6.426 2.78-6.426 6.218v6.218h4.273v-6.218c0-1.146.972-2.084 2.153-2.084s2.154.938 2.154 2.084h4.272c0-3.439-2.883-6.218-6.426-6.218Z" fill="#fcc400" fill-rule="evenodd" data-name="Path 326"/></g></g><g data-name="Group 231"><g data-name="Group 230"><path d="M1696.21 1529.103c-3.543 0-6.426 2.78-6.426 6.218v2.084h4.272v-2.084c0-1.146.973-2.084 2.154-2.084 1.18 0 2.153.938 2.153 2.084v6.218h4.273v-6.218c0-3.439-2.883-6.218-6.426-6.218Z" fill="#fcc400" fill-rule="evenodd" data-name="Path 327"/></g></g><g data-name="Group 233"><g data-name="Group 232"><path d="M1715.488 1539.454c-3.543 0-6.426 2.78-6.426 6.218h4.272c0-1.146.973-2.084 2.154-2.084 1.18 0 2.153.938 2.153 2.084v6.218h4.273v-6.218c0-3.439-2.883-6.218-6.426-6.218Z" fill="#fcc400" fill-rule="evenodd" data-name="Path 328"/></g></g><g data-name="Group 235"><g data-name="Group 234"><path d="m1661.613 1597.462-23.203 3.752v-4.655l20.355-11.81-2.188-3.543-21.397 12.366c-.66.382-1.042 1.042-1.042 1.772v8.301c0 .626.278 1.181.764 1.563.382.313.868.487 1.39.487.104 0 .242 0 .347-.035l25.704-4.134-.73-4.064Z" fill="#fcc400" fill-rule="evenodd" data-name="Path 329"/></g></g><g data-name="Group 237"><g data-name="Group 236"><path d="m1697.321 1593.572-21.397-12.435-2.188 3.543 20.355 11.81v4.654l-23.203-3.751-.695 4.099 25.704 4.133c.104.035.243.035.347.035.487 0 1.008-.174 1.39-.486.486-.382.764-.973.764-1.563v-8.267c-.035-.73-.451-1.39-1.077-1.772Z" fill="#fcc400" fill-rule="evenodd" data-name="Path 330"/></g></g></g></svg>