<svg width="45" height="47" viewBox="0 0 45 47" fill="none" xmlns="http://www.w3.org/2000/svg">
<path d="M43.5603 1.79645C42.8914 1.79645 42.1111 1.79645 41.4422 1.79645C36.8717 2.02919 32.5241 3.07654 28.3994 5.17123C23.3829 7.61504 19.1468 11.1062 15.8025 15.7611C13.4615 18.9031 11.7893 22.3943 10.5631 26.1182C10.4516 26.3509 10.5631 26.4673 10.6746 26.5837C11.6779 27.631 12.6812 28.6784 13.6844 29.7257C13.7959 29.8421 13.9074 30.0748 13.9074 30.3076C13.9074 30.5403 13.7959 30.773 13.573 30.8894C13.35 31.0058 13.0156 31.0058 12.9041 30.773C12.3467 30.1912 11.9008 29.7257 11.3434 29.1438C10.6746 28.4456 10.1172 27.7474 9.44833 27.1655C9.22537 26.9328 9.1139 26.5837 9.22537 26.2345C10.6746 21.696 12.7926 17.5067 15.8025 13.7828C18.8124 9.94248 22.4911 6.91681 26.6158 4.70574C30.406 2.61105 34.5306 1.33096 38.7668 0.7491C40.5504 0.516356 42.334 0.399984 44.1177 0.516356C44.675 0.516356 44.7865 0.7491 44.898 1.33096C45.1209 8.89513 43.3373 15.8774 39.4356 22.3943C35.5339 28.7947 30.183 33.566 23.4944 36.5916C22.4911 37.0571 21.3764 37.4062 20.2616 37.8717C19.9272 37.9881 19.7042 37.9881 19.4813 37.639C18.3665 36.4753 17.1402 35.1952 16.0255 34.0315C15.8025 33.7987 15.691 33.4496 15.914 33.1005C16.1369 32.7514 16.5829 32.7514 16.9173 33.1005C17.9206 34.1478 18.9239 35.1952 19.9272 36.2425C20.1501 36.4753 20.2616 36.4753 20.4845 36.3589C25.3895 34.6133 29.7371 31.8204 33.4159 28.0965C37.7635 23.6744 40.6619 18.4376 42.334 12.5027C43.2258 9.24425 43.6717 5.86946 43.6717 2.37831C43.6717 2.14556 43.5603 2.02919 43.5603 1.79645Z" fill="#FFC400"/>
<path d="M37.4293 15.4122C37.4293 19.3688 34.4194 22.5108 30.6292 22.5108C26.839 22.5108 23.8291 19.3688 23.8291 15.4122C23.8291 11.5719 26.839 8.31348 30.5177 8.31348C34.4194 8.31348 37.4293 11.4555 37.4293 15.4122ZM36.0916 15.5285C36.0916 12.2701 33.6391 9.70994 30.5177 9.70994C27.3964 9.70994 24.9439 12.2701 24.9439 15.5285C24.9439 18.7869 27.3964 21.3471 30.5177 21.3471C33.6391 21.2308 36.0916 18.6706 36.0916 15.5285Z" fill="#FFC400"/>
<path d="M20.3732 45.2038C21.1536 44.7383 21.9339 44.1564 22.6028 43.5746C24.8323 41.4799 26.0586 38.9197 26.6159 35.894C26.7274 35.4285 26.9504 35.1958 27.2848 35.1958C27.7307 35.1958 27.9537 35.5449 27.9537 36.0104C27.8422 36.5923 27.7307 37.2905 27.5078 37.8724C26.2815 41.829 24.052 44.7383 20.5962 46.7166C19.8159 47.1821 19.4814 46.9494 19.3699 46.1348C18.924 43.6909 18.4781 41.1308 18.0322 38.687C18.0322 38.4542 18.0322 38.2215 18.0322 38.1051C18.1437 37.8724 18.3667 37.756 18.7011 37.756C18.924 37.756 19.147 37.9887 19.2585 38.2215C19.3699 38.9197 19.4814 39.6179 19.7044 40.4325C19.8159 42.0617 20.1503 43.5746 20.3732 45.2038Z" fill="#FFC400"/>
<path d="M1.97937 26.0028C2.64823 26.1192 3.31709 26.2355 3.87448 26.3519C5.43515 26.701 6.99583 26.9338 8.44503 27.2829C8.55651 27.2829 8.55651 27.2829 8.66799 27.2829C9.00242 27.3993 9.22537 27.7484 9.11389 28.0975C9.00242 28.4466 8.77946 28.6794 8.33355 28.563C7.44174 28.3302 6.43845 28.2139 5.54663 27.9811C4.09743 27.632 2.64823 27.3993 1.08756 27.0502C0.976078 27.0502 0.976078 27.0502 0.864601 27.0502C0.307217 26.9338 0.19574 26.5847 0.418693 26.0028C1.08756 24.7227 1.86789 23.4426 2.87119 22.3953C4.98925 20.0678 7.55322 18.7877 10.4516 18.0895C10.5631 18.0895 10.6746 18.0895 10.6746 17.9731C11.009 17.8568 11.3434 18.0895 11.4549 18.4386C11.5664 18.7877 11.3434 19.1369 10.8975 19.2532C10.2287 19.486 9.44832 19.6023 8.77946 19.8351C5.88106 20.8824 3.65152 22.7444 1.97937 25.4209C2.09085 25.7701 2.09085 25.8864 1.97937 26.0028Z" fill="#FFC400"/>
<path d="M9.89404 36.3593C10.0055 36.243 10.117 36.0102 10.2285 35.8938C12.3465 33.6828 14.3531 31.5881 16.4712 29.377C17.2515 28.5624 17.9204 27.8642 18.7007 27.0496C19.0351 26.7005 19.3696 26.7005 19.704 26.9332C19.927 27.1659 19.927 27.6314 19.5925 27.9806C17.14 30.5407 14.6876 33.2173 12.1236 35.7775C11.7892 36.1266 11.4547 36.5921 11.0088 36.9412C10.7859 37.1739 10.5629 37.1739 10.34 37.0576C10.0055 36.9412 9.89404 36.7084 9.89404 36.3593Z" fill="#FFC400"/>
<path d="M6.99623 39.3853C7.21919 39.5016 7.44214 39.618 7.55362 39.8507C7.66509 40.0835 7.55362 40.3162 7.44214 40.549C7.33066 40.6653 7.10771 40.8981 6.99623 41.1308C5.65851 42.5273 4.32079 44.0401 2.87159 45.4366C2.64863 45.553 2.53716 45.6693 2.3142 45.6693C2.09125 45.6693 1.86829 45.553 1.75682 45.3202C1.64534 44.9711 1.64534 44.7384 1.86829 44.5056C2.76011 43.5746 3.65193 42.6437 4.54374 41.7127C5.2126 41.0145 5.76999 40.4326 6.43885 39.7344C6.6618 39.618 6.77328 39.5016 6.99623 39.3853Z" fill="#FFC400"/>
<path d="M5.9931 34.6133C6.55048 34.6133 6.88491 35.1951 6.66196 35.5443C6.55048 35.6606 6.55048 35.777 6.43901 35.8934C4.98981 37.4062 3.54061 38.919 2.09141 40.4319L1.97993 40.5482C1.6455 40.781 1.31107 40.8974 1.08811 40.5482C0.86516 40.3155 0.86516 39.85 1.08811 39.6173C2.20288 38.4536 3.31765 37.2898 4.43242 36.1261C4.87833 35.6606 5.21276 35.3115 5.65867 34.9624C5.77014 34.7297 5.9931 34.6133 5.9931 34.6133Z" fill="#FFC400"/>
<path d="M12.2359 41.1287C12.2359 41.245 12.1244 41.3614 12.0129 41.5941C10.4522 43.2233 9.00305 44.7362 7.44237 46.3654C7.10794 46.7145 6.77351 46.7145 6.43908 46.3654C6.21612 46.1326 6.21612 45.6672 6.55055 45.4344C8.11123 43.8052 9.56043 42.2924 11.1211 40.6632C11.3441 40.4304 11.567 40.314 11.9014 40.4304C12.1244 40.5468 12.2359 40.6632 12.2359 41.1287Z" fill="#FFC400"/>
</svg>
