<svg id="Layer_1" data-name="Layer 1" xmlns="http://www.w3.org/2000/svg" viewBox="0 0 207.81 229.55"><path d="M374.46,82.16" transform="translate(-8.05 -3.15)" fill="none" stroke="#fbc300" stroke-miterlimit="10" stroke-width="0.81"/><path d="M429.4,92.57" transform="translate(-8.05 -3.15)" fill="none" stroke="#000" stroke-miterlimit="10" stroke-width="0.9"/><path d="M393.57,75" transform="translate(-8.05 -3.15)" fill="none" stroke="#000" stroke-miterlimit="10" stroke-width="0.9"/><path d="M420.3,112.69" transform="translate(-8.05 -3.15)" fill="none" stroke="#000" stroke-miterlimit="10" stroke-width="0.9"/><path d="M384.37,94.66" transform="translate(-8.05 -3.15)" fill="none" stroke="#000" stroke-miterlimit="10" stroke-width="0.9"/><g id="Group_525" data-name="Group 525"><g id="Group_523" data-name="Group 523"><path id="Path_299" data-name="Path 299" d="M110,222.51H25c-2.32,0-4.63-.06-7-.08V13.35H115.6c4.15,0,8.35.14,12.51,0l17.46,16.84,28.06,27.06-13-.08L120.15,57h-4.54q-.27-7-.55-14c0-.93-.07-1.85-.11-2.78a4.94,4.94,0,1,0-9.88,0l.74,19.08c0,.92.07,1.84.11,2.77a5.11,5.11,0,0,0,4.94,5.08l25.52.15,40.51.23,9.25.06A5.08,5.08,0,0,0,191,62.26a5.19,5.19,0,0,0-1.37-3.39l-8.52-8.28-19-18.27L143,13.84c-3.13-3-6.18-6.2-9.42-9.09A6.54,6.54,0,0,0,128.5,3.2H13a5.08,5.08,0,0,0-5,5.08V218.67c0,2.84,0,5.7,0,8.54v.37A5.09,5.09,0,0,0,13,232.66H98.08c3.91,0,7.83.1,11.75,0H110a5.08,5.08,0,0,0,0-10.15Z" transform="translate(-8.05 -3.15)"/><path id="Path_300" data-name="Path 300" d="M143.82,126.08H144a5.08,5.08,0,0,0,0-10.15H52.69c-4.22,0-8.46-.12-12.68,0h-.18a5.08,5.08,0,0,0,0,10.15h91.31C135.36,126.08,139.59,126.19,143.82,126.08Z" transform="translate(-8.05 -3.15)"/><path id="Path_301" data-name="Path 301" d="M94.44,149.13H39.83a5.08,5.08,0,0,0,0,10.15h82.53a5.08,5.08,0,0,0,0-10.15Z" transform="translate(-8.05 -3.15)"/></g><g id="Group_524" data-name="Group 524"><g id="Path_302" data-name="Path 302"><path d="M158,201.61a14.51,14.51,0,0,1-19.91-6.18,15.23,15.23,0,0,1-1.5-4.41,6.54,6.54,0,0,1-7.65-1l3.18,37.91,31.2-20.67S158.25,206.22,158,201.61Z" transform="translate(-8.05 -3.15)" fill="#f9b311"/><path d="M157.69,201.08a14,14,0,0,1-12.39.45,14.63,14.63,0,0,1-8.12-10.68.62.62,0,0,0-.91-.36,6,6,0,0,1-6.89-.93c-.37-.32-1.1-.13-1,.44l2.79,33.28.39,4.63a.62.62,0,0,0,.92.53l27.34-18.1,3.86-2.56a.62.62,0,0,0-.15-1.13,5.85,5.85,0,0,1-4.87-5c-.06-.79-1.29-.79-1.23,0a7.09,7.09,0,0,0,5.78,6.23l-.15-1.13-27.33,18.11-3.87,2.56.93.53L130,194.63l-.39-4.63-1.05.43a7.29,7.29,0,0,0,8.39,1.12l-.91-.37a15.79,15.79,0,0,0,9,11.54,15.18,15.18,0,0,0,13.34-.58C159,201.77,158.39,200.7,157.69,201.08Z" transform="translate(-8.05 -3.15)" fill="#1d1d1b"/></g><g id="Path_303" data-name="Path 303"><path d="M207.11,88.64,193.55,82a14.17,14.17,0,0,0-19.13,6.91h0L171.12,96l39.42,19.41,3.3-7.07a14.91,14.91,0,0,0-6.73-19.65Z" transform="translate(-8.05 -3.15)" fill="#f9b311"/><path d="M207.42,88.11c-4.43-2.18-8.84-4.37-13.27-6.53a15,15,0,0,0-20.27,7c-1.12,2.35-2.2,4.72-3.3,7.07a.64.64,0,0,0,.23.85L184.12,103l21.23,10.45,4.88,2.4a.62.62,0,0,0,.84-.22c1.71-3.65,4.07-7.49,4.64-11.54a15.56,15.56,0,0,0-8.29-16c-.71-.35-1.34.71-.63,1.06a14.35,14.35,0,0,1,7.48,16c-.79,3.44-2.78,6.72-4.27,9.9l.85-.22-13.32-6.56L176.3,97.81l-4.87-2.4.22.85,3-6.53A14.38,14.38,0,0,1,182.6,82a13.66,13.66,0,0,1,10.9.62L200.35,86l6.44,3.17C207.5,89.52,208.13,88.46,207.42,88.11Z" transform="translate(-8.05 -3.15)" fill="#1d1d1b"/></g><g id="Path_304" data-name="Path 304"><path d="M132.25,182.88h0a3.58,3.58,0,0,0,4.86-1.66h0l36.5-74.93L167.13,103l-36.5,74.93A3.76,3.76,0,0,0,132.25,182.88Z" transform="translate(-8.05 -3.15)" fill="#f9b311"/><path d="M131.93,183.41c2.58,1.18,4.86-.14,6-2.49L140,176.7l8.45-17.34,11-22.54,9.8-20.11,3.29-6.75a35.17,35.17,0,0,0,1.56-3.21l.07-.15a.63.63,0,0,0-.22-.84l-6.47-3.33a.64.64,0,0,0-.85.22l-4,8.13L153.27,130l-11,22.66-9,18.38-2.51,5.16c-.68,1.4-1.4,2.72-1,4.37a4.46,4.46,0,0,0,2.18,2.82.62.62,0,0,0,.63-1.06c-2.33-1.33-1.71-3.5-.8-5.38l2.39-4.89,8.58-17.61,10.81-22.19L163,112.91l3.13-6.43,1-2a4,4,0,0,0,.52-1.06s.05-.1.07-.13l-.85.22,6.48,3.32-.22-.84-3.82,7.84-9,18.56-10.84,22.24-9,18.52c-1.26,2.58-2.41,5.25-3.79,7.77a3,3,0,0,1-4,1.44C131.84,182,131.21,183.08,131.93,183.41Z" transform="translate(-8.05 -3.15)" fill="#1d1d1b"/></g><g id="Path_305" data-name="Path 305"><path d="M147.48,194.7a7.56,7.56,0,0,0,10.27-3.52l36.5-74.92-13.69-7-36.5,74.93A8,8,0,0,0,147.48,194.7Z" transform="translate(-8.05 -3.15)" fill="#f9b311"/><path d="M147.17,195.23a8.3,8.3,0,0,0,11.15-3.82c.53-1,1-2.12,1.55-3.17L168,171.57l11.27-23.13,10.28-21.12,3.49-7.14a38,38,0,0,0,1.68-3.46l.07-.15a.62.62,0,0,0-.22-.84l-13.69-7a.62.62,0,0,0-.84.22l-4.21,8.65-9.92,20.36-11.37,23.34-8.71,17.88-2.06,4.22a9,9,0,0,0,.44,9.27,8.63,8.63,0,0,0,3,2.6c.69.38,1.31-.69.62-1.06a7.51,7.51,0,0,1-3-10.09c.63-1.31,1.28-2.62,1.92-3.92l8.3-17L166.1,140.3l10-20.42,3.36-6.89,1.05-2.17a4.64,4.64,0,0,0,.56-1.14s0-.1.07-.15l-.84.22,13.69,7-.22-.84-4.07,8.34-9.53,19.57-11.19,23L160.07,185c-1.74,3.57-3.31,8.77-7.68,9.74a7,7,0,0,1-4.6-.58C147.08,193.82,146.45,194.88,147.17,195.23Z" transform="translate(-8.05 -3.15)" fill="#1d1d1b"/></g><g id="Path_306" data-name="Path 306"><path d="M164.2,194.49a3.77,3.77,0,0,0,1.46,5,3.58,3.58,0,0,0,4.91-1.49c0-.07.07-.15.11-.22l36.5-74.93-6.48-3.33Z" transform="translate(-8.05 -3.15)" fill="#f9b311"/><path d="M163.67,194.18a4.43,4.43,0,0,0,2.42,6.21,4.27,4.27,0,0,0,5.13-2.28c.47-.93.91-1.87,1.36-2.81l7.95-16.3,11.38-23.37,10.48-21.51c1.74-3.56,3.73-7.09,5.24-10.76a.8.8,0,0,0,.08-.16.63.63,0,0,0-.22-.84L201,119a.64.64,0,0,0-.85.22l-12.39,25.43-19.6,40.25-4.51,9.25c-.35.71.71,1.33,1.06.62l12.39-25.43,19.61-40.25,4.51-9.25-.85.23,6.48,3.32-.22-.84-4,8.13-9.43,19.35-11,22.66-8.93,18.34-2.52,5.16c-.85,1.74-1.94,3.82-4.35,3a3.19,3.19,0,0,1-1.69-4.41C165.07,194.09,164,193.46,163.67,194.18Z" transform="translate(-8.05 -3.15)" fill="#1d1d1b"/></g></g></g></svg>