<svg id="Layer_1" data-name="Layer 1" xmlns="http://www.w3.org/2000/svg" viewBox="0 0 211.98 217.23"><path d="M374.46,82.16" transform="translate(-13.89 -16.35)" fill="none" stroke="#fbc300" stroke-miterlimit="10" stroke-width="0.81"/><path d="M429.4,92.57" transform="translate(-13.89 -16.35)" fill="none" stroke="#000" stroke-miterlimit="10" stroke-width="0.9"/><path d="M393.57,75" transform="translate(-13.89 -16.35)" fill="none" stroke="#000" stroke-miterlimit="10" stroke-width="0.9"/><path d="M420.3,112.69" transform="translate(-13.89 -16.35)" fill="none" stroke="#000" stroke-miterlimit="10" stroke-width="0.9"/><path d="M384.37,94.66" transform="translate(-13.89 -16.35)" fill="none" stroke="#000" stroke-miterlimit="10" stroke-width="0.9"/><path d="M222.28,68.7,127,108.35a2.09,2.09,0,0,0,.34,4c13.61,3,44.11,9.91,44.11,10.25s6.71,31.81,9.7,45.83a2.09,2.09,0,0,0,4,.35L225,71.42A2.09,2.09,0,0,0,222.28,68.7Z" transform="translate(-13.89 -16.35)" fill="#fbc300" stroke="#1d1d1b" stroke-miterlimit="10" stroke-width="0.25"/><path d="M222.11,68.1l-17.2,7.15-36.2,15.06L135.7,104l-8.09,3.37a3.88,3.88,0,0,0-2.23,1.57,2.74,2.74,0,0,0,1.34,3.8,31.31,31.31,0,0,0,5,1.17q12.6,2.82,25.19,5.71c3.37.78,6.74,1.56,10.1,2.38,1,.24,2,.49,3.05.76a6.15,6.15,0,0,0,.81.23c.05,0,.2.09.24.07-.14.06-.26-.89-.31-.35a5.21,5.21,0,0,0,.26,1.34c.22,1,.43,2.07.65,3.11l2.1,10q2.67,12.6,5.37,25.21.56,2.64,1.13,5.3c.34,1.6,1.1,3.1,3,3,1.42-.09,2.11-1.14,2.59-2.31l3.08-7.53,13.16-32.07,15.19-37c2.72-6.63,5.59-13.22,8.16-19.91a2.74,2.74,0,0,0-3.41-3.72c-.76.25-.43,1.45.34,1.2a1.51,1.51,0,0,1,1.91,2.1c-.09.23-.19.45-.28.67l-1.22,3-4.54,11.08-14.15,34.49-14,34-4.39,10.71L184.73,168c-.07.17-.13.36-.22.53-.77,1.47-2.5.92-2.84-.53-1.81-7.75-3.32-15.6-5-23.39q-2.13-10-4.22-20c-.14-.64-.27-1.27-.4-1.92-.06-.34.07-.07,0-.29a.93.93,0,0,0-.54-.49,26.2,26.2,0,0,0-4.87-1.26c-7.58-1.83-15.19-3.54-22.79-5.26l-11.75-2.65-2.53-.56a7.13,7.13,0,0,1-2.73-.78,1.5,1.5,0,0,1,.41-2.49c1.77-.91,3.75-1.55,5.59-2.32l29.43-12.24,36.45-15.16,22.64-9.42,1.12-.47C223.18,69,222.86,67.79,222.11,68.1Z" transform="translate(-13.89 -16.35)" stroke="#1d1d1b" stroke-miterlimit="10" stroke-width="0.25"/><path d="M157.57,131.08q-3.31,7.56-6.64,15.12-5.25,12-10.52,24L138,175.7a2.58,2.58,0,0,0,.89,3.42,2.52,2.52,0,0,0,3.42-.9q3.33-7.56,6.64-15.11l10.53-24,2.43-5.53a2.58,2.58,0,0,0-.9-3.42A2.52,2.52,0,0,0,157.57,131.08Z" transform="translate(-13.89 -16.35)"/><path d="M218.12,16.63l-5.33,2.23-14.46,6-21.48,9L150.73,44.72,122.09,56.66,93,68.77,66,80.05,42.89,89.66,26.23,96.6c-2.73,1.13-5.45,2.27-8.18,3.39l-.46.19a4.85,4.85,0,0,0-.61.29,4.62,4.62,0,0,0-2.73,2.79,3.39,3.39,0,0,0-.15.41s0,0,0,0a4.26,4.26,0,0,0,0,2.62,4.87,4.87,0,0,0,.43,1,4.72,4.72,0,0,0,2.31,2.25l.39.16a4.15,4.15,0,0,0,1.37.36l8.57,2.09,22.88,5.57,27.68,6.74,24,5.85c3,.72,5.94,1.56,8.93,2.25.5,2.36,1,4.73,1.51,7.09q2.53,12,5.08,23.91,3.07,14.48,6.16,28.94,2.66,12.53,5.32,25c.86,4,1.51,8.2,2.59,12.19a1.16,1.16,0,0,0,0,.18,5,5,0,0,0,4.82,3.67,5.3,5.3,0,0,0,4.82-3.67l2.67-6.59,7.1-17.52L161,180.72q5.15-12.74,10.31-25.45c.49-1.22,1-2.43,1.48-3.65l-4.21-16.07c-.49,1.21-1,2.41-1.46,3.62-.32.78-.64,1.56-1,2.34l-12.07,29.76q-5.32,13.15-10.66,26.31l-5.7,14.06-3.88-18.26-6.15-28.94q-2.67-12.51-5.33-25c-.86-4-1.56-8.17-2.59-12.19l0-.17a4.93,4.93,0,0,0-3.5-3.5l-9.58-2.33-22.88-5.57L56.1,108.91l-21.22-5.17,6-2.49,21.73-9,26.28-11,28.7-12,29-12.1L173.53,46l22.83-9.52,14.27-5.94-4.29,11.13c-1.87,4.85-3.67,9.73-5.62,14.54-1.29,3.2-2.59,6.38-3.88,9.58-1.12,2.77-2.25,5.54-3.37,8.32L206,69.65q2-4.79,3.89-9.59c1.2-3,2.33-6,3.48-9l10.2-26.45.72-1.88C225.56,19.44,221.53,15.21,218.12,16.63Z" transform="translate(-13.89 -16.35)"/></svg>