<svg xmlns="http://www.w3.org/2000/svg" width="48.665" height="46.709" viewBox="5.206 4.917 48.665 46.709"><g data-name="ship_fill"><path d="M34.935 43.7a9.833 9.833 0 0 1 8.27-.243l.526.243 6.535 3.268a2.458 2.458 0 0 1-1.935 4.51l-.264-.113-6.535-3.267a4.918 4.918 0 0 0-3.976-.187l-.422.187-3.237 1.618a9.833 9.833 0 0 1-8.27.243l-.525-.243-3.237-1.618a4.918 4.918 0 0 0-3.975-.187l-.422.187-6.536 3.267a2.458 2.458 0 0 1-2.447-4.254l.249-.143 6.535-3.268a9.833 9.833 0 0 1 8.27-.243l.525.243L27.3 45.32a4.918 4.918 0 0 0 3.975.186l.422-.186 3.237-1.619ZM31.958 4.917c1.358 0 2.458 1.1 2.458 2.458v3.244l8.184 1.364a4.917 4.917 0 0 1 4.108 4.85v8.437l5.06 1.687a3.073 3.073 0 0 1 1.853 4.125l-5.331 12.44-4.56-2.28a9.833 9.833 0 0 0-8.795 0l-3.237 1.618a4.917 4.917 0 0 1-4.397 0l-3.237-1.618a9.833 9.833 0 0 0-8.795 0l-3.124 1.562L5.612 31.37a3.073 3.073 0 0 1 1.697-4.44l4.982-1.661v-8.437a4.917 4.917 0 0 1 4.109-4.85l8.183-1.364V7.375c0-1.358 1.1-2.458 2.458-2.458h4.917ZM29.5 14.784l-12.292 2.049v6.798l10.737-3.579a4.916 4.916 0 0 1 3.11 0l10.736 3.579v-6.798L29.5 14.783Z" fill="#989898" fill-rule="evenodd" data-name="形状"/></g></svg>