<svg xmlns="http://www.w3.org/2000/svg" width="120.716" height="79.526" viewBox="-1 -1 120.716 79.526"><g data-name="Path 47"><path d="M119.03 40.216h-8.91V20.294c0-1.016-.769-1.878-1.68-1.878H51.75c-.91 0-1.681.861-1.681 1.878v29.477l-4.917.063V14.223c0-1.016-.77-1.879-1.681-1.879h-1.724V1.88c0-.552-.179-.971-.449-1.272-.017-.022-.036-.04-.054-.063-.01-.012-.021-.024-.032-.034A1.472 1.472 0 0 0 40.067 0H26.786c-.493 0-.869.2-1.137.502-.02.019-.038.04-.057.06L25.561.6c-.273.3-.456.722-.456 1.28v10.465h-5.652c-.91 0-1.681.86-1.681 1.879v6.04h-3.633c-.909 0-1.68.86-1.68 1.878v19.214H1.681c-.884 0-1.712.861-1.681 1.878.365 11.595 2.768 23.426 4.298 34.893.107.801.948 1.378 1.62 1.378h85.813c3.47 0 6.912.247 10.274-.933 13.575-4.763 17.534-22.544 18.704-36.476.085-1.012-.839-1.879-1.68-1.879Zm-25.73 0c-.654 0-1.376-.055-2.117-.102v-6.946h15.576v7.048H93.3Zm-14.994 9.195-6.183.079v-5.517H82.6c-1.52 1.799-2.96 3.852-4.294 5.438ZM53.43 33.168h15.33v7.048H53.43v-7.048Zm53.33-3.757H91.182v-7.238h15.576v7.238Zm-18.938 0h-15.7v-7.238h15.7v7.238Zm-19.061 0H53.43v-7.238h15.33v7.238Zm3.362 3.757h15.699v6.997c-.209.034-.407.089-.606.144a1.576 1.576 0 0 0-.52-.093H72.124v-7.048ZM53.43 43.973h15.33v5.56l-15.33.196v-5.756ZM28.467 3.757h9.919v8.587h-9.92V3.757Zm-7.333 12.344H41.79v4.162H21.134V16.1ZM15.82 24.02h25.97v25.858l-10.667.135v-6.78c0-1.014-.77-1.878-1.68-1.878H15.82V24.02Zm83.777 51.386c-2.953.702-6.242.341-9.233.341H7.347C5.943 65.66 3.971 55.307 3.46 45.112h24.3v6.801c0 1.007.77 1.891 1.682 1.878 7.32-.092 14.64-.186 21.962-.28.238.049.486.045.725-.009l17.393-.221a1.713 1.713 0 0 0 1.868-.024l7.648-.098c.014-.001.026-.005.04-.005.215.004.435-.046.649-.159.02-.01.038-.021.058-.033.07-.04.14-.086.21-.141.029-.024.055-.05.083-.076.049-.046.1-.083.149-.137 2.311-2.584 4.713-6.215 7.385-8.477-.028.134.906-.24 1.896-.158 1.863.154 3.795 0 5.66 0h22.004C115.91 56.33 111.98 72.46 99.597 75.406Z" fill-rule="evenodd"/><path d="M119.03 40.216h-8.91V20.294c0-1.016-.769-1.878-1.68-1.878H51.75c-.91 0-1.681.861-1.681 1.878v29.477l-4.917.063V14.223c0-1.016-.77-1.879-1.681-1.879h-1.724V1.88c0-.552-.179-.971-.449-1.272-.017-.022-.036-.04-.054-.063-.01-.012-.021-.024-.032-.034A1.472 1.472 0 0 0 40.067 0H26.786c-.493 0-.869.2-1.137.502-.02.019-.038.04-.057.06L25.561.6c-.273.3-.456.722-.456 1.28v10.465h-5.652c-.91 0-1.681.86-1.681 1.879v6.04h-3.633c-.909 0-1.68.86-1.68 1.878v19.214H1.681c-.884 0-1.712.861-1.681 1.878.365 11.595 2.768 23.426 4.298 34.893.107.801.948 1.378 1.62 1.378h85.813c3.47 0 6.912.247 10.274-.933 13.575-4.763 17.534-22.544 18.704-36.476.085-1.012-.839-1.879-1.68-1.879Zm-25.73 0c-.654 0-1.376-.055-2.117-.102v-6.946h15.576v7.048H93.3Zm-14.994 9.195-6.183.079v-5.517H82.6c-1.52 1.799-2.96 3.852-4.294 5.438ZM53.43 33.168h15.33v7.048H53.43v-7.048Zm53.33-3.757H91.182v-7.238h15.576v7.238Zm-18.938 0h-15.7v-7.238h15.7v7.238Zm-19.061 0H53.43v-7.238h15.33v7.238Zm3.362 3.757h15.699v6.997c-.209.034-.407.089-.606.144a1.576 1.576 0 0 0-.52-.093H72.124v-7.048ZM53.43 43.973h15.33v5.56l-15.33.196v-5.756ZM28.467 3.757h9.919v8.587h-9.92V3.757Zm-7.333 12.344H41.79v4.162H21.134V16.1ZM15.82 24.02h25.97v25.858l-10.667.135v-6.78c0-1.014-.77-1.878-1.68-1.878H15.82V24.02Zm83.777 51.386c-2.953.702-6.242.341-9.233.341H7.347C5.943 65.66 3.971 55.307 3.46 45.112h24.3v6.801c0 1.007.77 1.891 1.682 1.878 7.32-.092 14.64-.186 21.962-.28.238.049.486.045.725-.009l17.393-.221a1.713 1.713 0 0 0 1.868-.024l7.648-.098c.014-.001.026-.005.04-.005.215.004.435-.046.649-.159.02-.01.038-.021.058-.033.07-.04.14-.086.21-.141.029-.024.055-.05.083-.076.049-.046.1-.083.149-.137 2.311-2.584 4.713-6.215 7.385-8.477-.028.134.906-.24 1.896-.158 1.863.154 3.795 0 5.66 0h22.004C115.91 56.33 111.98 72.46 99.597 75.406Z" stroke-linejoin="round" stroke-linecap="round" stroke-width="2" stroke="#000" fill="transparent"/></g></svg>