<svg xmlns="http://www.w3.org/2000/svg" width="127.987" height="104.63" viewBox="751.231 1195.808 127.987 104.63"><g data-name="Outline"><path d="M821.88 1278.36h4.416v4.416h-4.415v-4.416Z" fill="#fcc400" fill-rule="evenodd" data-name="Path 288"/><path d="M804.218 1278.36h4.416v4.416h-4.416v-4.416Z" fill="#fcc400" fill-rule="evenodd" data-name="Path 289"/><path d="M870.164 1294.102c-1.888 1.024-3.488 1.92-6.944 1.92-3.423 0-5.055-.896-6.943-1.92-2.112-1.152-4.511-2.495-9.055-2.495s-6.943 1.311-9.055 2.495c-1.888 1.024-3.488 1.92-6.943 1.92-3.424 0-5.056-.896-6.944-1.92-2.112-1.152-4.511-2.495-9.055-2.495-4.575 0-6.943 1.311-9.055 2.495-1.888 1.024-3.488 1.92-6.943 1.92-3.424 0-5.056-.896-6.944-1.92-2.111-1.152-4.511-2.495-9.055-2.495-4.543 0-6.943 1.311-9.055 2.495-1.888 1.024-3.487 1.92-6.943 1.92-3.456 0-5.056-.896-6.943-1.92-2.112-1.152-4.512-2.495-9.056-2.495v4.415c3.424 0 5.056.896 6.944 1.92 2.112 1.152 4.511 2.496 9.055 2.496 4.543 0 6.943-1.312 9.055-2.496 1.888-1.024 3.488-1.92 6.943-1.92 3.456 0 5.056.896 6.944 1.92 2.111 1.152 4.511 2.496 9.055 2.496 4.575 0 6.943-1.312 9.055-2.496 1.888-1.024 3.488-1.92 6.943-1.92 3.424 0 5.056.896 6.943 1.92 2.112 1.152 4.512 2.496 9.056 2.496 4.543 0 6.943-1.312 9.055-2.496 1.888-1.024 3.487-1.92 6.943-1.92 3.456 0 5.056.896 6.943 1.92 2.112 1.152 4.512 2.496 9.055 2.496 4.544 0 6.944-1.312 9.056-2.496 1.887-1.024 3.487-1.92 6.943-1.92v-4.415c-4.544 0-6.943 1.311-9.055 2.495Z" fill="#fcc400" fill-rule="evenodd" data-name="Path 290"/><path d="m766.206 1292.15 4.288-1.055-3.264-13.055 45.82-5.983v15.134h4.415v-15.134l45.82 5.983-3.264 13.055 4.287 1.056 3.872-15.455a2.23 2.23 0 0 0-1.6-2.688c-.096-.032-.16-.032-.256-.032l-50.747-6.623a1.74 1.74 0 0 0-.576 0l-50.779 6.623a2.194 2.194 0 0 0-1.888 2.464c0 .096.032.16.032.256l3.84 15.455Z" fill="#fcc400" fill-rule="evenodd" data-name="Path 291"/><path d="M773.31 1249.69h39.707v13.247h4.416v-13.246h39.708v19.87h4.416v-22.078a2.212 2.212 0 0 0-2.208-2.208h-2.208v-22.078a2.212 2.212 0 0 0-2.208-2.207h-79.416a2.212 2.212 0 0 0-2.208 2.207v22.078h-2.207a2.212 2.212 0 0 0-2.208 2.208v22.078h4.415v-19.87Zm30.908-4.415v-19.87h22.078v19.87h-22.078Zm48.54 0H830.68v-19.87h22.078v19.87Zm-75.033-19.87h22.078v19.87h-22.078v-19.87Z" fill="#fcc400" fill-rule="evenodd" data-name="Path 292"/><path d="M777.725 1254.106h4.415v13.247h-4.415v-13.247Z" fill="#fcc400" fill-rule="evenodd" data-name="Path 293"/><path d="M786.556 1254.106h4.416v11.04h-4.416v-11.04Z" fill="#fcc400" fill-rule="evenodd" data-name="Path 294"/><path d="M795.387 1254.106h4.416v11.04h-4.416v-11.04Z" fill="#fcc400" fill-rule="evenodd" data-name="Path 295"/><path d="M804.218 1254.106h4.416v11.04h-4.416v-11.04Z" fill="#fcc400" fill-rule="evenodd" data-name="Path 296"/><path d="M848.342 1254.106h4.416v13.247h-4.416v-13.247Z" fill="#fcc400" fill-rule="evenodd" data-name="Path 297"/><path d="M839.51 1254.106h4.416v11.04h-4.415v-11.04Z" fill="#fcc400" fill-rule="evenodd" data-name="Path 298"/><path d="M830.68 1254.106h4.415v11.04h-4.415v-11.04Z" fill="#fcc400" fill-rule="evenodd" data-name="Path 299"/><path d="M821.88 1254.106h4.416v11.04h-4.415v-11.04Z" fill="#fcc400" fill-rule="evenodd" data-name="Path 300"/><path d="M852.758 1217.886a2.212 2.212 0 0 0-2.208-2.208h-20.574l-2.688-6.72c3.232-.511 5.6-3.295 5.6-6.527v-4.415a2.212 2.212 0 0 0-2.208-2.208h-30.91a2.212 2.212 0 0 0-2.207 2.208v4.415c0 3.264 2.368 6.048 5.6 6.528l-2.688 6.687h-20.542a2.212 2.212 0 0 0-2.208 2.208m59.578-1.28h4.416m-52.955 0h4.415m8.831-14.143v-2.207h26.494v2.207a2.212 2.212 0 0 1-2.208 2.208h-22.078a2.212 2.212 0 0 1-2.208-2.208Zm5.888 6.624h14.654l2.656 6.623h-19.966l2.656-6.623Zm-25.758 11.039h66.202" fill="#fcc400" fill-rule="evenodd" data-name="Path 301"/><path d="M782.14 1229.82h4.416v11.04h-4.416v-11.04Z" fill="#fcc400" fill-rule="evenodd" data-name="Path 302"/><path d="M790.972 1229.82h4.415v11.04h-4.415v-11.04Z" fill="#fcc400" fill-rule="evenodd" data-name="Path 303"/><path d="M808.634 1229.82h4.415v11.04h-4.415v-11.04Z" fill="#fcc400" fill-rule="evenodd" data-name="Path 304"/><path d="M817.465 1229.82h4.416v11.04h-4.416v-11.04Z" fill="#fcc400" fill-rule="evenodd" data-name="Path 305"/><path d="M835.095 1229.82h4.416v11.04h-4.416v-11.04Z" fill="#fcc400" fill-rule="evenodd" data-name="Path 306"/><path d="M843.926 1229.82h4.416v11.04h-4.416v-11.04Z" fill="#fcc400" fill-rule="evenodd" data-name="Path 307"/></g></svg>