<svg id="Layer_1" data-name="Layer 1" xmlns="http://www.w3.org/2000/svg" viewBox="0 0 800 800"><path d="M0,0H800V800H0Z" style="fill:none"/><path d="M192.66,618.6V559l42.63,42.62,18.31-18.31-73.73-73.7-73.72,73.7,18.3,18.31,42.32-42.28v59.35a77.77,77.77,0,0,0,77.69,77.69h53.29v-25.9l-53.29-.05A51.88,51.88,0,0,1,192.66,618.6Z" style="fill:#727272"/><path d="M412.78,126.31H179.72A64.78,64.78,0,0,0,115,191.05V424.12a64.78,64.78,0,0,0,64.74,64.74H296.25V463H179.72a38.89,38.89,0,0,1-38.85-38.84V191.05a38.89,38.89,0,0,1,38.85-38.84H412.78a38.89,38.89,0,0,1,38.84,38.84V307.59h25.9V191.05A64.8,64.8,0,0,0,412.78,126.31Z" style="fill:#727272"/><path d="M607,204v59.07l-42.31-42.34L546.38,239l73.72,73.75L693.85,239l-18.33-18.28L632.9,263.38V204a77.78,77.78,0,0,0-77.69-77.69H503.42v25.9h51.79A51.87,51.87,0,0,1,607,204Z" style="fill:#727272"/><path d="M620,333.49H388.26a66.13,66.13,0,0,0-54.78,29.14h0c-3.53,5.79-7.37,11.86-8.8,18.92h0a66.36,66.36,0,0,0-2.54,18V629.91A66.21,66.21,0,0,0,388.26,696H618.58a66.2,66.2,0,0,0,66.11-66.12V399.59A65.38,65.38,0,0,0,620,333.49Z" style="fill:#fcc400"/><path d="M231.89,357.52v-71h99.84V263.67H231.89v-61.3H336.52V179.56H205.78V380.33H316.91c1.73-8.52,5.51-15.84,9.76-22.81Z" style="fill:#727272"/><path d="M528.63,432.27A53.46,53.46,0,0,0,500,424c-20.79,0-41.38,14-41.38,18.32,0,6.59,7,13.8,15.44,21,8.24,6.17,15.85,9.88,20.8,9.88,5.56,0,28-11.74,66.5-26.15l2.06,1.65c-3.09,12.56-6.38,25.32-10.71,37.47-64.85,22-100.27,47.77-100.27,69,0,25.94,35,48.59,95.54,48.59a256.33,256.33,0,0,0,45.91-3.91l3.09,4.73c-17.29,15.24-33.56,27.8-49.21,36.45-7.62,2.47-16.06,2.88-24.71,2.88-50.85,0-91-23.47-91-75.36,0-22,8.85-44.68,29.23-68.36C445.86,489.1,435,475.93,435,458.63c0-10.3,2.88-21.62,10.7-35.62,9.68-16.89,26.36-29.24,44.07-29.24,17.5,0,32.32,11.12,44.89,31.71Z" style="fill:#fff"/><text/></svg>