<svg id="Layer_1" data-name="Layer 1" xmlns="http://www.w3.org/2000/svg" viewBox="0 0 800 800"><path d="M0,0H800V800H0Z" style="fill:none"/><path d="M528.63,432.27A53.46,53.46,0,0,0,500,424c-20.79,0-41.38,14-41.38,18.32,0,6.59,7,13.8,15.44,21,8.24,6.17,15.85,9.88,20.8,9.88,5.56,0,28-11.74,66.5-26.15l2.06,1.65c-3.09,12.56-6.38,25.32-10.71,37.47-64.85,22-100.27,47.77-100.27,69,0,25.94,35,48.59,95.54,48.59a256.33,256.33,0,0,0,45.91-3.91l3.09,4.73c-17.29,15.24-33.56,27.8-49.21,36.45-7.62,2.47-16.06,2.88-24.71,2.88-50.85,0-91-23.47-91-75.36,0-22,8.85-44.68,29.23-68.36C445.86,489.1,435,475.93,435,458.63c0-10.3,2.88-21.62,10.7-35.62,9.68-16.89,26.36-29.24,44.07-29.24,17.5,0,32.32,11.12,44.89,31.71Z" style="fill:#fff"/><text/><path d="M192.66,630.88V571.24l42.63,42.63,18.31-18.31-73.73-73.7-73.72,73.7,18.3,18.31,42.32-42.29v59.35a77.76,77.76,0,0,0,77.69,77.69h53.29v-25.9l-53.29-.05A51.87,51.87,0,0,1,192.66,630.88Z" style="fill:#727272"/><path d="M412.78,138.6H179.72A64.78,64.78,0,0,0,115,203.34V436.4a64.78,64.78,0,0,0,64.74,64.74H296.25V475.25H179.72a38.9,38.9,0,0,1-38.85-38.85V203.34a38.9,38.9,0,0,1,38.85-38.85H412.78a38.9,38.9,0,0,1,38.84,38.85V319.87h25.9V203.34A64.79,64.79,0,0,0,412.78,138.6Z" style="fill:#727272"/><path d="M607,216.29v59.06L564.69,233l-18.31,18.31,73.72,73.75,73.75-73.75L675.52,233,632.9,275.66V216.29a77.77,77.77,0,0,0-77.69-77.69H503.42v25.89h51.79A51.88,51.88,0,0,1,607,216.29Z" style="fill:#727272"/><path d="M620,345.77H388.26a66.1,66.1,0,0,0-54.78,29.13c-3.53,5.79-7.37,11.86-8.8,18.93a66.36,66.36,0,0,0-2.54,18.05V642.2a66.2,66.2,0,0,0,66.12,66.11H618.58a66.2,66.2,0,0,0,66.11-66.11V411.88A65.39,65.39,0,0,0,620,345.77Z" style="fill:#fcc400"/><path d="M579.86,533.45H479.11V587H590.25l-5.41,37.34H434.91V413.64H584.28V451H479.11v45.14H579.86Z" style="fill:#fff"/><path d="M318.54,375.5c-46-1-72.15-18.79-71.72-38.48.35-16.1,27.67-35.06,77.27-50.7,3.49-9.15,6.2-18.79,8.76-28.27l-1.54-1.29c-29.47,10.3-46.7,18.84-50.93,18.75-3.75-.08-9.47-3-15.62-7.85-6.29-5.61-11.48-11.2-11.37-16.2.07-3.29,15.93-13.57,31.72-13.23A40.69,40.69,0,0,1,306.7,245l4.65-5.06c-9.19-15.84-20.26-24.53-33.55-24.82-13.44-.29-26.31,8.81-33.94,21.47-6.17,10.5-8.55,19-8.72,26.86-.29,13.13,7.78,23.32,19.32,32-15.87,17.63-23,34.68-23.34,51.41-.86,39.39,29.23,57.88,67.84,58.72a71,71,0,0,0,15.78-1c.62-10.55,2.51-20.92,9.66-29C322.45,375.55,320.5,375.54,318.54,375.5Z" style="fill:#727272"/></svg>