<svg xmlns="http://www.w3.org/2000/svg" width="109.408" height="63.765" viewBox="294.248 701.235 109.408 63.765"><g data-name="Path 49"><path d="M404.027 726.193c-1.385-3.253-3.631-6.355-5.385-9.426-1.625-2.845-2.763-5.8-6.388-6.357-5.8-.89-12.274-.068-18.16-.054a40.59 40.59 0 0 0-.146-1.825c-.525-4.971-4.16-6.293-8.52-6.293h-58.425c-4.034 0-8.5-.263-10.641 4.023-1.894 3.79-.798 9.923-.798 13.95v23.859c0 2.155-.2 4.393.798 6.388 1.733 3.469 5.019 3.949 8.399 4.013.965 6.387 5.978 11.529 12.814 11.529 6.54 0 12.158-5.125 12.88-11.518h29.232c.97 6.381 5.98 11.518 12.812 11.518 6.542 0 12.158-5.125 12.882-11.518h9.345c3.226 0 7.273.539 8.289-3.441.739-2.895.079-6.551.037-9.492l-.142-9.842c1.625-.918 2.37-2.566 1.117-5.514Zm-13.498-12.937c3.36.425 4.085 2.301 5.612 4.974 1.498 2.624 3.914 5.566 4.822 8.441.944 2.989-.932 3.226-3.294 3.223l-9.283-.011-14.438-.017v-4.863c0-3.837.28-7.832.242-11.751 5.33-.019 11.073-.662 16.339.004Zm-92.068 33.347c-.343-1.835 0-4.04 0-5.903v-19.579c0-3.59-.718-8 0-11.533 1.182-5.814 7.624-4.453 11.446-4.453h53.17c3.466 0 7.146-.729 7.974 3.699.993 5.316 0 11.766 0 17.16v14.186c-6.03.664-10.46 5.452-11.365 11.404h-29.241c-.735-6.175-5.903-11.183-12.243-11.484-7.07-.335-12.425 4.858-13.438 11.469-2.924-.09-5.506-.715-6.303-4.966Zm9.045 6.43c.694-12.89 20.138-13.01 20.138 0 0 13.011-19.444 12.9-20.138 0Zm54.924 0c.694-12.89 20.138-13.01 20.138 0 0 13.011-19.443 12.9-20.138 0Zm37.694-13.611c.043 3.005.84 6.97.143 9.901-.77 3.225-4.451 2.261-7.155 2.261h-7.743c-.702-5.905-5.462-10.729-11.421-11.403v-7.418l19.153.023c1.786.002 4.548.167 6.924-.191l.099 6.827Z" fill-rule="evenodd"/><path d="M404.027 726.193c-1.385-3.253-3.631-6.355-5.385-9.426-1.625-2.845-2.763-5.8-6.388-6.357-5.8-.89-12.274-.068-18.16-.054a40.59 40.59 0 0 0-.146-1.825c-.525-4.971-4.16-6.293-8.52-6.293h-58.425c-4.034 0-8.5-.263-10.641 4.023-1.894 3.79-.798 9.923-.798 13.95v23.859c0 2.155-.2 4.393.798 6.388 1.733 3.469 5.019 3.949 8.399 4.013.965 6.387 5.978 11.529 12.814 11.529 6.54 0 12.158-5.125 12.88-11.518h29.232c.97 6.381 5.98 11.518 12.812 11.518 6.542 0 12.158-5.125 12.882-11.518h9.345c3.226 0 7.273.539 8.289-3.441.739-2.895.079-6.551.037-9.492l-.142-9.842c1.625-.918 2.37-2.566 1.117-5.514Zm-13.498-12.937c3.36.425 4.085 2.301 5.612 4.974 1.498 2.624 3.914 5.566 4.822 8.441.944 2.989-.932 3.226-3.294 3.223l-9.283-.011-14.438-.017v-4.863c0-3.837.28-7.832.242-11.751 5.33-.019 11.073-.662 16.339.004Zm-92.068 33.347c-.343-1.835 0-4.04 0-5.903v-19.579c0-3.59-.718-8 0-11.533 1.182-5.814 7.624-4.453 11.446-4.453h53.17c3.466 0 7.146-.729 7.974 3.699.993 5.316 0 11.766 0 17.16v14.186c-6.03.664-10.46 5.452-11.365 11.404h-29.241c-.735-6.175-5.903-11.183-12.243-11.484-7.07-.335-12.425 4.858-13.438 11.469-2.924-.09-5.506-.715-6.303-4.966Zm9.045 6.43c.694-12.89 20.138-13.01 20.138 0 0 13.011-19.444 12.9-20.138 0Zm54.924 0c.694-12.89 20.138-13.01 20.138 0 0 13.011-19.443 12.9-20.138 0Zm37.694-13.611c.043 3.005.84 6.97.143 9.901-.77 3.225-4.451 2.261-7.155 2.261h-7.743c-.702-5.905-5.462-10.729-11.421-11.403v-7.418l19.153.023c1.786.002 4.548.167 6.924-.191l.099 6.827Z" stroke-linejoin="round" stroke-linecap="round" stroke-width="2" stroke="#000" fill="transparent"/></g></svg>