<?xml version="1.0" encoding="utf-8"?>
<!-- Generator: Adobe Illustrator 25.4.1, SVG Export Plug-In . SVG Version: 6.00 Build 0)  -->
<svg version="1.1" id="Layer_1" xmlns="http://www.w3.org/2000/svg" xmlns:xlink="http://www.w3.org/1999/xlink" x="0px" y="0px"
	 viewBox="0 0 800 800" style="enable-background:new 0 0 800 800;" xml:space="preserve">
<style type="text/css">
	.st0{fill:#FCC400;}
</style>
<g>
	<path class="st0" d="M54.55,370.82c-8.27,3.13-13.36,8.88-13.36,15.09s5.08,11.96,13.36,15.09l646.13,244.62
		c8.32,3.15,18.61,3.17,26.96,0.06c8.37-3.12,13.51-8.9,13.51-15.15V141.29c0-6.26-5.15-12.04-13.51-15.15
		c-8.35-3.11-18.64-3.09-26.96,0.06L54.55,370.82z"/>
	<path class="st0" d="M520.12,194.56l214.1-81.3c3.08-1.17,6.96,0.27,6.96,2.59v540.01c0,2.32-3.87,3.76-6.95,2.59l-214.1-81.18
		V194.56H520.12z"/>
</g>
</svg>
