<?xml version="1.0" encoding="utf-8"?>
<!-- Generator: Adobe Illustrator 25.4.1, SVG Export Plug-In . SVG Version: 6.00 Build 0)  -->
<svg version="1.1" id="Layer_1" xmlns="http://www.w3.org/2000/svg" xmlns:xlink="http://www.w3.org/1999/xlink" x="0px" y="0px"
	 viewBox="0 0 800 800" style="enable-background:new 0 0 800 800;" xml:space="preserve">
<style type="text/css">
	.st0{fill:#FCC400;}
</style>
<g>
	<path class="st0" d="M143.7,370.82c-5.37,3.13-8.67,8.88-8.67,15.09s3.3,11.96,8.67,15.09l419.36,244.62
		c5.4,3.15,12.08,3.17,17.5,0.06c5.43-3.12,8.77-8.9,8.77-15.15V141.29c0-6.26-3.34-12.04-8.77-15.15
		c-5.42-3.11-12.1-3.09-17.5,0.06L143.7,370.82z"/>
	<path class="st0" d="M445.87,194.56l138.96-81.3c2-1.17,4.52,0.27,4.52,2.59v540.01c0,2.32-2.51,3.76-4.51,2.59l-138.96-81.18
		V194.56z"/>
</g>
</svg>
