<svg xmlns="http://www.w3.org/2000/svg" width="139.43" height="90.607" viewBox="582.362 90.706 139.43 90.607"><g data-name="truck"><g data-name="Group_5088"><g data-name="Group_5087"><path d="M614.91 153.434c-7.701 0-13.939 6.237-13.939 13.94 0 7.7 6.238 13.939 13.94 13.939 7.701 0 13.939-6.238 13.939-13.94 0-7.702-6.238-13.94-13.94-13.94Zm0 23.209c-5.122 0-9.304-4.147-9.304-9.27 0-5.123 4.147-9.305 9.305-9.305 5.122 0 9.304 4.147 9.304 9.305-.035 5.123-4.182 9.27-9.304 9.27Z" fill="#fcc400" fill-rule="evenodd" data-name="Path_9370"/></g></g><g data-name="Group_5090"><g data-name="Group_5089"><path d="M693.913 153.434c-7.702 0-13.94 6.237-13.94 13.94 0 7.7 6.238 13.939 13.94 13.939 7.701 0 13.94-6.238 13.94-13.94-.036-7.702-6.273-13.94-13.94-13.94Zm0 23.209c-5.123 0-9.305-4.147-9.305-9.27 0-5.123 4.147-9.305 9.27-9.305 5.123 0 9.305 4.147 9.305 9.27v.035a9.266 9.266 0 0 1-9.27 9.27Z" fill="#fcc400" fill-rule="evenodd" data-name="Path_9371"/></g></g><g data-name="Group_5092"><g data-name="Group_5091"><path d="m721.409 140.54-20.875-32.515a2.312 2.312 0 0 0-1.951-1.08h-25.58c-1.289 0-2.334 1.046-2.334 2.3v58.093c0 1.29 1.045 2.335 2.3 2.335h9.304v-4.635h-6.97v-53.423h21.955l19.864 30.876v22.547h-11.604v4.635h13.939c1.29 0 2.335-1.045 2.335-2.3v-25.544c0-.453-.14-.906-.383-1.29Z" fill="#fcc400" fill-rule="evenodd" data-name="Path_9372"/></g></g><g data-name="Group_5094"><g data-name="Group_5093"><path d="M684.608 137.16v-16.275h18.575v-4.635h-20.91c-1.29 0-2.335 1.045-2.335 2.3v20.874c0 1.29 1.046 2.335 2.3 2.335h34.85v-4.635h-32.48Z" fill="#fcc400" fill-rule="evenodd" data-name="Path_9373"/></g></g><g data-name="Group_5096"><g data-name="Group_5095"><path d="M673.003 90.706h-88.306c-1.29 0-2.3 1.01-2.335 2.3v74.332c0 1.29 1.045 2.335 2.3 2.335h18.574v-4.635h-16.205V95.341h83.638v69.697h-44.154v4.635h46.454c1.29 0 2.335-1.045 2.335-2.3V93.04c0-1.289-1.046-2.334-2.3-2.334Z" fill="#fcc400" fill-rule="evenodd" data-name="Path_9374"/></g></g><g data-name="Group_5098"><g data-name="Group_5097"><path d="M584.697 155.768h13.94v4.635h-13.94v-4.635z" fill="#fcc400" fill-rule="evenodd" data-name="Rectangle_1315"/></g></g><g data-name="Group_5100"><g data-name="Group_5099"><path d="M631.185 155.768h39.484v4.635h-39.484v-4.635z" fill="#fcc400" fill-rule="evenodd" data-name="Rectangle_1316"/></g></g><g data-name="Group_5102"><g data-name="Group_5101"><path d="M710.152 155.768h9.305v4.635h-9.305v-4.635z" fill="#fcc400" fill-rule="evenodd" data-name="Rectangle_1317"/></g></g><g data-name="Group_5104"><g data-name="Group_5103"><path d="M591.666 100.01h81.303v4.635h-81.303v-4.635z" fill="#fcc400" fill-rule="evenodd" data-name="Rectangle_1318"/></g></g><g data-name="Group_5106"><g data-name="Group_5105"><path d="M612.576 165.038h4.635v4.635h-4.635v-4.635z" fill="#fcc400" fill-rule="evenodd" data-name="Rectangle_1319"/></g></g><g data-name="Group_5108"><g data-name="Group_5107"><path d="M691.578 165.038h4.635v4.635h-4.635v-4.635z" fill="#fcc400" fill-rule="evenodd" data-name="Rectangle_1320"/></g></g></g></svg>