<svg id="Layer_1" data-name="Layer 1" xmlns="http://www.w3.org/2000/svg" viewBox="0 0 236.12 231.54"><g id="حاوية"><g id="Path_150" data-name="Path 150"><path d="M237.31,114.36h-1.07a11.09,11.09,0,0,0-11.2-11,11.32,11.32,0,0,0-8.55,3.86C211,105,192.73,97.49,174.44,90c-15.05-6.14-25.14-10.22-31.92-12.92a13.15,13.15,0,0,0,.18-2.17A14.52,14.52,0,0,0,131,60.84V57.42c6.57-.6,8.95-4.22,9.76-7.3,0,0,0-.06,0-.09,1.85-8.46,3-20,4.15-34.7A2.21,2.21,0,0,0,142.83,13H116.52a2.23,2.23,0,0,0-2.26,2.2v.1a206.32,206.32,0,0,0,4.45,36.22,2.29,2.29,0,0,0,.45.91,15.65,15.65,0,0,0,7.28,4.92v3.83a2.16,2.16,0,0,0-.15,3.11A2.3,2.3,0,0,0,128,65a10.1,10.1,0,0,1,10.21,10c0,.15,0,.3,0,.44-9-3.54-9.57-3.61-10-3.64a2.24,2.24,0,0,0-2.55,1.87,2.22,2.22,0,0,0,1.92,2.5h0c.79.2,4.13,1.48,9.21,3.49a10.64,10.64,0,0,1-8.67,3.88,7.67,7.67,0,0,1-7-5.74,1.39,1.39,0,0,0-.1-.33,22,22,0,0,1-.65-3.68,2.26,2.26,0,0,0-4.5.4c.09.87.21,1.79.39,2.74L42.4,107.6a11.38,11.38,0,0,0-15.74-1.85,10.85,10.85,0,0,0-4.29,8.62h-1a9,9,0,0,0-9.1,8.88V233.5a9,9,0,0,0,9.1,8.89h215.9a9,9,0,0,0,9.1-8.89V123.25A9,9,0,0,0,237.31,114.36ZM123,50a198.11,198.11,0,0,1-4.13-32.63h21.33c-1,11.78-2.09,23.54-3.87,31.69-.47,1.76-1.77,4-7.38,4h-.18a2.36,2.36,0,0,0-.54,0A9.56,9.56,0,0,1,123,50Zm4.6,26.12.11,0-.11,0ZM225,107.83a6.62,6.62,0,0,1,6.7,6.53H218.33a6.63,6.63,0,0,1,6.69-6.54ZM117.57,81.11c1.57,3.23,4.49,6,10.09,6.76l.31,0a16.21,16.21,0,0,0,10.27-3.37A12.18,12.18,0,0,0,141,81.28c17.77,7.09,49.41,20,73.27,29.88a10.9,10.9,0,0,0-.49,3.2H44.8a10.74,10.74,0,0,0-.37-2.81Zm-84,26.72a6.61,6.61,0,0,1,6.69,6.53H26.9A6.61,6.61,0,0,1,33.59,107.83ZM241.89,233.5a4.54,4.54,0,0,1-4.58,4.48H21.41a4.54,4.54,0,0,1-4.58-4.48V123.25a4.52,4.52,0,0,1,4.58-4.47h215.9a4.52,4.52,0,0,1,4.58,4.47Z" transform="translate(-11.3 -11.94)" style="fill:#1d1d1b"/><path d="M237.31,113.36h-1.07l1,1a12.1,12.1,0,0,0-7.34-11,12.51,12.51,0,0,0-14.12,3.16l1-.26Q186,93.67,155.2,81.13q-6.21-2.5-12.41-5l.7,1.23a15.61,15.61,0,0,0-12.27-17.5l.74,1V57.42l-1,1c4.31-.44,8.38-2.28,10.17-6.45a24.73,24.73,0,0,0,1.34-5.57c.43-2.39.78-4.78,1.1-7.19.77-5.86,1.32-11.75,1.82-17.65.14-1.62.27-3.24.4-4.86.1-1.33.27-2.62-.72-3.68A3.72,3.72,0,0,0,142.19,12c-5.73,0-11.46,0-17.19,0h-7.65a5,5,0,0,0-2.22.31c-2.66,1.24-1.82,4.76-1.69,7.1a208,208,0,0,0,2.52,23q.48,2.92,1.05,5.85c.32,1.58.41,3.62,1.44,4.92a16.39,16.39,0,0,0,7.72,5.18l-.73-1v3.83l.29-.71a3.22,3.22,0,0,0,.09,4.74,3.75,3.75,0,0,0,2.48.8,10.06,10.06,0,0,1,2.87.55,9.12,9.12,0,0,1,6,8.87l1.26-1c-2.48-1-5-2-7.47-2.88a16.27,16.27,0,0,0-2.24-.73,3.35,3.35,0,0,0-3.81,1.85,3.17,3.17,0,0,0,.56,3.4,5.18,5.18,0,0,0,2.4,1.19c2.93,1,5.79,2.18,8.65,3.31l-.44-1.67a9.66,9.66,0,0,1-8.3,3.56c-3.1-.35-5.11-2.62-5.88-5.51a18.94,18.94,0,0,1-.53-2.8,4.47,4.47,0,0,0-.43-1.76,3.32,3.32,0,0,0-3.06-1.65,3.27,3.27,0,0,0-2.81,2c-.55,1.33-.06,3,.18,4.4l.7-1.23-7.32,3L91,86.27l-21.4,8.91-18.42,7.67-6.07,2.53a13.35,13.35,0,0,0-2.89,1.2.29.29,0,0,1-.13,0l1,.26a12.46,12.46,0,0,0-13-4,12.17,12.17,0,0,0-8.77,11.48l1-1c-3.45,0-6.67,1-8.9,3.78a10,10,0,0,0-2.16,6.25c0,1.52,0,3,0,4.55v105A10.15,10.15,0,0,0,18.62,243a15.05,15.05,0,0,0,4.17.38H230.91a58.3,58.3,0,0,0,7.82-.1,10.12,10.12,0,0,0,8.68-10.22V138.63c0-5,0-10.09,0-15.14a10.16,10.16,0,0,0-10.1-10.13,1,1,0,0,0,0,2,8.13,8.13,0,0,1,8,6.77,12.05,12.05,0,0,1,.08,1.8v93.86c0,5.12,0,10.25,0,15.37a8.12,8.12,0,0,1-8.13,8.23c-.72,0-1.44,0-2.15,0H28c-2.19,0-4.39,0-6.57,0a8.14,8.14,0,0,1-8-6.76,13.85,13.85,0,0,1-.07-1.82V139c0-5.12,0-10.25,0-15.37a8.33,8.33,0,0,1,.9-4c1.69-3.12,4.79-4.25,8.16-4.25a1,1,0,0,0,1-1A10.13,10.13,0,0,1,31,104.74a10.51,10.51,0,0,1,10.71,3.56.93.93,0,0,0,1,.26l7.32-3,17.59-7.32L89,89.28l18.41-7.66c3-1.24,6-2.4,9-3.73l.13-.06a1,1,0,0,0,.7-1.23c-.19-1.08-1-3.54.66-3.86s1.6,2.22,1.81,3.31c.49,2.63,1.44,5,3.63,6.67,4.43,3.34,10.85,1.59,14.22-2.42a1,1,0,0,0-.45-1.67c-2.74-1.08-5.48-2.21-8.27-3.18-.83-.29-2.16-.4-2.15-1.54,0-.91.83-1.19,1.58-1.17.23,0-.25,0-.1,0a15.27,15.27,0,0,1,2.08.67c2.59.93,5.15,2,7.71,3,.63.25,1.25-.38,1.27-1a11.14,11.14,0,0,0-7.77-10.89,27.9,27.9,0,0,0-3.61-.56,1.21,1.21,0,0,1-1.05-1.47c.14-.55.62-.75.7-1.35a30.27,30.27,0,0,0,0-3.81,1,1,0,0,0-.73-1A13.76,13.76,0,0,1,120.1,52c-.84-1.13-.89-3-1.16-4.33-.32-1.64-.62-3.29-.9-4.94q-1.59-9.33-2.31-18.77c-.11-1.51-.21-3-.29-4.55,0-.76-.08-1.52-.11-2.28a6.81,6.81,0,0,1,0-2.25c.29-.86,1.07-.88,1.8-.88h23.47c.63,0,1.27,0,1.9,0,2.1.12,1.33,2.66,1.21,4.1-.45,5.54-.93,11.09-1.56,16.61-.55,4.88-1.21,9.76-2.23,14.57-.95,4.48-4.53,6.74-8.93,7.19a1,1,0,0,0-1,1v3.42a1,1,0,0,0,.73,1c6.9,1.49,11.92,7.9,10.87,15a1,1,0,0,0,.7,1.23c20.72,8.25,41.35,16.75,62,25.23l12,4.93a1,1,0,0,0,1-.26,10.55,10.55,0,0,1,12-2.72,10.09,10.09,0,0,1,6.06,9.1,1,1,0,0,0,1,1h1.07A1,1,0,0,0,237.31,113.36Z" transform="translate(-11.3 -11.94)" style="fill:#1d1d1b"/><path d="M124,49.73a196.23,196.23,0,0,1-3.65-25.19c-.19-2.39-.33-4.78-.44-7.18l-1,1h21.33l-1-1c-.55,6.76-1.13,13.51-2,20.23-.36,2.85-.78,5.69-1.31,8.52a23.73,23.73,0,0,1-.67,3.12,4.2,4.2,0,0,1-.78,1.28,4.93,4.93,0,0,1-2.35,1.24c-1.37.36-2.76.19-4.14.43h.53a9,9,0,0,1-4.79-2.89c-.84-1-2.25.44-1.41,1.41a10.62,10.62,0,0,0,4.09,2.91,9.93,9.93,0,0,0,1.2.4,4.09,4.09,0,0,0,1.21.08,18.84,18.84,0,0,0,2.37-.14c2.2-.29,4.49-1.16,5.59-3.23a10.64,10.64,0,0,0,.87-3c.33-1.66.62-3.33.87-5,.58-3.75,1-7.52,1.43-11.3.5-4.68.9-9.38,1.28-14.08a1,1,0,0,0-1-1H118.88a1,1,0,0,0-1,1,199.87,199.87,0,0,0,2.78,25.71c.41,2.4.88,4.8,1.38,7.19C122.31,51.52,124.24,51,124,49.73Z" transform="translate(-11.3 -11.94)" style="fill:#1d1d1b"/><path d="M127.61,77.11l.11,0v-2h0l.27,0h-.08a1,1,0,0,0-.53,0,.75.75,0,0,0-.34.18.78.78,0,0,0-.26.28,1,1,0,0,0-.13.5h0a1,1,0,0,0,1,1l.26,0a1.13,1.13,0,0,0,.45-.26l.15-.2a1,1,0,0,0,.14-.51h0l-1.27,1h.08l.27,0h0a.79.79,0,0,0,.38-.09.72.72,0,0,0,.33-.21.76.76,0,0,0,.2-.32.71.71,0,0,0,.09-.38l0-.27a1,1,0,0,0-.25-.44l-.21-.16a1,1,0,0,0-.5-.13l-.11,0a.86.86,0,0,0-.39.09.75.75,0,0,0-.32.21.69.69,0,0,0-.21.32.73.73,0,0,0-.08.38l0,.27a1,1,0,0,0,.26.44l.2.16A1,1,0,0,0,127.61,77.11Z" transform="translate(-11.3 -11.94)" style="fill:#1d1d1b"/><path d="M225,108.83a5.69,5.69,0,0,1,5.7,5.53l1-1H218.33l1,1a5.69,5.69,0,0,1,5.69-5.54l-1-.73h0c.41,1.21,2.34.69,1.93-.53h0a1,1,0,0,0-1-.74,7.73,7.73,0,0,0-7.69,7.54,1,1,0,0,0,1,1h13.39a1,1,0,0,0,1-1,7.72,7.72,0,0,0-7.7-7.53A1,1,0,0,0,225,108.83Z" transform="translate(-11.3 -11.94)" style="fill:#1d1d1b"/><path d="M116.71,81.61a13.42,13.42,0,0,0,10.54,7.2,15.51,15.51,0,0,0,8.23-1.47,14,14,0,0,0,6.41-5.56l-1.13.46q13,5.17,25.9,10.46Q182,99,197.37,105.27L214,112.13l-.7-1.23a12.67,12.67,0,0,0-.53,3.46l1-1H51.65c-2.17,0-4.39-.12-6.57,0a2.61,2.61,0,0,1-.28,0l1,1a12.75,12.75,0,0,0-.41-3.07l-.7,1.23,7.31-3,17.47-7.27,21.11-8.79,18.25-7.6,8.88-3.7.13-.05c1.17-.49.66-2.42-.53-1.93l-7.31,3L92.53,90.45,71.42,99.24l-18.25,7.6-8.88,3.7-.13,0a1,1,0,0,0-.7,1.23,10.36,10.36,0,0,1,.34,2.54,1,1,0,0,0,1,1H207c2.19,0,4.38,0,6.57,0h.28a1,1,0,0,0,1-1,10.73,10.73,0,0,1,.46-2.93,1,1,0,0,0-.7-1.23Q199.45,104,184.33,97.77q-14.75-6-29.51-12-6.75-2.73-13.53-5.44a1,1,0,0,0-1.12.46,12.18,12.18,0,0,1-5.57,4.78,13.39,13.39,0,0,1-7.39,1.25,11.44,11.44,0,0,1-8.77-6.2C117.87,79.45,116.14,80.46,116.71,81.61Z" transform="translate(-11.3 -11.94)" style="fill:#1d1d1b"/><path d="M33.59,108.83a5.67,5.67,0,0,1,5.69,5.53l1-1H26.9l1,1a5.67,5.67,0,0,1,5.69-5.53,1,1,0,0,0,0-2,7.71,7.71,0,0,0-7.69,7.53,1,1,0,0,0,1,1H40.28a1,1,0,0,0,1-1,7.71,7.71,0,0,0-7.69-7.53A1,1,0,0,0,33.59,108.83Z" transform="translate(-11.3 -11.94)" style="fill:#1d1d1b"/><path d="M240.89,233.5c-.13,3.63-3.45,3.48-6,3.48H22.31c-.3,0-.6,0-.9,0a3.59,3.59,0,0,1-3.58-3.52c0-.23,0-.47,0-.7V124.83a11.65,11.65,0,0,1,.06-2.21c.36-2,2.15-2.83,4-2.84s3.85,0,5.78,0H233.94a30.9,30.9,0,0,1,3.85,0c2.31.31,3.1,2.27,3.1,4.28V233.5a1,1,0,0,0,2,0V123.66a5.64,5.64,0,0,0-5.11-5.85c-1.29-.12-2.62,0-3.91,0H26.49c-1.64,0-3.28,0-4.92,0a5.64,5.64,0,0,0-5.74,5.48c0,.61,0,1.23,0,1.85V224c0,3.06,0,6.12,0,9.18A5.66,5.66,0,0,0,21.41,239c.31,0,.61,0,.92,0H237.15a5.65,5.65,0,0,0,5.74-5.48C242.94,232.22,240.94,232.22,240.89,233.5Z" transform="translate(-11.3 -11.94)" style="fill:#1d1d1b"/></g><g id="Path_151" data-name="Path 151"><path d="M37.85,133.66a2.23,2.23,0,0,0-2.26,2.21V221a2.26,2.26,0,0,0,4.52,0V135.87a2.23,2.23,0,0,0-2.25-2.21Z" transform="translate(-11.3 -11.94)" style="fill:#1d1d1b"/><path d="M37.85,132.66A3.31,3.31,0,0,0,34.59,136v82.59a25.44,25.44,0,0,0,0,2.76,3.26,3.26,0,0,0,6.49-.34c0-.22,0-.45,0-.67V139.54c0-1.18,0-2.36,0-3.54a3.29,3.29,0,0,0-3.26-3.34,1,1,0,0,0,0,2c1.58,0,1.26,1.92,1.26,3v80.51c0,1,0,1.92,0,2.87a1.26,1.26,0,0,1-2.52,0c0-.3,0-.6,0-.89v-84a1.32,1.32,0,0,1,1.26-1.5C39.13,134.62,39.14,132.62,37.85,132.66Z" transform="translate(-11.3 -11.94)" style="fill:#1d1d1b"/></g><g id="Path_152" data-name="Path 152"><path d="M57.22,133.66A2.23,2.23,0,0,0,55,135.87V221a2.27,2.27,0,0,0,4.53,0V135.87a2.24,2.24,0,0,0-2.26-2.21Z" transform="translate(-11.3 -11.94)" style="fill:#1d1d1b"/><path d="M57.22,132.66A3.31,3.31,0,0,0,54,136v82.59a25.44,25.44,0,0,0,0,2.76,3.26,3.26,0,0,0,6.5-.34V139.54c0-1.18,0-2.36,0-3.54a3.29,3.29,0,0,0-3.27-3.34,1,1,0,0,0,0,2c1.58,0,1.27,1.92,1.27,3v80.51c0,1,0,1.92,0,2.87A1.27,1.27,0,0,1,56,221c0-.3,0-.6,0-.89v-84a1.32,1.32,0,0,1,1.26-1.5C58.5,134.62,58.51,132.62,57.22,132.66Z" transform="translate(-11.3 -11.94)" style="fill:#1d1d1b"/></g><g id="Path_153" data-name="Path 153"><path d="M75.42,133.66a2.23,2.23,0,0,0-2.26,2.21V221a2.26,2.26,0,0,0,4.52,0V135.87a2.23,2.23,0,0,0-2.25-2.21Z" transform="translate(-11.3 -11.94)" style="fill:#1d1d1b"/><path d="M75.42,132.66A3.31,3.31,0,0,0,72.16,136v82.59a25.44,25.44,0,0,0,0,2.76,3.26,3.26,0,0,0,6.49-.34c0-.22,0-.45,0-.67V139.54c0-1.18,0-2.36,0-3.54a3.28,3.28,0,0,0-3.26-3.34,1,1,0,0,0,0,2c1.58,0,1.26,1.92,1.26,3v80.51c0,1,0,1.92,0,2.87a1.26,1.26,0,0,1-2.52,0c0-.3,0-.6,0-.89v-84a1.32,1.32,0,0,1,1.26-1.5C76.7,134.62,76.71,132.62,75.42,132.66Z" transform="translate(-11.3 -11.94)" style="fill:#1d1d1b"/></g><g id="Path_154" data-name="Path 154"><path d="M93,133.66a2.23,2.23,0,0,0-2.25,2.21V221a2.26,2.26,0,0,0,4.52,0V135.87a2.24,2.24,0,0,0-2.25-2.21Z" transform="translate(-11.3 -11.94)" style="fill:#1d1d1b"/><path d="M93,132.66A3.3,3.3,0,0,0,89.78,136c0,.42,0,.84,0,1.26v81.33a25.43,25.43,0,0,0,0,2.76,3.26,3.26,0,0,0,6.5-.34c0-.22,0-.45,0-.67V139.54c0-1.18,0-2.36,0-3.54A3.29,3.29,0,0,0,93,132.66a1,1,0,0,0,0,2c1.58,0,1.27,1.92,1.27,3v80.51c0,1,0,1.92,0,2.87a1.26,1.26,0,0,1-2.52,0c0-.3,0-.6,0-.89v-84c0-.78.36-1.46,1.25-1.5C94.32,134.62,94.32,132.62,93,132.66Z" transform="translate(-11.3 -11.94)" style="fill:#1d1d1b"/></g><g id="Path_155" data-name="Path 155"><path d="M112.41,133.66a2.23,2.23,0,0,0-2.26,2.21V221a2.26,2.26,0,0,0,4.52,0V135.87a2.23,2.23,0,0,0-2.25-2.21Z" transform="translate(-11.3 -11.94)" style="fill:#1d1d1b"/><path d="M112.41,132.66a3.31,3.31,0,0,0-3.26,3.36v82.59a25.44,25.44,0,0,0,0,2.76,3.26,3.26,0,0,0,6.49-.34c0-.22,0-.45,0-.67V139.54c0-1.18,0-2.36,0-3.54a3.29,3.29,0,0,0-3.26-3.34,1,1,0,0,0,0,2c1.58,0,1.26,1.92,1.26,3v80.51c0,1,0,1.92,0,2.87a1.26,1.26,0,0,1-2.52,0c0-.3,0-.6,0-.89v-84a1.32,1.32,0,0,1,1.26-1.5C113.69,134.62,113.7,132.62,112.41,132.66Z" transform="translate(-11.3 -11.94)" style="fill:#1d1d1b"/></g><g id="Path_156" data-name="Path 156"><path d="M129.87,133.66a2.23,2.23,0,0,0-2.26,2.21V221a2.27,2.27,0,0,0,4.53,0V135.87a2.24,2.24,0,0,0-2.26-2.21Z" transform="translate(-11.3 -11.94)" style="fill:#1d1d1b"/><path d="M129.87,132.66a3.31,3.31,0,0,0-3.26,3.36v82.59a25.44,25.44,0,0,0,0,2.76,3.26,3.26,0,0,0,6.5-.34V139.54c0-1.18,0-2.36,0-3.54a3.29,3.29,0,0,0-3.27-3.34,1,1,0,0,0,0,2c1.58,0,1.27,1.92,1.27,3v80.51c0,1,0,1.92,0,2.87a1.27,1.27,0,0,1-2.53,0c0-.3,0-.6,0-.89v-84a1.32,1.32,0,0,1,1.26-1.5C131.15,134.62,131.16,132.62,129.87,132.66Z" transform="translate(-11.3 -11.94)" style="fill:#1d1d1b"/></g><g id="Path_157" data-name="Path 157"><path d="M147.34,133.59a2.23,2.23,0,0,0-2.26,2.2V221a2.26,2.26,0,0,0,4.52,0V135.79a2.23,2.23,0,0,0-2.25-2.2Z" transform="translate(-11.3 -11.94)" style="fill:#1d1d1b"/><path d="M147.34,132.59a3.31,3.31,0,0,0-3.26,3.36v82.59a25.44,25.44,0,0,0,0,2.76,3.26,3.26,0,0,0,6.49-.34c0-.22,0-.45,0-.67V139.47c0-1.18,0-2.37,0-3.55a3.29,3.29,0,0,0-3.26-3.33,1,1,0,0,0,0,2c1.58,0,1.26,1.91,1.26,2.95v80.52c0,.95,0,1.92,0,2.87a1.26,1.26,0,0,1-2.52,0c0-.3,0-.6,0-.89V136.09a1.32,1.32,0,0,1,1.26-1.5C148.62,134.54,148.63,132.54,147.34,132.59Z" transform="translate(-11.3 -11.94)" style="fill:#1d1d1b"/></g><g id="Path_158" data-name="Path 158"><path d="M166.71,133.59a2.23,2.23,0,0,0-2.26,2.2V221a2.26,2.26,0,0,0,4.52,0V135.79a2.23,2.23,0,0,0-2.25-2.2Z" transform="translate(-11.3 -11.94)" style="fill:#1d1d1b"/><path d="M166.71,132.59a3.31,3.31,0,0,0-3.26,3.36v82.59a25.44,25.44,0,0,0,0,2.76A3.26,3.26,0,0,0,170,221c0-.22,0-.45,0-.67V139.47c0-1.18,0-2.37,0-3.55a3.29,3.29,0,0,0-3.26-3.33,1,1,0,0,0,0,2c1.58,0,1.26,1.91,1.26,2.95v80.52c0,.95,0,1.92,0,2.87a1.26,1.26,0,0,1-2.52,0c0-.3,0-.6,0-.89V136.09a1.32,1.32,0,0,1,1.26-1.5C168,134.54,168,132.54,166.71,132.59Z" transform="translate(-11.3 -11.94)" style="fill:#1d1d1b"/></g><g id="Path_159" data-name="Path 159"><path d="M184.91,133.59a2.23,2.23,0,0,0-2.25,2.2V221a2.26,2.26,0,0,0,4.52,0V135.79a2.23,2.23,0,0,0-2.26-2.2Z" transform="translate(-11.3 -11.94)" style="fill:#1d1d1b"/><path d="M184.91,132.59a3.29,3.29,0,0,0-3.25,3.36c0,.42,0,.84,0,1.26v81.33a25.43,25.43,0,0,0,0,2.76,3.26,3.26,0,0,0,6.5-.34V139.47c0-1.18,0-2.37,0-3.55a3.29,3.29,0,0,0-3.27-3.33,1,1,0,0,0,0,2c1.58,0,1.27,1.91,1.27,2.95v80.52c0,.95,0,1.92,0,2.87a1.26,1.26,0,0,1-2.52,0c0-.3,0-.6,0-.89V136.09c0-.78.36-1.47,1.25-1.5C186.19,134.54,186.2,132.54,184.91,132.59Z" transform="translate(-11.3 -11.94)" style="fill:#1d1d1b"/></g><g id="Path_160" data-name="Path 160"><path d="M202.82,133.66a2.23,2.23,0,0,0-2.26,2.21V221a2.26,2.26,0,0,0,4.52,0V135.87a2.23,2.23,0,0,0-2.25-2.21Z" transform="translate(-11.3 -11.94)" style="fill:#1d1d1b"/><path d="M202.82,132.66a3.31,3.31,0,0,0-3.26,3.36v82.59a25.44,25.44,0,0,0,0,2.76,3.26,3.26,0,0,0,6.49-.34c0-.22,0-.45,0-.67V139.54c0-1.18,0-2.36,0-3.54a3.29,3.29,0,0,0-3.26-3.34,1,1,0,0,0,0,2c1.58,0,1.26,1.92,1.26,3v80.51c0,1,0,1.92,0,2.87a1.26,1.26,0,0,1-2.52,0c0-.3,0-.6,0-.89v-84a1.32,1.32,0,0,1,1.26-1.5C204.1,134.62,204.11,132.62,202.82,132.66Z" transform="translate(-11.3 -11.94)" style="fill:#1d1d1b"/></g><g id="Path_161" data-name="Path 161"><path d="M220.72,133.59a2.23,2.23,0,0,0-2.25,2.2V221a2.26,2.26,0,0,0,4.52,0V135.79a2.23,2.23,0,0,0-2.26-2.2Z" transform="translate(-11.3 -11.94)" style="fill:#1d1d1b"/><path d="M220.72,132.59a3.3,3.3,0,0,0-3.25,3.36v82.59a23.13,23.13,0,0,0,0,2.76A3.26,3.26,0,0,0,224,221c0-.22,0-.45,0-.67V139.47c0-1.18,0-2.37,0-3.55a3.29,3.29,0,0,0-3.27-3.33,1,1,0,0,0,0,2c1.59,0,1.27,1.91,1.27,2.95v80.52c0,.95,0,1.92,0,2.87a1.26,1.26,0,0,1-2.52,0c0-.3,0-.6,0-.89V136.09c0-.78.36-1.47,1.25-1.5C222,134.54,222,132.54,220.72,132.59Z" transform="translate(-11.3 -11.94)" style="fill:#1d1d1b"/></g></g></svg>