<svg width="31" height="30" viewBox="0 0 31 30" fill="none" xmlns="http://www.w3.org/2000/svg">
<path d="M15.7167 0.131836H15.6487C7.41956 0.131836 0.748535 6.80287 0.748535 15.032V15.1C0.748535 23.3291 7.41956 30.0002 15.6487 30.0002H15.7167C23.9458 30.0002 30.6169 23.3291 30.6169 15.1V15.032C30.6169 6.80287 23.9458 0.131836 15.7167 0.131836Z" fill="white"/>
<path d="M18.5938 19.4338C14.7712 19.4338 11.6612 16.3227 11.6602 12.5001C11.6612 11.5311 12.4502 10.7432 13.4171 10.7432C13.5165 10.7432 13.6149 10.7515 13.7091 10.7683C13.9163 10.8028 14.113 10.8729 14.294 10.9786C14.3202 10.9943 14.338 11.0194 14.3422 11.0487L14.7461 13.5947C14.7513 13.624 14.7419 13.6543 14.722 13.6763C14.4991 13.9233 14.2145 14.1012 13.8974 14.1901L13.7447 14.233L13.8022 14.3806C14.3233 15.7074 15.3844 16.7675 16.7123 17.2907L16.8599 17.3493L16.9028 17.1965C16.9917 16.8794 17.1696 16.5948 17.4166 16.3719C17.4344 16.3552 17.4584 16.3468 17.4825 16.3468C17.4877 16.3468 17.493 16.3468 17.4993 16.3479L20.0452 16.7518C20.0756 16.757 20.1007 16.7738 20.1164 16.7999C20.221 16.9809 20.2911 17.1787 20.3267 17.3859C20.3435 17.478 20.3508 17.5753 20.3508 17.6768C20.3508 18.6448 19.5628 19.4327 18.5938 19.4338Z" fill="#333333"/>
<path d="M25.3728 14.2275C25.1667 11.8982 24.0993 9.73727 22.3675 8.14355C20.6252 6.54042 18.3649 5.65723 16.001 5.65723C10.8128 5.65723 6.59146 9.87853 6.59146 15.0667C6.59146 16.808 7.07176 18.5043 7.98111 19.9818L5.95312 24.471L12.4462 23.7793C13.5753 24.2419 14.7704 24.4763 15.9999 24.4763C16.3233 24.4763 16.655 24.4595 16.9878 24.425C17.2808 24.3936 17.5769 24.3476 17.8678 24.289C22.2126 23.411 25.3843 19.5549 25.4095 15.117V15.0667C25.4095 14.7842 25.3969 14.5017 25.3718 14.2286L25.3728 14.2275ZM12.6963 21.8089L9.10394 22.1919L10.1765 19.8155L9.96201 19.5277C9.94632 19.5068 9.93062 19.4858 9.91283 19.4618C8.98151 18.1757 8.48968 16.6563 8.48968 15.0678C8.48968 10.926 11.8592 7.5565 16.001 7.5565C19.8811 7.5565 23.1701 10.5838 23.4872 14.4483C23.5039 14.6555 23.5133 14.8637 23.5133 15.0688C23.5133 15.1274 23.5123 15.185 23.5112 15.2467C23.4317 18.7115 21.0113 21.654 17.625 22.4033C17.3666 22.4608 17.1018 22.5048 16.8381 22.5331C16.564 22.5644 16.2825 22.5801 16.0031 22.5801C15.0079 22.5801 14.041 22.3876 13.1275 22.0067C13.026 21.9659 12.9266 21.9219 12.8334 21.8769L12.6974 21.811L12.6963 21.8089Z" fill="#333333"/>
</svg>
