<?xml version="1.0" encoding="utf-8"?>
<!-- Generator: Adobe Illustrator 24.1.0, SVG Export Plug-In . SVG Version: 6.00 Build 0)  -->
<svg version="1.1" id="Layer_1" xmlns="http://www.w3.org/2000/svg" xmlns:xlink="http://www.w3.org/1999/xlink" x="0px" y="0px"
	 viewBox="0 0 3537 1096" style="enable-background:new 0 0 3537 1096;" xml:space="preserve">
<style type="text/css">
	.st0{fill:none;stroke:#666666;stroke-miterlimit:10;}
	.st1{fill:#FFC400;}
	.st2{fill:#3F4044;}
	.st3{fill:#333333;}
	.st4{fill:none;stroke:#000000;stroke-width:5;stroke-miterlimit:10;}
</style>
<path class="st0" d="M1421.4,904.2"/>
<path class="st0" d="M1054.3,904.2"/>
<g>
	<polyline class="st1" points="1500.7,559.2 1328.4,928.5 1673,928.5 	"/>
	<polygon class="st2" points="1184.9,170 920.1,754.6 1003.3,933.5 1351.8,170 	"/>
	<polygon class="st2" points="527,169 180.8,933.3 345,933.3 693.9,169 	"/>
	<polyline class="st1" points="831.4,563.7 659.1,933 1003.7,933 	"/>
</g>
<g>
	<path class="st3" d="M1880.7,717.3h-58.5l-8.7,18.1c-1.2,2.5-1.8,4.5-1.8,5.9c0,2.8,2.1,4.7,6.3,5.7v3h-42.5v-3
		c2.5-0.5,4.4-1.4,5.7-2.6c1.3-1.3,2.8-3.7,4.5-7.4l47.3-98.9c1.5-3.1,2.3-5.7,2.3-7.5c0-2.9-1.8-5-5.5-6.2v-3h45.6v3
		c-3.7,1.1-5.6,2.9-5.6,5.6c0,1.8,0.6,3.9,1.8,6.2l49,99.1c2.1,4.2,3.9,7.1,5.5,8.6c1.6,1.5,3.7,2.6,6.3,3.1v3h-47.4v-3
		c4.2-0.7,6.2-2.6,6.2-5.8c0-1.3-0.6-3.3-1.9-5.8L1880.7,717.3z M1872.6,699.6l-20.9-45.8l-21.2,45.8H1872.6z"/>
	<path class="st3" d="M2044.3,712.2l15.9,23.3l-2.2,1.6c-1.5-1.1-2.7-1.6-3.6-1.6c-1.1,0-3.5,1.2-7.4,3.5c-8.6,5-16.2,8.5-22.8,10.5
		c-6.6,1.9-14.2,2.9-22.8,2.9c-17.2,0-31.3-4.1-42.1-12.3c-6.2-4.7-11.1-10.6-14.7-17.7c-3.9-7.7-5.8-16-5.8-25
		c0-12.4,3.6-23.3,10.7-32.8c11.2-14.8,28.5-22.2,51.7-22.2c8.6,0,16.3,1,22.9,2.9c6.7,1.9,14.3,5.4,22.9,10.5
		c3.9,2.3,6.4,3.5,7.4,3.5c0.9,0,2.1-0.5,3.6-1.6l2.2,1.7l-15.9,23.1l-2.1-1.5c0.1-0.8,0.1-1.2,0.2-1.4c0.1-0.6,0.1-1,0.1-1.2
		c0-3.1-4.2-6.5-12.7-10.4c-8-3.7-16.1-5.5-24.3-5.5c-11.4,0-20.9,3-28.3,9c-8.5,6.8-12.7,15.4-12.7,26c0,10.7,4.2,19.4,12.7,26.1
		c7.5,6,16.9,8.9,28.3,8.9c8.9,0,17.8-2.2,26.7-6.7c6.9-3.5,10.4-6.6,10.4-9.2c0-0.1-0.1-1-0.3-2.6L2044.3,712.2z"/>
	<path class="st3" d="M2106.9,706.7v33.7c0,1.9,0.4,3.4,1.3,4.5c0.9,1,2.5,1.9,4.7,2.6v2.6h-37.3v-2.6c2.2-0.6,3.8-1.4,4.7-2.5
		c0.9-1.1,1.4-2.6,1.4-4.5v-86.3c0-1.9-0.4-3.4-1.3-4.4c-0.9-1-2.5-1.9-4.7-2.5v-2.6h69.2c9,0,15.8,0.5,20.5,1.4
		c4.7,0.9,8.9,2.6,12.6,4.9c7.6,5,11.4,13.1,11.4,24.3c0,8.5-2.3,15.2-7,20c-4.7,4.8-12.2,8.3-22.7,10.4l20,27.8
		c3.6,5.1,6.5,8.6,8.7,10.5c2.2,1.8,4.6,3,7.4,3.5v2.6h-44.4v-2.6c3.3-0.9,4.9-2.3,4.9-4.2c0-1.4-1-3.5-3-6.3l-21.1-30.2H2106.9z
		 M2106.9,687.6h38.1c5.8,0,10.1-0.6,12.8-1.9c3.9-1.7,5.8-5.1,5.8-10.1c0-4.5-1.4-7.6-4.1-9.3c-2.7-1.8-7.6-2.6-14.6-2.6h-38.1
		V687.6z"/>
	<path class="st3" d="M2267.5,642.2c16.8,0,30.8,4.3,42,12.8c13.4,10.3,20.1,24.7,20.1,43.1c0,17.3-6.7,31.1-20.1,41.4
		c-11.1,8.5-25,12.8-41.8,12.8s-30.7-4.3-41.8-12.8c-13.5-10.3-20.2-24.4-20.2-42.2c0-18,6.7-32.1,20.2-42.2
		C2237,646.7,2250.9,642.4,2267.5,642.2z M2267.6,662.2c-10.9,0-19.8,3.5-26.6,10.5c-6.4,6.5-9.5,14.7-9.5,24.6
		c0,9.8,3.2,18,9.5,24.5c6.9,7,15.8,10.6,26.7,10.6c10.9,0,19.8-3.5,26.6-10.6c6.4-6.5,9.5-14.5,9.5-24c0-10.4-3.2-18.7-9.5-25.1
		C2287.4,665.8,2278.5,662.3,2267.6,662.2z"/>
	<path class="st3" d="M2447.2,654l-12.7,24.6l-2.3-1.2c0-2.1-0.7-3.7-2-4.9c-3.6-3.2-8.9-5.8-15.8-7.9c-7-2.1-14-3.1-21.2-3.1
		c-6.1,0-11.5,0.8-16.2,2.5c-6.8,2.4-10.2,6-10.2,10.6c0,3.1,1.6,5.3,4.9,6.5c3.3,1.3,9.6,2.3,18.9,3.1l14.9,1.1
		c13,1,22.9,3.5,29.7,7.5c3.8,2.3,6.9,5.3,9.3,9c3.1,4.7,4.6,10,4.6,15.9c0,10.7-4.8,19.2-14.5,25.4c-9.2,6-21.7,9-37.5,9
		c-15.9,0-31.3-3.4-46.1-10.1c-1-0.4-1.9-0.7-2.5-0.7c-1.3,0-2.4,0.8-3.5,2.3l-2.4-0.9l10.8-25.8l2.4,0.9c0,0.4,0,0.6,0,0.8
		c0,1.6,0.6,3,1.9,4.1c3.1,2.8,8.6,5.2,16.3,7.2c7.7,2,15.4,3.1,22.9,3.1c6.7,0,12.6-0.9,17.9-2.6c6.5-2.1,9.8-5.6,9.8-10.4
		c0-3.8-2.3-6.5-6.8-8c-3-1-8.5-1.9-16.3-2.5l-14.8-1.2c-8-0.6-14.1-1.4-18.3-2.5c-4.2-1-7.9-2.5-11-4.4c-4-2.5-7.2-5.9-9.4-10.3
		s-3.4-9.1-3.4-14.2c0-11.6,5-20.4,14.9-26.5c9-5.5,20.2-8.3,33.5-8.3c7.2,0,14,0.8,20.2,2.4c6.3,1.6,13.7,4.4,22.4,8.4
		c2.6,1.2,4.4,1.8,5.4,1.8c1,0,2.3-0.7,3.9-2.1L2447.2,654z"/>
	<path class="st3" d="M2566,654l-12.7,24.6l-2.3-1.2c0-2.1-0.7-3.7-2-4.9c-3.6-3.2-8.9-5.8-15.8-7.9c-7-2.1-14-3.1-21.2-3.1
		c-6.1,0-11.5,0.8-16.2,2.5c-6.8,2.4-10.2,6-10.2,10.6c0,3.1,1.6,5.3,4.9,6.5c3.3,1.3,9.6,2.3,18.9,3.1l14.9,1.1
		c13,1,22.9,3.5,29.7,7.5c3.8,2.3,6.9,5.3,9.3,9c3.1,4.7,4.6,10,4.6,15.9c0,10.7-4.8,19.2-14.5,25.4c-9.2,6-21.7,9-37.5,9
		c-15.9,0-31.3-3.4-46.1-10.1c-1-0.4-1.9-0.7-2.5-0.7c-1.3,0-2.4,0.8-3.5,2.3l-2.4-0.9l10.8-25.8l2.4,0.9c0,0.4,0,0.6,0,0.8
		c0,1.6,0.6,3,1.9,4.1c3.1,2.8,8.6,5.2,16.3,7.2c7.7,2,15.4,3.1,22.9,3.1c6.7,0,12.6-0.9,17.9-2.6c6.5-2.1,9.8-5.6,9.8-10.4
		c0-3.8-2.3-6.5-6.8-8c-3-1-8.5-1.9-16.3-2.5l-14.8-1.2c-8-0.6-14.1-1.4-18.3-2.5c-4.2-1-7.9-2.5-11-4.4c-4-2.5-7.2-5.9-9.4-10.3
		s-3.4-9.1-3.4-14.2c0-11.6,5-20.4,14.9-26.5c9-5.5,20.2-8.3,33.5-8.3c7.2,0,14,0.8,20.2,2.4c6.3,1.6,13.7,4.4,22.4,8.4
		c2.6,1.2,4.4,1.8,5.4,1.8c1,0,2.3-0.7,3.9-2.1L2566,654z"/>
	<path class="st1" d="M2713.2,750l-47.4-88.9v79c0,1.9,0.4,3.4,1.3,4.4c0.9,1,2.5,1.8,4.7,2.5v3h-37.8v-3c2.3-0.6,3.8-1.4,4.7-2.5
		c0.9-1,1.3-2.5,1.3-4.4V631.2c0-1.9-0.4-3.3-1.3-4.3c-0.9-1-2.5-1.8-4.7-2.4v-3h49.6v3c-3,0.8-4.4,2.5-4.4,5.2
		c0,1.3,0.4,2.7,1.3,4.3l35.1,66.5l35.6-65.4c1.6-2.9,2.4-5,2.4-6.3c0-2.6-1.6-4-4.7-4.3v-3h48.6v3c-2.3,0.6-3.8,1.4-4.7,2.4
		c-0.9,1-1.3,2.5-1.3,4.3v108.9c0,1.9,0.4,3.4,1.3,4.4c0.9,1,2.5,1.8,4.7,2.5v3h-40.1v-3c2.2-0.6,3.8-1.4,4.7-2.4
		c0.9-1,1.4-2.5,1.4-4.5v-79L2713.2,750z"/>
	<path class="st1" d="M2854.6,693.6v35.2h82.7c1.9,0,3.3-0.4,4.3-1.3c1-0.9,1.8-2.4,2.5-4.7h3v33.3h-3c-0.6-2.3-1.4-3.8-2.5-4.7
		c-1-0.9-2.5-1.3-4.3-1.3h-116.9v-3c2.3-0.6,3.8-1.4,4.7-2.5c0.9-1,1.3-2.5,1.3-4.4V631.3c0-1.9-0.4-3.4-1.3-4.4
		c-0.9-1-2.5-1.8-4.7-2.4v-3H2935c1.9,0,3.3-0.4,4.3-1.3c1-0.9,1.8-2.5,2.5-4.7h3v33.3h-3c-0.6-2.2-1.4-3.8-2.5-4.7
		c-1-0.9-2.5-1.3-4.3-1.3h-80.5v30.5h52.2c1.9,0,3.3-0.4,4.3-1.3c1-0.9,1.8-2.5,2.5-4.7h3v32.5h-3c-0.6-2.2-1.4-3.8-2.5-4.7
		c-1-0.9-2.5-1.4-4.3-1.4H2854.6z"/>
	<path class="st1" d="M2998.8,661.9v78.2c0,1.9,0.4,3.4,1.3,4.4c0.9,1,2.5,1.8,4.7,2.5v3h-37.8v-3c2.3-0.6,3.8-1.4,4.7-2.5
		c0.9-1,1.3-2.5,1.3-4.4V631.2c0-1.9-0.4-3.3-1.3-4.3c-0.9-1-2.5-1.8-4.7-2.4v-3h43.7v3c-2.7,0.7-4.1,2.1-4.1,4.3
		c0,1.5,0.9,3.2,2.6,5l71,73.8v-76.3c0-1.9-0.4-3.3-1.3-4.3c-0.9-1-2.5-1.8-4.7-2.4v-3h37.8v3c-2.3,0.6-3.8,1.4-4.7,2.4
		c-0.9,1-1.3,2.5-1.3,4.3v108.9c0,1.9,0.4,3.4,1.3,4.4c0.9,1,2.5,1.8,4.7,2.5v3h-40.5v-3c2.6-0.6,4-1.9,4-4.1c0-1.3-1.5-3.5-4.6-6.6
		L2998.8,661.9z"/>
	<path class="st1" d="M3229.5,717.3h-58.5l-8.7,18.1c-1.2,2.5-1.8,4.5-1.8,5.9c0,2.8,2.1,4.7,6.3,5.7v3h-42.5v-3
		c2.5-0.5,4.4-1.4,5.7-2.6c1.3-1.3,2.8-3.7,4.5-7.4l47.3-98.9c1.5-3.1,2.3-5.7,2.3-7.5c0-2.9-1.8-5-5.5-6.2v-3h45.6v3
		c-3.7,1.1-5.6,2.9-5.6,5.6c0,1.8,0.6,3.9,1.8,6.2l49,99.1c2.1,4.2,3.9,7.1,5.5,8.6c1.6,1.5,3.7,2.6,6.3,3.1v3H3234v-3
		c4.2-0.7,6.2-2.6,6.2-5.8c0-1.3-0.6-3.3-1.9-5.8L3229.5,717.3z M3221.4,699.6l-20.9-45.8l-21.2,45.8H3221.4z"/>
</g>
<line class="st4" x1="1788.5" y1="817.5" x2="3280.7" y2="817.5"/>
<g>
	<path class="st3" d="M1829.3,878.2v56.1c0,1.1,0.3,2,0.8,2.5c0.5,0.6,1.4,1,2.7,1.4v1.7h-23.1v-1.7c1.3-0.4,2.2-0.8,2.7-1.4
		c0.5-0.6,0.8-1.4,0.8-2.5v-56.1h-23c-1.1,0-1.9,0.2-2.5,0.7c-0.6,0.5-1,1.4-1.4,2.7h-1.7v-19.1h1.7c0.4,1.3,0.9,2.2,1.4,2.7
		c0.6,0.5,1.4,0.7,2.5,0.7h62.1c1.1,0,2-0.2,2.5-0.7s1-1.4,1.4-2.7h1.7v19.1h-1.7c-0.4-1.3-0.8-2.2-1.4-2.7
		c-0.6-0.5-1.4-0.7-2.5-0.7H1829.3z"/>
	<path class="st3" d="M1918.5,915.1v19.4c0,1.1,0.3,2,0.8,2.6c0.5,0.6,1.4,1.1,2.7,1.5v1.5h-21.5v-1.5c1.3-0.3,2.2-0.8,2.7-1.4
		c0.5-0.6,0.8-1.5,0.8-2.6v-49.6c0-1.1-0.3-2-0.8-2.5c-0.5-0.6-1.4-1.1-2.7-1.5v-1.5h39.8c5.2,0,9.1,0.3,11.8,0.8
		c2.7,0.5,5.1,1.5,7.3,2.8c4.4,2.9,6.6,7.5,6.6,14c0,4.9-1.3,8.8-4,11.5c-2.7,2.8-7,4.8-13,6l11.5,16c2.1,3,3.8,5,5,6
		c1.2,1.1,2.7,1.7,4.3,2v1.5h-25.5v-1.5c1.9-0.5,2.8-1.3,2.8-2.4c0-0.8-0.6-2-1.7-3.6l-12.1-17.4H1918.5z M1918.5,904.1h21.9
		c3.3,0,5.8-0.4,7.4-1.1c2.2-1,3.4-2.9,3.4-5.8c0-2.6-0.8-4.4-2.4-5.4c-1.6-1-4.4-1.5-8.4-1.5h-21.9V904.1z"/>
	<path class="st3" d="M2059.3,924.8h-27.9l-3.1,6.6c-0.8,1.6-1.1,2.8-1.1,3.7c0,1.7,1.2,2.8,3.5,3.3v1.5h-22.3v-1.5
		c1.4-0.2,2.4-0.6,3.1-1.2s1.5-1.8,2.4-3.6l22.2-44.9c0.8-1.7,1.2-3.2,1.2-4.4c0-1.5-1-2.6-3-3.5v-1.5h23.6v1.5c-2,0.8-3,2-3,3.7
		c0,1.2,0.5,2.7,1.4,4.4l23,43.5c1.3,2.4,2.3,3.9,3,4.6c0.7,0.7,1.8,1.2,3.3,1.5v1.5h-24.8v-1.5c2.3-0.4,3.5-1.5,3.5-3.3
		c0-1.1-0.5-2.5-1.4-4.2L2059.3,924.8z M2055,916.3l-9.9-19.5l-9.5,19.5H2055z"/>
	<path class="st3" d="M2130.5,934.5v-49.6c0-1.1-0.3-2-0.8-2.5c-0.5-0.6-1.4-1.1-2.7-1.5v-1.5h35.6c7.4,0,13.2,0.9,17.5,2.8
		c6,2.6,10.3,6.9,13,12.9c1.8,4.2,2.8,9.1,2.8,14.7c0,10.4-3.1,18.2-9.3,23.6c-2.8,2.4-6.1,4.1-9.8,5.2c-3.8,1.1-8.5,1.6-14.1,1.6
		H2127v-1.5c1.3-0.3,2.2-0.8,2.7-1.4C2130.2,936.5,2130.5,935.6,2130.5,934.5z M2145,929h15.5c7.1,0,12.3-1.6,15.5-4.9
		c3.4-3.4,5-8.2,5-14.5c0-6.3-1.7-11.1-5-14.5c-1.7-1.7-3.7-2.9-6.2-3.7c-2.5-0.8-5.6-1.2-9.3-1.2H2145V929z"/>
	<path class="st3" d="M2259.7,914.2V929h38.5c1.1,0,2-0.2,2.6-0.7c0.6-0.5,1.1-1.4,1.4-2.7h1.5v17.9h-1.5c-0.3-1.3-0.8-2.2-1.4-2.7
		c-0.6-0.5-1.5-0.8-2.6-0.8h-56.5v-1.5c1.3-0.3,2.2-0.8,2.7-1.4c0.5-0.6,0.8-1.5,0.8-2.6v-49.6c0-1.1-0.3-2-0.8-2.5
		c-0.5-0.6-1.4-1.1-2.7-1.5v-1.5h54.8c1.2,0,2-0.3,2.6-0.8c0.6-0.5,1.1-1.4,1.4-2.7h1.5v17.9h-1.5c-0.4-1.3-0.8-2.2-1.4-2.7
		c-0.6-0.5-1.5-0.7-2.6-0.7h-36.9v13.3h22.9c1.1,0,2-0.3,2.6-0.8c0.6-0.5,1.1-1.4,1.5-2.7h1.5v17.5h-1.5c-0.4-1.3-0.8-2.2-1.4-2.7
		c-0.6-0.5-1.5-0.8-2.6-0.8H2259.7z"/>
	<path class="st3" d="M2434.9,927.8h45.5c1.1,0,2-0.3,2.5-0.8c0.6-0.5,1-1.4,1.4-2.7h1.7v19.1h-1.7c-0.4-1.3-0.8-2.2-1.4-2.7
		c-0.6-0.5-1.4-0.8-2.5-0.8h-65.1v-1.7c1.3-0.4,2.2-0.8,2.7-1.4c0.5-0.6,0.8-1.4,0.8-2.5v-62.6c0-1.1-0.3-2-0.8-2.5
		c-0.5-0.6-1.4-1-2.7-1.4V866h23.1v1.7c-1.3,0.3-2.2,0.8-2.7,1.4c-0.5,0.6-0.8,1.5-0.8,2.6V927.8z"/>
	<path class="st3" d="M2563.3,878c9.7,0,17.7,2.5,24.1,7.4c7.7,5.9,11.6,14.2,11.6,24.8c0,9.9-3.9,17.9-11.6,23.8
		c-6.4,4.9-14.4,7.4-24,7.4c-9.7,0-17.7-2.5-24-7.4c-7.7-5.9-11.6-14-11.6-24.3c0-10.4,3.9-18.5,11.6-24.3
		C2545.8,880.6,2553.8,878.1,2563.3,878z M2563.4,889.5c-6.3,0-11.4,2-15.3,6c-3.7,3.8-5.5,8.5-5.5,14.1c0,5.6,1.8,10.3,5.5,14.1
		c3.9,4,9.1,6.1,15.4,6.1c6.3,0,11.4-2,15.3-6.1c3.7-3.7,5.5-8.3,5.5-13.8c0-6-1.8-10.8-5.5-14.4
		C2574.7,891.6,2569.6,889.6,2563.4,889.5z"/>
	<path class="st3" d="M2699.6,916.6h-13.8c-1.2,0-2,0.3-2.6,0.8c-0.6,0.5-1.1,1.4-1.4,2.7h-1.5V904h1.5c0.4,1.3,0.8,2.2,1.4,2.7
		c0.6,0.5,1.5,0.8,2.6,0.8h28.9v1.6c-1.3,0.4-2.2,0.9-2.7,1.6c-0.5,0.7-0.8,1.7-0.8,2.9v12.8c0,1.1,0.3,2,0.8,2.6
		c0.5,0.6,1.4,1.1,2.7,1.5v1.2c-11.7,6.5-23.4,9.7-35,9.7c-10,0-18.2-2.4-24.4-7.1c-3.4-2.6-6.1-5.8-8.1-9.6
		c-2.4-4.6-3.6-9.4-3.6-14.6c0-7.2,2.2-13.5,6.6-19.1c6.9-8.6,17-12.9,30.5-12.9c5.9,0,12.6,1.3,20.2,3.9c3,1,4.8,1.5,5.3,1.5
		c0.6,0,1.3-0.3,2.2-0.9l1.3,0.7l-7.2,15.3l-1.3-0.7c0-0.1,0-0.3,0-0.3c0-1.3-1.3-2.7-4-4.1c-4.9-2.6-10.3-4-15.9-4
		c-6.5,0-11.9,1.8-16.1,5.4c-4.4,3.8-6.6,8.8-6.6,15.2c0,6,2,10.7,6,14.3c4.1,3.7,9.9,5.5,17.3,5.5c7.1,0,13.1-1.3,17.9-4V916.6z"/>
	<path class="st3" d="M2779.4,884.8v49.6c0,1.1,0.3,2,0.8,2.6c0.5,0.6,1.4,1.1,2.7,1.5v1.5h-21.5v-1.5c1.3-0.3,2.2-0.8,2.7-1.4
		c0.5-0.6,0.8-1.5,0.8-2.6v-49.6c0-1.1-0.3-2-0.8-2.5c-0.5-0.6-1.4-1.1-2.7-1.5v-1.5h21.5v1.5c-1.3,0.4-2.2,0.8-2.7,1.4
		C2779.7,882.8,2779.4,883.7,2779.4,884.8z"/>
	<path class="st3" d="M2888.5,884.8l-7.3,14.1l-1.3-0.7c0-1.2-0.4-2.1-1.1-2.8c-2.1-1.8-5.1-3.4-9.1-4.6c-4-1.2-8.1-1.8-12.2-1.8
		c-3.5,0-6.6,0.5-9.3,1.5c-3.9,1.4-5.9,3.5-5.9,6.1c0,1.8,0.9,3,2.8,3.8c1.9,0.7,5.5,1.3,10.9,1.8l8.6,0.7c7.5,0.6,13.2,2,17.1,4.3
		c2.2,1.3,4,3,5.4,5.2c1.8,2.7,2.7,5.8,2.7,9.2c0,6.2-2.8,11.1-8.3,14.6c-5.3,3.4-12.5,5.1-21.6,5.1c-9.1,0-18-1.9-26.5-5.8
		c-0.6-0.3-1.1-0.4-1.5-0.4c-0.7,0-1.4,0.4-2,1.3l-1.4-0.5l6.2-14.9l1.4,0.5c0,0.2,0,0.4,0,0.4c0,0.9,0.4,1.7,1.1,2.4
		c1.8,1.6,4.9,3,9.4,4.1c4.4,1.2,8.8,1.8,13.2,1.8c3.8,0,7.3-0.5,10.3-1.5c3.8-1.2,5.6-3.2,5.6-6c0-2.2-1.3-3.7-3.9-4.6
		c-1.7-0.6-4.9-1.1-9.4-1.5l-8.5-0.7c-4.6-0.4-8.1-0.8-10.5-1.4c-2.4-0.6-4.5-1.4-6.3-2.5c-2.3-1.4-4.1-3.4-5.4-5.9s-2-5.2-2-8.2
		c0-6.6,2.9-11.7,8.6-15.2c5.2-3.2,11.6-4.8,19.3-4.8c4.2,0,8,0.5,11.6,1.4c3.6,0.9,7.9,2.5,12.9,4.9c1.5,0.7,2.5,1,3.1,1
		s1.3-0.4,2.2-1.2L2888.5,884.8z"/>
	<path class="st3" d="M2968.6,890.3v44.1c0,1.1,0.3,2,0.8,2.6c0.5,0.6,1.4,1.1,2.7,1.5v1.5h-21.5v-1.5c1.3-0.3,2.2-0.8,2.7-1.4
		c0.5-0.6,0.8-1.5,0.8-2.6v-44.2h-17.9c-1.2,0-2,0.3-2.6,0.8c-0.6,0.5-1.1,1.4-1.4,2.7h-1.5v-17.9h1.5c0.3,1.3,0.8,2.2,1.4,2.7
		c0.6,0.5,1.5,0.8,2.6,0.8h50.3c1.2,0,2-0.3,2.6-0.8c0.6-0.5,1.1-1.4,1.4-2.7h1.5v17.9h-1.5c-0.4-1.3-0.8-2.2-1.4-2.7
		c-0.6-0.5-1.5-0.8-2.6-0.8H2968.6z"/>
	<path class="st3" d="M3052.9,884.8v49.6c0,1.1,0.3,2,0.8,2.6c0.5,0.6,1.4,1.1,2.7,1.5v1.5h-21.5v-1.5c1.3-0.3,2.2-0.8,2.7-1.4
		c0.5-0.6,0.8-1.5,0.8-2.6v-49.6c0-1.1-0.3-2-0.8-2.5c-0.5-0.6-1.4-1.1-2.7-1.5v-1.5h21.5v1.5c-1.3,0.4-2.2,0.8-2.7,1.4
		C3053.2,882.8,3052.9,883.7,3052.9,884.8z"/>
	<path class="st3" d="M3163,918.2l9.2,13.4l-1.2,0.9c-0.9-0.6-1.6-0.9-2.1-0.9c-0.6,0-2,0.7-4.3,2c-5,2.9-9.3,4.9-13.1,6
		c-3.8,1.1-8.2,1.7-13.1,1.7c-9.9,0-18-2.4-24.2-7.1c-3.5-2.7-6.4-6.1-8.5-10.2c-2.2-4.4-3.4-9.2-3.4-14.4c0-7.1,2.1-13.4,6.2-18.9
		c6.5-8.5,16.4-12.8,29.8-12.8c4.9,0,9.3,0.6,13.2,1.7c3.8,1.1,8.2,3.1,13.1,6c2.2,1.3,3.7,2,4.3,2c0.5,0,1.2-0.3,2.1-0.9l1.2,1
		L3163,901l-1.2-0.9c0-0.4,0.1-0.7,0.1-0.8c0-0.3,0.1-0.6,0.1-0.7c0-1.8-2.4-3.8-7.3-6c-4.6-2.1-9.3-3.2-14-3.2
		c-6.6,0-12,1.7-16.3,5.2c-4.9,3.9-7.3,8.9-7.3,15c0,6.1,2.4,11.1,7.3,15c4.3,3.4,9.7,5.1,16.3,5.1c5.1,0,10.2-1.3,15.3-3.8
		c4-2,6-3.8,6-5.3c0-0.1-0.1-0.6-0.2-1.5L3163,918.2z"/>
	<path class="st3" d="M3276,884.8l-7.3,14.1l-1.3-0.7c0-1.2-0.4-2.1-1.1-2.8c-2.1-1.8-5.1-3.4-9.1-4.6c-4-1.2-8.1-1.8-12.2-1.8
		c-3.5,0-6.6,0.5-9.3,1.5c-3.9,1.4-5.9,3.5-5.9,6.1c0,1.8,0.9,3,2.8,3.8c1.9,0.7,5.5,1.3,10.9,1.8l8.6,0.7c7.5,0.6,13.2,2,17.1,4.3
		c2.2,1.3,4,3,5.4,5.2c1.8,2.7,2.7,5.8,2.7,9.2c0,6.2-2.8,11.1-8.3,14.6c-5.3,3.4-12.5,5.1-21.6,5.1c-9.1,0-18-1.9-26.5-5.8
		c-0.6-0.3-1.1-0.4-1.5-0.4c-0.7,0-1.4,0.4-2,1.3l-1.4-0.5l6.2-14.9l1.4,0.5c0,0.2,0,0.4,0,0.4c0,0.9,0.4,1.7,1.1,2.4
		c1.8,1.6,4.9,3,9.4,4.1c4.4,1.2,8.8,1.8,13.2,1.8c3.8,0,7.3-0.5,10.3-1.5c3.8-1.2,5.6-3.2,5.6-6c0-2.2-1.3-3.7-3.9-4.6
		c-1.7-0.6-4.9-1.1-9.4-1.5l-8.5-0.7c-4.6-0.4-8.1-0.8-10.5-1.4c-2.4-0.6-4.5-1.4-6.3-2.5c-2.3-1.4-4.1-3.4-5.4-5.9s-2-5.2-2-8.2
		c0-6.6,2.9-11.7,8.6-15.2c5.2-3.2,11.6-4.8,19.3-4.8c4.2,0,8,0.5,11.6,1.4c3.6,0.9,7.9,2.5,12.9,4.9c1.5,0.7,2.5,1,3.1,1
		s1.3-0.4,2.2-1.2L3276,884.8z"/>
</g>
</svg>
